<svg id="Слой_1" data-name="Слой 1" xmlns="http://www.w3.org/2000/svg" viewBox="0 0 141.73 141.73"><defs><style>.cls-1{fill:#4fa0ca;}</style></defs><title>all icons</title><path class="cls-1" d="M82.67,19.33c-31.43,0-57,23.16-57,51.63s25.57,51.63,57,51.63a61.6,61.6,0,0,0,28.43-6.87,3,3,0,0,1,2.46-.15l17.6,6.59L126.56,106a3,3,0,0,1,.64-2.84A48.15,48.15,0,0,0,139.68,71C139.68,42.49,114.11,19.33,82.67,19.33Z"/><path d="M66,56.53a13.75,13.75,0,0,1-10.36-4.24,10,10,0,0,1-2.52-7.87C53.83,38.12,60.54,33,68,33a13.87,13.87,0,0,1,10.45,4.32A9.88,9.88,0,0,1,81,45.12C80.26,51.52,73.66,56.53,66,56.53ZM68,39.05c-4.38,0-8.55,2.83-8.93,6.07a3.89,3.89,0,0,0,1,3.14A7.85,7.85,0,0,0,66,50.48c4.51,0,8.64-2.77,9-6.06a3.89,3.89,0,0,0-1-3.07A8,8,0,0,0,68,39.05Z"/><path d="M62.71,114.91c-.26,0-7,.26-11.46-5.13-2.76-3.35-3.66-8-2.75-13.29v0c.31-1.67,2.61-13.4,2.77-14.15,1.65-8.23-.09-9.47-.83-10a4.82,4.82,0,0,1-1.6-1.65A3.75,3.75,0,0,1,49,66.89c2.1-3.85,8.95-7.76,15.5-7.23A14.31,14.31,0,0,1,75,65c2.62,3.46,3.45,8.08,2.4,13.36v0c-1,4.89-2,9.27-2.48,11.62l-.4,1.88c-1.43,8.25.34,9.43,1.1,9.94a4.82,4.82,0,0,1,1.64,1.61,3.75,3.75,0,0,1,0,3.77C75.3,111,69,114.91,62.71,114.91ZM54.47,97.53c-.6,3.55-.08,6.48,1.51,8.47a8.26,8.26,0,0,0,6.26,2.84,12.43,12.43,0,0,0,6.1-1.47,11.9,11.9,0,0,0,2.45-1.64c-2.2-2.16-3.76-6-2.22-14.86v0c0-.13.09-.46.44-2.05.51-2.35,1.45-6.71,2.47-11.57.7-3.53.25-6.47-1.29-8.51a8.26,8.26,0,0,0-6.18-3A12.43,12.43,0,0,0,57.87,67a11.91,11.91,0,0,0-2.49,1.58c2.14,2.22,3.6,6.13,1.83,14.92v0C57.11,84,54.79,95.73,54.47,97.53Z"/><path d="M117.41,132.35a3,3,0,0,1-1.06-.19l-22-8.23a67.81,67.81,0,0,1-30,6.94,65.75,65.75,0,0,1-44.49-16.8c-12-10.9-18.57-25.43-18.57-40.89s6.6-30,18.57-40.89A65.75,65.75,0,0,1,64.35,15.5a65.75,65.75,0,0,1,44.49,16.8c12,10.9,18.57,25.43,18.57,40.89a54.72,54.72,0,0,1-12.9,35l5.81,20.34a3,3,0,0,1-2.91,3.86ZM64.35,21.55c-31.43,0-57,23.16-57,51.63s25.57,51.63,57,51.63a61.6,61.6,0,0,0,28.43-6.87,3,3,0,0,1,2.46-.15l17.6,6.59-4.61-16.13a3,3,0,0,1,.64-2.84,48.15,48.15,0,0,0,12.48-32.23C121.36,44.72,95.78,21.55,64.35,21.55Z"/></svg>