<svg id="Слой_1" data-name="Слой 1" xmlns="http://www.w3.org/2000/svg" viewBox="0 0 141.73 141.73"><defs><style>.cls-1{fill:#4fa0ca;}</style></defs><title>all icons</title><polygon class="cls-1" points="46.28 137.93 16.32 137.93 16.32 79.02 46.28 79.02 46.28 137.93 46.28 137.93"/><path class="cls-1" d="M117.23,135.56H88.64a60.38,60.38,0,0,1-26.12-6l-4.39-2.12a3,3,0,0,0-1.32-.3H52.33V88.24h8a3,3,0,0,0,1.94-.7L75.18,76.77A41.94,41.94,0,0,0,87.92,58.26l2.42-7A4.09,4.09,0,0,1,98.12,53s0,7.22,0,7.22A35.67,35.67,0,0,1,95,74.73l-3.52,7.9a3,3,0,0,0-.13,2.11,3.11,3.11,0,0,0,2.9,2.18h30.55a3.81,3.81,0,0,1,0,7.63h-4.3a3,3,0,1,0,0,6h1.78a3.81,3.81,0,1,1,0,7.63H118a3,3,0,0,0,0,6h1.78a3.81,3.81,0,1,1,0,7.63h-4.3a3,3,0,0,0,0,6h1.78a3.81,3.81,0,1,1,0,7.63Z"/><path d="M128.65,95.3a9.8,9.8,0,0,0-1.73-5.57,9.85,9.85,0,0,0-5.61-18H95.4L97,68.09a41.68,41.68,0,0,0,3.64-17s0-7.19,0-7.23a10.13,10.13,0,0,0-19.53-3.79c-.07.17-2.43,7.12-2.43,7.12A35.9,35.9,0,0,1,67.82,63L55.8,73.1h-7V69.92a6.05,6.05,0,0,0-6-6h-30a6.05,6.05,0,0,0-6,6v58.91a6.05,6.05,0,0,0,6,6h30a6.05,6.05,0,0,0,6-6V124.1h3.79l3.77,1.82a66.46,66.46,0,0,0,28.75,6.59h28.58a9.85,9.85,0,0,0,8.13-15.43,9.84,9.84,0,0,0,2.52-13.67A9.85,9.85,0,0,0,128.65,95.3ZM42.8,128.83h-30V69.92h30v58.91Zm70.94-2.37H85.16a60.38,60.38,0,0,1-26.12-6l-4.39-2.12a3,3,0,0,0-1.32-.3H48.85V79.14h8a3,3,0,0,0,1.94-.7L71.7,67.68A41.94,41.94,0,0,0,84.45,49.16l2.42-7a4.09,4.09,0,0,1,7.78,1.76s0,7.22,0,7.22a35.67,35.67,0,0,1-3.11,14.54L88,73.53a3,3,0,0,0-.13,2.11,3.11,3.11,0,0,0,2.9,2.18h30.55a3.81,3.81,0,0,1,0,7.63H117a3,3,0,1,0,0,6h1.78a3.81,3.81,0,1,1,0,7.63h-4.3a3,3,0,1,0,0,6h1.78a3.81,3.81,0,1,1,0,7.63H112a3,3,0,1,0,0,6h1.78a3.81,3.81,0,1,1,0,7.63Z"/><path d="M56.45,29.35l9.16,7.54c2.64,2.17,6.45-1.59,3.78-3.78l-9.16-7.54c-2.64-2.17-6.45,1.59-3.78,3.78Z"/><path d="M93.84,20.94c-.27-5-1-10-1.25-15-.18-3.43-5.53-3.45-5.35,0,.27,5,1,10,1.25,15,.18,3.43,5.53,3.45,5.35,0Z"/><path d="M114,36.62l8-6.15a2.76,2.76,0,0,0,1-3.66c-.66-1.13-2.51-1.84-3.66-1l-8,6.15a2.76,2.76,0,0,0-1,3.66c.66,1.13,2.51,1.84,3.66,1Z"/></svg>