<svg id="Слой_3" data-name="Слой 3" xmlns="http://www.w3.org/2000/svg" viewBox="0 0 141.73 141.73"><defs><style>.cls-1{fill:#709fcb;}.cls-2,.cls-3{fill:none;stroke:#709fcb;stroke-miterlimit:10;}.cls-2{stroke-width:1.5px;}.cls-3{stroke-width:1.49px;}</style></defs><title>icon</title><path class="cls-1" d="M29.06,95.13l-9.64,9.15c-.7.67.36,1.73,1.06,1.06l9.64-9.15c.7-.67-.36-1.73-1.06-1.06Z"/><path class="cls-1" d="M125,74.7V54.06a.76.76,0,0,0-.75-.75h-8.49a.75.75,0,0,0,0,1.5h7.7c1.24,0,0-1.25,0-.11v20a.75.75,0,0,0,1.5,0Z"/><path class="cls-1" d="M71.3,126l53.47-50.76c.7-.67-.36-1.73-1.06-1.06L70.24,124.93c-.7.67.36,1.73,1.06,1.06Z"/><path class="cls-1" d="M67.85,126.21h2.91a.75.75,0,0,0,0-1.5H67.85a.75.75,0,0,0,0,1.5Z"/><path class="cls-1" d="M23.62,125.46V107.81c0,.76-1.24.68-.3.68H67.4c.63,0-.3-1.3-.3.3v16.67a.75.75,0,0,0,1.5,0V107.74a.76.76,0,0,0-.75-.75h-45a.76.76,0,0,0-.75.75v17.72a.75.75,0,0,0,1.5,0Z"/><path class="cls-1" d="M20,126.21h2.91a.75.75,0,0,0,0-1.5H20a.75.75,0,0,0,0,1.5Z"/><path class="cls-1" d="M19.2,104.82v20.65a.75.75,0,0,0,1.5,0V104.82a.75.75,0,0,0-1.5,0Z"/><path class="cls-1" d="M71.3,105.36l53.47-50.76c.7-.67-.36-1.73-1.06-1.06L70.24,104.3c-.7.67.36,1.73,1.06,1.06Z"/><path class="cls-1" d="M70,105.49v20a.75.75,0,0,0,1.5,0V104.83a.75.75,0,0,0-1.5,0v20.64a.75.75,0,0,0,1.5,0v-20a.75.75,0,0,0-1.5,0Z"/><path class="cls-1" d="M70,104.83v.67a.75.75,0,0,0,1.5,0v-.67a.75.75,0,0,0-1.5,0Z"/><path class="cls-1" d="M20.51,105.57H70.77a.75.75,0,0,0,0-1.5H20.51a.75.75,0,0,0,0,1.5Z"/><path class="cls-1" d="M23.57,125.8,42.1,108.27c.7-.67-.36-1.73-1.06-1.06L22.51,124.74c-.7.67.36,1.73,1.06,1.06Z"/><path class="cls-1" d="M72.18,94.82H29.62c.61,0,.63,1.31.63,0V54.28c0,1.14-.29.72,1.36.72,1.24,0,.4-1.3.4.05v2.8l0,34.66a.76.76,0,0,0,.75.75l21.65-.14L68.08,93l3.59,0c1,0-.25.07-.25-.41v3a.75.75,0,0,0,1.5,0v-3.3a.76.76,0,0,0-.75-.75l-39.25.25c.73,0,.62,1.3.62-.39V87.61l0-13.24,0-20.12a.76.76,0,0,0-.75-.75H29.5a.76.76,0,0,0-.75.75V95.57a.76.76,0,0,0,.75.75H72.18A.75.75,0,0,0,72.18,94.82Z"/><path class="cls-1" d="M45.72,79.14,32.52,91.75c-.7.67.36,1.73,1.06,1.06L46.78,80.2c.7-.67-.36-1.73-1.06-1.06Z"/><path class="cls-1" d="M73.32,13H77l-.75-.75V24.05a.75.75,0,0,0,1.5,0V12.21a.76.76,0,0,0-.75-.75H73.32a.75.75,0,0,0,0,1.5Z"/><path class="cls-1" d="M30,54.78l43.82-42c.7-.67-.36-1.73-1.06-1.06L29,53.72c-.7.67.36,1.73,1.06,1.06Z"/><path class="cls-1" d="M33.29,54.78l44.2-42c.7-.67-.36-1.73-1.06-1.06l-44.2,42c-.7.67.36,1.73,1.06,1.06Z"/><path class="cls-1" d="M72.85,92.59l43.78-41.75c.7-.67-.36-1.73-1.06-1.06L71.79,91.53c-.7.67.36,1.73,1.06,1.06Z"/><path class="cls-1" d="M116.2,52.59,72,95c-.7.67.36,1.73,1.06,1.06l44.19-42.45c.7-.67-.36-1.73-1.06-1.06Z"/><path class="cls-1" d="M106.73,51.06h10l-.75-.75,0,2.81a.75.75,0,0,0,1.5,0l0-2.81a.76.76,0,0,0-.75-.75h-10a.75.75,0,0,0,0,1.5Z"/><ellipse class="cls-2" cx="60.41" cy="66.86" rx="19.09" ry="20.78" transform="translate(-29.58 62.3) rotate(-45)"/><ellipse class="cls-3" cx="60.41" cy="66.86" rx="16.89" ry="18.39" transform="translate(-29.58 62.3) rotate(-45)"/><path class="cls-2" d="M47,51,75.28,25.42s8.88-7.94,16.93-7.94c11.48,0,20.09,8.56,20.09,20,0,5.42-2.18,9.1-5.58,12.8L75.79,80.84"/></svg>