<svg id="Слой_1" data-name="Слой 1" xmlns="http://www.w3.org/2000/svg" viewBox="0 0 141.73 141.73"><defs><style>.cls-1{fill:#4fa0ca;}</style></defs><title>all icons</title><path class="cls-1" d="M75.31,70a4.44,4.44,0,1,1-4.44-4.42A4.44,4.44,0,0,1,75.31,70Zm0,0"/><path class="cls-1" d="M70.87,3.79a66.49,66.49,0,1,0,66.49,66.49A66.56,66.56,0,0,0,70.87,3.79ZM68.65,21.26a2.22,2.22,0,0,1,4.44,0v2.21a2.22,2.22,0,0,1-4.44,0Zm-44.33,51H22.11a2.22,2.22,0,0,1,0-4.44h2.22a2.22,2.22,0,1,1,0,4.44Zm15.21,32.26L38,106.06a2.2,2.2,0,0,1-1.57.65,2.22,2.22,0,0,1-1.57-3.79l1.57-1.56a2.22,2.22,0,0,1,3.14,3.13Zm0-65.82a2.23,2.23,0,0,1-1.57.65,2.2,2.2,0,0,1-1.57-.65L34.82,37.1A2.22,2.22,0,0,1,38,34l1.57,1.57a2.22,2.22,0,0,1,0,3.14Zm33.56,80.1a2.22,2.22,0,0,1-4.44,0v-2.22a2.22,2.22,0,0,1,4.44,0Zm-2.22-39.9a8.85,8.85,0,0,1-8.55-6.65H46.49a2.22,2.22,0,1,1,0-4.44H62.32a8.86,8.86,0,0,1,6.33-6.33V39a2.22,2.22,0,1,1,4.44,0V61.46a8.85,8.85,0,0,1-2.22,17.42Zm36,27.18a2.23,2.23,0,0,1-1.57.65,2.2,2.2,0,0,1-1.57-.65l-1.57-1.57a2.22,2.22,0,0,1,3.14-3.13l1.57,1.56a2.22,2.22,0,0,1,0,3.14Zm0-69-1.57,1.57a2.2,2.2,0,0,1-1.57.65,2.22,2.22,0,0,1-1.57-3.79L103.78,34a2.22,2.22,0,0,1,3.14,3.14Zm12.72,35.13h-2.22a2.22,2.22,0,1,1,0-4.44h2.22a2.22,2.22,0,0,1,0,4.44Zm0,0"/></svg>