<svg id="Слой_1" data-name="Слой 1" xmlns="http://www.w3.org/2000/svg" viewBox="0 0 141.73 141.73"><defs><style>.cls-1{fill:#4fa0ca;}</style></defs><title>all icons</title><rect class="cls-1" x="18.38" y="11" width="80.04" height="63.61" rx="11.04" ry="11.04"/><rect class="cls-1" x="58.41" y="38.6" width="80.04" height="63.61" rx="11.04" ry="11.04"/><path d="M126.25,49.09H91.55v-23a7.66,7.66,0,0,0-7.65-7.65h-73a7.66,7.66,0,0,0-7.65,7.65v51a7.66,7.66,0,0,0,7.65,7.65h7.65V97.57a2.55,2.55,0,0,0,4.35,1.8L37.5,84.81h8.13v23a7.66,7.66,0,0,0,7.65,7.65h46.4L114.24,130a2.55,2.55,0,0,0,4.36-1.8V115.42h7.65a7.66,7.66,0,0,0,7.65-7.65v-51a7.66,7.66,0,0,0-7.65-7.65Zm-72,.32c-9.66,0-8.63,6.44-8.63,7.33v23H36.44a2.55,2.55,0,0,0-1.8.75l-11,11V82.26a2.55,2.55,0,0,0-2.55-2.55H10.93a2.55,2.55,0,0,1-2.55-2.55v-51a2.55,2.55,0,0,1,2.55-2.55h73a2.55,2.55,0,0,1,2.55,2.55v23S61.16,49.41,54.25,49.41Zm74.54,58.36a2.55,2.55,0,0,1-2.55,2.55H116a2.55,2.55,0,0,0-2.55,2.55V122l-11-11a2.55,2.55,0,0,0-1.8-.75H53.28a2.55,2.55,0,0,1-2.55-2.55v-51a2.55,2.55,0,0,1,2.55-2.55h73a2.55,2.55,0,0,1,2.55,2.55Zm0,0"/><circle cx="72.27" cy="82.95" r="4.17" transform="translate(-37.49 75.4) rotate(-45)"/><circle cx="88.44" cy="82.95" r="4.17" transform="translate(-32.75 86.83) rotate(-45)"/><circle cx="104.62" cy="82.95" r="4.17" transform="translate(-28.01 98.27) rotate(-45)"/><circle cx="31.4" cy="49.83" r="4.17" transform="translate(-26.04 36.8) rotate(-45)"/><circle cx="47.57" cy="49.83" r="4.17" transform="translate(-21.3 48.23) rotate(-45)"/><circle cx="63.74" cy="49.83" r="4.17" transform="translate(-16.56 59.67) rotate(-45)"/></svg>