<svg id="Слой_1" data-name="Слой 1" xmlns="http://www.w3.org/2000/svg" viewBox="0 0 141.73 141.73"><defs><style>.cls-1{fill:#4fa0ca;}.cls-2{fill:#fff;}</style></defs><title>all icons</title><circle class="cls-1" cx="70.86" cy="70.64" r="66.44"/><path class="cls-2" d="M80,81.08c-4.13,4.13-4.13,8.25-8.25,8.25s-8.25-4.13-12.38-8.25-8.25-8.25-8.25-12.38,4.13-4.13,8.25-8.25S51.07,43.94,46.95,43.94,34.57,56.32,34.57,56.32c0,8.25,8.48,25,16.51,33s24.76,16.51,33,16.51c0,0,12.38-8.25,12.38-12.38S84.09,77,80,81.08Zm0,0"/><path class="cls-2" d="M71.31,65.48a1.54,1.54,0,0,0,1.64,1.64L89.31,66a1.54,1.54,0,0,0,1-2.63L85.94,59l14.18-14.18a1.54,1.54,0,0,0,0-2.18l-4.36-4.36a1.54,1.54,0,0,0-2.18,0L79.39,52.49,75,48.13a1.54,1.54,0,0,0-2.63,1Z"/></svg>