<svg id="Слой_1" data-name="Слой 1" xmlns="http://www.w3.org/2000/svg" viewBox="0 0 141.73 141.73">
	<defs>
		<style>
			.cls-1{fill:#4fa0ca;}
			.cls-2{fill: #f2f2f2;}
			.cls-3{fill: #f2f2f2;}
		</style>
	</defs>
	<title>all icons</title>
	<path class="cls-2" d="M3.94,112.4V110a3.69,3.69,0,0,0,.19-.44c1.25-4.3,4-6.43,8.47-6.53.3,0,.6-.06.87-.09V81.76A32,32,0,0,1,8.63,80.6c-2.69-1.1-4-3.42-4.69-6.13v-2.4c.72-2.7,2-5,4.73-6.11a31.68,31.68,0,0,1,4.78-1.13v-21A30.76,30.76,0,0,1,8.6,42.69c-2.68-1.11-4-3.44-4.66-6.15v-2.4c.15-.41.3-.81.44-1.22a7.53,7.53,0,0,1,4.75-5,31.41,31.41,0,0,1,4.42-.9c0-1,0-2.19,0-3.34A12.11,12.11,0,0,1,18,14.55a16.28,16.28,0,0,1,5.9-2.74h92.67A27.85,27.85,0,0,1,120,13a11.83,11.83,0,0,1,6.85,11.33q0,41.11,0,82.21c0,5.28.1,10.56-.06,15.84a13.91,13.91,0,0,1-1.21,5.42c-2.22,4.67-6.15,6.88-11.28,6.88q-29.88,0-59.77,0c-9.6,0-19.2,0-28.8,0a12.08,12.08,0,0,1-12.19-12.17c0-1,0-2.06,0-2.86a32.5,32.5,0,0,1-4.89-1.16C6,117.42,4.65,115.11,3.94,112.4ZM111.66,16.73a2.14,2.14,0,0,0,.17.42,13.21,13.21,0,0,1,2.08,7.74q0,18.72,0,37.45c0,2.05-.88,3.23-2.41,3.22s-2.39-1.17-2.39-3.23c0-.2,0-.4,0-.6q0-18.66,0-37.33c0-4.79-3-7.78-7.81-7.78H26.15c-4.79,0-7.79,3-7.8,7.8q0,6.6,0,13.2c0,.35,0,.69.07,1.09,2,0,4,.07,5.94,0a3.18,3.18,0,0,0,2.88-3c.12-2-1.09-3.28-3.46-3.65a2.43,2.43,0,0,1-2.26-2.48,2.5,2.5,0,0,1,2.63-2.28A8.22,8.22,0,0,1,32,34.84a8.06,8.06,0,0,1-7.73,8.66c-1.94.09-3.89,0-5.85,0V76.64h4.78c.28,0,.56,0,.84,0a3.35,3.35,0,0,0,3.14-3.88c-.24-1.56-1.39-2.52-3.4-2.84a2.39,2.39,0,1,1,.3-4.77,8.25,8.25,0,0,1,7.42,5.36A8.12,8.12,0,0,1,24,81.43c-1.83.05-3.66,0-5.53,0v33.1c2,0,3.83.06,5.7,0a3.33,3.33,0,0,0,.79-6.49,8.63,8.63,0,0,0-1.17-.22,2.39,2.39,0,1,1,.45-4.76,8.15,8.15,0,0,1-.56,16.3c-1.74,0-3.49,0-5.29,0,0,.89,0,1.61,0,2.33,0,5.36,2.86,8.24,8.2,8.24H92.2c3.2,0,6.4,0,9.6,0a7.14,7.14,0,0,0,7.16-8.15H75.65a7,7,0,0,1-1.43-.09,2.35,2.35,0,0,1,0-4.6,6.83,6.83,0,0,1,1.43-.1h33.45c0-.54,0-1,0-1.4q0-8,0-16.08,0-7.56,0-15.12a2.6,2.6,0,0,1,1.44-2.67c1.73-.8,3.36.51,3.36,2.72q0,19,0,38a12,12,0,0,1-1.91,6.71,5.29,5.29,0,0,0-.33.77h1.93c5.68,0,8.48-2.79,8.48-8.45q0-33.85,0-67.69,0-14.76,0-29.53c0-4-2.38-6.94-6.05-7.49A30.41,30.41,0,0,0,111.66,16.73ZM13.48,38.65V32.06c-1.68-.15-3.18,0-4.17,1.51a3.13,3.13,0,0,0-.09,3.5C10.18,38.7,11.71,38.88,13.48,38.65Zm0,31.32c-1.81-.18-3.34,0-4.29,1.67a3.11,3.11,0,0,0,.2,3.6c1,1.42,2.48,1.54,4.09,1.31Zm0,37.93c-1.71-.22-3.21,0-4.19,1.51a3.11,3.11,0,0,0,0,3.61c1,1.5,2.49,1.69,4.17,1.47Z"/>
	<path class="cls-3" d="M39.69,63.4a21.65,21.65,0,0,1,4.82-13.77,19.77,19.77,0,0,1,3.35-3.55,6.17,6.17,0,0,1,7.78.35c3.33,3.1,6.57,6.32,9.66,9.66a6.42,6.42,0,0,1,0,8.29,37.9,37.9,0,0,1-2.9,3c-.71.69-.81,1.28-.06,2q4.78,4.72,9.5,9.5a1.15,1.15,0,0,0,1.93,0c.74-.78,1.51-1.55,2.29-2.29a6.81,6.81,0,0,1,10,0q4.12,4,8.14,8.15c2.94,3,2.92,7.25-.12,10-3.48,3.17-7.38,5.62-12.12,6.41-6.79,1.13-13-.32-18.06-5-6.46-6-12.65-12.35-18.77-18.73A20.18,20.18,0,0,1,39.69,63.4Zm6.71-7.84a16.86,16.86,0,0,0,3.28,19.86q8,8.12,16.12,16.12a16.57,16.57,0,0,0,14.75,5A45.29,45.29,0,0,0,85.88,95c-3.77-3.76-7.22-7.21-10.7-10.63A1.52,1.52,0,0,0,74,84.19a5.34,5.34,0,0,1-4.91-1.31Q63.68,77.61,58.4,72.2a5.37,5.37,0,0,1-1.32-4.79,2.07,2.07,0,0,0-.46-1.54c-1.93-2-3.94-4-5.92-6Zm2.83-4.06L60.33,62.57c2.09-1.55,2.18-2.64.33-4.49L53.56,51C51.77,49.18,50.55,49.34,49.23,51.5ZM78.71,80.9,89.81,92c2.07-1.2,2.27-2.49.56-4.21l-7.21-7.21C81.37,78.78,80.33,78.86,78.71,80.9Z"/>
</svg>