<svg id="Слой_3" data-name="Слой 3" xmlns="http://www.w3.org/2000/svg" viewBox="0 0 141.73 141.73"><defs><style>.cls-1{fill:none;stroke:#709fcb;stroke-miterlimit:10;stroke-width:1.5px;}</style></defs><title>icon</title><path class="cls-1" d="M43.85,101.78a8.83,8.83,0,0,1,6.38-3.69c3.68-.5,10.58-4.06,11.17-6.55"/><path class="cls-1" d="M46.56,99.21a11.22,11.22,0,0,1,6.84-4.66c5-1.34,11.92-4,12-6.89"/><path class="cls-1" d="M51.28,95.31s.7-3.43,6.45-4.9c5-1.28,11.92-4,12-6.89"/><path class="cls-1" d="M43.85,101.78a2.43,2.43,0,0,1,.62-.13c4.84.13,12.18-3.15,12.47-6"/><path class="cls-1" d="M46.53,103.9c2,1.44,7-2.76,7.17-4.69"/><path class="cls-1" d="M56,90.66s0-3,6-4.66c5-1.38,11.92-4,12-6.89"/><path class="cls-1" d="M59.4,86.95s.66-3.9,6.84-5.37c5-1.19,11.92-4,12-6.89"/><path class="cls-1" d="M63.83,82.38s.86-4,6.67-5.22c5.07-1,11.92-4,12-6.89"/><path class="cls-1" d="M67.92,77.63s.91-3.5,6.84-4.88c5-1.17,11.92-4,12-6.89"/><path class="cls-1" d="M72.85,73a11.22,11.22,0,0,1,6.84-4.66c5-1.34,11.92-4,12-6.89"/><path class="cls-1" d="M77.78,68.61A11.22,11.22,0,0,1,84.62,64c5-1.34,11.92-4,12-6.89"/><path class="cls-1" d="M82.7,64.21a11.22,11.22,0,0,1,6.84-4.66c5-1.34,11.92-4,12-6.89"/><path class="cls-1" d="M87.63,59.82a11.22,11.22,0,0,1,6.84-4.66c5-1.34,11.92-4,12-6.89"/><path class="cls-1" d="M92.56,55.42s.59-3.21,6.84-4.66c5-1.17,11.92-4,12-6.89"/><path class="cls-1" d="M97.49,51s1-3.48,6.84-4.66c3.78-.77,8.51-2.74,10.75-4.76"/><path class="cls-1" d="M102.42,46.62s.81-3.23,6.84-4.66a40,40,0,0,0,5.45-1.8"/><path class="cls-1" d="M106.89,42.83s0-3.2,5.76-4.34"/><path class="cls-1" d="M107.87,40.54a3,3,0,0,1,.88-2.29c1.3-1.24,3.58-.95,5.09.64s1.67,3.88.37,5.12a3,3,0,0,1-2.64.71"/><path class="cls-1" d="M114.21,44l8-7.55,0,0c1.3-1.24,1.14-3.53-.37-5.12s-3.79-1.88-5.09-.64l0,0-8,7.55"/><path class="cls-1" d="M79.18,37.57a3.88,3.88,0,0,1,.88-1.64c1.3-1.24,3.58-.95,5.09.64s1.67,3.88.37,5.12a3,3,0,0,1-2.64.71"/><path class="cls-1" d="M85.51,41.68l8-7.55,0,0c1.3-1.24,1.14-3.53-.37-5.12s-3.79-1.88-5.09-.64l0,0-8,7.55"/><ellipse class="cls-1" cx="35.57" cy="112.84" rx="3.25" ry="3.97" transform="translate(-67.88 55.42) rotate(-43.47)"/><path class="cls-1" d="M38.3,115.72l8-7.55,0,0c1.3-1.24,1.14-3.53-.37-5.12s-3.79-1.88-5.09-.64l0,0-8,7.55"/><ellipse class="cls-1" cx="26.14" cy="91.45" rx="3.25" ry="3.97" transform="translate(-55.74 43.06) rotate(-43.47)"/><path class="cls-1" d="M28.87,94.32l8-7.55,0,0c1.3-1.24,1.14-3.53-.37-5.12s-3.79-1.88-5.09-.64l0,0-8,7.55"/><path class="cls-1" d="M36.06,81.27s11.4-5,10.5-10.05"/><path class="cls-1" d="M37.7,82.71s6-2.94,6.61-6.39"/><path class="cls-1" d="M37.7,84.88S41,83.52,41,80.82"/><path class="cls-1" d="M33.9,80.27s14-5.1,13.83-14.41"/><path class="cls-1" d="M35.8,79.11s.68-2.78,4.68-5.14c3.42-2,6.84-7,7.25-9.25a24.58,24.58,0,0,1,2.08-5.42"/><path class="cls-1" d="M38.9,74.69a21.68,21.68,0,0,1,5.42-8.06c3.83-3.46,6.83-12.22,10.83-13.06"/><path class="cls-1" d="M41,69.9a37.76,37.76,0,0,0,2.88-5.27c.42-1.42,4.42-8.27,8.4-9.48"/><path class="cls-1" d="M41.52,68.34s1.29-7.71,3.88-10.62c2-2.29,4.63-4.17,13.07-4.33,0,0,3.77.48,5-.72"/><path class="cls-1" d="M43.89,59.82s1.78-5,5.92-7c5.33-2.57,15.06,1.62,18.11-1.32"/><path class="cls-1" d="M45.73,55.93s.92-6.28,8.08-6.29,15.52,5,21.21-1.15"/><path class="cls-1" d="M52.71,49.64s1.95-2.85,10-.68,16-1.17,16.23-3.5"/><path class="cls-1" d="M59.48,48.26s1.17-2.24,6.67-.7c2.53.71,16.89-.38,17.26-7.4"/><path class="cls-1" d="M64.88,47.29a19.54,19.54,0,0,1,8.27-2.16c4.7-.13,12.41-7.13,12-8.56"/><path class="cls-1" d="M71.06,45.13a17.19,17.19,0,0,1,7.59-4.47c2.78-.62,4.48-3.18,4.39-4.95"/><path class="cls-1" d="M75.81,41.4s3.92-4.86,5.52-5.69"/></svg>