<svg id="Слой_3" data-name="Слой 3" xmlns="http://www.w3.org/2000/svg" viewBox="0 0 141.73 141.73"><defs><style>.cls-1,.cls-3,.cls-4,.cls-5{fill:none;stroke:#709fcb;stroke-miterlimit:10;}.cls-1{stroke-width:1.5px;}.cls-2{fill:#709fcb;}.cls-3{stroke-width:1.51px;}.cls-4{stroke-width:1.33px;}.cls-5{stroke-width:0.99px;}</style></defs><title>icon</title><path class="cls-1" d="M28.81,97.55c-1.41,0-5.55-2.34-5.55-5.24s4.14-5.24,5.55-5.24c.83,0,1.57.82,2,2.08"/><path class="cls-1" d="M52.51,68.1a4.28,4.28,0,0,1-1.3-2.84c0-2.89,4.14-5.24,5.55-5.24.83,0,1.57.82,2,2.08"/><path class="cls-2" d="M32.09,87.14H30.46a.75.75,0,0,0,0,1.5h1.63a.75.75,0,0,0,0-1.5Z"/><rect class="cls-1" x="28.81" y="89.75" width="12.22" height="24.76" rx="2.42" ry="2.42"/><path class="cls-1" d="M90.22,31.43a2.41,2.41,0,0,1,1.54-.55h7.38a2.42,2.42,0,0,1,2.42,2.42V35"/><path class="cls-2" d="M43.32,109.83l-3.62,3.52c-.69.68.37,1.74,1.06,1.06l3.62-3.52c.69-.68-.37-1.74-1.06-1.06Z"/><path class="cls-2" d="M100.16,31.66,40.5,90c-.69.68.37,1.74,1.06,1.06l59.66-58.34c.69-.68-.37-1.74-1.06-1.06Z"/><path class="cls-2" d="M30,91,90.76,32c.69-.68-.37-1.73-1.06-1.06L29,90c-.69.68.37,1.73,1.06,1.06Z"/><rect class="cls-1" x="43.85" y="89.7" width="12.22" height="24.76" rx="2.42" ry="2.42"/><path class="cls-1" d="M105.27,31.38a2.41,2.41,0,0,1,1.54-.55h7.38a2.42,2.42,0,0,1,2.42,2.42V45.45"/><path class="cls-2" d="M72.07,96.44,54.74,113.29c-.69.68.37,1.74,1.06,1.06L73.13,97.5c.69-.68-.37-1.74-1.06-1.06Z"/><path class="cls-2" d="M85.25,83.63l-6.87,6.69c-.69.68.37,1.74,1.06,1.06l6.87-6.69C87,84,85.94,83,85.25,83.63Z"/><path class="cls-2" d="M99.57,69.7l-6,5.88c-.69.68.37,1.74,1.06,1.06l6-5.88c.69-.68-.37-1.74-1.06-1.06Z"/><path class="cls-2" d="M113.21,56.43l-7.06,6.87c-.69.68.37,1.74,1.06,1.06l7.06-6.87c.69-.68-.37-1.74-1.06-1.06Z"/><path class="cls-2" d="M115.21,31.6,55.54,89.94c-.69.68.37,1.74,1.06,1.06l59.66-58.34c.69-.68-.37-1.74-1.06-1.06Z"/><path class="cls-2" d="M45.06,91,105.8,31.91c.69-.68-.37-1.73-1.06-1.06L44,89.91c-.69.68.37,1.73,1.06,1.06Z"/><path class="cls-1" d="M66.56,96.65c-1.17,0-2.11-1.94-2.11-4.33S65.4,88,66.56,88"/><path class="cls-1" d="M79.22,92.22c0,2.89-4.14,5.24-5.55,5.24s-2.55-2.34-2.55-5.24S72.26,87,73.67,87,79.22,89.33,79.22,92.22Z"/><path class="cls-2" d="M66.56,88.73H72a.75.75,0,0,0,0-1.5H66.56a.75.75,0,0,0,0,1.5Z"/><path class="cls-2" d="M66.56,97.4H72a.75.75,0,0,0,0-1.5H66.56a.75.75,0,0,0,0,1.5Z"/><path class="cls-1" d="M93.8,69.7c-1.17,0-2.11-1.94-2.11-4.33S92.64,61,93.8,61"/><path class="cls-1" d="M106.46,65.27c0,2.89-4.14,5.24-5.55,5.24s-2.55-2.34-2.55-5.24S99.5,60,100.91,60,106.46,62.38,106.46,65.27Z"/><path class="cls-2" d="M93.8,61.78h5.46a.75.75,0,0,0,0-1.5H93.8a.75.75,0,0,0,0,1.5Z"/><path class="cls-2" d="M93.8,70.45h5.46a.75.75,0,0,0,0-1.5H93.8a.75.75,0,0,0,0,1.5Z"/><path class="cls-1" d="M80,83.12c-1.17,0-2.11-1.94-2.11-4.33s.95-4.33,2.11-4.33"/><path class="cls-2" d="M80,75.21h5.46a.75.75,0,0,0,0-1.5H80a.75.75,0,0,0,0,1.5Z"/><path class="cls-2" d="M80,83.87h5.46a.75.75,0,0,0,0-1.5H80a.75.75,0,0,0,0,1.5Z"/><polygon class="cls-3" points="90.56 72.74 86.9 72.74 84.56 78.53 86.47 84.42 90.13 84.42 88.48 78.53 90.56 72.74"/><line class="cls-1" x1="84.9" y1="78.57" x2="88.48" y2="78.57"/><polyline class="cls-4" points="90.77 72.67 92.92 72.67 94.58 78.57 92.8 84.47 90.28 84.47"/><polyline class="cls-1" points="47.52 72.67 42.01 72.67 40.23 78.32 40.48 79.8"/><polyline class="cls-1" points="72.94 47.71 67.43 47.71 65.65 53.37 65.9 54.85"/><ellipse class="cls-5" cx="91.69" cy="78.79" rx="1.37" ry="3.65"/><ellipse class="cls-5" cx="119.37" cy="51.5" rx="1.37" ry="3.65"/><path class="cls-1" d="M107.72,55.83c-1.17,0-2.11-1.94-2.11-4.33s.95-4.33,2.11-4.33"/><path class="cls-2" d="M107.72,47.92h5.46a.75.75,0,0,0,0-1.5h-5.46a.75.75,0,0,0,0,1.5Z"/><path class="cls-2" d="M107.72,56.58h5.46a.75.75,0,0,0,0-1.5h-5.46a.75.75,0,0,0,0,1.5Z"/><polygon class="cls-3" points="118.28 45.45 114.61 45.45 112.28 51.24 114.19 57.13 117.84 57.13 116.19 51.24 118.28 45.45"/><line class="cls-1" x1="112.61" y1="51.28" x2="116.19" y2="51.28"/><polyline class="cls-4" points="118.48 45.38 120.63 45.38 122.29 51.28 120.51 57.18 118 57.18"/></svg>