<svg id="Слой_3" data-name="Слой 3" xmlns="http://www.w3.org/2000/svg" viewBox="0 0 141.73 141.73"><defs><style>.cls-1{fill:none;stroke:#709fcb;stroke-miterlimit:10;stroke-width:1.5px;}</style></defs><title>icon</title><path class="cls-1" d="M96.79,49.46a24.18,24.18,0,0,0-6.93-16.8c-8.38-8.84-21.05-10.44-28.3-3.56l.09.1-44.31,42"/><line class="cls-1" x1="47.68" y1="103.21" x2="56.63" y2="94.73"/><ellipse class="cls-1" cx="32.51" cy="87.2" rx="18.09" ry="22.06" transform="translate(-51.08 46.28) rotate(-43.47)"/><ellipse class="cls-1" cx="32.51" cy="87.2" rx="14.78" ry="18.61" transform="translate(-51.08 46.28) rotate(-43.47)"/><line class="cls-1" x1="88.74" y1="95.3" x2="79.2" y2="104.41"/><path class="cls-1" d="M60.47,82.59,95.9,50.46S100.11,45,105.67,45c7.95,0,15.54,6.38,15.85,14.65.11,3-1.11,4.92-3,7"/><path class="cls-1" d="M105.79,104.64,127.24,84.3l0,0c3.51-3.33,3.07-9.5-1-13.78S116,65.43,112.5,68.75l0,0L91.09,89.14"/><ellipse class="cls-1" cx="98.44" cy="96.89" rx="8.76" ry="10.68" transform="translate(-39.66 94.3) rotate(-43.47)"/><ellipse class="cls-1" cx="98.44" cy="96.89" rx="2.86" ry="3.49" transform="translate(-39.66 94.3) rotate(-43.47)"/><ellipse class="cls-1" cx="69.88" cy="93.44" rx="11.85" ry="14.42" transform="translate(-45.12 73.71) rotate(-43.47)"/><ellipse class="cls-1" cx="69.88" cy="93.44" rx="6.73" ry="8.19" transform="translate(-45.12 73.71) rotate(-43.47)"/></svg>