<svg id="Слой_3" data-name="Слой 3" xmlns="http://www.w3.org/2000/svg" viewBox="0 0 141.73 141.73"><defs><style>.cls-1,.cls-2{fill:none;stroke:#709fcb;stroke-miterlimit:10;}.cls-1{stroke-width:1.5px;}.cls-2{stroke-width:1.79px;}.cls-3{fill:#709fcb;}</style></defs><title>icon</title><path class="cls-1" d="M46.31,104.92l-12.08-2.09s-5.4-.45-5.4-3.88V78s-.17-1.54,1.82-1.67c.53,0,2.06-.21,2.06-.21S34,75.78,34,73.32c0,0,0-1.49,0-2,0-.73-.39-1.55-2.5-1.55h-5"/><path class="cls-2" d="M79.55,32.11s1-.49,1-2.94c0,0,0-1.49,0-2,0-.73-.39-1.55-2.5-1.55h-5"/><path class="cls-3" d="M50.84,104.62l-5.06,4.77c-.71.66.36,1.72,1.06,1.06l5.06-4.77c.71-.66-.36-1.72-1.06-1.06Z"/><path class="cls-1" d="M75.37,36V54.79a3.38,3.38,0,0,0,2.18,3"/><path class="cls-3" d="M26.47,110.67H46.31a.76.76,0,0,0,.75-.75v-5a.75.75,0,0,0-1.5,0v4.48c0,1,.76-.23.59-.23H26.47a.75.75,0,0,0,0,1.5Z"/><path class="cls-1" d="M6.77,104.92l12.08-2.09s5.4-.45,5.4-3.88V78s.17-1.54-1.82-1.67c-.53,0-2.06-.21-2.06-.21S19,75.78,19,73.32c0,0,0-1.49,0-2,0-.73.39-1.55,2.5-1.55h5"/><path class="cls-2" d="M66.08,26.15a3.09,3.09,0,0,1,2.06-.52h5"/><path class="cls-3" d="M26.62,109.17H7.13c-.8,0,.4-.06.4.61v-4.86a.75.75,0,0,0-1.5,0v5a.76.76,0,0,0,.75.75H26.62a.75.75,0,0,0,0-1.5Z"/><path class="cls-3" d="M46.84,105.24,69.53,83.86c.71-.66-.36-1.72-1.06-1.06L45.78,104.18c-.71.66.36,1.72,1.06,1.06Z"/><path class="cls-3" d="M30.19,100.68,76.33,57.2c.71-.66-.36-1.72-1.06-1.06L29.12,99.62c-.71.66.36,1.72,1.06,1.06Z"/><path class="cls-3" d="M7.3,105.24,24.78,88.77c.71-.66-.36-1.72-1.06-1.06L6.24,104.18c-.71.66.36,1.72,1.06,1.06Z"/><path class="cls-3" d="M33.94,76.11,80.08,32.64c.71-.66-.36-1.72-1.06-1.06L32.88,75.05c-.71.66.36,1.72,1.06,1.06Z"/><path class="cls-3" d="M34.45,70.2,80.59,26.73c.71-.66-.36-1.72-1.06-1.06L33.38,69.14c-.71.66.36,1.72,1.06,1.06Z"/><path class="cls-3" d="M20.06,70.6l46.4-43.88c.7-.67-.36-1.72-1.06-1.06L19,69.54c-.7.67.36,1.72,1.06,1.06Z"/><path class="cls-1" d="M91.06,105.19,79,103.1s-5.4-.45-5.4-3.88V78.28s-.17-1.54,1.82-1.67c.53,0,2.06-.21,2.06-.21s1.33-.35,1.33-2.81c0,0,0-1.49,0-2,0-.73-.39-1.55-2.5-1.55h-5"/><path class="cls-2" d="M124.3,32.37s1-.49,1-2.94c0,0,0-1.49,0-2,0-.73-.39-1.55-2.5-1.55h-5"/><path class="cls-3" d="M136.67,66.18,90.53,109.66c-.71.66.36,1.72,1.06,1.06l46.15-43.48c.71-.66-.36-1.72-1.06-1.06Z"/><path class="cls-3" d="M136.85,61l-.39,5.68c-.07,1,1.43,1,1.5,0l.39-5.68c.07-1-1.43-1-1.5,0Z"/><path class="cls-1" d="M120.12,36.31V55.05c0,3.43,5.4,3.88,5.4,3.88L137.6,61"/><path class="cls-3" d="M71.22,110.94H91.06a.76.76,0,0,0,.75-.75v-5a.75.75,0,0,0-1.5,0v4.48c0,1,.76-.23.59-.23H71.22a.75.75,0,0,0,0,1.5Z"/><path class="cls-1" d="M51.52,105.19,63.6,103.1s5.4-.45,5.4-3.88V78.28s.17-1.54-1.82-1.67c-.53,0-2.06-.21-2.06-.21s-1.33-.35-1.33-2.81c0,0,0-1.49,0-2,0-.73.39-1.55,2.5-1.55h5"/><path class="cls-2" d="M110.82,26.41a3.09,3.09,0,0,1,2.06-.52h5"/><path class="cls-3" d="M71.36,109.44H51.87c-.8,0,.4-.06.4.61v-4.86a.75.75,0,0,0-1.5,0v5a.76.76,0,0,0,.75.75H71.36a.75.75,0,0,0,0-1.5Z"/><path class="cls-3" d="M91.59,105.51,137.73,62c.71-.66-.36-1.72-1.06-1.06L90.53,104.45c-.71.66.36,1.72,1.06,1.06Z"/><path class="cls-3" d="M74.93,100.95l46.15-43.48c.71-.66-.36-1.72-1.06-1.06L73.87,99.89c-.71.66.36,1.72,1.06,1.06Z"/><path class="cls-3" d="M52.05,105.51,69.53,89c.71-.66-.36-1.72-1.06-1.06L51,104.45c-.71.66.36,1.72,1.06,1.06Z"/><path class="cls-3" d="M78.69,76.38,124.83,32.9c.71-.66-.36-1.72-1.06-1.06L77.63,75.32c-.71.66.36,1.72,1.06,1.06Z"/><path class="cls-3" d="M79.19,70.47,125.34,27c.71-.66-.36-1.72-1.06-1.06L78.13,69.41c-.71.66.36,1.72,1.06,1.06Z"/><path class="cls-3" d="M64.81,70.87,111.2,27c.7-.67-.36-1.72-1.06-1.06L63.75,69.81c-.7.67.36,1.72,1.06,1.06Z"/><ellipse class="cls-1" cx="38.55" cy="80.36" rx="2.11" ry="4.33"/><ellipse class="cls-1" cx="52.33" cy="67.88" rx="2.11" ry="4.33"/><ellipse class="cls-1" cx="60.14" cy="61.23" rx="2.11" ry="4.33"/><ellipse class="cls-1" cx="86.22" cy="79.24" rx="2.11" ry="4.33"/><ellipse class="cls-1" cx="100" cy="66.76" rx="2.11" ry="4.33"/><ellipse class="cls-1" cx="107.81" cy="60.11" rx="2.11" ry="4.33"/></svg>