<svg id="Слой_3" data-name="Слой 3" xmlns="http://www.w3.org/2000/svg" viewBox="0 0 141.73 141.73"><defs><style>.cls-1,.cls-3,.cls-4{fill:none;}.cls-1,.cls-4{stroke:#709fcb;stroke-miterlimit:10;}.cls-1{stroke-width:1.5px;}.cls-2{fill:#709fcb;}.cls-4{stroke-width:1.55px;}</style></defs><title>icon</title><path class="cls-1" d="M64.63,101.07c-15-.41-29.25-5.3-29.25-11.28"/><path class="cls-1" d="M65.4,16.5c4.42,4.42-3.07,19.07-14.18,30.17S25.53,65.21,21.11,60.79s3-19,14.12-30.11S61,12.08,65.4,16.5Z"/><path class="cls-1" d="M63.43,18.47c3.3,3.3-4.11,16.06-14.23,26.18S26.38,62.12,23.08,58.82s4.06-16,14.18-26.12S60.14,15.17,63.43,18.47Z"/><path class="cls-2" d="M65,17.14c13.33,9.13,23,24.46,28.22,39.44.31.91,1.76.52,1.45-.4-5.33-15.37-15.24-31-28.91-40.34-.8-.55-1.55.75-.76,1.3Z"/><path class="cls-2" d="M20.58,61.32c8.45,6.8,13.48,17.8,14,28.47.05,1,1.55,1,1.5,0-.58-11-5.72-22.48-14.48-29.53-.75-.6-1.81.45-1.06,1.06Z"/><path class="cls-3" d="M122.46,107.7s-2.62,11.63-30.72,10.51c-27.14-1.08-27.51-10.51-27.51-10.51l.37-5.61,13.29-35V62s3-5.58,15.44-5.58c12.91,0,15.48,5.58,15.48,5.58v5.12l13.29,35Z"/><path class="cls-1" d="M122.46,107.7c0,5.81-14.55,10.51-29.15,10.51S64.23,113.5,64.23,107.7"/><path class="cls-1" d="M122.09,102.09c0,5.73-14.37,10.38-28.79,10.38s-28.71-4.65-28.71-10.38"/><path class="cls-1" d="M108.8,62c0,3.08-7.73,5.58-15.48,5.58S77.89,65,77.89,62s7.68-5.58,15.44-5.58S108.8,58.87,108.8,62Z"/><path class="cls-1" d="M108.8,67.08c0,3.08-7.73,5.58-15.48,5.58s-15.44-2.5-15.44-5.58"/><path class="cls-4" d="M79.75,64.51c2.75-1.79,8.14-3,13.57-3s10.84,1.22,13.6,3"/><path class="cls-2" d="M123.21,108.22c0-2.51.32-4.89-.58-7.23L118.1,89.19l-8.58-22.32c-.34-.89-1.79-.51-1.45.4l8.23,21.42,4.54,11.81c1,2.64.86,4.82.86,7.71a.75.75,0,0,0,1.5,0Z"/><path class="cls-2" d="M78.64,67.08V62a.75.75,0,0,0-1.5,0v5.12a.75.75,0,0,0,1.5,0Z"/><path class="cls-2" d="M109.55,67.08V62a.75.75,0,0,0-1.5,0v5.12a.75.75,0,0,0,1.5,0Z"/><path class="cls-2" d="M65,107.7c0-2.63-.24-4.86.7-7.28l4.49-11.52,8.43-21.62c.35-.9-1.1-1.29-1.45-.4L68.73,88.5l-4.66,11.94c-.92,2.35-.59,4.74-.59,7.26a.75.75,0,0,0,1.5,0Z"/></svg>