<svg id="Слой_3" data-name="Слой 3" xmlns="http://www.w3.org/2000/svg" viewBox="0 0 141.73 141.73"><defs><style>.cls-1{fill:#709fcb;}</style></defs><title>icon</title><path class="cls-1" d="M79.24,53,70.76,41c-.55-.78-1.85,0-1.3.76l8.48,12c.55.78,1.85,0,1.3-.76Z"/><path class="cls-1" d="M85.79,62.3l-4.51-6.4c-.55-.78-1.85,0-1.3.76l4.51,6.4c.55.78,1.85,0,1.3-.76Z"/><path class="cls-1" d="M94.21,74.26l-6.31-9c-.55-.78-1.85,0-1.3.76l6.31,9c.55.78,1.85,0,1.3-.76Z"/><path class="cls-1" d="M99.64,76.68l3.17,4.51.27-1-3.83,2.45,1,.27-3.7-5.26c-.55-.78-1.85,0-1.3.76L99,83.64a.76.76,0,0,0,1,.27l3.83-2.45a.75.75,0,0,0,.27-1l-3.17-4.51c-.55-.78-1.85,0-1.3.76Z"/><path class="cls-1" d="M90,63l6.83,9.69c.55.78,1.85,0,1.3-.76l-6.83-9.69c-.55-.78-1.85,0-1.3.76Z"/><path class="cls-1" d="M84.4,55l3.52,5c.55.78,1.85,0,1.3-.76l-3.52-5c-.55-.78-1.85,0-1.3.76Z"/><path class="cls-1" d="M72.75,38.5l9.64,13.69c.55.78,1.85,0,1.3-.76L74,37.74c-.55-.78-1.85,0-1.3.76Z"/><path class="cls-1" d="M68.63,37.93l-2.12-3-.27,1,3.83-2.45-1-.27,1.58,2.24c.55.78,1.85,0,1.3-.76l-1.58-2.24a.76.76,0,0,0-1-.27l-3.83,2.45a.75.75,0,0,0-.27,1l2.12,3c.55.78,1.85,0,1.3-.76Z"/><path class="cls-1" d="M41.51,75.34l-3-3c-.68-.69-1.74.37-1.06,1.06l3,3c.68.69,1.74-.37,1.06-1.06Z"/><path class="cls-1" d="M55.06,89.15,44.41,78.3c-.68-.69-1.74.37-1.06,1.06L54,90.21c.68.69,1.74-.37,1.06-1.06Z"/><path class="cls-1" d="M59.81,94l-2.18-2.22c-.68-.69-1.74.37-1.06,1.06L58.75,95c.68.69,1.74-.37,1.06-1.06Z"/><path class="cls-1" d="M65.5,95.45l1.58,1.61V96l-3.24,3.18H64.9l-2.2-2.24C62,96.25,61,97.31,61.64,98l2.2,2.24a.76.76,0,0,0,1.06,0l3.24-3.18a.76.76,0,0,0,0-1.06l-1.58-1.61c-.68-.69-1.74.37-1.06,1.06Z"/><path class="cls-1" d="M60,89.81l2.42,2.46c.68.69,1.74-.37,1.06-1.06L61,88.75c-.68-.69-1.74.37-1.06,1.06Z"/><path class="cls-1" d="M47,76.56,57.41,87.2c.68.69,1.74-.37,1.06-1.06L48,75.5c-.68-.69-1.74.37-1.06,1.06Z"/><path class="cls-1" d="M40.72,70.19l3.6,3.67c.68.69,1.74-.37,1.06-1.06l-3.6-3.67c-.68-.69-1.74.37-1.06,1.06Z"/><path class="cls-1" d="M36,69.7l-1.82-1.85V68.9l3.24-3.18H36.34l1.82,1.85c.68.69,1.74-.37,1.06-1.06L37.4,64.66a.76.76,0,0,0-1.06,0L33.1,67.84a.76.76,0,0,0,0,1.06l1.82,1.85c.68.69,1.74-.37,1.06-1.06Z"/><path class="cls-1" d="M33.1,76.81,22.93,87l-6,6-1.26,1.26c.19-.19,1.29.42.46-.43L14.2,91.86c.51.52-.5,1.28.64.13l2.5-2.5,6.88-6.87,6-6,1.33-1.33c-.71.71-1.2-.19,0,1l1.55,1.58c.68.69,1.74-.37,1.06-1.06L31.6,74.2a.76.76,0,0,0-1.06,0L13,91.72a.76.76,0,0,0,0,1.06l2.56,2.61a.76.76,0,0,0,1.06,0L34.16,77.87A.75.75,0,0,0,33.1,76.81Z"/><path class="cls-1" d="M134.83,59.67,113,69.25,98.61,75.6l-4,1.74-.62.27q1.49.74.71-.42l-.93-2.25c.17.4-.84.77,0,.41l1.59-.7,5.24-2.31,15.44-6.79,14.12-6.21,3.6-1.58c.91-.4-.33.22-.58-.38l1.3,3.13c.36.88,1.82.49,1.45-.4l-1.4-3.38a.77.77,0,0,0-1.1-.45l-40.82,18a.74.74,0,0,0-.34.85l1.4,3.38a.77.77,0,0,0,1.1.45l40.82-18C136.47,60.58,135.7,59.28,134.83,59.67Z"/><path class="cls-1" d="M51.13,105.28,32.06,120.35l-12.14,9.58-3.31,2.61-.52.41q1.48.07.41-.69l-1.62-1.82c.42.47-.55,1.15.17.58L16.38,130l4.39-3.47,13-10.27,12.14-9.58L49.22,104c1-.78,0,.14-.34-.22l2.26,2.53c.65.72,1.7-.34,1.06-1.06l-2.44-2.73a.76.76,0,0,0-1.06,0L13.64,130.24a.75.75,0,0,0,0,1.06L16.08,134a.76.76,0,0,0,1.06,0l35.06-27.68C53,105.75,51.88,104.69,51.13,105.28Z"/><path class="cls-1" d="M52.19,101.28c8.21-7.12,17.85-12.66,27.25-18q4.9-2.81,9.88-5.47L91,76.9c-1,.52-1.12-.61-.36,1.22.57,1.39.32,1.23.9.92C85,82.56,78.61,86.26,72.29,90.1c-4.49,2.73-8.92,5.57-13.2,8.61-1.45,1-2.86,2.11-4.24,3.22-.94.76-.27,1.2-.92.42l-1.74-2.12c-.61-.75-1.67.32-1.06,1.06l2.34,2.86a.76.76,0,0,0,1.06,0C65.73,94.5,79.46,87.26,92.41,80.26a.74.74,0,0,0,.34-.85L91.35,76a.77.77,0,0,0-1.1-.45c-13.5,7.06-27.57,14.63-39.12,24.64-.73.63.33,1.69,1.06,1.06Z"/><path class="cls-1" d="M84.58,51.51l1.36,3c.4.88,1.69.12,1.3-.76l-1.36-3c-.4-.88-1.69-.12-1.3.76Z"/><path class="cls-1" d="M98.13,12.81,44.95,65,35.6,74.15l-.73.71c-.35.34.43-.45.78-.1L33.94,73c-.93-1-.94.66-.41.13L34.71,72,61.42,45.8l25-24.57,8-7.81,1.95-1.91c.59-.58-.24.32-.61-.06l2.37,2.42c.68.69,1.74-.37,1.06-1.06L96.63,10.2a.76.76,0,0,0-1.06,0L32.22,72.34a.76.76,0,0,0,0,1.06L34.78,76a.76.76,0,0,0,1.06,0L99.19,13.87C99.89,13.19,98.82,12.13,98.13,12.81Z"/><path class="cls-1" d="M16.19,126.21,30,113.51,39.29,105l2.91-2.67.79-.72c-.63.58-.64.21.59,1.37.76.72,1.55-.81.05.34l-3.07,2.35-9.86,7.56L15.28,125c-.76.58,0,1.88.76,1.3l29.28-22.47a.76.76,0,0,0,.15-1.18l-2.38-2.26a.76.76,0,0,0-1.06,0l-26.9,24.73C14.42,125.8,15.48,126.86,16.19,126.21Z"/><path class="cls-1" d="M30.35,85.71,31.73,87c1.47,1.35.44.83,1.49.11l-1.93,1.33-8.86,6.13C17,98.31,10.93,101.83,6,106.27c-.72.65.34,1.7,1.06,1.06L31.41,85.71c.72-.64-.34-1.7-1.06-1.06L6,106.27l1.06,1.06c8-7.23,18.06-12.87,27-19a.76.76,0,0,0,.15-1.18l-2.75-2.53C30.7,84,29.64,85.06,30.35,85.71Z"/><path class="cls-1" d="M93.16,46.53l-5.8,2.92a.76.76,0,0,0-.27,1l1.25,2.92a.76.76,0,0,0,1,.27l6.21-2.92c.87-.41.11-1.7-.76-1.3L88.6,52.38l1,.27-1.25-2.92-.27,1,5.8-2.92c.86-.44.1-1.73-.76-1.3Z"/><path class="cls-1" d="M107.68,31.38,93,46.65c-.67.7.39,1.76,1.06,1.06l14.68-15.27c.67-.7-.39-1.76-1.06-1.06Z"/><path class="cls-1" d="M112.36,32.94l.64-4.22a.76.76,0,0,0-.34-.85l-3-1.47a.76.76,0,0,0-1.1.45l-1.09,4.86c-.21.94,1.23,1.34,1.45.4L110,27.25l-1.1.45,3,1.47-.34-.85-.64,4.22c-.14.95,1.3,1.35,1.45.4Z"/><path class="cls-1" d="M95.72,50.63l16.44-17.36c.66-.7-.39-1.76-1.06-1.06L94.66,49.57c-.66.7.39,1.76,1.06,1.06Z"/><path class="cls-1" d="M102.86,52.11l15.87-5.71c.9-.32.51-1.77-.4-1.45l-15.87,5.71c-.9.32-.51,1.77.4,1.45Z"/><path class="cls-1" d="M100.7,47.41,91.8,55.59a.75.75,0,0,0,0,1.06l2.67,2.51a.76.76,0,0,0,1.06,0l7.66-7.24c.7-.67-.36-1.72-1.06-1.06L94.46,58.1h1.06l-2.67-2.51v1.06l8.91-8.17c.71-.66-.35-1.71-1.06-1.06Z"/><path class="cls-1" d="M117.55,41.37,101,47.22c-.91.32-.52,1.77.4,1.45L118,42.82c.91-.32.52-1.77-.4-1.45Z"/><path class="cls-1" d="M118.15,46.33l2.88,1.3a.78.78,0,0,0,1-.27l1.88-2.6a.75.75,0,0,0-.27-1l-5.28-2.28c-.88-.38-1.64.91-.76,1.3L122.9,45l-.27-1-1.87,2.6,1-.27L118.9,45c-.87-.4-1.64.9-.76,1.3Z"/><path class="cls-1" d="M119.56,29.61a9,9,0,0,1,4.76,6.56c.15,1,1.59.55,1.45-.4a10.39,10.39,0,0,0-5.45-7.46c-.86-.44-1.62.86-.76,1.3Z"/><path class="cls-1" d="M124.85,35.25l-19,7.08.73,1.25,13.85-14.09c.68-.69-.38-1.75-1.06-1.06L105.56,42.52c-.5.5,0,1.53.73,1.25l19-7.08c.9-.34.51-1.79-.4-1.45Z"/><path class="cls-1" d="M80.87,35.74,92.57,24.5c.7-.67-.36-1.73-1.06-1.06L79.81,34.68c-.7.67.36,1.73,1.06,1.06Z"/><path class="cls-1" d="M82.93,36.1l1,3.07.34-.85-2.76,1.93,1.1.45L81.06,35a.75.75,0,0,0-1.45.4l1.56,5.69a.75.75,0,0,0,1.1.45L85,39.62a.76.76,0,0,0,.34-.85l-1-3.07c-.3-.91-1.75-.52-1.45.4Z"/><path class="cls-1" d="M93,26.3l-9.89,9.06c-.71.65.35,1.71,1.06,1.06l9.89-9.06c.71-.65-.35-1.71-1.06-1.06Z"/><path class="cls-1" d="M92,24.72l6.11.24L97.42,24l-.65,2.84.72-.55-4-.22c-1-.05-1,1.45,0,1.5l4,.22a.75.75,0,0,0,.72-.55l.65-2.84a.76.76,0,0,0-.72-.95L92,23.22c-1,0-1,1.46,0,1.5Z"/><path class="cls-1" d="M121.26,58.78l-14.9,6.42c-.89.38-.12,1.67.76,1.3L122,60.08c.89-.38.12-1.67-.76-1.3Z"/><path class="cls-1" d="M119.52,57.62l.13-3.23-.55.72,3.26-.83-.95-.72-.53,5.87c-.09,1,1.41,1,1.5,0l.53-5.87a.76.76,0,0,0-.95-.72l-3.26.83a.76.76,0,0,0-.55.72L118,57.62c0,1,1.46,1,1.5,0Z"/><path class="cls-1" d="M106.54,63.36l12.44-5c.89-.36.5-1.81-.4-1.45l-12.44,5c-.89.36-.5,1.81.4,1.45Z"/><path class="cls-1" d="M106.94,65.12l-5.64-2.37.45,1.1,1.61-2.44-1,.27L106,63.29c.88.39,1.64-.91.76-1.3l-3.63-1.59a.77.77,0,0,0-1,.27l-1.61,2.44a.76.76,0,0,0,.45,1.1l5.64,2.37c.89.37,1.28-1.08.4-1.45Z"/><path class="cls-1" d="M33.32,83.47C41,77.11,48.91,70.94,57.1,65.23A96.38,96.38,0,0,1,76.21,55.1c2.64-1.07,5.33-2,8-2.9,1.41-.45.63,0,.46-.39l.74,1.64c.67,1.49.73,0,.6.07A114.7,114.7,0,0,0,53.93,70.28c-4.92,3.6-9.75,7.34-14.54,11.11l-4,3.17c-1,.79-.05-.1.3.26L33.32,82.4c-.68-.69-1.74.37-1.06,1.06l2.56,2.61a.77.77,0,0,0,1.06,0C43,80.36,50.21,74.78,57.61,69.45A105.61,105.61,0,0,1,86.78,54.87a.77.77,0,0,0,.45-1.1l-1.36-3A.75.75,0,0,0,85,50.4c-20.32,5.87-36.72,18.75-52.76,32C31.52,83,32.58,84.08,33.32,83.47Z"/><path class="cls-1" d="M58.48,87.2,84.86,63.92l5.31-4.69c1.18-1,.32-.08-.09-.49l1.71,1.74c1,1,.11.1.6-.33l-9,7.9L51.14,96.55l-3.77,3.33c-.78.69.87.56,0-.33l-1.71-1.74c.43.44-.56,1.19.26.47L58.48,87.2c.73-.64-.34-1.7-1.06-1.06l-13,11.47a.75.75,0,0,0,0,1.06L47,101.28a.76.76,0,0,0,1.06,0L93.51,61.16a.75.75,0,0,0,0-1.06L91,57.49a.76.76,0,0,0-1.06,0L57.41,86.14c-.73.64.34,1.7,1.06,1.06Z"/></svg>