<svg id="Слой_3" data-name="Слой 3" xmlns="http://www.w3.org/2000/svg" xmlns:xlink="http://www.w3.org/1999/xlink" viewBox="0 0 141.73 141.73"><defs><style>.cls-1,.cls-3,.cls-7{fill:none;}.cls-2{clip-path:url(#clip-path);}.cls-3,.cls-7{stroke:#709fcb;stroke-miterlimit:10;}.cls-3{stroke-width:1.2px;}.cls-4{fill:#709fcb;}.cls-5{clip-path:url(#clip-path-2);}.cls-6{clip-path:url(#clip-path-3);}.cls-7{stroke-width:1.09px;}</style><clipPath id="clip-path"><polyline class="cls-1" points="314 26.2 248.73 26.2 190.56 81.34 255.92 81.34 314 26.52"/></clipPath><clipPath id="clip-path-2"><polygon class="cls-1" points="5.12 120.05 34.37 87.15 35.43 86.64 43.33 96.94 46.83 96.83 49.58 95.58 50.38 97.25 53.67 96.58 62.02 86.92 67.69 86 68.72 87.75 69.92 86.64 74.08 86.92 82.88 96.83 86.5 97.08 88.45 95.48 89.72 97.08 92.52 96.92 109.75 80.34 136 72.85 126.92 117 82.88 136 7.58 128.33 5.12 120.05"/></clipPath><clipPath id="clip-path-3"><path class="cls-1" d="M60.12,70.24c-22.5,12.52-37.9,29.64-52,51,27.11-13.78,47.62-3.28,74.06,7.2,22.93-13.15,38.12-31.59,52-53.78C107.35,90.51,87.11,81.14,60.12,70.24Z"/></clipPath></defs><title>icon</title><g class="cls-2"><path class="cls-3" d="M154.37,96.12a4.43,4.43,0,0,0-1.25,2.08l-.5,2.94a7.76,7.76,0,0,1-3.22,3c-2.5,1.42-5.49,3.16-5.49,3.16a14.4,14.4,0,0,0-2.12,1.62,3.88,3.88,0,0,0,.84-2.36,5.58,5.58,0,0,1,1.59-3.84A25.83,25.83,0,0,1,149,99.31a44.05,44.05,0,0,0,5.34-3.19"/></g><path class="cls-4" d="M14.12,95.83,9.4,95.66l.53,1.28L43.54,64.28c.69-.68-.37-1.73-1.06-1.06L8.87,95.87a.76.76,0,0,0,.53,1.28l4.73.17c1,0,1-1.47,0-1.5Z"/><path class="cls-4" d="M22.37,85.87,13.59,96c-.63.73.43,1.79,1.06,1.06l8.78-10.17c.63-.73-.43-1.79-1.06-1.06Z"/><path class="cls-4" d="M28.51,85.65H22.9a.75.75,0,0,0,0,1.5h5.61a.75.75,0,0,0,0-1.5Z"/><path class="cls-4" d="M30.13,85.87,29,86.9H30l-1-1c-.68-.69-1.74.37-1.06,1.06l1,1A.76.76,0,0,0,30,88l1.14-1c.72-.65-.34-1.71-1.06-1.06Z"/><path class="cls-4" d="M35.23,85.65H30.66a.75.75,0,0,0,0,1.5h4.57a.75.75,0,0,0,0-1.5Z"/><path class="cls-4" d="M44.23,96,35.76,85.87c-.62-.74-1.67.32-1.06,1.06l8.47,10.17c.62.74,1.67-.32,1.06-1.06Z"/><path class="cls-4" d="M47.74,95.83h-4a.75.75,0,0,0,0,1.5h4a.75.75,0,0,0,0-1.5Z"/><path class="cls-4" d="M50.91,96l-1.32-1.29a.76.76,0,0,0-1.06,0L47.21,96c-.69.68.37,1.74,1.06,1.06l1.33-1.29H48.53l1.32,1.29c.69.68,1.75-.38,1.06-1.06Z"/><path class="cls-4" d="M53.3,95.83H50.38a.75.75,0,0,0,0,1.5H53.3a.75.75,0,0,0,0-1.5Z"/><path class="cls-4" d="M61.55,85.87,52.77,96c-.63.73.43,1.79,1.06,1.06l8.78-10.17c.63-.73-.43-1.79-1.06-1.06Z"/><path class="cls-4" d="M67.69,85.65H62.08a.75.75,0,0,0,0,1.5h5.61a.75.75,0,0,0,0-1.5Z"/><path class="cls-4" d="M69.31,85.87l-1.14,1h1.06l-1-1c-.68-.69-1.74.37-1.06,1.06l1,1a.76.76,0,0,0,1.06,0l1.14-1c.72-.65-.34-1.71-1.06-1.06Z"/><path class="cls-4" d="M74.41,85.65H69.84a.75.75,0,0,0,0,1.5h4.57a.75.75,0,0,0,0-1.5Z"/><path class="cls-4" d="M83.41,96,74.94,85.87c-.62-.74-1.67.32-1.06,1.06l8.47,10.17c.62.74,1.67-.32,1.06-1.06Z"/><path class="cls-4" d="M86.92,95.83h-4a.75.75,0,0,0,0,1.5h4a.75.75,0,0,0,0-1.5Z"/><path class="cls-4" d="M90.09,96l-1.32-1.29a.76.76,0,0,0-1.06,0L86.39,96c-.69.68.37,1.74,1.06,1.06l1.33-1.29H87.71L89,97.11c.69.68,1.75-.38,1.06-1.06Z"/><path class="cls-4" d="M92.52,95.83h-3a.75.75,0,0,0,0,1.5h3a.75.75,0,0,0,0-1.5Z"/><path class="cls-4" d="M23.43,86.93,46.36,64.65c.69-.67-.37-1.73-1.06-1.06L22.37,85.87c-.69.67.37,1.73,1.06,1.06Z"/><path class="cls-4" d="M29.86,87.17,53.32,64.65c.7-.67-.36-1.73-1.06-1.06L28.8,86.11c-.7.67.36,1.73,1.06,1.06Z"/><path class="cls-4" d="M35.39,86.93l28.19-27.1c.7-.67-.36-1.73-1.06-1.06L34.33,85.87c-.7.67.36,1.73,1.06,1.06Z"/><path class="cls-4" d="M44.63,97.11,76,64.63c.67-.7-.39-1.76-1.06-1.06L43.57,96c-.67.7.39,1.76,1.06,1.06Z"/><path class="cls-4" d="M49.59,95.81,80.2,64.6c.68-.69-.38-1.75-1.06-1.06L48.53,94.75c-.68.69.38,1.75,1.06,1.06Z"/><path class="cls-4" d="M62.55,86.93,83.91,65c.67-.69-.39-1.75-1.06-1.06l-21.36,22c-.67.69.39,1.75,1.06,1.06Z"/><path class="cls-4" d="M68.95,87.17l42.61-43.51c.68-.69-.38-1.75-1.06-1.06L67.89,86.11c-.68.69.38,1.75,1.06,1.06Z"/><path class="cls-4" d="M75.57,87.68l44.89-45.41a.75.75,0,0,0-1.06-1.06L74.51,86.62a.75.75,0,0,0,1.06,1.06Z"/><path class="cls-4" d="M83.41,97l45.09-45a.75.75,0,0,0-1.06-1.06l-45.09,45A.75.75,0,0,0,83.41,97Z"/><path class="cls-4" d="M89,95.53,134.13,52c.7-.67-.36-1.73-1.06-1.06L87.92,94.47c-.7.67.36,1.73,1.06,1.06Z"/><path class="cls-4" d="M93.05,97.11l46-45c.69-.68-.37-1.74-1.06-1.06L92,96c-.69.68.37,1.74,1.06,1.06Z"/><path class="cls-4" d="M119.93,41h-6.66a.75.75,0,0,0,0,1.5h6.66a.75.75,0,0,0,0-1.5Z"/><path class="cls-4" d="M110,41h-5a.75.75,0,0,0,0,1.5h5a.75.75,0,0,0,0-1.5Z"/><path class="cls-4" d="M128.5,50.87l-8-9.65c-.62-.74-1.67.32-1.06,1.06l8,9.65c.62.74,1.67-.32,1.06-1.06Z"/><path class="cls-4" d="M132.43,50.86h-4a.75.75,0,0,0,0,1.5h4a.75.75,0,0,0,0-1.5Z"/><path class="cls-4" d="M135.61,51.08l-1.32-1.29a.76.76,0,0,0-1.06,0l-1.33,1.29c-.69.68.37,1.74,1.06,1.06l1.33-1.29h-1.06l1.32,1.29c.69.68,1.75-.38,1.06-1.06Z"/><path class="cls-4" d="M138,50.86h-3a.75.75,0,0,0,0,1.5h3a.75.75,0,0,0,0-1.5Z"/><path class="cls-4" d="M29,59.1l-1.67,4.82.72-.55H16.56a.75.75,0,0,0,0,1.5H28.07a.77.77,0,0,0,.72-.55l1.67-4.82c.32-.92-1.13-1.31-1.45-.4Z"/><path class="cls-4" d="M55.88,63.37H44.3c-1.15,0-.33-.17-.17.34L42.72,59.1a.76.76,0,0,0-.72-.55H29.74a.75.75,0,0,0,0,1.5H41.18c1.14,0,.32.17.16-.34l1.41,4.61a.76.76,0,0,0,.72.55H55.88a.75.75,0,0,0,0-1.5Z"/><path class="cls-4" d="M57.49,58.92l-2.26,4.82c-.41.87.88,1.63,1.3.76l2.26-4.82c.41-.87-.88-1.63-1.3-.76Z"/><path class="cls-4" d="M83.89,63.29l-8.65.06-2.16,0c-1.13,0-.41-.19-.22.35L71.17,59.1a.77.77,0,0,0-.72-.55H58.14a.75.75,0,0,0,0,1.5H69.63c1.1,0,.37.18.18-.34l1.69,4.61a.77.77,0,0,0,.72.55l11.67-.09a.75.75,0,0,0,0-1.5Z"/><path class="cls-4" d="M68.71,19H59.79a.75.75,0,0,0,0,1.5h8.92a.75.75,0,0,0,0-1.5Z"/><path class="cls-4" d="M73,14.37,68.18,19.2a.75.75,0,0,0,1.06,1.06L74,15.43A.75.75,0,0,0,73,14.37Z"/><path class="cls-4" d="M87.95,19.53,86.48,14.7a.76.76,0,0,0-.72-.55H73.5a.75.75,0,0,0,0,1.5H85.75L85,15.1l1.47,4.82c.28.92,1.73.53,1.45-.4Z"/><path class="cls-4" d="M96.83,19h-9.6a.75.75,0,0,0,0,1.5h9.6a.75.75,0,0,0,0-1.5Z"/><path class="cls-4" d="M101.36,14.37,96.3,19.2c-.7.67.36,1.73,1.06,1.06l5.07-4.82c.7-.67-.36-1.73-1.06-1.06Z"/><path class="cls-4" d="M116.69,19.53l-1.76-4.82a.77.77,0,0,0-.72-.55H101.89a.75.75,0,0,0,0,1.5h12.18c.41,0-.74-.94-.5-.28l1.66,4.55c.33.9,1.78.51,1.45-.4Z"/><path class="cls-4" d="M125.69,19H116a.75.75,0,0,0,0,1.5h9.73a.75.75,0,0,0,0-1.5Z"/><path class="cls-4" d="M30.3,59.71,69.25,20.26c.68-.69-.38-1.75-1.06-1.06L29.24,58.65c-.68.69.38,1.75,1.06,1.06Z"/><path class="cls-4" d="M42.59,59.83l43.69-44.4c.68-.69-.38-1.75-1.06-1.06L41.53,58.77c-.68.69.38,1.75,1.06,1.06Z"/><path class="cls-4" d="M43.9,64.65l43.85-44.4c.68-.69-.38-1.75-1.06-1.06L42.84,63.59c-.68.69.38,1.75,1.06,1.06Z"/><path class="cls-4" d="M17.09,64.42,60.32,20.26c.68-.69-.38-1.75-1.06-1.06L16,63.36c-.68.69.38,1.75,1.06,1.06Z"/><path class="cls-4" d="M58.67,59.83,97.66,20c.68-.69-.38-1.75-1.06-1.06l-39,39.86c-.68.69.38,1.75,1.06,1.06Z"/><path class="cls-4" d="M71,59.83l43.76-44.4c.68-.69-.38-1.75-1.06-1.06L69.92,58.77c-.68.69.38,1.75,1.06,1.06Z"/><path class="cls-4" d="M72.74,64.65l43.76-44.4c.68-.69-.38-1.75-1.06-1.06L71.68,63.59c-.68.69.38,1.75,1.06,1.06Z"/><path class="cls-4" d="M84.42,64.57l41.67-44.24c.66-.7-.4-1.77-1.06-1.06L83.36,63.51c-.66.7.4,1.77,1.06,1.06Z"/><path class="cls-4" d="M109.69,41.87a1.58,1.58,0,0,0,1.47,1.3,3.31,3.31,0,0,0,1.8-.77c.8-.53.05-1.83-.76-1.3a7.3,7.3,0,0,1-.85.51s-.28,0-.16.06,0-.15,0-.21a.75.75,0,0,0-1.45.4Z"/><g class="cls-5"><g class="cls-6"><path class="cls-7" d="M80.07,120.55s6.93-.16,7.48,1.49-.35,5.26-.35,5.26"/><path class="cls-7" d="M80.16,114.79s6.93-.16,7.48,1.48-.35,5.26-.35,5.26"/><path class="cls-7" d="M80.24,109s6.93-.16,7.48,1.48-.35,5.26-.35,5.26"/><path class="cls-7" d="M80.33,103.27s6.93-.17,7.48,1.47-.35,5.26-.35,5.26"/><path class="cls-7" d="M80.41,97.51s6.93-.17,7.48,1.47-.35,5.26-.35,5.26"/><path class="cls-7" d="M80.5,91.75s6.93-.18,7.48,1.46-.35,5.26-.35,5.26"/><path class="cls-7" d="M80.59,86s6.93-.18,7.48,1.46-.35,5.26-.35,5.26"/><path class="cls-7" d="M80.67,80.23s6.93-.19,7.48,1.45-.35,5.26-.35,5.26"/><path class="cls-7" d="M87.73,122s6.93-.7,7.48.89-.35,5.29-.35,5.29"/><path class="cls-7" d="M87.82,116.27s6.93-.71,7.48.88-.35,5.29-.35,5.29"/><path class="cls-7" d="M87.9,110.51s6.93-.71,7.48.87-.35,5.29-.35,5.29"/><path class="cls-7" d="M88,104.74s6.93-.72,7.48.87-.35,5.29-.35,5.29"/><path class="cls-7" d="M88.08,99s6.93-.73,7.48.86-.35,5.29-.35,5.29"/><path class="cls-7" d="M88.16,93.21s6.93-.74,7.48.85-.35,5.29-.35,5.29"/><path class="cls-7" d="M88.25,87.45s6.93-.74,7.48.84-.35,5.29-.35,5.29"/><path class="cls-7" d="M88.33,81.68s6.93-.75,7.48.83-.35,5.29-.35,5.29"/><path class="cls-7" d="M95.48,117.14s6.93-1.49,7.48,0-.35,5.34-.35,5.34"/><path class="cls-7" d="M95.56,111.37s6.93-1.5,7.48,0-.35,5.34-.35,5.34"/><path class="cls-7" d="M95.65,105.59s6.93-1.51,7.48,0-.35,5.34-.35,5.34"/><path class="cls-7" d="M95.74,99.82s6.93-1.52,7.48,0-.35,5.34-.35,5.34"/><path class="cls-7" d="M95.82,94s6.93-1.53,7.48,0-.35,5.34-.35,5.34"/><path class="cls-7" d="M95.91,88.27s6.93-1.54,7.48,0-.35,5.34-.35,5.34"/><path class="cls-7" d="M96,82.5s6.93-1.55,7.48,0-.35,5.34-.35,5.34"/><path class="cls-7" d="M103.14,117.12s6.93-2.52,7.48-1.09-.35,5.39-.35,5.39"/><path class="cls-7" d="M103.22,111.34s6.93-2.53,7.48-1.11-.35,5.39-.35,5.39"/><path class="cls-7" d="M103.31,105.55s6.93-2.54,7.48-1.12-.35,5.4-.35,5.4"/><path class="cls-7" d="M103.4,99.77s6.93-2.55,7.48-1.13-.35,5.4-.35,5.4"/><path class="cls-7" d="M103.48,94s6.93-2.57,7.48-1.15-.35,5.4-.35,5.4"/><path class="cls-7" d="M103.57,88.2S110.5,85.62,111,87s-.35,5.4-.35,5.4"/><path class="cls-7" d="M103.65,82.41s6.93-2.59,7.48-1.18-.35,5.4-.35,5.4"/><path class="cls-7" d="M111,104.36s6.93-3.81,7.48-2.5-.35,5.47-.35,5.47"/><path class="cls-7" d="M111.06,98.57S118,94.74,118.54,96s-.35,5.47-.35,5.47"/><path class="cls-7" d="M111.14,92.77s6.93-3.84,7.48-2.53-.35,5.47-.35,5.47"/><path class="cls-7" d="M111.23,87s6.93-3.86,7.48-2.55-.35,5.47-.35,5.47"/><path class="cls-7" d="M111.32,81.16s6.93-3.87,7.48-2.57-.35,5.47-.35,5.47"/><path class="cls-7" d="M118.72,95.94s6.93-5.33,7.48-4.16-.35,5.55-.35,5.55"/><path class="cls-7" d="M118.8,90.12s6.93-5.35,7.48-4.18-.35,5.55-.35,5.55"/><path class="cls-7" d="M118.89,84.31s6.93-5.37,7.48-4.2-.35,5.55-.35,5.55"/><path class="cls-7" d="M119,78.49s6.93-5.39,7.48-4.22-.35,5.55-.35,5.55"/><path class="cls-7" d="M34.77,108.08s6.93-1.83,7.48-.26-1.19,9.75-1.19,9.75"/><path class="cls-7" d="M34.85,102.29s6.93-1.82,7.48-.25-.35,5.3-.35,5.3"/><path class="cls-7" d="M34.94,96.5s6.93-1.8,7.48-.23-.35,5.3-.35,5.3"/><path class="cls-7" d="M35,90.71s6.93-1.79,7.48-.22-.35,5.3-.35,5.3"/><path class="cls-7" d="M35.11,84.92s6.93-1.78,7.48-.21-.35,5.3-.35,5.3"/><path class="cls-7" d="M35.2,79.14s6.93-1.77,7.48-.2-.35,5.3-.35,5.3"/><path class="cls-7" d="M27.29,109.42s6.93-2.91,7.48-1.41-.35,5.35-.35,5.35"/><path class="cls-7" d="M27.38,103.62s6.93-2.89,7.48-1.4-.35,5.35-.35,5.35"/><path class="cls-7" d="M27.46,97.82s6.93-2.88,7.48-1.38-.35,5.35-.35,5.35"/><path class="cls-7" d="M27.55,92s6.93-2.87,7.48-1.37S34.68,96,34.68,96"/><path class="cls-7" d="M5.31,122.73s6.93-7.4,7.48-6.24-.35,5.56-.35,5.56"/><path class="cls-7" d="M12.23,110.94s6.93-5.77,7.48-4.49-.35,5.49-.35,5.49"/><path class="cls-7" d="M12.23,116.75s6.93-5.77,7.48-4.49-.35,5.49-.35,5.49"/><path class="cls-7" d="M19.63,111.74s6.93-4.25,7.48-2.85-.35,5.42-.35,5.42"/><path class="cls-7" d="M19.72,105.92s6.93-4.23,7.48-2.84-.35,5.41-.35,5.41"/><path class="cls-7" d="M19.8,100.1s6.93-4.22,7.48-2.82-.35,5.41-.35,5.41"/><path class="cls-7" d="M19.89,94.28s6.93-4.2,7.48-2.8S27,96.89,27,96.89"/><path class="cls-7" d="M42.43,107.79s6.93-1,7.48.67-.35,5.27-.35,5.27"/><path class="cls-7" d="M42.51,102s6.93-.95,7.48.68-.35,5.27-.35,5.27"/><path class="cls-7" d="M42.6,96.24s6.93-.94,7.48.69-.35,5.27-.35,5.27"/><path class="cls-7" d="M42.69,90.47s6.93-.93,7.48.7-.35,5.27-.35,5.27"/><path class="cls-7" d="M42.77,84.69s6.93-.92,7.48.71-.35,5.27-.35,5.27"/><path class="cls-7" d="M42.86,78.92s6.93-.92,7.48.72S50,84.9,50,84.9"/><path class="cls-7" d="M42.94,73.14s6.93-.91,7.48.72-.35,5.26-.35,5.26"/><path class="cls-7" d="M50.09,108.46s6.93-.33,7.48,1.34-.35,5.24-.35,5.24"/><path class="cls-7" d="M50.17,102.7s6.93-.32,7.48,1.35-.35,5.24-.35,5.24"/><path class="cls-7" d="M50.26,96.93s6.93-.31,7.48,1.35-.35,5.24-.35,5.24"/><path class="cls-7" d="M50.35,91.16s6.93-.31,7.48,1.36-.35,5.24-.35,5.24"/><path class="cls-7" d="M50.43,85.4s6.93-.3,7.48,1.37S57.56,92,57.56,92"/><path class="cls-7" d="M50.52,79.63S57.45,79.33,58,81s-.35,5.24-.35,5.24"/><path class="cls-7" d="M50.6,73.86s6.93-.29,7.48,1.38-.35,5.24-.35,5.24"/><path class="cls-7" d="M50.69,68.1s6.93-.29,7.48,1.38-.35,5.24-.35,5.24"/><path class="cls-7" d="M57.75,109.82s6.93.07,7.48,1.76-.35,5.23-.35,5.23"/><path class="cls-7" d="M57.84,104.05s6.93.07,7.48,1.76S65,111,65,111"/><path class="cls-7" d="M57.92,98.29s6.93.07,7.48,1.76-.35,5.23-.35,5.23"/><path class="cls-7" d="M58,92.53s6.93.07,7.48,1.76-.35,5.23-.35,5.23"/><path class="cls-7" d="M58.09,86.77s6.93.08,7.48,1.77-.35,5.23-.35,5.23"/><path class="cls-7" d="M58.18,81s6.93.08,7.48,1.77S65.31,88,65.31,88"/><path class="cls-7" d="M58.27,75.25s6.93.08,7.48,1.77-.35,5.23-.35,5.23"/><path class="cls-7" d="M58.35,69.49s6.93.09,7.48,1.78-.35,5.23-.35,5.23"/><path class="cls-7" d="M65.41,111.59s6.93.22,7.48,1.91-.35,5.23-.35,5.23"/><path class="cls-7" d="M65.5,105.83s6.93.22,7.48,1.91-.35,5.23-.35,5.23"/><path class="cls-7" d="M65.58,100.07s6.93.22,7.48,1.91-.35,5.23-.35,5.23"/><path class="cls-7" d="M65.67,94.32s6.93.22,7.48,1.91-.35,5.23-.35,5.23"/><path class="cls-7" d="M65.75,88.56s6.93.22,7.48,1.91-.35,5.23-.35,5.23"/><path class="cls-7" d="M65.84,82.8s6.93.22,7.48,1.91S73,89.94,73,89.94"/><path class="cls-7" d="M65.93,77s6.93.22,7.48,1.91-.35,5.23-.35,5.23"/><path class="cls-7" d="M66,71.29s6.93.22,7.48,1.91-.35,5.23-.35,5.23"/><path class="cls-7" d="M73.07,113.52s6.93.13,7.48,1.81-.35,5.24-.35,5.24"/><path class="cls-7" d="M42.51,113.63s6.93-.95,7.48.68-.35,5.27-.35,5.27"/><path class="cls-7" d="M50.17,114.3s6.93-.32,7.48,1.35-.35,5.24-.35,5.24"/><path class="cls-7" d="M57.84,115.66s6.93.07,7.48,1.76-.35,5.23-.35,5.23"/><path class="cls-7" d="M65.41,123.19s6.93.22,7.48,1.91-.35,5.23-.35,5.23"/><path class="cls-7" d="M65.5,117.44s6.93.22,7.48,1.91-.35,5.23-.35,5.23"/><path class="cls-7" d="M18.14,118.82s6.93-4.54,7.48-3.16-.35,5.43-.35,5.43"/><path class="cls-7" d="M25.81,115.57s6.93-3.15,7.48-1.67-.35,5.36-.35,5.36"/><path class="cls-7" d="M33.47,113.84s6.93-2,7.48-.44-.35,5.31-.35,5.31"/><path class="cls-7" d="M18.23,124.6s6.93-4.52,7.48-3.14-.35,5.43-.35,5.43"/><path class="cls-7" d="M25.89,121.37s6.93-3.13,7.48-1.66-.35,5.36-.35,5.36"/><path class="cls-7" d="M33.55,119.66s6.93-2,7.48-.43-.35,5.31-.35,5.31"/><path class="cls-7" d="M41.13,125s6.93-1.09,7.48.53-.35,5.27-.35,5.27"/><path class="cls-7" d="M41.21,119.21s6.93-1.08,7.48.54-.35,5.27-.35,5.27"/><path class="cls-7" d="M73.07,125.12s6.93.13,7.48,1.81-.35,5.24-.35,5.24"/><path class="cls-7" d="M73.16,119.37s6.93.13,7.48,1.8-.35,5.24-.35,5.24"/><path class="cls-7" d="M80.73,126.94s6.93-.19,7.48,1.45-.35,5.26-.35,5.26"/><path class="cls-7" d="M73.16,107.76s6.93.13,7.48,1.8-.35,5.24-.35,5.24"/><path class="cls-7" d="M73.24,102s6.93.13,7.48,1.8-.35,5.24-.35,5.24"/><path class="cls-7" d="M73.33,96.24s6.93.13,7.48,1.8-.35,5.24-.35,5.24"/><path class="cls-7" d="M73.42,90.49s6.93.12,7.48,1.8-.35,5.24-.35,5.24"/><path class="cls-7" d="M73.5,84.73s6.93.12,7.48,1.79-.35,5.24-.35,5.24"/><path class="cls-7" d="M73.59,79s6.93.12,7.48,1.79S80.72,86,80.72,86"/><path class="cls-7" d="M73.67,73.21s6.93.12,7.48,1.79-.35,5.24-.35,5.24"/></g><path class="cls-4" d="M59.74,69.71c-22.41,12.62-38.68,30.17-52,51.39-.35.56-.07.93.39.65,23.28-14.06,46.21-3.71,71.7,6.31,2.1.83,2.5,1,4,.13,3.86-2.3,7.72-4.78,11.58-7.59,13.56-9.88,23.94-22.37,33.07-35.86,2-3,4-6.47,6.07-10,.35-.62.07-.93-.39-.62C110.45,90.4,87,80.26,60.12,69.7c-.69-.27-.69.82,0,1.09,25.52,10,48.43,20.33,71.7,6.18a20.39,20.39,0,0,0,1.75-1.31c1.36-1.06-.67.45.22-1.09q-1.19,2.07-2.38,4a144.7,144.7,0,0,1-13,18.65,134.94,134.94,0,0,1-32.28,28.09c-1.21.74-2.42,1.47-3.63,2.18-.86.5.09.47-1.07,0-4.62-1.72-9.26-3.72-13.85-5.55-16-6.38-30.35-11.05-46.29-7.74-4,.83-8.44,3.17-12.67,6.1-.4.28-.36,1.46.77-.37,1.44-2.33,2.87-4.62,4.32-6.66,9.12-12.78,19.48-24.51,32.72-33.77,4.71-3.29,9.41-6.14,14.12-8.79C61,70.49,60.24,69.42,59.74,69.71Z"/></g></svg>