<svg id="Слой_3" data-name="Слой 3" xmlns="http://www.w3.org/2000/svg" xmlns:xlink="http://www.w3.org/1999/xlink" viewBox="0 0 141.73 141.73"><defs><style>.cls-1,.cls-2{fill:none;}.cls-2{stroke:#709fcb;stroke-miterlimit:10;stroke-width:1.5px;}.cls-3{fill:#709fcb;}.cls-4{clip-path:url(#clip-path);}</style><clipPath id="clip-path"><ellipse class="cls-1" cx="93.78" cy="104.42" rx="7.63" ry="9.3" transform="translate(-46.12 93.16) rotate(-43.47)"/></clipPath></defs><title>icon</title><ellipse class="cls-2" cx="43.36" cy="85.79" rx="19.41" ry="23.68" transform="translate(-47.13 53.36) rotate(-43.47)"/><ellipse class="cls-2" cx="43.28" cy="85.87" rx="23.6" ry="28.78" transform="translate(-47.2 53.33) rotate(-43.47)"/><path class="cls-3" d="M93.66,23.35C106,29.6,116.73,46.79,105,58.86c-.68.69.38,1.75,1.06,1.06,12.41-12.72,1.62-31.15-11.6-37.87-.86-.44-1.62.86-.76,1.3Z"/><path class="cls-3" d="M81.34,18.33c12.59-1.24,23.7,6.84,29.14,17.82a25.34,25.34,0,0,1,1.72,17.65c-1.92,7.22-7.89,11-14.87,12.42-.95.19-.55,1.64.4,1.45,13.8-2.77,19.27-15.09,15.65-28.14-3.77-13.58-17.91-24.09-32-22.7-1,.09-1,1.6,0,1.5Z"/><path class="cls-3" d="M26.3,63.66C50.59,45.3,84,80.42,64.66,103.87c-.61.74.45,1.81,1.06,1.06C86,80.26,51.28,42.91,25.55,62.36c-.76.58,0,1.88.76,1.3Z"/><path class="cls-3" d="M79.9,17.85c21.12-6,39.54,15.38,32.42,35.54-.32.91,1.13,1.3,1.45.4,7.5-21.24-12.09-43.7-34.26-37.38a.75.75,0,0,0,.4,1.45Z"/><path class="cls-3" d="M93.44,93.73l7.33-7c.7-.67-.36-1.73-1.06-1.06l-7.33,7c-.7.67.36,1.73,1.06,1.06Z"/><path class="cls-3" d="M91.8,88.16l-7.24,7c-.6.57,0,1.35.73,1.25a23.57,23.57,0,0,0,8-2.52c.85-.47.09-1.76-.76-1.3a22.53,22.53,0,0,1-7.63,2.37l.73,1.25,7.24-7c.7-.67-.36-1.73-1.06-1.06Z"/><path class="cls-3" d="M99.94,85.56,92.13,88c-.92.28-.53,1.73.4,1.45l7.8-2.4c.92-.28.53-1.73-.4-1.45Z"/><path class="cls-3" d="M109.56,90.85,104.62,88l-3.19-1.87c-.46-.27-.94-.69-1.49-.52-.92.28-.53,1.73.4,1.45-.34.11-.65-.21-.14.09l.89.52,3.09,1.81,4.63,2.71a.75.75,0,0,0,.76-1.3Z"/><path class="cls-3" d="M112.81,99.91l-2.9-8.61c-.31-.91-1.76-.52-1.45.4l2.9,8.61c.31.91,1.76.52,1.45-.4Z"/><path class="cls-3" d="M110.26,106.35l1.48-3.39c.31-.71,1.34-2.22,1.06-3s-1.76-.52-1.45.4c.08.25.24-.74,0-.31l-.24.56-.9,2.06-1.3,3c-.38.88.91,1.64,1.3.76Z"/><path class="cls-3" d="M103.48,112.91l6.67-6.41c.7-.67-.36-1.73-1.06-1.06l-6.67,6.41c-.7.67.36,1.73,1.06,1.06Z"/><path class="cls-3" d="M102.19,97.8a28.55,28.55,0,0,1-8.75-5.13c-.73-.62-1.8.43-1.06,1.06a30.53,30.53,0,0,0,9.41,5.51c.91.33,1.3-1.12.4-1.45Z"/><path class="cls-3" d="M108.65,91l-7.19,7c-.69.68.37,1.74,1.06,1.06l7.19-7c.69-.68-.37-1.74-1.06-1.06Z"/><path class="cls-3" d="M101.24,98.52c.26,3.21,1,6.8,3.1,9.33.62.75,1.67-.32,1.06-1.06-1.81-2.19-2.44-5.5-2.66-8.27-.08-1-1.58-1-1.5,0Z"/><path class="cls-3" d="M83.19,103.78a49.82,49.82,0,0,0,2.62-7.93.75.75,0,0,0-1.45-.4A47.64,47.64,0,0,1,81.9,103c-.39.87.9,1.64,1.3.76Z"/><path class="cls-3" d="M87.37,111.18A36.54,36.54,0,0,0,83.19,103c-.55-.79-1.85,0-1.3.76a35,35,0,0,1,4,7.79c.33.9,1.78.51,1.45-.4Z"/><path class="cls-3" d="M95.4,114.91a44.86,44.86,0,0,0-8.56-4.26c-.92-.32-1.31,1.13-.4,1.45a43.07,43.07,0,0,1,8.2,4.11c.83.51,1.58-.79.76-1.3Z"/><path class="cls-3" d="M102.75,111.66a37.19,37.19,0,0,0-8.1,3.25c-.85.46-.09,1.76.76,1.3a35.44,35.44,0,0,1,7.74-3.1.75.75,0,0,0-.4-1.45Z"/><path class="cls-3" d="M104.22,106.95a22.42,22.42,0,0,0-2,5.24c-.23.94,1.22,1.34,1.45.4a20.83,20.83,0,0,1,1.85-4.88c.46-.85-.84-1.61-1.3-.76Z"/><g class="cls-4"><path class="cls-3" d="M101.2,109.51c-7.19,6.14-18.58-5.93-12.09-12.79,2.94-3.11,7.91-1.41,10.65.94,3.39,2.9,4.69,8.41,1.44,11.85-.44.47.26,1.18.71.71,7.38-7.8-5.34-21.17-13.5-14.2-3.95,3.37-2,9.43.86,12.7,3.17,3.59,8.88,4.71,12.64,1.5C102.4,109.79,101.69,109.09,101.2,109.51Z"/><path class="cls-3" d="M102.58,108.2c-7.19,6.14-18.58-5.93-12.09-12.79,2.94-3.11,7.91-1.41,10.65.94,3.39,2.9,4.69,8.41,1.44,11.85-.44.47.26,1.18.71.71,7.38-7.8-5.34-21.17-13.5-14.2-3.95,3.37-2,9.43.86,12.7,3.17,3.59,8.88,4.71,12.64,1.5C103.78,108.49,103.07,107.78,102.58,108.2Z"/><path class="cls-3" d="M104,106.89C96.77,113,85.38,101,91.87,94.1c2.94-3.11,7.91-1.41,10.65.94,3.39,2.9,4.69,8.41,1.44,11.85-.44.47.26,1.18.71.71,7.38-7.8-5.34-21.17-13.5-14.2-3.95,3.37-2,9.43.86,12.7,3.17,3.59,8.88,4.71,12.64,1.5C105.16,107.18,104.44,106.48,104,106.89Z"/><path class="cls-3" d="M104.29,105.46c-6.51,5.56-16.85-5.39-11-11.61C96,91,100.49,92.58,103,94.7c3.08,2.63,4.26,7.63,1.31,10.75-.44.47.26,1.18.71.71,6.77-7.16-4.9-19.42-12.38-13-3.62,3.09-1.85,8.65.79,11.65,2.9,3.3,8.15,4.32,11.59,1.37C105.49,105.74,104.78,105,104.29,105.46Z"/><path class="cls-3" d="M105.23,104.09C99,109.42,89.11,98.93,94.73,93c2.55-2.7,6.86-1.21,9.24.82,2.94,2.52,4.08,7.3,1.26,10.29-.44.47.26,1.18.71.71,6.52-6.89-4.71-18.68-11.91-12.52-3.49,3-1.78,8.32.76,11.21,2.8,3.17,7.84,4.15,11.15,1.32C106.43,104.38,105.72,103.68,105.23,104.09Z"/><path class="cls-3" d="M107,102.84c-6.49,5.54-16.79-5.37-10.93-11.57,2.66-2.81,7.14-1.26,9.62.85,3.07,2.62,4.25,7.6,1.31,10.71-.44.47.26,1.18.71.71,6.75-7.14-4.88-19.35-12.34-13-3.61,3.08-1.85,8.62.79,11.61,2.9,3.29,8.12,4.3,11.56,1.37C108.21,103.13,107.5,102.42,107,102.84Z"/><path class="cls-3" d="M108,101.48c-6.23,5.32-16.12-5.16-10.5-11.11,2.55-2.7,6.86-1.21,9.24.82,2.94,2.52,4.08,7.3,1.26,10.29-.44.47.26,1.18.71.71,6.52-6.89-4.71-18.68-11.91-12.52-3.49,3-1.78,8.32.76,11.21,2.8,3.17,7.84,4.15,11.15,1.32C109.18,101.77,108.47,101.06,108,101.48Z"/></g><path class="cls-3" d="M99.58,110.74c-6.94,5.93-18-5.81-11.73-12.44,2.84-3,7.65-1.32,10.3.94,3.28,2.81,4.6,8.15,1.44,11.5-.66.7.39,1.76,1.06,1.06,7.6-8-5.45-21.73-13.86-14.56-4.06,3.47-2.1,9.69.86,13.06,3.26,3.7,9.13,4.8,13,1.5C101.37,111.17,100.31,110.11,99.58,110.74Z"/><path class="cls-3" d="M109.16,79.5c6-3,13.25,4.6,10.35,10.49-.43.86.87,1.62,1.3.76,3.58-7.25-5.06-16.23-12.4-12.54-.86.43-.1,1.73.76,1.3Z"/><path class="cls-3" d="M105.91,81.11c7.07-5.81,18,5.77,11.73,12.44-.66.71.4,1.77,1.06,1.06C126.27,86.5,113.38,73,104.85,80c-.75.61.32,1.67,1.06,1.06Z"/><path class="cls-3" d="M104.85,80l-6.76,6.17c-.72.65.35,1.71,1.06,1.06l6.76-6.17c.72-.65-.35-1.71-1.06-1.06Z"/><path class="cls-3" d="M117.65,93.55q-6.59,6.69-13.3,13.25c-.69.68.37,1.74,1.06,1.06q6.71-6.57,13.3-13.25c.68-.69-.38-1.75-1.06-1.06Z"/><path class="cls-3" d="M50.39,40.54v5.17a.75.75,0,0,0,1.5,0V40.54a.75.75,0,0,0-1.5,0Z"/><path class="cls-3" d="M90.9,41v4.76a.75.75,0,0,0,1.5,0V41a.75.75,0,0,0-1.5,0Z"/><path class="cls-3" d="M39,58.23l12.7-12c.7-.67-.36-1.72-1.06-1.06l-12.7,12c-.7.67.36,1.72,1.06,1.06Z"/><path class="cls-3" d="M71.44,92.71,107,59c.7-.67-.36-1.73-1.06-1.06L70.37,91.65c-.7.67.36,1.73,1.06,1.06Z"/><ellipse class="cls-2" cx="71.26" cy="29.68" rx="21.55" ry="10"/><path class="cls-3" d="M59.89,38c7.64-6.47,20.29-6.2,29.26-3.16.92.31,1.31-1.14.4-1.45C80,30.21,66.9,30.15,58.83,37c-.74.63.33,1.68,1.06,1.06Z"/><path class="cls-3" d="M96.85,29.68C96.17,40.1,78.79,41.81,71.26,41.93s-24.92-2-25.59-12.25c-.28-4.32,4.67-7.22,7.93-8.83,5.39-2.66,11.75-3.33,17.67-3.43,7.52-.12,24.92,2,25.59,12.25.06,1,1.56,1,1.5,0C97.6,18.14,79.82,16.06,71.26,15.92S44.91,18.32,44.16,29.68c-.26,4,3.46,7.07,6.45,9,6,3.78,13.73,4.69,20.64,4.8,8.55.14,26.35-2.39,27.09-13.75C98.41,28.71,96.91,28.72,96.85,29.68Z"/><path class="cls-3" d="M96.64,31.14C96.29,42.4,79,43.86,70.89,44c-8.69.12-24.67-2.33-25.19-13.65,0-1-1.54-1-1.5,0,.58,12.5,17,15,26.69,15.15,9.12.13,26.87-2.15,27.26-14.32,0-1-1.47-1-1.5,0Z"/><path class="cls-3" d="M50.95,46.62C61.88,48.13,70.35,55.49,80.85,58c3.49.82,7.12,1.89,10.08-.67,3.19-2.76,1.36-8.68,1.49-12.11,0-1-1.46-1-1.5,0-.21,5.39,2.06,13.32-6.73,12A39.83,39.83,0,0,1,71.6,52.73c-6.4-3.36-13-6.55-20.26-7.56-.95-.13-1.35,1.31-.4,1.45Z"/></svg>