<svg id="Слой_3" data-name="Слой 3" xmlns="http://www.w3.org/2000/svg" viewBox="0 0 141.73 141.73"><defs><style>.cls-1{fill:#709fcb;}.cls-2{fill:none;stroke:#709fcb;stroke-miterlimit:10;stroke-width:1.5px;}</style></defs><title>icon</title><path class="cls-1" d="M75.38,99.68V97.26a.64.64,0,0,0-1.28,0v2.42a.64.64,0,0,0,1.28,0Z"/><path class="cls-1" d="M133.43,44.8V42.05a.64.64,0,0,0-1.28,0V44.8a.64.64,0,0,0,1.28,0Z"/><path class="cls-1" d="M9,100.31H74.74a.64.64,0,0,0,0-1.28H9a.64.64,0,0,0,0,1.28Z"/><path class="cls-1" d="M8.3,97.37v2.31a.64.64,0,0,0,1.28,0V97.37a.64.64,0,0,0-1.28,0Z"/><path class="cls-1" d="M132,44.35,74.23,99c-.7.67.36,1.72,1.06,1.06l57.78-54.67c.7-.67-.36-1.72-1.06-1.06Z"/><path class="cls-1" d="M9.09,98H74.64a.75.75,0,0,0,0-1.5H9.09a.75.75,0,0,0,0,1.5Z"/><path class="cls-1" d="M17.6,90.56H81.73a.75.75,0,0,0,0-1.5H17.6a.75.75,0,0,0,0,1.5Z"/><path class="cls-1" d="M63.21,81.92H91.1a.75.75,0,0,0,0-1.5H63.21a.75.75,0,0,0,0,1.5Z"/><path class="cls-1" d="M26.17,81.92H62.85a.75.75,0,0,0,0-1.5H26.17a.75.75,0,0,0,0,1.5Z"/><path class="cls-1" d="M33.74,74.6h65a.75.75,0,0,0,0-1.5h-65a.75.75,0,0,0,0,1.5Z"/><path class="cls-1" d="M70,68.26h35.55a.75.75,0,0,0,0-1.5H70a.75.75,0,0,0,0,1.5Z"/><path class="cls-1" d="M41,68.26H52a.75.75,0,0,0,0-1.5H41a.75.75,0,0,0,0,1.5Z"/><path class="cls-1" d="M99.28,61.86l13.42.12a.75.75,0,0,0,0-1.5l-13.42-.12a.75.75,0,0,0,0,1.5Z"/><path class="cls-1" d="M47.16,62H85.34a.75.75,0,0,0,0-1.5H47.16a.75.75,0,0,0,0,1.5Z"/><path class="cls-1" d="M53.43,56.06h65.38a.75.75,0,0,0,0-1.5H53.43a.75.75,0,0,0,0,1.5Z"/><path class="cls-1" d="M81.29,50.51h43.19a.75.75,0,0,0,0-1.5H81.29a.75.75,0,0,0,0,1.5Z"/><path class="cls-1" d="M59.66,50.51h10.8a.75.75,0,0,0,0-1.5H59.66a.75.75,0,0,0,0,1.5Z"/><path class="cls-1" d="M64.08,46.18h64.54a.75.75,0,0,0,0-1.5H64.08a.75.75,0,0,0,0,1.5Z"/><path class="cls-1" d="M66.62,41.59,8.56,96.73c-.7.67.36,1.73,1.06,1.06L67.68,42.65c.7-.67-.36-1.73-1.06-1.06Z"/><path class="cls-1" d="M75.17,97.79l58.08-55.15a.76.76,0,0,0-.53-1.28H67.15a.75.75,0,0,0,0,1.5h65.57l-.53-1.28L74.11,96.73c-.7.67.36,1.73,1.06,1.06Z"/><path class="cls-2" d="M75.54,85.16c0,2.2-5.53,4-11.07,4s-11-1.79-11-4,5.5-4,11-4S75.54,83,75.54,85.16Z"/><path class="cls-2" d="M54,86.38c1.55-1.61,6-2.77,10.46-2.77S73.4,84.78,75,86.38"/><path class="cls-2" d="M69.48,67.22c0,1.73-4.33,3.13-8.68,3.13s-8.66-1.4-8.66-3.13,4.31-3.13,8.66-3.13S69.48,65.49,69.48,67.22Z"/><path class="cls-2" d="M52.88,68.47c1.42-1.12,4.66-1.91,7.92-1.91s6.48.78,7.92,1.89"/><path class="cls-2" d="M99.93,60.3c0,1.51-3.77,2.73-7.56,2.73s-7.54-1.22-7.54-2.73,3.75-2.73,7.54-2.73S99.93,58.79,99.93,60.3Z"/><path class="cls-2" d="M85.34,61.23c1.15-1,4.08-1.78,7-1.78s5.67.69,6.91,1.67"/><path class="cls-2" d="M82.23,51.12c0,1.27-3.19,2.3-6.39,2.3s-6.37-1-6.37-2.3,3.17-2.3,6.37-2.3S82.23,49.85,82.23,51.12Z"/><path class="cls-2" d="M70,52.15c1-.83,3.42-1.41,5.82-1.41a11,11,0,0,1,5.75,1.34"/></svg>