<svg id="Слой_3" data-name="Слой 3" xmlns="http://www.w3.org/2000/svg" viewBox="0 0 141.73 141.73"><defs><style>.cls-1{fill:#709fcb;}.cls-2{fill:none;stroke:#709fcb;stroke-miterlimit:10;stroke-width:1.5px;}</style></defs><title>icon</title><path class="cls-1" d="M14.1,108H49a.75.75,0,0,0,0-1.5H14.1a.75.75,0,0,0,0,1.5Z"/><path class="cls-1" d="M13.35,72.4v34.87a.75.75,0,0,0,1.5,0V72.4a.75.75,0,0,0-1.5,0Z"/><path class="cls-1" d="M14.1,73.15H49a.75.75,0,0,0,0-1.5H14.1a.75.75,0,0,0,0,1.5Z"/><path class="cls-1" d="M57.11,30.55,13.57,71.87c-.7.67.36,1.73,1.06,1.06L58.17,31.61c.7-.67-.36-1.73-1.06-1.06Z"/><path class="cls-1" d="M92.13,30.33H57.64a.75.75,0,0,0,0,1.5H92.13a.75.75,0,0,0,0-1.5Z"/><path class="cls-1" d="M92.88,52.67V31.08a.75.75,0,0,0-1.5,0v21.6a.75.75,0,0,0,1.5,0Z"/><path class="cls-1" d="M49.5,107.8l7.64-7.31c.7-.67-.36-1.73-1.06-1.06l-7.64,7.31c-.7.67.36,1.73,1.06,1.06Z"/><path class="cls-1" d="M48.22,72.4v34.87a.75.75,0,0,0,1.5,0V72.4a.75.75,0,0,0-1.5,0Z"/><path class="cls-1" d="M91.6,30.62,48.44,71.87c-.7.67.36,1.73,1.06,1.06L92.66,31.68c.7-.67-.36-1.73-1.06-1.06Z"/><line class="cls-2" x1="86.78" y1="95.85" x2="76.63" y2="105.55"/><line class="cls-2" x1="101.25" y1="82.03" x2="94.5" y2="88.48"/><line class="cls-2" x1="112.25" y1="71.53" x2="109.21" y2="74.43"/><path class="cls-2" d="M57.89,83.73,93.32,51.6s4.21-5.44,9.78-5.44c7.95,0,15.54,6.38,15.85,14.65.13,3.5-1.51,5.46-3.86,8l-.71.67"/><path class="cls-2" d="M77.23,105c-4.75,4.5-13,3.47-18.52-2.31s-5.57-14.5-.81-19,13.3-4.06,18.78,1.72S82,100.54,77.23,105Z"/><path class="cls-2" d="M90.09,76.6a22.85,22.85,0,0,1,2.3-1.84c6.79-4.94,15.26-3.25,22.14,4s7.52,16.92,2.2,22.48a26.16,26.16,0,0,1-3.29,3"/><ellipse class="cls-2" cx="101.25" cy="90.81" rx="14.89" ry="18.11" transform="translate(-34.71 94.57) rotate(-43.47)"/><path class="cls-1" d="M87.11,81.06c3.45-7.39,8.57-10.71,16.54-10.63a20,20,0,0,1,18.47,12.31.75.75,0,0,0,1.18.15l3-3a.75.75,0,0,0,.12-.91,27.25,27.25,0,0,0-9.76-9.17c-8-4.55-16.92-2.34-24.28,2.3-.82.51-.06,1.81.76,1.3,9.15-5.76,19.1-6.29,27.43,1a25.6,25.6,0,0,1,4.38,5c.37.56-.21-.15.12-.47l-1.68,1.68c-1.49,1.49-.29.73-.55.13a20.28,20.28,0,0,0-1.9-3.23c-4-6-11.37-8.54-18.3-8.62-8.06-.08-13.49,4.16-16.86,11.38-.41.87.89,1.63,1.3.76Z"/><ellipse class="cls-2" cx="101.25" cy="90.81" rx="8.15" ry="9.91" transform="translate(-34.71 94.57) rotate(-43.47)"/><path class="cls-2" d="M110.31,92.93a6.22,6.22,0,0,1-1.59,2.48c-2.95,2.79-8.09,2.15-11.49-1.43s-3.76-8.76-.82-11.55"/><ellipse class="cls-2" cx="101.25" cy="90.81" rx="11.12" ry="13.52" transform="translate(-34.71 94.57) rotate(-43.47)"/></svg>