<svg id="Слой_3" data-name="Слой 3" xmlns="http://www.w3.org/2000/svg" viewBox="0 0 141.73 141.73"><defs><style>.cls-1{fill:#709fcb;}.cls-2{fill:none;stroke:#709fcb;stroke-miterlimit:10;stroke-width:1.5px;}</style></defs><title>icon</title><path class="cls-1" d="M21.67,82.38C23.49,83.85,25.24,85.43,27,87c.72.64,1.78-.42,1.06-1.06-1.76-1.56-3.51-3.14-5.33-4.62-.74-.6-1.81.45-1.06,1.06Z"/><path class="cls-2" d="M22.2,81.85c-.5-.46-1.78-1.06-1.17-1.71,7.71-8.25,48.92-14,48.92-14,0,2.79-2.24,12.21-3.77,16-5.06,12.63-13.94,18.25-13.94,18.25-4.81,3.19-6.22,2.07-7.58.94-1.87-1.55-8.1-5.73-7.62-5.33a24.79,24.79,0,0,1,4.5,5c2.33,3.25,4.3,3.68,6.08,3.75,7.5.29,17.48-13.26,20.58-20.55,2.17-5.08,2.86-4.82,4.17-18.08,0,0,23.8-13.27,31.75-17.61,6.5-3.55,7.55-2.89,9.5-1.36,2.63,2.06,7,.55,7,.55,3.32,5.73,7.73-.59,7.73-.59,9.76-14.07,2.36-15.35,2.36-15.35-6.27-.41-9,11.42-9.87,12.83s-3.6,2.4-6.29.19c-3.19-2.62-8.21-.19-8.21-.19L78.57,60.05s-1.79,1.12-1.9.86,1.41-1.45,1.41-1.45L95.63,44.3C97.06,42.88,97.17,43,97.47,42c0-.11.13-.42.4-.35,2,.56,2.92-1.58,2.92-1.58s7.33-16,.82-16.58-6.33,13.75-6.33,13.75c-2.83,1,1.67,1.8,1.67,1.8"/><path class="cls-2" d="M96.51,36.13c.29.23.46.49.44.68a18.21,18.21,0,0,0,0,2.21s1.65,1.87,2.85-1.5,3.9-11.45,1.48-12c-3-.64-4.53,10.81-4.53,10.81"/><path class="cls-2" d="M18.61,81.85c-1.42-1.92,2.22-5.55,9.83-8.71S56.88,66,66.67,64.56a11.92,11.92,0,0,0,2.82-.64,17.42,17.42,0,0,0,1.7-1l24.44-21a.74.74,0,0,0-.35-1c-.67-.35-4.17-1.58-2.67-4.08a2.54,2.54,0,0,1,3.89-.68"/><path class="cls-1" d="M27.73,85.74c-1.27-.46-2.52-1-3.75-1.51-1.62-.71-3.68-1.5-4.84-2.91-.61-.75-1.67.32-1.06,1.06,1.25,1.52,3.4,2.36,5.14,3.14,1.35.61,2.72,1.16,4.11,1.66.91.33,1.3-1.12.4-1.45Z"/><path class="cls-2" d="M123,44.73c.89-3.58,3.57-11.26,7.38-10.67,3.49.54-3.94,13.85-6.81,13.85C123,47.92,122.64,46.11,123,44.73Z"/><path class="cls-1" d="M45.61,131.76c1.39-2.7,4.13-5.18,7.35-4.28a.75.75,0,0,0,.4-1.45c-3.87-1.09-7.33,1.65-9,5-.44.86.85,1.62,1.3.76Z"/><path class="cls-1" d="M44.22,129.23v2.16a.75.75,0,0,0,1.5,0v-2.16a.75.75,0,0,0-1.5,0Z"/><path class="cls-1" d="M49.46,132.64c2.54-1.32,6.42-4.4,3.76-7.38-3.07-3.45-7.24,0-8.9,3-.47.85.83,1.6,1.3.76,1.21-2.18,3.77-4.93,6.3-2.9,2.36,1.89-1.67,4.46-3.21,5.26-.86.45-.1,1.74.76,1.3Z"/><path class="cls-1" d="M49.71,133.89l.12-1.9c.06-1-1.44-1-1.5,0l-.12,1.9c-.06,1,1.44,1,1.5,0Z"/><path class="cls-1" d="M57.64,126.76a7.44,7.44,0,0,1-.51,3.51c-.28.76-1.88,1.48-2.54,1.92-1.33.88-2.69,1.72-4.05,2.54h.76l-2-1.49c-.77-.59-1.51.72-.76,1.3l2,1.49a.73.73,0,0,0,.76,0c1.88-1.13,3.75-2.3,5.55-3.55a3.86,3.86,0,0,0,1.63-1.56,8.46,8.46,0,0,0,.66-4.16c-.12-.95-1.62-1-1.5,0Z"/><path class="cls-1" d="M58.7,123.83a3.43,3.43,0,0,0-1,3.13c.2.95,1.64.55,1.45-.4,0-.15,0,.2,0,0a2.77,2.77,0,0,1,0-.48,1.91,1.91,0,0,1,.65-1.21c.7-.67-.36-1.73-1.06-1.06Z"/><path class="cls-1" d="M122.07,68.2,58.7,123.83c-.73.64.34,1.7,1.06,1.06l63.37-55.62c.73-.64-.34-1.7-1.06-1.06Z"/><path class="cls-1" d="M125.33,66.61a5.24,5.24,0,0,0-3.25,1.59c-.69.68.37,1.74,1.06,1.06a3.69,3.69,0,0,1,2.19-1.15c1-.05,1-1.55,0-1.5Z"/><path class="cls-1" d="M127.8,60.5l1.73.64-.55-.72v2.67c0,.55,0,.37.06.2A6.15,6.15,0,0,1,125,66.67c-.95.18-.55,1.63.4,1.45a7.56,7.56,0,0,0,4.85-3.85c.62-1,.27-2.68.27-3.84a.77.77,0,0,0-.55-.72l-1.73-.64c-.91-.34-1.3,1.11-.4,1.45Z"/><path class="cls-1" d="M123.68,57.25a5.56,5.56,0,0,0-2.61,2.92c-.56,1.45.52,2.6,1.8,3.07,2.23.81,4.5-1.35,5.61-3,.53-.81-.77-1.56-1.3-.76a5.48,5.48,0,0,1-3,2.4c-1,.26-2.09-.44-1.59-1.49a4.12,4.12,0,0,1,1.82-1.8c.87-.43.11-1.73-.76-1.3Z"/><path class="cls-1" d="M129.18,60.13c-2.08,2.18-3.81,5.06-7.24,4.42-1.18-.22-3.93-1.76-3.1-3.26a7.85,7.85,0,0,1,1.45-1.62c.83-.82,1.71-1.58,2.61-2.33l-.91.12,1.92.88c.87.4,1.64-.89.76-1.3l-1.92-.88a.79.79,0,0,0-.91.12c-2.95,2.44-7,5.66-2.44,8.79,1.87,1.29,5.47,1.76,7.22-.07l3.64-3.82c.67-.7-.39-1.76-1.06-1.06Z"/><path class="cls-1" d="M123.67,58.1v2l.37-.65a1.93,1.93,0,0,0-1.19,2.28c.3.91,1.75.52,1.45-.4-.1-.3.25-.47.5-.59a.74.74,0,0,0,.37-.65v-2a.75.75,0,0,0-1.5,0Z"/><path class="cls-1" d="M55.16,119.79a12.62,12.62,0,0,0-7.23.69c-1.58.77-2.78,2.84-3.83,4.2a19.6,19.6,0,0,0-1.66,2.47.75.75,0,0,0,.12.91l1.89,1.46c.75.58,1.82-.47,1.06-1.06L43.61,127l.12.91a30.7,30.7,0,0,1,4.42-5.72c1.4-1.54,4.83-1.2,6.61-1,.95.13,1.35-1.31.4-1.45Z"/><path class="cls-1" d="M118,64.52,54.43,120c-.73.64.34,1.69,1.06,1.06L119,65.58c.73-.64-.34-1.69-1.06-1.06Z"/><path class="cls-1" d="M117.24,62.26c-.1,1-.15,2.62.73,3.32a.77.77,0,0,0,1.06,0,.75.75,0,0,0,0-1.06c-.49-.39-.35-1.66-.29-2.26.09-1-1.41-1-1.5,0Z"/><path class="cls-1" d="M48.9,132.9,50.2,134a.77.77,0,0,0,.91.12c1.36-.82,2.67-1.71,4-2.63,1-.74,3.86-2.3,3.86-3.71,0-3.4,0-6.36-3.6-7.89-.88-.38-1.64.92-.76,1.3a5.51,5.51,0,0,1,2.52,2.11c.46.72.66,4,.15,4.49a34.23,34.23,0,0,1-6.9,5l.91.12L50,131.84c-.74-.61-1.81.44-1.06,1.06Z"/><path class="cls-1" d="M49.72,133.18l-.06,1.54c0,1,1.46,1,1.5,0l.06-1.54c0-1-1.46-1-1.5,0Z"/><path class="cls-1" d="M42.33,127.53v1.28a3,3,0,0,0,.1,1.35,4.83,4.83,0,0,0,.92.9l.91.85c.7.66,1.77-.4,1.06-1.06l-1.71-1.61.22.53v-2.25a.75.75,0,0,0-1.5,0Z"/><path class="cls-1" d="M124.07,67.94l-.17-2.5a.76.76,0,0,0-1.28-.53L57.65,122c-.73.64.34,1.7,1.06,1.06l65-57.09-1.28-.53.17,2.5c.07,1,1.57,1,1.5,0Z"/><path class="cls-2" d="M23.67,48.33a1.88,1.88,0,0,1,.69-1.58,2.35,2.35,0,0,1,3.18.8c.77,1,1.08,1.71.83,2.28"/><path class="cls-2" d="M24.71,46.54a1.73,1.73,0,0,1,.61-.94,2.35,2.35,0,0,1,3.18.8,2.35,2.35,0,0,1-.06,3.28"/><path class="cls-2" d="M70.61,23.82A2,2,0,0,1,68,23.19a1.74,1.74,0,0,1,.93-2.37,2,2,0,0,1,2.62.62A1.74,1.74,0,0,1,70.61,23.82Z"/><path class="cls-2" d="M72,22.51a2,2,0,0,1-2.62-.62,1.74,1.74,0,0,1,.93-2.37,2,2,0,0,1,2.62.62A1.74,1.74,0,0,1,72,22.51Z"/><path class="cls-1" d="M41.37,59.93l-9.51-5.09c-.85-.46-1.61.84-.76,1.3l9.51,5.09c.85.46,1.61-.84.76-1.3Z"/><path class="cls-1" d="M31,60.28l10,1c1,.1,1-1.4,0-1.5l-10-1c-1-.1-1,1.4,0,1.5Z"/><path class="cls-1" d="M7.57,50.63l23.24,9.62c.89.37,1.28-1.08.4-1.45L8,49.18c-.89-.37-1.28,1.08-.4,1.45Z"/><path class="cls-1" d="M7.45,45.84,7,49.91c-.1,1,1.4,1,1.5,0l.43-4.06c.1-1-1.4-1-1.5,0Z"/><path class="cls-1" d="M31.69,54.77,8.4,45.12c-.89-.37-1.28,1.08-.4,1.45l23.29,9.65c.89.37,1.28-1.08.4-1.45Z"/><path class="cls-1" d="M44,57.58l-3.41,2.35c-.79.54,0,1.84.76,1.3l3.41-2.35c.79-.54,0-1.84-.76-1.3Z"/><path class="cls-1" d="M35.11,53,44,58.88c.81.54,1.56-.76.76-1.3l-8.91-5.92c-.81-.54-1.56.76-.76,1.3Z"/><path class="cls-1" d="M11.53,43.67,35.29,53c.9.36,1.29-1.1.4-1.45L11.93,42.23c-.9-.36-1.29,1.1-.4,1.45Z"/><path class="cls-1" d="M8.61,46.18l3.5-2.59c.77-.57,0-1.87-.76-1.3l-3.5,2.59c-.77.57,0,1.87.76,1.3Z"/><path class="cls-1" d="M35,51.78,31,54.91c-.45.35-.39,1.05-.44,1.57l-.28,2.7c-.1,1,1.4,1,1.5,0L32,57l.13-1.23c.05-.5-.49.56,0,.16L36,52.84c.76-.6-.31-1.66-1.06-1.06Z"/><path class="cls-2" d="M20.88,55.77l.36-3.44s-.23-2,.78-2.69,6.17-5.38,5.07-1.15h0"/><line class="cls-2" x1="28.51" y1="46.39" x2="71.47" y2="20.87"/><path class="cls-2" d="M72.06,19.39s-3,0-1.51-1.25,3.94-2.62,5.84-4.36,4.18-3.09,7.16-2-.29,3.3-1.22,3.75-5,3.56-5.31,4.44-3.26.5-3.73,0A2.63,2.63,0,0,0,72.06,19.39Z"/></svg>