<svg id="Слой_3" data-name="Слой 3" xmlns="http://www.w3.org/2000/svg" xmlns:xlink="http://www.w3.org/1999/xlink" viewBox="0 0 141.73 141.73"><defs><style>.cls-1,.cls-5{fill:none;}.cls-2{fill:#709fcb;}.cls-3{fill:#fff;}.cls-4{clip-path:url(#clip-path);}.cls-5{stroke:#709fcb;stroke-miterlimit:10;stroke-width:1.2px;}</style><clipPath id="clip-path"><polyline class="cls-1" points="132.58 26.2 67.31 26.2 9.15 81.34 74.5 81.34 132.58 26.52"/></clipPath></defs><title>icon</title><path class="cls-2" d="M8.65,116.86V120a.76.76,0,0,0,.75.75H75.11a.76.76,0,0,0,.75-.75v-3.34a.75.75,0,0,0-1.5,0v1.67c0,1.7-.33.92.73.92H9.58c-.55,0,.57,0,.57.42v-2.86a.75.75,0,0,0-1.5,0Z"/><line class="cls-3" x1="133.08" y1="65.55" x2="75.11" y2="120.05"/><path class="cls-2" d="M132.55,65l-58,54.5c-.71.66.36,1.72,1.06,1.06l58-54.5c.71-.66-.36-1.72-1.06-1.06Z"/><path class="cls-2" d="M132.33,61.56v3.79a.75.75,0,0,0,1.5,0V61.56a.75.75,0,0,0-1.5,0Z"/><path class="cls-2" d="M23.84,102,8.92,116.18a.76.76,0,0,0,.53,1.28H75a.75.75,0,0,0,0-1.5H9.46l.53,1.28L24.9,103.07c.7-.67-.36-1.73-1.06-1.06Z"/><path class="cls-2" d="M75.53,117.24l58.08-55.15a.76.76,0,0,0-.53-1.28H118.7a.75.75,0,0,0,0,1.5h14.39L132.55,61,74.47,116.18c-.7.67.36,1.73,1.06,1.06Z"/><path class="cls-2" d="M7.9,99.35v3.19a.76.76,0,0,0,.75.75H74.35a.76.76,0,0,0,.75-.75V99.2a.75.75,0,0,0-1.5,0v1.67c0,1.7-.33.92.73.92H8.82c-.55,0,.57,0,.57.42V99.35a.75.75,0,0,0-1.5,0Z"/><line class="cls-3" x1="132.33" y1="48.04" x2="74.35" y2="102.54"/><path class="cls-2" d="M131.8,47.51l-58,54.5c-.71.66.36,1.72,1.06,1.06l58-54.5c.71-.66-.36-1.72-1.06-1.06Z"/><path class="cls-2" d="M131.58,44.05v3.79a.75.75,0,0,0,1.5,0V44.05a.75.75,0,0,0-1.5,0Z"/><path class="cls-2" d="M23.79,83.83,8.17,98.67A.76.76,0,0,0,8.7,100H74.25a.75.75,0,0,0,0-1.5H8.7l.53,1.28L24.85,84.89c.7-.67-.36-1.73-1.06-1.06Z"/><path class="cls-2" d="M74.78,99.73l58.08-55.15a.76.76,0,0,0-.53-1.28H117.94a.75.75,0,0,0,0,1.5h14.39l-.53-1.28L73.72,98.67c-.7.67.36,1.73,1.06,1.06Z"/><path class="cls-2" d="M8.09,81.65v2.67a.76.76,0,0,0,.75.75l65.62.18a.76.76,0,0,0,.75-.75V81.16a.75.75,0,0,0-1.5,0v1.67c0,1.71-.33.92.73.92h-1.2l-7.07,0-24-.07L17.82,83.6l-7.11,0H9c-.55,0,.57,0,.57.47V81.65a.75.75,0,0,0-1.5,0Z"/><line class="cls-3" x1="132.27" y1="30.16" x2="74.46" y2="84.5"/><path class="cls-2" d="M131.74,29.63,73.93,84c-.71.66.36,1.72,1.06,1.06l57.81-54.34c.71-.66-.36-1.72-1.06-1.06Z"/><path class="cls-2" d="M131.52,26.37v3.79a.75.75,0,0,0,1.5,0V26.37a.75.75,0,0,0-1.5,0Z"/><g class="cls-4"><path class="cls-5" d="M113.45,12.11a7,7,0,0,0,.84-2.36,6.58,6.58,0,0,1,1.59-3.84,25.83,25.83,0,0,1,4.82-3.37A44.05,44.05,0,0,0,126-.64"/><path class="cls-5" d="M126-.64a4.53,4.53,0,0,0-.81,1.89l-.94,3.13a7.76,7.76,0,0,1-3.22,3c-2.5,1.42-5.49,3.16-5.49,3.16a14.4,14.4,0,0,0-2.12,1.62"/><path class="cls-5" d="M113.47,12.08a4.53,4.53,0,0,0-.81,1.89l-.94,3.13a7.76,7.76,0,0,1-3.22,3C106,21.46,103,23.2,103,23.2a12.43,12.43,0,0,0-2.24,1.61,3.62,3.62,0,0,0,1-2.34,6,6,0,0,1,1.57-4,25.93,25.93,0,0,1,4.84-3.21,44.05,44.05,0,0,0,5.34-3.19"/><path class="cls-5" d="M103.29,18.47a8.55,8.55,0,0,0,1-2.49c.34-1.47.42-2.76,1.38-3.7a25.83,25.83,0,0,1,4.82-3.37,44.05,44.05,0,0,0,5.34-3.19"/><path class="cls-5" d="M115.88,5.72A7.15,7.15,0,0,0,114.69,8l-.56,2.77s-.3,1.37-3.22,3-5.49,3.16-5.49,3.16a14.4,14.4,0,0,0-2.12,1.62"/><path class="cls-5" d="M103.31,18.44a4.43,4.43,0,0,0-1.25,2.08l-.5,2.94a7.76,7.76,0,0,1-3.22,3c-2.5,1.42-5.49,3.16-5.49,3.16a14.4,14.4,0,0,0-2.12,1.62,3.88,3.88,0,0,0,.84-2.36A5.58,5.58,0,0,1,93.16,25,25.83,25.83,0,0,1,98,21.63a44.05,44.05,0,0,0,5.34-3.19"/><path class="cls-5" d="M105.71,12.22a7,7,0,0,0,.84-2.36A6.58,6.58,0,0,1,108.13,6,25.83,25.83,0,0,1,113,2.65a44.05,44.05,0,0,0,5.34-3.19"/><path class="cls-5" d="M118.29-.54a4.53,4.53,0,0,0-.81,1.89l-.94,3.13a7.76,7.76,0,0,1-3.22,3c-2.5,1.42-5.49,3.16-5.49,3.16a14.4,14.4,0,0,0-2.12,1.62"/><path class="cls-5" d="M108.14,5.82a7.15,7.15,0,0,0-1.19,2.24l-.56,2.77s-.3,1.37-3.22,3S97.67,17,97.67,17a14.4,14.4,0,0,0-2.12,1.62,3.88,3.88,0,0,0,.84-2.36A5.58,5.58,0,0,1,98,12.38,25.83,25.83,0,0,1,102.8,9a44.05,44.05,0,0,0,5.34-3.19"/><path class="cls-5" d="M95.57,18.54a4.43,4.43,0,0,0-1.25,2.08l-.5,2.94a7.76,7.76,0,0,1-3.22,3c-2.5,1.42-5.49,3.16-5.49,3.16A14.4,14.4,0,0,0,83,31.29a3.88,3.88,0,0,0,.84-2.36,5.58,5.58,0,0,1,1.59-3.84,25.83,25.83,0,0,1,4.82-3.37,44.05,44.05,0,0,0,5.34-3.19"/><path class="cls-5" d="M98.16,12.22A7,7,0,0,0,99,9.86,6.58,6.58,0,0,1,100.59,6a25.83,25.83,0,0,1,4.82-3.37,44.05,44.05,0,0,0,5.34-3.19"/><path class="cls-5" d="M110.74-.53a4.53,4.53,0,0,0-.81,1.89L109,4.48a7.76,7.76,0,0,1-3.22,3c-2.5,1.42-5.49,3.16-5.49,3.16a14.4,14.4,0,0,0-2.12,1.62"/><path class="cls-5" d="M98.18,12.19a4.76,4.76,0,0,0-1.45,2.18l-.3,2.83a7.76,7.76,0,0,1-3.22,3c-2.5,1.42-5.49,3.16-5.49,3.16a12.43,12.43,0,0,0-2.24,1.61,3.62,3.62,0,0,0,1-2.34,6,6,0,0,1,1.57-4,25.93,25.93,0,0,1,4.84-3.21,44.05,44.05,0,0,0,5.34-3.19"/><path class="cls-5" d="M88,18.58a8.55,8.55,0,0,0,1-2.49c.34-1.47.42-2.76,1.38-3.7A25.83,25.83,0,0,1,95.25,9a44.05,44.05,0,0,0,5.34-3.19"/><path class="cls-5" d="M100.59,5.83A7.15,7.15,0,0,0,99.4,8.07l-.56,2.77s-.3,1.37-3.22,3S90.12,17,90.12,17A14.4,14.4,0,0,0,88,18.58"/><path class="cls-5" d="M88,18.55a4.43,4.43,0,0,0-1.25,2.08l-.5,2.94a7.76,7.76,0,0,1-3.22,3c-2.5,1.42-5.49,3.16-5.49,3.16a14.4,14.4,0,0,0-2.12,1.62,3.88,3.88,0,0,0,.84-2.36,5.58,5.58,0,0,1,1.59-3.84,25.83,25.83,0,0,1,4.82-3.37A44.05,44.05,0,0,0,88,18.55"/><path class="cls-5" d="M90.42,12.33A7,7,0,0,0,91.26,10a6.58,6.58,0,0,1,1.59-3.84,25.83,25.83,0,0,1,4.82-3.37A44.05,44.05,0,0,0,103-.43"/><path class="cls-5" d="M103-.43a4.53,4.53,0,0,0-.81,1.89l-.94,3.13a7.76,7.76,0,0,1-3.22,3C95.52,9,92.53,10.7,92.53,10.7a14.4,14.4,0,0,0-2.12,1.62"/><path class="cls-5" d="M92.84,5.93a7.15,7.15,0,0,0-1.19,2.24L91.09,11s-.3,1.37-3.22,3-5.49,3.16-5.49,3.16a14.4,14.4,0,0,0-2.12,1.62,3.88,3.88,0,0,0,.84-2.36,5.58,5.58,0,0,1,1.59-3.84,25.83,25.83,0,0,1,4.82-3.37,44.05,44.05,0,0,0,5.34-3.19"/><path class="cls-5" d="M80.28,18.65A4.43,4.43,0,0,0,79,20.73l-.5,2.94a7.76,7.76,0,0,1-3.22,3c-2.5,1.42-5.49,3.16-5.49,3.16A14.4,14.4,0,0,0,67.7,31.4,3.88,3.88,0,0,0,68.53,29a5.58,5.58,0,0,1,1.59-3.84,25.83,25.83,0,0,1,4.82-3.37,44.05,44.05,0,0,0,5.34-3.19"/><path class="cls-5" d="M82.34,12.48a7,7,0,0,0,.84-2.36,6.58,6.58,0,0,1,1.59-3.84,25.83,25.83,0,0,1,4.82-3.37A44.05,44.05,0,0,0,94.93-.27"/><path class="cls-5" d="M94.93-.27a4.53,4.53,0,0,0-.81,1.89l-.94,3.13A7.76,7.76,0,0,1,90,7.7c-2.5,1.42-5.49,3.16-5.49,3.16a14.4,14.4,0,0,0-2.12,1.62"/><path class="cls-5" d="M82.36,12.45a4.53,4.53,0,0,0-.81,1.89l-.94,3.13a7.76,7.76,0,0,1-3.22,3c-2.5,1.42-5.49,3.16-5.49,3.16a12.43,12.43,0,0,0-2.24,1.61,3.62,3.62,0,0,0,1-2.34,6,6,0,0,1,1.57-4A25.93,25.93,0,0,1,77,15.64a44.05,44.05,0,0,0,5.34-3.19"/><path class="cls-5" d="M72.19,18.84a8.55,8.55,0,0,0,1-2.49c.34-1.47.42-2.76,1.38-3.7a25.83,25.83,0,0,1,4.82-3.37,44.05,44.05,0,0,0,5.34-3.19"/><path class="cls-5" d="M84.77,6.09a7.15,7.15,0,0,0-1.19,2.24L83,11.11s-.3,1.37-3.22,3-5.49,3.16-5.49,3.16a14.4,14.4,0,0,0-2.12,1.62"/><path class="cls-5" d="M72.2,18.81A4.43,4.43,0,0,0,71,20.89l-.5,2.94a7.76,7.76,0,0,1-3.22,3c-2.5,1.42-5.49,3.16-5.49,3.16a14.4,14.4,0,0,0-2.12,1.62,3.88,3.88,0,0,0,.84-2.36A5.58,5.58,0,0,1,62,25.37,25.83,25.83,0,0,1,66.87,22a44.05,44.05,0,0,0,5.34-3.19"/><path class="cls-5" d="M74.6,12.59a7,7,0,0,0,.84-2.36A6.58,6.58,0,0,1,77,6.39,25.83,25.83,0,0,1,81.85,3,44.05,44.05,0,0,0,87.18-.16"/><path class="cls-5" d="M87.18-.16a4.53,4.53,0,0,0-.81,1.89l-.94,3.13a7.76,7.76,0,0,1-3.22,3C79.71,9.22,76.72,11,76.72,11a14.4,14.4,0,0,0-2.12,1.62"/><path class="cls-5" d="M77,6.2a7.15,7.15,0,0,0-1.19,2.24l-.56,2.77s-.3,1.37-3.22,3-5.49,3.16-5.49,3.16A14.4,14.4,0,0,0,64.44,19a3.88,3.88,0,0,0,.84-2.36,5.58,5.58,0,0,1,1.59-3.84,25.83,25.83,0,0,1,4.82-3.37A44.05,44.05,0,0,0,77,6.2"/><path class="cls-5" d="M64.46,18.92A4.43,4.43,0,0,0,63.21,21l-.5,2.94a7.76,7.76,0,0,1-3.22,3C57,28.3,54,30,54,30a14.4,14.4,0,0,0-2.12,1.62,3.88,3.88,0,0,0,.84-2.36,5.58,5.58,0,0,1,1.59-3.84,25.83,25.83,0,0,1,4.82-3.37,44.05,44.05,0,0,0,5.34-3.19"/><path class="cls-5" d="M67.05,12.59a7,7,0,0,0,.84-2.36A6.58,6.58,0,0,1,69.48,6.4,25.83,25.83,0,0,1,74.3,3,44.05,44.05,0,0,0,79.64-.16"/><path class="cls-5" d="M79.64-.16a4.53,4.53,0,0,0-.81,1.89l-.94,3.13a7.76,7.76,0,0,1-3.22,3C72.16,9.23,69.17,11,69.17,11a14.4,14.4,0,0,0-2.12,1.62"/><path class="cls-5" d="M67.07,12.56a4.76,4.76,0,0,0-1.45,2.18l-.3,2.83a7.76,7.76,0,0,1-3.22,3c-2.5,1.42-5.49,3.16-5.49,3.16a12.43,12.43,0,0,0-2.24,1.61,3.62,3.62,0,0,0,1-2.34,6,6,0,0,1,1.57-4,25.93,25.93,0,0,1,4.84-3.21,44.05,44.05,0,0,0,5.34-3.19"/><path class="cls-5" d="M56.89,19a8.55,8.55,0,0,0,1-2.49c.34-1.47.42-2.76,1.38-3.7a25.83,25.83,0,0,1,4.82-3.37A44.05,44.05,0,0,0,69.48,6.2"/><path class="cls-5" d="M69.48,6.2a7.15,7.15,0,0,0-1.19,2.24l-.56,2.77s-.3,1.37-3.22,3S59,17.33,59,17.33A14.4,14.4,0,0,0,56.89,19"/><path class="cls-5" d="M56.91,18.92A4.43,4.43,0,0,0,55.67,21l-.5,2.94a7.76,7.76,0,0,1-3.22,3C49.44,28.31,46.45,30,46.45,30a14.4,14.4,0,0,0-2.12,1.62,3.88,3.88,0,0,0,.84-2.36,5.58,5.58,0,0,1,1.59-3.84,25.83,25.83,0,0,1,4.82-3.37,44.05,44.05,0,0,0,5.34-3.19"/><path class="cls-5" d="M59.31,12.7a7,7,0,0,0,.84-2.36A6.58,6.58,0,0,1,61.73,6.5a25.83,25.83,0,0,1,4.82-3.37A44.05,44.05,0,0,0,71.89-.05"/><path class="cls-5" d="M71.89-.05a4.53,4.53,0,0,0-.81,1.89L70.14,5a7.76,7.76,0,0,1-3.22,3c-2.5,1.42-5.49,3.16-5.49,3.16a14.4,14.4,0,0,0-2.12,1.62"/><path class="cls-5" d="M61.74,6.31a7.15,7.15,0,0,0-1.19,2.24L60,11.32s-.3,1.37-3.22,3-5.49,3.16-5.49,3.16a14.4,14.4,0,0,0-2.12,1.62A3.88,3.88,0,0,0,50,16.7a5.58,5.58,0,0,1,1.59-3.84A25.83,25.83,0,0,1,56.4,9.5a44.05,44.05,0,0,0,5.34-3.19"/><path class="cls-5" d="M49.17,19a4.43,4.43,0,0,0-1.25,2.08L47.42,24a7.76,7.76,0,0,1-3.22,3c-2.5,1.42-5.49,3.16-5.49,3.16a14.4,14.4,0,0,0-2.12,1.62,3.88,3.88,0,0,0,.84-2.36A5.58,5.58,0,0,1,39,25.58a25.83,25.83,0,0,1,4.82-3.37A44.05,44.05,0,0,0,49.17,19"/><path class="cls-5" d="M88.17,37.7A7,7,0,0,0,89,35.34a6.58,6.58,0,0,1,1.59-3.84,25.83,25.83,0,0,1,4.82-3.37,44.05,44.05,0,0,0,5.34-3.19"/><path class="cls-5" d="M100.76,24.95a4.53,4.53,0,0,0-.81,1.89L99,30a7.76,7.76,0,0,1-3.22,3c-2.5,1.42-5.49,3.16-5.49,3.16a14.4,14.4,0,0,0-2.12,1.62"/><path class="cls-5" d="M88.19,37.67a4.53,4.53,0,0,0-.81,1.89l-.94,3.13a7.76,7.76,0,0,1-3.22,3c-2.5,1.42-5.49,3.16-5.49,3.16a12.43,12.43,0,0,0-2.24,1.61,3.62,3.62,0,0,0,1-2.34,6,6,0,0,1,1.57-4,25.93,25.93,0,0,1,4.84-3.21,44.05,44.05,0,0,0,5.34-3.19"/><path class="cls-5" d="M78,44.06a8.55,8.55,0,0,0,1-2.49c.34-1.47.42-2.76,1.38-3.7a25.83,25.83,0,0,1,4.82-3.37,44.05,44.05,0,0,0,5.34-3.19"/><path class="cls-5" d="M90.6,31.31a7.15,7.15,0,0,0-1.19,2.24l-.56,2.77s-.3,1.37-3.22,3-5.49,3.16-5.49,3.16A14.4,14.4,0,0,0,78,44.06"/><path class="cls-5" d="M78,44a4.43,4.43,0,0,0-1.25,2.08L76.29,49a7.76,7.76,0,0,1-3.22,3c-2.5,1.42-5.49,3.16-5.49,3.16a14.4,14.4,0,0,0-2.12,1.62,3.88,3.88,0,0,0,.84-2.36,5.58,5.58,0,0,1,1.59-3.84,25.83,25.83,0,0,1,4.82-3.37A44.05,44.05,0,0,0,78,44"/><path class="cls-5" d="M80.43,37.81a7,7,0,0,0,.84-2.36,6.58,6.58,0,0,1,1.59-3.84,25.83,25.83,0,0,1,4.82-3.37A44.05,44.05,0,0,0,93,25.06"/><path class="cls-5" d="M93,25.06a4.53,4.53,0,0,0-.81,1.89l-.94,3.13A7.76,7.76,0,0,1,88,33c-2.5,1.42-5.49,3.16-5.49,3.16a14.4,14.4,0,0,0-2.12,1.62"/><path class="cls-5" d="M82.86,31.42a7.15,7.15,0,0,0-1.19,2.24l-.56,2.77s-.3,1.37-3.22,3-5.49,3.16-5.49,3.16a14.4,14.4,0,0,0-2.12,1.62,3.88,3.88,0,0,0,.84-2.36A5.58,5.58,0,0,1,72.7,38a25.83,25.83,0,0,1,4.82-3.37,44.05,44.05,0,0,0,5.34-3.19"/><path class="cls-5" d="M70.29,44.13A4.43,4.43,0,0,0,69,46.21l-.5,2.94a7.76,7.76,0,0,1-3.22,3c-2.5,1.42-5.49,3.16-5.49,3.16a14.4,14.4,0,0,0-2.12,1.62,3.88,3.88,0,0,0,.84-2.36,5.58,5.58,0,0,1,1.59-3.84A25.83,25.83,0,0,1,65,47.32a44.05,44.05,0,0,0,5.34-3.19"/><path class="cls-5" d="M72.88,37.81a7,7,0,0,0,.84-2.36,6.58,6.58,0,0,1,1.59-3.84,25.83,25.83,0,0,1,4.82-3.37,44.05,44.05,0,0,0,5.34-3.19"/><path class="cls-5" d="M85.47,25.06a4.53,4.53,0,0,0-.81,1.89l-.94,3.13a7.76,7.76,0,0,1-3.22,3C78,34.44,75,36.19,75,36.19a14.4,14.4,0,0,0-2.12,1.62"/><path class="cls-5" d="M72.9,37.78A4.76,4.76,0,0,0,71.45,40l-.3,2.83a7.76,7.76,0,0,1-3.22,3c-2.5,1.42-5.49,3.16-5.49,3.16a12.43,12.43,0,0,0-2.24,1.61,3.62,3.62,0,0,0,1-2.34,6,6,0,0,1,1.57-4A25.93,25.93,0,0,1,67.57,41a44.05,44.05,0,0,0,5.34-3.19"/><path class="cls-5" d="M62.73,44.17a8.55,8.55,0,0,0,1-2.49c.34-1.47.42-2.76,1.38-3.7A25.83,25.83,0,0,1,70,34.61a44.05,44.05,0,0,0,5.34-3.19"/><path class="cls-5" d="M75.31,31.42a7.15,7.15,0,0,0-1.19,2.24l-.56,2.77s-.3,1.37-3.22,3-5.49,3.16-5.49,3.16a14.4,14.4,0,0,0-2.12,1.62"/><path class="cls-5" d="M62.75,44.14a4.43,4.43,0,0,0-1.25,2.08L61,49.15a7.76,7.76,0,0,1-3.22,3c-2.5,1.42-5.49,3.16-5.49,3.16a14.4,14.4,0,0,0-2.12,1.62A3.88,3.88,0,0,0,51,54.53a5.58,5.58,0,0,1,1.59-3.84,25.83,25.83,0,0,1,4.82-3.37,44.05,44.05,0,0,0,5.34-3.19"/><path class="cls-5" d="M65.14,37.92A7,7,0,0,0,66,35.56a6.58,6.58,0,0,1,1.59-3.84,25.83,25.83,0,0,1,4.82-3.37,44.05,44.05,0,0,0,5.34-3.19"/><path class="cls-5" d="M77.72,25.16a4.53,4.53,0,0,0-.81,1.89L76,30.18a7.76,7.76,0,0,1-3.22,3c-2.5,1.42-5.49,3.16-5.49,3.16a14.4,14.4,0,0,0-2.12,1.62"/><path class="cls-5" d="M67.57,31.53a7.15,7.15,0,0,0-1.19,2.24l-.56,2.77s-.3,1.37-3.22,3-5.49,3.16-5.49,3.16A14.4,14.4,0,0,0,55,44.28a3.88,3.88,0,0,0,.84-2.36,5.58,5.58,0,0,1,1.59-3.84,25.83,25.83,0,0,1,4.82-3.37,44.05,44.05,0,0,0,5.34-3.19"/><path class="cls-5" d="M55,44.24a4.43,4.43,0,0,0-1.25,2.08l-.5,2.94a7.76,7.76,0,0,1-3.22,3c-2.5,1.42-5.49,3.16-5.49,3.16A14.4,14.4,0,0,0,42.42,57a3.88,3.88,0,0,0,.84-2.36,5.58,5.58,0,0,1,1.59-3.84,25.83,25.83,0,0,1,4.82-3.37A44.05,44.05,0,0,0,55,44.24"/><path class="cls-5" d="M57.06,38.08a7,7,0,0,0,.84-2.36,6.58,6.58,0,0,1,1.59-3.84,25.83,25.83,0,0,1,4.82-3.37,44.05,44.05,0,0,0,5.34-3.19"/><path class="cls-5" d="M69.65,25.32a4.53,4.53,0,0,0-.81,1.89l-.94,3.13a7.76,7.76,0,0,1-3.22,3c-2.5,1.42-5.49,3.16-5.49,3.16a14.4,14.4,0,0,0-2.12,1.62"/><path class="cls-5" d="M57.08,38a4.53,4.53,0,0,0-.81,1.89l-.94,3.13a7.76,7.76,0,0,1-3.22,3c-2.5,1.42-5.49,3.16-5.49,3.16a12.43,12.43,0,0,0-2.24,1.61,3.62,3.62,0,0,0,1-2.34,6,6,0,0,1,1.57-4,25.93,25.93,0,0,1,4.84-3.21A44.05,44.05,0,0,0,57.08,38"/><path class="cls-5" d="M46.91,44.44a8.55,8.55,0,0,0,1-2.49c.34-1.47.42-2.76,1.38-3.7a25.83,25.83,0,0,1,4.82-3.37,44.05,44.05,0,0,0,5.34-3.19"/><path class="cls-5" d="M59.49,31.68a7.15,7.15,0,0,0-1.19,2.24l-.56,2.77s-.3,1.37-3.22,3S49,42.81,49,42.81a14.4,14.4,0,0,0-2.12,1.62"/><path class="cls-5" d="M46.93,44.4a4.43,4.43,0,0,0-1.25,2.08l-.5,2.94a7.76,7.76,0,0,1-3.22,3c-2.5,1.42-5.49,3.16-5.49,3.16a14.4,14.4,0,0,0-2.12,1.62,3.88,3.88,0,0,0,.84-2.36A5.58,5.58,0,0,1,36.77,51a25.83,25.83,0,0,1,4.82-3.37,44.05,44.05,0,0,0,5.34-3.19"/><path class="cls-5" d="M49.32,38.18a7,7,0,0,0,.84-2.36A6.58,6.58,0,0,1,51.75,32a25.83,25.83,0,0,1,4.82-3.37,44.05,44.05,0,0,0,5.34-3.19"/><path class="cls-5" d="M61.9,25.43a4.53,4.53,0,0,0-.81,1.89l-.94,3.13a7.76,7.76,0,0,1-3.22,3c-2.5,1.42-5.49,3.16-5.49,3.16a14.4,14.4,0,0,0-2.12,1.62"/><path class="cls-5" d="M51.75,31.79A7.15,7.15,0,0,0,50.56,34L50,36.81s-.3,1.37-3.22,3-5.49,3.16-5.49,3.16a14.4,14.4,0,0,0-2.12,1.62A3.88,3.88,0,0,0,40,42.18a5.58,5.58,0,0,1,1.59-3.84A25.83,25.83,0,0,1,46.41,35a44.05,44.05,0,0,0,5.34-3.19"/><path class="cls-5" d="M39.18,44.51a4.43,4.43,0,0,0-1.25,2.08l-.5,2.94a7.76,7.76,0,0,1-3.22,3c-2.5,1.42-5.49,3.16-5.49,3.16a14.4,14.4,0,0,0-2.12,1.62,3.88,3.88,0,0,0,.84-2.36A5.58,5.58,0,0,1,29,51.06a25.83,25.83,0,0,1,4.82-3.37,44.05,44.05,0,0,0,5.34-3.19"/><path class="cls-5" d="M41.77,38.18a7,7,0,0,0,.84-2.36A6.58,6.58,0,0,1,44.2,32,25.83,25.83,0,0,1,49,28.62a44.05,44.05,0,0,0,5.34-3.19"/><path class="cls-5" d="M54.36,25.43a4.53,4.53,0,0,0-.81,1.89l-.94,3.13a7.76,7.76,0,0,1-3.22,3c-2.5,1.42-5.49,3.16-5.49,3.16a14.4,14.4,0,0,0-2.12,1.62"/><path class="cls-5" d="M41.79,38.15a4.76,4.76,0,0,0-1.45,2.18L40,43.17a7.76,7.76,0,0,1-3.22,3c-2.5,1.42-5.49,3.16-5.49,3.16a12.43,12.43,0,0,0-2.24,1.61,3.62,3.62,0,0,0,1-2.34,6,6,0,0,1,1.57-4,25.93,25.93,0,0,1,4.84-3.21,44.05,44.05,0,0,0,5.34-3.19"/><path class="cls-5" d="M31.62,44.55a8.55,8.55,0,0,0,1-2.49c.34-1.47.42-2.76,1.38-3.7A25.83,25.83,0,0,1,38.87,35a44.05,44.05,0,0,0,5.34-3.19"/><path class="cls-5" d="M44.2,31.79A7.15,7.15,0,0,0,43,34l-.56,2.77s-.3,1.37-3.22,3-5.49,3.16-5.49,3.16a14.4,14.4,0,0,0-2.12,1.62"/><path class="cls-5" d="M31.64,44.51a4.43,4.43,0,0,0-1.25,2.08l-.5,2.94a7.76,7.76,0,0,1-3.22,3c-2.5,1.42-5.49,3.16-5.49,3.16a14.4,14.4,0,0,0-2.12,1.62,3.88,3.88,0,0,0,.84-2.36,5.58,5.58,0,0,1,1.59-3.84A25.83,25.83,0,0,1,26.3,47.7a44.05,44.05,0,0,0,5.34-3.19"/><path class="cls-5" d="M34,38.29a7,7,0,0,0,.84-2.36,6.58,6.58,0,0,1,1.59-3.84,25.83,25.83,0,0,1,4.82-3.37,44.05,44.05,0,0,0,5.34-3.19"/><path class="cls-5" d="M46.61,25.54a4.53,4.53,0,0,0-.81,1.89l-.94,3.13a7.76,7.76,0,0,1-3.22,3c-2.5,1.42-5.49,3.16-5.49,3.16A14.4,14.4,0,0,0,34,38.29"/><path class="cls-5" d="M36.46,31.9a7.15,7.15,0,0,0-1.19,2.24l-.56,2.77s-.3,1.37-3.22,3S26,43,26,43a14.4,14.4,0,0,0-2.12,1.62,3.88,3.88,0,0,0,.84-2.36,5.58,5.58,0,0,1,1.59-3.84,25.83,25.83,0,0,1,4.82-3.37,44.05,44.05,0,0,0,5.34-3.19"/><path class="cls-5" d="M23.89,44.62a4.43,4.43,0,0,0-1.25,2.08l-.5,2.94a7.76,7.76,0,0,1-3.22,3c-2.5,1.42-5.49,3.16-5.49,3.16a14.4,14.4,0,0,0-2.12,1.62A3.88,3.88,0,0,0,12.15,55a5.58,5.58,0,0,1,1.59-3.84,25.83,25.83,0,0,1,4.82-3.37,44.05,44.05,0,0,0,5.34-3.19"/><path class="cls-5" d="M150.26,17.77A4.43,4.43,0,0,0,149,19.85l-.5,2.94a7.76,7.76,0,0,1-3.22,3c-2.5,1.42-5.49,3.16-5.49,3.16a14.4,14.4,0,0,0-2.12,1.62,3.88,3.88,0,0,0,.84-2.36,5.58,5.58,0,0,1,1.59-3.84A25.83,25.83,0,0,1,144.93,21a44.05,44.05,0,0,0,5.34-3.19"/><path class="cls-5" d="M142.52,17.87A4.43,4.43,0,0,0,141.27,20l-.5,2.94a7.76,7.76,0,0,1-3.22,3C135,27.26,132.05,29,132.05,29a14.4,14.4,0,0,0-2.12,1.62,3.88,3.88,0,0,0,.84-2.36,5.58,5.58,0,0,1,1.59-3.84,25.83,25.83,0,0,1,4.82-3.37,44.05,44.05,0,0,0,5.34-3.19"/><path class="cls-5" d="M144.6,11.67a4.53,4.53,0,0,0-.81,1.89l-.94,3.13a7.76,7.76,0,0,1-3.22,3c-2.5,1.42-5.49,3.16-5.49,3.16a12.43,12.43,0,0,0-2.24,1.61,3.62,3.62,0,0,0,1-2.34,6,6,0,0,1,1.57-4,25.93,25.93,0,0,1,4.84-3.21,44.05,44.05,0,0,0,5.34-3.19"/><path class="cls-5" d="M134.43,18.07a8.55,8.55,0,0,0,1-2.49c.34-1.47.42-2.76,1.38-3.7a25.83,25.83,0,0,1,4.82-3.37A44.05,44.05,0,0,0,147,5.32"/><path class="cls-5" d="M147,5.32a7.15,7.15,0,0,0-1.19,2.24l-.56,2.77s-.3,1.37-3.22,3-5.49,3.16-5.49,3.16a14.4,14.4,0,0,0-2.12,1.62"/><path class="cls-5" d="M134.44,18a4.43,4.43,0,0,0-1.25,2.08l-.5,2.94a7.76,7.76,0,0,1-3.22,3C127,27.42,124,29.16,124,29.16a14.4,14.4,0,0,0-2.12,1.62,3.88,3.88,0,0,0,.84-2.36,5.58,5.58,0,0,1,1.59-3.84,25.83,25.83,0,0,1,4.82-3.37A44.05,44.05,0,0,0,134.44,18"/><path class="cls-5" d="M136.84,11.81a7,7,0,0,0,.84-2.36,6.58,6.58,0,0,1,1.59-3.84,25.83,25.83,0,0,1,4.82-3.37,44.05,44.05,0,0,0,5.34-3.19"/><path class="cls-5" d="M149.42-.94a4.53,4.53,0,0,0-.81,1.89l-.94,3.13a7.76,7.76,0,0,1-3.22,3c-2.5,1.42-5.49,3.16-5.49,3.16a14.4,14.4,0,0,0-2.12,1.62"/><path class="cls-5" d="M139.27,5.42a7.15,7.15,0,0,0-1.19,2.24l-.56,2.77s-.3,1.37-3.22,3-5.49,3.16-5.49,3.16a14.4,14.4,0,0,0-2.12,1.62,3.88,3.88,0,0,0,.84-2.36A5.58,5.58,0,0,1,129.11,12a25.83,25.83,0,0,1,4.82-3.37,44.05,44.05,0,0,0,5.34-3.19"/><path class="cls-5" d="M126.7,18.14a4.43,4.43,0,0,0-1.25,2.08l-.5,2.94a7.76,7.76,0,0,1-3.22,3c-2.5,1.42-5.49,3.16-5.49,3.16a14.4,14.4,0,0,0-2.12,1.62,3.88,3.88,0,0,0,.84-2.36,5.58,5.58,0,0,1,1.59-3.84,25.83,25.83,0,0,1,4.82-3.37,44.05,44.05,0,0,0,5.34-3.19"/><path class="cls-5" d="M129.29,11.82a7,7,0,0,0,.84-2.36,6.58,6.58,0,0,1,1.59-3.84,25.83,25.83,0,0,1,4.82-3.37,44.05,44.05,0,0,0,5.34-3.19"/><path class="cls-5" d="M141.88-.94A4.53,4.53,0,0,0,141.07,1l-.94,3.13a7.76,7.76,0,0,1-3.22,3c-2.5,1.42-5.49,3.16-5.49,3.16a14.4,14.4,0,0,0-2.12,1.62"/><path class="cls-5" d="M129.31,11.78A4.76,4.76,0,0,0,127.86,14l-.3,2.83a7.76,7.76,0,0,1-3.22,3c-2.5,1.42-5.49,3.16-5.49,3.16a12.43,12.43,0,0,0-2.24,1.61,3.62,3.62,0,0,0,1-2.34,6,6,0,0,1,1.57-4A25.93,25.93,0,0,1,124,15a44.05,44.05,0,0,0,5.34-3.19"/><path class="cls-5" d="M119.14,18.18a8.55,8.55,0,0,0,1-2.49c.34-1.47.42-2.76,1.38-3.7a25.83,25.83,0,0,1,4.82-3.37,44.05,44.05,0,0,0,5.34-3.19"/><path class="cls-5" d="M131.72,5.43a7.15,7.15,0,0,0-1.19,2.24L130,10.44s-.3,1.37-3.22,3-5.49,3.16-5.49,3.16a14.4,14.4,0,0,0-2.12,1.62"/><path class="cls-5" d="M119.15,18.14a4.43,4.43,0,0,0-1.25,2.08l-.5,2.94a7.76,7.76,0,0,1-3.22,3c-2.5,1.42-5.49,3.16-5.49,3.16a14.4,14.4,0,0,0-2.12,1.62,3.88,3.88,0,0,0,.84-2.36A5.58,5.58,0,0,1,109,24.7a25.83,25.83,0,0,1,4.82-3.37,44.05,44.05,0,0,0,5.34-3.19"/><path class="cls-5" d="M121.55,11.92a7,7,0,0,0,.84-2.36A6.58,6.58,0,0,1,124,5.73a25.83,25.83,0,0,1,4.82-3.37,44.05,44.05,0,0,0,5.34-3.19"/><path class="cls-5" d="M134.13-.83a4.53,4.53,0,0,0-.81,1.89l-.94,3.13a7.76,7.76,0,0,1-3.22,3c-2.5,1.42-5.49,3.16-5.49,3.16a14.4,14.4,0,0,0-2.12,1.62"/><path class="cls-5" d="M124,5.53a7.15,7.15,0,0,0-1.19,2.24l-.56,2.77s-.3,1.37-3.22,3-5.49,3.16-5.49,3.16a14.4,14.4,0,0,0-2.12,1.62,3.88,3.88,0,0,0,.84-2.36,5.58,5.58,0,0,1,1.59-3.84,25.83,25.83,0,0,1,4.82-3.37A44.05,44.05,0,0,0,124,5.53"/><path class="cls-5" d="M111.41,18.25a4.43,4.43,0,0,0-1.25,2.08l-.5,2.94a7.76,7.76,0,0,1-3.22,3c-2.5,1.42-5.49,3.16-5.49,3.16A14.4,14.4,0,0,0,98.83,31a3.88,3.88,0,0,0,.84-2.36,5.58,5.58,0,0,1,1.59-3.84,25.83,25.83,0,0,1,4.82-3.37,44.05,44.05,0,0,0,5.34-3.19"/><path class="cls-5" d="M150.43,36.89a4.53,4.53,0,0,0-.81,1.89l-.94,3.13a7.76,7.76,0,0,1-3.22,3C143,46.28,140,48,140,48a12.43,12.43,0,0,0-2.24,1.61,3.62,3.62,0,0,0,1-2.34,6,6,0,0,1,1.57-4,25.93,25.93,0,0,1,4.84-3.21,44.05,44.05,0,0,0,5.34-3.19"/><path class="cls-5" d="M140.26,43.28a8.55,8.55,0,0,0,1-2.49c.34-1.47.42-2.76,1.38-3.7a25.83,25.83,0,0,1,4.82-3.37,44.05,44.05,0,0,0,5.34-3.19"/><path class="cls-5" d="M152.84,30.53a7.15,7.15,0,0,0-1.19,2.24l-.56,2.77s-.3,1.37-3.22,3-5.49,3.16-5.49,3.16a14.4,14.4,0,0,0-2.12,1.62"/><path class="cls-5" d="M140.28,43.25A4.43,4.43,0,0,0,139,45.33l-.5,2.94a7.76,7.76,0,0,1-3.22,3c-2.5,1.42-5.49,3.16-5.49,3.16A14.4,14.4,0,0,0,127.69,56a3.88,3.88,0,0,0,.84-2.36,5.58,5.58,0,0,1,1.59-3.84,25.83,25.83,0,0,1,4.82-3.37,44.05,44.05,0,0,0,5.34-3.19"/><path class="cls-5" d="M145.1,30.64a7.15,7.15,0,0,0-1.19,2.24l-.56,2.77s-.3,1.37-3.22,3-5.49,3.16-5.49,3.16a14.4,14.4,0,0,0-2.12,1.62,3.88,3.88,0,0,0,.84-2.36,5.58,5.58,0,0,1,1.59-3.84,25.83,25.83,0,0,1,4.82-3.37,44.05,44.05,0,0,0,5.34-3.19"/><path class="cls-5" d="M132.53,43.36a4.43,4.43,0,0,0-1.25,2.08l-.5,2.94a7.76,7.76,0,0,1-3.22,3c-2.5,1.42-5.49,3.16-5.49,3.16a14.4,14.4,0,0,0-2.12,1.62,3.88,3.88,0,0,0,.84-2.36,5.58,5.58,0,0,1,1.59-3.84,25.83,25.83,0,0,1,4.82-3.37,44.05,44.05,0,0,0,5.34-3.19"/><path class="cls-5" d="M135.12,37a7,7,0,0,0,.84-2.36,6.58,6.58,0,0,1,1.59-3.84,25.83,25.83,0,0,1,4.82-3.37,44.05,44.05,0,0,0,5.34-3.19"/><path class="cls-5" d="M147.71,24.28a4.53,4.53,0,0,0-.81,1.89L146,29.3a7.76,7.76,0,0,1-3.22,3c-2.5,1.42-5.49,3.16-5.49,3.16A14.4,14.4,0,0,0,135.12,37"/><path class="cls-5" d="M135.14,37a4.76,4.76,0,0,0-1.45,2.18l-.3,2.83a7.76,7.76,0,0,1-3.22,3c-2.5,1.42-5.49,3.16-5.49,3.16a12.43,12.43,0,0,0-2.24,1.61,3.62,3.62,0,0,0,1-2.34,6,6,0,0,1,1.57-4,25.93,25.93,0,0,1,4.84-3.21A44.05,44.05,0,0,0,135.14,37"/><path class="cls-5" d="M125,43.39a8.55,8.55,0,0,0,1-2.49c.34-1.47.42-2.76,1.38-3.7a25.83,25.83,0,0,1,4.82-3.37,44.05,44.05,0,0,0,5.34-3.19"/><path class="cls-5" d="M137.55,30.64a7.15,7.15,0,0,0-1.19,2.24l-.56,2.77s-.3,1.37-3.22,3-5.49,3.16-5.49,3.16A14.4,14.4,0,0,0,125,43.39"/><path class="cls-5" d="M125,43.36a4.43,4.43,0,0,0-1.25,2.08l-.5,2.94a7.76,7.76,0,0,1-3.22,3c-2.5,1.42-5.49,3.16-5.49,3.16a14.4,14.4,0,0,0-2.12,1.62,3.88,3.88,0,0,0,.84-2.36,5.58,5.58,0,0,1,1.59-3.84,25.83,25.83,0,0,1,4.82-3.37A44.05,44.05,0,0,0,125,43.36"/><path class="cls-5" d="M127.38,37.14a7,7,0,0,0,.84-2.36,6.58,6.58,0,0,1,1.59-3.84,25.83,25.83,0,0,1,4.82-3.37A44.05,44.05,0,0,0,140,24.39"/><path class="cls-5" d="M140,24.39a4.53,4.53,0,0,0-.81,1.89l-.94,3.13a7.76,7.76,0,0,1-3.22,3c-2.5,1.42-5.49,3.16-5.49,3.16a14.4,14.4,0,0,0-2.12,1.62"/><path class="cls-5" d="M129.81,30.75A7.15,7.15,0,0,0,128.62,33l-.56,2.77s-.3,1.37-3.22,3-5.49,3.16-5.49,3.16a14.4,14.4,0,0,0-2.12,1.62,3.88,3.88,0,0,0,.84-2.36,5.58,5.58,0,0,1,1.59-3.84,25.83,25.83,0,0,1,4.82-3.37,44.05,44.05,0,0,0,5.34-3.19"/><path class="cls-5" d="M117.24,43.47A4.43,4.43,0,0,0,116,45.54l-.5,2.94a7.76,7.76,0,0,1-3.22,3c-2.5,1.42-5.49,3.16-5.49,3.16a14.4,14.4,0,0,0-2.12,1.62,3.88,3.88,0,0,0,.84-2.36A5.58,5.58,0,0,1,107.09,50a25.83,25.83,0,0,1,4.82-3.37,44.05,44.05,0,0,0,5.34-3.19"/><path class="cls-5" d="M119.3,37.3a7,7,0,0,0,.84-2.36,6.58,6.58,0,0,1,1.59-3.84,25.83,25.83,0,0,1,4.82-3.37,44.05,44.05,0,0,0,5.34-3.19"/><path class="cls-5" d="M131.89,24.55a4.53,4.53,0,0,0-.81,1.89l-.94,3.13a7.76,7.76,0,0,1-3.22,3c-2.5,1.42-5.49,3.16-5.49,3.16a14.4,14.4,0,0,0-2.12,1.62"/><path class="cls-5" d="M119.32,37.26a4.53,4.53,0,0,0-.81,1.89l-.94,3.13a7.76,7.76,0,0,1-3.22,3c-2.5,1.42-5.49,3.16-5.49,3.16A12.43,12.43,0,0,0,106.62,50a3.62,3.62,0,0,0,1-2.34,6,6,0,0,1,1.57-4A25.93,25.93,0,0,1,114,40.45a44.05,44.05,0,0,0,5.34-3.19"/><path class="cls-5" d="M109.15,43.66a8.55,8.55,0,0,0,1-2.49c.34-1.47.42-2.76,1.38-3.7a25.83,25.83,0,0,1,4.82-3.37,44.05,44.05,0,0,0,5.34-3.19"/><path class="cls-5" d="M121.73,30.91a7.15,7.15,0,0,0-1.19,2.24L120,35.92s-.3,1.37-3.22,3S111.27,42,111.27,42a14.4,14.4,0,0,0-2.12,1.62"/><path class="cls-5" d="M109.17,43.63a4.43,4.43,0,0,0-1.25,2.08l-.5,2.94a7.76,7.76,0,0,1-3.22,3c-2.5,1.42-5.49,3.16-5.49,3.16a14.4,14.4,0,0,0-2.12,1.62A3.88,3.88,0,0,0,97.42,54,5.58,5.58,0,0,1,99,50.18a25.83,25.83,0,0,1,4.82-3.37,44.05,44.05,0,0,0,5.34-3.19"/><path class="cls-5" d="M111.56,37.4A7,7,0,0,0,112.4,35,6.58,6.58,0,0,1,114,31.21a25.83,25.83,0,0,1,4.82-3.37,44.05,44.05,0,0,0,5.34-3.19"/><path class="cls-5" d="M124.15,24.65a4.53,4.53,0,0,0-.81,1.89l-.94,3.13a7.76,7.76,0,0,1-3.22,3c-2.5,1.42-5.49,3.16-5.49,3.16a14.4,14.4,0,0,0-2.12,1.62"/><path class="cls-5" d="M114,31a7.15,7.15,0,0,0-1.19,2.24L112.24,36s-.3,1.37-3.22,3-5.49,3.16-5.49,3.16a14.4,14.4,0,0,0-2.12,1.62,3.88,3.88,0,0,0,.84-2.36,5.58,5.58,0,0,1,1.59-3.84,25.83,25.83,0,0,1,4.82-3.37A44.05,44.05,0,0,0,114,31"/><path class="cls-5" d="M101.42,43.73a4.43,4.43,0,0,0-1.25,2.08l-.5,2.94a7.76,7.76,0,0,1-3.22,3C93.95,53.12,91,54.86,91,54.86a14.4,14.4,0,0,0-2.12,1.62,3.88,3.88,0,0,0,.84-2.36,5.58,5.58,0,0,1,1.59-3.84,25.83,25.83,0,0,1,4.82-3.37,44.05,44.05,0,0,0,5.34-3.19"/><path class="cls-5" d="M104,37.41a7,7,0,0,0,.84-2.36,6.58,6.58,0,0,1,1.59-3.84,25.83,25.83,0,0,1,4.82-3.37,44.05,44.05,0,0,0,5.34-3.19"/><path class="cls-5" d="M116.6,24.66a4.53,4.53,0,0,0-.81,1.89l-.94,3.13a7.76,7.76,0,0,1-3.22,3c-2.5,1.42-5.49,3.16-5.49,3.16A14.4,14.4,0,0,0,104,37.41"/><path class="cls-5" d="M104,37.37a4.76,4.76,0,0,0-1.45,2.18l-.3,2.83a7.76,7.76,0,0,1-3.22,3c-2.5,1.42-5.49,3.16-5.49,3.16a12.43,12.43,0,0,0-2.24,1.61,3.62,3.62,0,0,0,1-2.34,6,6,0,0,1,1.57-4,25.93,25.93,0,0,1,4.84-3.21A44.05,44.05,0,0,0,104,37.37"/><path class="cls-5" d="M93.86,43.77a8.55,8.55,0,0,0,1-2.49c.34-1.47.42-2.76,1.38-3.7a25.83,25.83,0,0,1,4.82-3.37A44.05,44.05,0,0,0,106.44,31"/><path class="cls-5" d="M106.44,31a7.15,7.15,0,0,0-1.19,2.24L104.69,36s-.3,1.37-3.22,3S96,42.14,96,42.14a14.4,14.4,0,0,0-2.12,1.62"/><path class="cls-5" d="M93.88,43.73a4.43,4.43,0,0,0-1.25,2.08l-.5,2.94a7.76,7.76,0,0,1-3.22,3c-2.5,1.42-5.49,3.16-5.49,3.16a14.4,14.4,0,0,0-2.12,1.62,3.88,3.88,0,0,0,.84-2.36,5.58,5.58,0,0,1,1.59-3.84,25.83,25.83,0,0,1,4.82-3.37,44.05,44.05,0,0,0,5.34-3.19"/><path class="cls-5" d="M96.27,37.51a7,7,0,0,0,.84-2.36,6.58,6.58,0,0,1,1.59-3.84A25.83,25.83,0,0,1,103.52,28a44.05,44.05,0,0,0,5.34-3.19"/><path class="cls-5" d="M108.85,24.76a4.53,4.53,0,0,0-.81,1.89l-.94,3.13a7.76,7.76,0,0,1-3.22,3c-2.5,1.42-5.49,3.16-5.49,3.16a14.4,14.4,0,0,0-2.12,1.62"/><path class="cls-5" d="M98.7,31.12a7.15,7.15,0,0,0-1.19,2.24l-.56,2.77s-.3,1.37-3.22,3-5.49,3.16-5.49,3.16a14.4,14.4,0,0,0-2.12,1.62A3.88,3.88,0,0,0,87,41.51a5.58,5.58,0,0,1,1.59-3.84,25.83,25.83,0,0,1,4.82-3.37,44.05,44.05,0,0,0,5.34-3.19"/><path class="cls-5" d="M86.13,43.84a4.43,4.43,0,0,0-1.25,2.08l-.5,2.94a7.76,7.76,0,0,1-3.22,3C78.66,53.23,75.67,55,75.67,55a14.4,14.4,0,0,0-2.12,1.62,3.88,3.88,0,0,0,.84-2.36A5.58,5.58,0,0,1,76,50.4,25.83,25.83,0,0,1,80.8,47a44.05,44.05,0,0,0,5.34-3.19"/><path class="cls-5" d="M62.51,63.62a7,7,0,0,0,.84-2.36,6.58,6.58,0,0,1,1.59-3.84,25.83,25.83,0,0,1,4.82-3.37,44.05,44.05,0,0,0,5.34-3.19"/><path class="cls-5" d="M75.09,50.86a4.53,4.53,0,0,0-.81,1.89l-.94,3.13a7.76,7.76,0,0,1-3.22,3C67.62,60.25,64.63,62,64.63,62a14.4,14.4,0,0,0-2.12,1.62"/><path class="cls-5" d="M62.53,63.58a4.53,4.53,0,0,0-.81,1.89l-.94,3.13a7.76,7.76,0,0,1-3.22,3c-2.5,1.42-5.49,3.16-5.49,3.16a12.43,12.43,0,0,0-2.24,1.61,3.62,3.62,0,0,0,1-2.34,6,6,0,0,1,1.57-4,25.93,25.93,0,0,1,4.84-3.21,44.05,44.05,0,0,0,5.34-3.19"/><path class="cls-5" d="M52.35,70a8.55,8.55,0,0,0,1-2.49c.34-1.47.42-2.76,1.38-3.7a25.83,25.83,0,0,1,4.82-3.37,44.05,44.05,0,0,0,5.34-3.19"/><path class="cls-5" d="M64.94,57.23a7.15,7.15,0,0,0-1.19,2.24l-.56,2.77s-.3,1.37-3.22,3-5.49,3.16-5.49,3.16A14.4,14.4,0,0,0,52.35,70"/><path class="cls-5" d="M52.37,69.94A4.43,4.43,0,0,0,51.12,72L50.62,75a7.76,7.76,0,0,1-3.22,3c-2.5,1.42-5.49,3.16-5.49,3.16a14.4,14.4,0,0,0-2.12,1.62,3.88,3.88,0,0,0,.84-2.36,5.58,5.58,0,0,1,1.59-3.84A25.83,25.83,0,0,1,47,73.13a44.05,44.05,0,0,0,5.34-3.19"/><path class="cls-5" d="M54.76,63.72a7,7,0,0,0,.84-2.36,6.58,6.58,0,0,1,1.59-3.84A25.83,25.83,0,0,1,62,54.16,44.05,44.05,0,0,0,67.35,51"/><path class="cls-5" d="M67.35,51a4.53,4.53,0,0,0-.81,1.89L65.6,56a7.76,7.76,0,0,1-3.22,3c-2.5,1.42-5.49,3.16-5.49,3.16a14.4,14.4,0,0,0-2.12,1.62"/><path class="cls-5" d="M57.19,57.33A7.15,7.15,0,0,0,56,59.58l-.56,2.77s-.3,1.37-3.22,3-5.49,3.16-5.49,3.16a14.4,14.4,0,0,0-2.12,1.62,3.88,3.88,0,0,0,.84-2.36A5.58,5.58,0,0,1,47,63.89a25.83,25.83,0,0,1,4.82-3.37,44.05,44.05,0,0,0,5.34-3.19"/><path class="cls-5" d="M44.63,70a4.43,4.43,0,0,0-1.25,2.08l-.5,2.94a7.76,7.76,0,0,1-3.22,3c-2.5,1.42-5.49,3.16-5.49,3.16A14.4,14.4,0,0,0,32,82.8a3.88,3.88,0,0,0,.84-2.36,5.58,5.58,0,0,1,1.59-3.84,25.83,25.83,0,0,1,4.82-3.37A44.05,44.05,0,0,0,44.63,70"/><path class="cls-5" d="M47.22,63.73a7,7,0,0,0,.84-2.36,6.58,6.58,0,0,1,1.59-3.84,25.83,25.83,0,0,1,4.82-3.37A44.05,44.05,0,0,0,59.8,51"/><path class="cls-5" d="M59.8,51A4.53,4.53,0,0,0,59,52.86L58.05,56a7.76,7.76,0,0,1-3.22,3c-2.5,1.42-5.49,3.16-5.49,3.16a14.4,14.4,0,0,0-2.12,1.62"/><path class="cls-5" d="M47.24,63.69a4.76,4.76,0,0,0-1.45,2.18l-.3,2.83a7.76,7.76,0,0,1-3.22,3c-2.5,1.42-5.49,3.16-5.49,3.16a12.43,12.43,0,0,0-2.24,1.61,3.62,3.62,0,0,0,1-2.34,6,6,0,0,1,1.57-4,25.93,25.93,0,0,1,4.84-3.21,44.05,44.05,0,0,0,5.34-3.19"/><path class="cls-5" d="M37.06,70.09a8.55,8.55,0,0,0,1-2.49c.34-1.47.42-2.76,1.38-3.7a25.83,25.83,0,0,1,4.82-3.37,44.05,44.05,0,0,0,5.34-3.19"/><path class="cls-5" d="M49.65,57.33a7.15,7.15,0,0,0-1.19,2.24l-.56,2.77s-.3,1.37-3.22,3-5.49,3.16-5.49,3.16a14.4,14.4,0,0,0-2.12,1.62"/><path class="cls-5" d="M37.08,70.05a4.43,4.43,0,0,0-1.25,2.08l-.5,2.94a7.76,7.76,0,0,1-3.22,3c-2.5,1.42-5.49,3.16-5.49,3.16A14.4,14.4,0,0,0,24.5,82.8a3.88,3.88,0,0,0,.84-2.36,5.58,5.58,0,0,1,1.59-3.84,25.83,25.83,0,0,1,4.82-3.37,44.05,44.05,0,0,0,5.34-3.19"/><path class="cls-5" d="M39.47,63.83a7,7,0,0,0,.84-2.36,6.58,6.58,0,0,1,1.59-3.84,25.83,25.83,0,0,1,4.82-3.37,44.05,44.05,0,0,0,5.34-3.19"/><path class="cls-5" d="M52.06,51.08A4.53,4.53,0,0,0,51.25,53l-.94,3.13a7.76,7.76,0,0,1-3.22,3c-2.5,1.42-5.49,3.16-5.49,3.16a14.4,14.4,0,0,0-2.12,1.62"/><path class="cls-5" d="M41.9,57.44a7.15,7.15,0,0,0-1.19,2.24l-.56,2.77s-.3,1.37-3.22,3-5.49,3.16-5.49,3.16a14.4,14.4,0,0,0-2.12,1.62,3.88,3.88,0,0,0,.84-2.36A5.58,5.58,0,0,1,31.75,64a25.83,25.83,0,0,1,4.82-3.37,44.05,44.05,0,0,0,5.34-3.19"/><path class="cls-5" d="M29.34,70.16a4.43,4.43,0,0,0-1.25,2.08l-.5,2.94a7.76,7.76,0,0,1-3.22,3c-2.5,1.42-5.49,3.16-5.49,3.16a14.4,14.4,0,0,0-2.12,1.62,3.88,3.88,0,0,0,.84-2.36,5.58,5.58,0,0,1,1.59-3.84A25.83,25.83,0,0,1,24,73.35a44.05,44.05,0,0,0,5.34-3.19"/><path class="cls-5" d="M31.4,64a7,7,0,0,0,.84-2.36,6.58,6.58,0,0,1,1.59-3.84,25.83,25.83,0,0,1,4.82-3.37A44.05,44.05,0,0,0,44,51.24"/><path class="cls-5" d="M44,51.24a4.53,4.53,0,0,0-.81,1.89l-.94,3.13a7.76,7.76,0,0,1-3.22,3c-2.5,1.42-5.49,3.16-5.49,3.16A14.4,14.4,0,0,0,31.4,64"/><path class="cls-5" d="M31.42,64a4.53,4.53,0,0,0-.81,1.89L29.67,69a7.76,7.76,0,0,1-3.22,3C23.94,73.34,21,75.08,21,75.08a12.43,12.43,0,0,0-2.24,1.61,3.62,3.62,0,0,0,1-2.34,6,6,0,0,1,1.57-4,25.93,25.93,0,0,1,4.84-3.21A44.05,44.05,0,0,0,31.42,64"/><path class="cls-5" d="M21.24,70.35a8.55,8.55,0,0,0,1-2.49c.34-1.47.42-2.76,1.38-3.7a25.83,25.83,0,0,1,4.82-3.37,44.05,44.05,0,0,0,5.34-3.19"/><path class="cls-5" d="M33.83,57.6a7.15,7.15,0,0,0-1.19,2.24l-.56,2.77s-.3,1.37-3.22,3-5.49,3.16-5.49,3.16a14.4,14.4,0,0,0-2.12,1.62"/><path class="cls-5" d="M21.26,70.32A4.43,4.43,0,0,0,20,72.4l-.5,2.94a7.76,7.76,0,0,1-3.22,3c-2.5,1.42-5.49,3.16-5.49,3.16a14.4,14.4,0,0,0-2.12,1.62,3.88,3.88,0,0,0,.84-2.36,5.58,5.58,0,0,1,1.59-3.84,25.83,25.83,0,0,1,4.82-3.37,44.05,44.05,0,0,0,5.34-3.19"/><path class="cls-5" d="M23.66,64.1a7,7,0,0,0,.84-2.36,6.58,6.58,0,0,1,1.59-3.84,25.83,25.83,0,0,1,4.82-3.37,44.05,44.05,0,0,0,5.34-3.19"/><path class="cls-5" d="M36.24,51.34a4.53,4.53,0,0,0-.81,1.89l-.94,3.13a7.76,7.76,0,0,1-3.22,3c-2.5,1.42-5.49,3.16-5.49,3.16a14.4,14.4,0,0,0-2.12,1.62"/><path class="cls-5" d="M26.08,57.71a7.15,7.15,0,0,0-1.19,2.24l-.56,2.77s-.3,1.37-3.22,3-5.49,3.16-5.49,3.16a14.4,14.4,0,0,0-2.12,1.62,3.88,3.88,0,0,0,.84-2.36,5.58,5.58,0,0,1,1.59-3.84,25.83,25.83,0,0,1,4.82-3.37,44.05,44.05,0,0,0,5.34-3.19"/><path class="cls-5" d="M13.52,70.42a4.43,4.43,0,0,0-1.25,2.08l-.5,2.94a7.76,7.76,0,0,1-3.22,3C6,79.81,3.05,81.55,3.05,81.55A14.4,14.4,0,0,0,.93,83.17a3.88,3.88,0,0,0,.84-2.36A5.58,5.58,0,0,1,3.36,77a25.83,25.83,0,0,1,4.82-3.37,44.05,44.05,0,0,0,5.34-3.19"/><path class="cls-5" d="M16.11,64.1a7,7,0,0,0,.84-2.36,6.58,6.58,0,0,1,1.59-3.84,25.83,25.83,0,0,1,4.82-3.37,44.05,44.05,0,0,0,5.34-3.19"/><path class="cls-5" d="M28.69,51.35a4.53,4.53,0,0,0-.81,1.89l-.94,3.13a7.76,7.76,0,0,1-3.22,3c-2.5,1.42-5.49,3.16-5.49,3.16a14.4,14.4,0,0,0-2.12,1.62"/><path class="cls-5" d="M16.13,64.07a4.76,4.76,0,0,0-1.45,2.18l-.3,2.83a7.76,7.76,0,0,1-3.22,3c-2.5,1.42-5.49,3.16-5.49,3.16A12.43,12.43,0,0,0,3.42,76.8a3.62,3.62,0,0,0,1-2.34,6,6,0,0,1,1.57-4,25.93,25.93,0,0,1,4.84-3.21,44.05,44.05,0,0,0,5.34-3.19"/><path class="cls-5" d="M6,70.46A8.55,8.55,0,0,0,7,68c.34-1.47.42-2.76,1.38-3.7A25.83,25.83,0,0,1,13.2,60.9a44.05,44.05,0,0,0,5.34-3.19"/><path class="cls-5" d="M18.54,57.71A7.15,7.15,0,0,0,17.35,60l-.56,2.77s-.3,1.37-3.22,3-5.49,3.16-5.49,3.16A14.4,14.4,0,0,0,6,70.46"/><path class="cls-5" d="M6,70.43A4.43,4.43,0,0,0,4.72,72.5l-.5,2.94A7.76,7.76,0,0,1,1,78.4c-2.5,1.42-5.49,3.16-5.49,3.16a14.4,14.4,0,0,0-2.12,1.62,3.88,3.88,0,0,0,.84-2.36A5.58,5.58,0,0,1-4.19,77,25.83,25.83,0,0,1,.64,73.62,44.05,44.05,0,0,0,6,70.43"/><path class="cls-5" d="M8.36,64.21a7,7,0,0,0,.84-2.36A6.58,6.58,0,0,1,10.79,58a25.83,25.83,0,0,1,4.82-3.37,44.05,44.05,0,0,0,5.34-3.19"/><path class="cls-5" d="M20.95,51.45a4.53,4.53,0,0,0-.81,1.89l-.94,3.13a7.76,7.76,0,0,1-3.22,3c-2.5,1.42-5.49,3.16-5.49,3.16a14.4,14.4,0,0,0-2.12,1.62"/><path class="cls-5" d="M10.79,57.81a7.15,7.15,0,0,0-1.19,2.24L9,62.83s-.3,1.37-3.22,3S.33,68.94.33,68.94a14.4,14.4,0,0,0-2.12,1.62A3.88,3.88,0,0,0-1,68.21,5.58,5.58,0,0,1,.64,64.37,25.83,25.83,0,0,1,5.46,61a44.05,44.05,0,0,0,5.34-3.19"/><path class="cls-5" d="M37.23,89.21a7,7,0,0,0,.84-2.36A6.58,6.58,0,0,1,39.66,83a25.83,25.83,0,0,1,4.82-3.37,44.05,44.05,0,0,0,5.34-3.19"/><path class="cls-5" d="M49.81,76.46A4.53,4.53,0,0,0,49,78.34l-.94,3.13a7.76,7.76,0,0,1-3.22,3c-2.5,1.42-5.49,3.16-5.49,3.16a14.4,14.4,0,0,0-2.12,1.62"/><path class="cls-5" d="M37.25,89.17a4.53,4.53,0,0,0-.81,1.89l-.94,3.13a7.76,7.76,0,0,1-3.22,3c-2.5,1.42-5.49,3.16-5.49,3.16a12.43,12.43,0,0,0-2.24,1.61,3.62,3.62,0,0,0,1-2.34,6,6,0,0,1,1.57-4,25.93,25.93,0,0,1,4.84-3.21,44.05,44.05,0,0,0,5.34-3.19"/><path class="cls-5" d="M27.07,95.57a8.55,8.55,0,0,0,1-2.49c.34-1.47.42-2.76,1.38-3.7A25.83,25.83,0,0,1,34.32,86a44.05,44.05,0,0,0,5.34-3.19"/><path class="cls-5" d="M39.66,82.82a7.15,7.15,0,0,0-1.19,2.24l-.56,2.77s-.3,1.37-3.22,3-5.49,3.16-5.49,3.16a14.4,14.4,0,0,0-2.12,1.62"/><path class="cls-5" d="M27.09,95.53a4.43,4.43,0,0,0-1.25,2.08l-.5,2.94a7.76,7.76,0,0,1-3.22,3c-2.5,1.42-5.49,3.16-5.49,3.16a14.4,14.4,0,0,0-2.12,1.62,3.88,3.88,0,0,0,.84-2.36,5.58,5.58,0,0,1,1.59-3.84,25.83,25.83,0,0,1,4.82-3.37,44.05,44.05,0,0,0,5.34-3.19"/><path class="cls-5" d="M29.49,89.31A7,7,0,0,0,30.33,87a6.58,6.58,0,0,1,1.59-3.84,25.83,25.83,0,0,1,4.82-3.37,44.05,44.05,0,0,0,5.34-3.19"/><path class="cls-5" d="M42.07,76.56a4.53,4.53,0,0,0-.81,1.89l-.94,3.13a7.76,7.76,0,0,1-3.22,3c-2.5,1.42-5.49,3.16-5.49,3.16a14.4,14.4,0,0,0-2.12,1.62"/><path class="cls-5" d="M31.91,82.92a7.15,7.15,0,0,0-1.19,2.24l-.56,2.77s-.3,1.37-3.22,3-5.49,3.16-5.49,3.16a14.4,14.4,0,0,0-2.12,1.62,3.88,3.88,0,0,0,.84-2.36,5.58,5.58,0,0,1,1.59-3.84,25.83,25.83,0,0,1,4.82-3.37,44.05,44.05,0,0,0,5.34-3.19"/><path class="cls-5" d="M19.35,95.64a4.43,4.43,0,0,0-1.25,2.08l-.5,2.94a7.76,7.76,0,0,1-3.22,3c-2.5,1.42-5.49,3.16-5.49,3.16a14.4,14.4,0,0,0-2.12,1.62A3.88,3.88,0,0,0,7.6,106a5.58,5.58,0,0,1,1.59-3.84A25.83,25.83,0,0,1,14,98.83a44.05,44.05,0,0,0,5.34-3.19"/><path class="cls-5" d="M21.94,89.32A7,7,0,0,0,22.78,87a6.58,6.58,0,0,1,1.59-3.84,25.83,25.83,0,0,1,4.82-3.37,44.05,44.05,0,0,0,5.34-3.19"/><path class="cls-5" d="M34.52,76.57a4.53,4.53,0,0,0-.81,1.89l-.94,3.13a7.76,7.76,0,0,1-3.22,3C27,86,24.06,87.69,24.06,87.69a14.4,14.4,0,0,0-2.12,1.62"/><path class="cls-5" d="M22,89.28a4.76,4.76,0,0,0-1.45,2.18l-.3,2.83a7.76,7.76,0,0,1-3.22,3c-2.5,1.42-5.49,3.16-5.49,3.16A12.43,12.43,0,0,0,9.26,102a3.62,3.62,0,0,0,1-2.34,6,6,0,0,1,1.57-4,25.93,25.93,0,0,1,4.84-3.21A44.05,44.05,0,0,0,22,89.28"/><path class="cls-5" d="M11.78,95.68a8.55,8.55,0,0,0,1-2.49c.34-1.47.42-2.76,1.38-3.7A25.83,25.83,0,0,1,19,86.11a44.05,44.05,0,0,0,5.34-3.19"/><path class="cls-5" d="M24.37,82.93a7.15,7.15,0,0,0-1.19,2.24l-.56,2.77s-.3,1.37-3.22,3-5.49,3.16-5.49,3.16a14.4,14.4,0,0,0-2.12,1.62"/><path class="cls-5" d="M11.8,95.64a4.43,4.43,0,0,0-1.25,2.08l-.5,2.94a7.76,7.76,0,0,1-3.22,3c-2.5,1.42-5.49,3.16-5.49,3.16A14.4,14.4,0,0,0-.78,108.4,3.88,3.88,0,0,0,.06,106a5.58,5.58,0,0,1,1.59-3.84,25.83,25.83,0,0,1,4.82-3.37,44.05,44.05,0,0,0,5.34-3.19"/><path class="cls-5" d="M14.2,89.42A7,7,0,0,0,15,87.06a6.58,6.58,0,0,1,1.59-3.84,25.83,25.83,0,0,1,4.82-3.37,44.05,44.05,0,0,0,5.34-3.19"/><path class="cls-5" d="M26.78,76.67A4.53,4.53,0,0,0,26,78.56L25,81.69a7.76,7.76,0,0,1-3.22,3c-2.5,1.42-5.49,3.16-5.49,3.16a14.4,14.4,0,0,0-2.12,1.62"/><path class="cls-5" d="M16.62,83a7.15,7.15,0,0,0-1.19,2.24L14.87,88s-.3,1.37-3.22,3-5.49,3.16-5.49,3.16A14.4,14.4,0,0,0,4,95.78a3.88,3.88,0,0,0,.84-2.36,5.58,5.58,0,0,1,1.59-3.84,25.83,25.83,0,0,1,4.82-3.37A44.05,44.05,0,0,0,16.62,83"/><path class="cls-5" d="M4.06,95.75a4.43,4.43,0,0,0-1.25,2.08l-.5,2.94a7.76,7.76,0,0,1-3.22,3c-2.5,1.42-5.49,3.16-5.49,3.16a14.4,14.4,0,0,0-2.12,1.62,3.88,3.88,0,0,0,.84-2.36,5.58,5.58,0,0,1,1.59-3.84,25.83,25.83,0,0,1,4.82-3.37,44.05,44.05,0,0,0,5.34-3.19"/><path class="cls-5" d="M6.12,89.58A7,7,0,0,0,7,87.22a6.58,6.58,0,0,1,1.59-3.84A25.83,25.83,0,0,1,13.37,80a44.05,44.05,0,0,0,5.34-3.19"/><path class="cls-5" d="M18.71,76.83a4.53,4.53,0,0,0-.81,1.89L17,81.85a7.76,7.76,0,0,1-3.22,3C11.23,86.22,8.24,88,8.24,88a14.4,14.4,0,0,0-2.12,1.62"/><path class="cls-5" d="M6.14,89.55a4.53,4.53,0,0,0-.81,1.89l-.94,3.13a7.76,7.76,0,0,1-3.22,3c-2.5,1.42-5.49,3.16-5.49,3.16a12.43,12.43,0,0,0-2.24,1.61,3.62,3.62,0,0,0,1-2.34,6,6,0,0,1,1.57-4A25.93,25.93,0,0,1,.8,92.74a44.05,44.05,0,0,0,5.34-3.19"/><path class="cls-5" d="M-4,95.94a8.55,8.55,0,0,0,1-2.49c.34-1.47.42-2.76,1.38-3.7a25.83,25.83,0,0,1,4.82-3.37,44.05,44.05,0,0,0,5.34-3.19"/><path class="cls-5" d="M8.55,83.19a7.15,7.15,0,0,0-1.19,2.24L6.8,88.21s-.3,1.37-3.22,3-5.49,3.16-5.49,3.16A14.4,14.4,0,0,0-4,95.94"/><path class="cls-5" d="M-1.62,89.69a7,7,0,0,0,.84-2.36A6.58,6.58,0,0,1,.8,83.49a25.83,25.83,0,0,1,4.82-3.37A44.05,44.05,0,0,0,11,76.94"/><path class="cls-5" d="M11,76.94a4.53,4.53,0,0,0-.81,1.89L9.21,82A7.76,7.76,0,0,1,6,84.9C3.49,86.32.49,88.06.49,88.06a14.4,14.4,0,0,0-2.12,1.62"/><path class="cls-5" d="M.81,83.3A7.15,7.15,0,0,0-.38,85.54l-.56,2.77s-.3,1.37-3.22,3-5.49,3.16-5.49,3.16A14.4,14.4,0,0,0-11.78,96a3.88,3.88,0,0,0,.84-2.36,5.58,5.58,0,0,1,1.59-3.84,25.83,25.83,0,0,1,4.82-3.37A44.05,44.05,0,0,0,.81,83.3"/><path class="cls-5" d="M-9.17,89.69a7,7,0,0,0,.84-2.36,6.58,6.58,0,0,1,1.59-3.84,25.83,25.83,0,0,1,4.82-3.37,44.05,44.05,0,0,0,5.34-3.19"/><path class="cls-5" d="M3.42,76.94a4.53,4.53,0,0,0-.81,1.89L1.66,82a7.76,7.76,0,0,1-3.22,3c-2.5,1.42-5.49,3.16-5.49,3.16a14.4,14.4,0,0,0-2.12,1.62"/><path class="cls-5" d="M124.75,62.84a7,7,0,0,0,.84-2.36,6.58,6.58,0,0,1,1.59-3.84A25.83,25.83,0,0,1,132,53.28a44.05,44.05,0,0,0,5.34-3.19"/><path class="cls-5" d="M137.33,50.09a4.53,4.53,0,0,0-.81,1.89l-.94,3.13a7.76,7.76,0,0,1-3.22,3c-2.5,1.42-5.49,3.16-5.49,3.16a14.4,14.4,0,0,0-2.12,1.62"/><path class="cls-5" d="M124.77,62.81a4.53,4.53,0,0,0-.81,1.89L123,67.82a7.76,7.76,0,0,1-3.22,3c-2.5,1.42-5.49,3.16-5.49,3.16a12.43,12.43,0,0,0-2.24,1.61,3.62,3.62,0,0,0,1-2.34,6,6,0,0,1,1.57-4A25.93,25.93,0,0,1,119.43,66a44.05,44.05,0,0,0,5.34-3.19"/><path class="cls-5" d="M114.59,69.2a8.55,8.55,0,0,0,1-2.49c.34-1.47.42-2.76,1.38-3.7a25.83,25.83,0,0,1,4.82-3.37,44.05,44.05,0,0,0,5.34-3.19"/><path class="cls-5" d="M127.18,56.45A7.15,7.15,0,0,0,126,58.69l-.56,2.77s-.3,1.37-3.22,3-5.49,3.16-5.49,3.16a14.4,14.4,0,0,0-2.12,1.62"/><path class="cls-5" d="M114.61,69.17a4.43,4.43,0,0,0-1.25,2.08l-.5,2.94a7.76,7.76,0,0,1-3.22,3c-2.5,1.42-5.49,3.16-5.49,3.16A14.4,14.4,0,0,0,102,81.92a3.88,3.88,0,0,0,.84-2.36,5.58,5.58,0,0,1,1.59-3.84,25.83,25.83,0,0,1,4.82-3.37,44.05,44.05,0,0,0,5.34-3.19"/><path class="cls-5" d="M117,62.95a7,7,0,0,0,.84-2.36,6.58,6.58,0,0,1,1.59-3.84,25.83,25.83,0,0,1,4.82-3.37,44.05,44.05,0,0,0,5.34-3.19"/><path class="cls-5" d="M129.59,50.19a4.53,4.53,0,0,0-.81,1.89l-.94,3.13a7.76,7.76,0,0,1-3.22,3c-2.5,1.42-5.49,3.16-5.49,3.16A14.4,14.4,0,0,0,117,62.95"/><path class="cls-5" d="M119.43,56.55a7.15,7.15,0,0,0-1.19,2.24l-.56,2.77s-.3,1.37-3.22,3S109,67.68,109,67.68a14.4,14.4,0,0,0-2.12,1.62,3.88,3.88,0,0,0,.84-2.36,5.58,5.58,0,0,1,1.59-3.84,25.83,25.83,0,0,1,4.82-3.37,44.05,44.05,0,0,0,5.34-3.19"/><path class="cls-5" d="M106.87,69.27a4.43,4.43,0,0,0-1.25,2.08l-.5,2.94a7.76,7.76,0,0,1-3.22,3c-2.5,1.42-5.49,3.16-5.49,3.16A14.4,14.4,0,0,0,94.28,82a3.88,3.88,0,0,0,.84-2.36,5.58,5.58,0,0,1,1.59-3.84,25.83,25.83,0,0,1,4.82-3.37,44.05,44.05,0,0,0,5.34-3.19"/><path class="cls-5" d="M109.46,62.95a7,7,0,0,0,.84-2.36,6.58,6.58,0,0,1,1.59-3.84,25.83,25.83,0,0,1,4.82-3.37A44.05,44.05,0,0,0,122,50.2"/><path class="cls-5" d="M122,50.2a4.53,4.53,0,0,0-.81,1.89l-.94,3.13a7.76,7.76,0,0,1-3.22,3c-2.5,1.42-5.49,3.16-5.49,3.16a14.4,14.4,0,0,0-2.12,1.62"/><path class="cls-5" d="M109.48,62.91A4.76,4.76,0,0,0,108,65.1l-.3,2.83a7.76,7.76,0,0,1-3.22,3C102,72.3,99,74,99,74a12.43,12.43,0,0,0-2.24,1.61,3.62,3.62,0,0,0,1-2.34,6,6,0,0,1,1.57-4,25.93,25.93,0,0,1,4.84-3.21,44.05,44.05,0,0,0,5.34-3.19"/><path class="cls-5" d="M99.3,69.31a8.55,8.55,0,0,0,1-2.49c.34-1.47.42-2.76,1.38-3.7a25.83,25.83,0,0,1,4.82-3.37,44.05,44.05,0,0,0,5.34-3.19"/><path class="cls-5" d="M111.89,56.56a7.15,7.15,0,0,0-1.19,2.24l-.56,2.77s-.3,1.37-3.22,3-5.49,3.16-5.49,3.16a14.4,14.4,0,0,0-2.12,1.62"/><path class="cls-5" d="M99.32,69.28a4.43,4.43,0,0,0-1.25,2.08l-.5,2.94a7.76,7.76,0,0,1-3.22,3c-2.5,1.42-5.49,3.16-5.49,3.16A14.4,14.4,0,0,0,86.74,82a3.88,3.88,0,0,0,.84-2.36,5.58,5.58,0,0,1,1.59-3.84A25.83,25.83,0,0,1,94,72.46a44.05,44.05,0,0,0,5.34-3.19"/><path class="cls-5" d="M101.72,63.05a7,7,0,0,0,.84-2.36,6.58,6.58,0,0,1,1.59-3.84A25.83,25.83,0,0,1,109,53.49a44.05,44.05,0,0,0,5.34-3.19"/><path class="cls-5" d="M114.3,50.3a4.53,4.53,0,0,0-.81,1.89l-.94,3.13a7.76,7.76,0,0,1-3.22,3c-2.5,1.42-5.49,3.16-5.49,3.16a14.4,14.4,0,0,0-2.12,1.62"/><path class="cls-5" d="M104.14,56.66A7.15,7.15,0,0,0,103,58.91l-.56,2.77s-.3,1.37-3.22,3-5.49,3.16-5.49,3.16a14.4,14.4,0,0,0-2.12,1.62,3.88,3.88,0,0,0,.84-2.36A5.58,5.58,0,0,1,94,63.22a25.83,25.83,0,0,1,4.82-3.37,44.05,44.05,0,0,0,5.34-3.19"/><path class="cls-5" d="M91.58,69.38a4.43,4.43,0,0,0-1.25,2.08l-.5,2.94a7.76,7.76,0,0,1-3.22,3c-2.5,1.42-5.49,3.16-5.49,3.16A14.4,14.4,0,0,0,79,82.13a3.88,3.88,0,0,0,.84-2.36,5.58,5.58,0,0,1,1.59-3.84,25.83,25.83,0,0,1,4.82-3.37,44.05,44.05,0,0,0,5.34-3.19"/><path class="cls-5" d="M93.64,63.21a7,7,0,0,0,.84-2.36A6.58,6.58,0,0,1,96.07,57a25.83,25.83,0,0,1,4.82-3.37,44.05,44.05,0,0,0,5.34-3.19"/><path class="cls-5" d="M106.22,50.46a4.53,4.53,0,0,0-.81,1.89l-.94,3.13a7.76,7.76,0,0,1-3.22,3c-2.5,1.42-5.49,3.16-5.49,3.16a14.4,14.4,0,0,0-2.12,1.62"/><path class="cls-5" d="M93.66,63.18a4.53,4.53,0,0,0-.81,1.89l-.94,3.13a7.76,7.76,0,0,1-3.22,3c-2.5,1.42-5.49,3.16-5.49,3.16A12.43,12.43,0,0,0,81,75.91a3.62,3.62,0,0,0,1-2.34,6,6,0,0,1,1.57-4,25.93,25.93,0,0,1,4.84-3.21,44.05,44.05,0,0,0,5.34-3.19"/><path class="cls-5" d="M83.48,69.57a8.55,8.55,0,0,0,1-2.49c.34-1.47.42-2.76,1.38-3.7A25.83,25.83,0,0,1,90.73,60a44.05,44.05,0,0,0,5.34-3.19"/><path class="cls-5" d="M96.07,56.82a7.15,7.15,0,0,0-1.19,2.24l-.56,2.77s-.3,1.37-3.22,3S85.6,68,85.6,68a14.4,14.4,0,0,0-2.12,1.62"/><path class="cls-5" d="M83.5,69.54a4.43,4.43,0,0,0-1.25,2.08l-.5,2.94a7.76,7.76,0,0,1-3.22,3C76,78.93,73,80.67,73,80.67a14.4,14.4,0,0,0-2.12,1.62,3.88,3.88,0,0,0,.84-2.36,5.58,5.58,0,0,1,1.59-3.84,25.83,25.83,0,0,1,4.82-3.37,44.05,44.05,0,0,0,5.34-3.19"/><path class="cls-5" d="M85.9,63.32A7,7,0,0,0,86.74,61a6.58,6.58,0,0,1,1.59-3.84,25.83,25.83,0,0,1,4.82-3.37,44.05,44.05,0,0,0,5.34-3.19"/><path class="cls-5" d="M98.48,50.57a4.53,4.53,0,0,0-.81,1.89l-.94,3.13a7.76,7.76,0,0,1-3.22,3C91,60,88,61.7,88,61.7a14.4,14.4,0,0,0-2.12,1.62"/><path class="cls-5" d="M88.32,56.93a7.15,7.15,0,0,0-1.19,2.24l-.56,2.77s-.3,1.37-3.22,3-5.49,3.16-5.49,3.16a14.4,14.4,0,0,0-2.12,1.62,3.88,3.88,0,0,0,.84-2.36,5.58,5.58,0,0,1,1.59-3.84A25.83,25.83,0,0,1,83,60.12a44.05,44.05,0,0,0,5.34-3.19"/><path class="cls-5" d="M75.76,69.65a4.43,4.43,0,0,0-1.25,2.08L74,74.66a7.76,7.76,0,0,1-3.22,3c-2.5,1.42-5.49,3.16-5.49,3.16a14.4,14.4,0,0,0-2.12,1.62A3.88,3.88,0,0,0,64,80,5.58,5.58,0,0,1,65.6,76.2a25.83,25.83,0,0,1,4.82-3.37,44.05,44.05,0,0,0,5.34-3.19"/><path class="cls-5" d="M78.35,63.32A7,7,0,0,0,79.19,61a6.58,6.58,0,0,1,1.59-3.84,25.83,25.83,0,0,1,4.82-3.37,44.05,44.05,0,0,0,5.34-3.19"/><path class="cls-5" d="M90.93,50.57a4.53,4.53,0,0,0-.81,1.89l-.94,3.13a7.76,7.76,0,0,1-3.22,3c-2.5,1.42-5.49,3.16-5.49,3.16a14.4,14.4,0,0,0-2.12,1.62"/><path class="cls-5" d="M78.37,63.29a4.76,4.76,0,0,0-1.45,2.18l-.3,2.83a7.76,7.76,0,0,1-3.22,3c-2.5,1.42-5.49,3.16-5.49,3.16A12.43,12.43,0,0,0,65.66,76a3.62,3.62,0,0,0,1-2.34,6,6,0,0,1,1.57-4A25.93,25.93,0,0,1,73,66.48a44.05,44.05,0,0,0,5.34-3.19"/><path class="cls-5" d="M68.19,69.68a8.55,8.55,0,0,0,1-2.49c.34-1.47.42-2.76,1.38-3.7a25.83,25.83,0,0,1,4.82-3.37,44.05,44.05,0,0,0,5.34-3.19"/><path class="cls-5" d="M80.78,56.93a7.15,7.15,0,0,0-1.19,2.24L79,61.95s-.3,1.37-3.22,3-5.49,3.16-5.49,3.16a14.4,14.4,0,0,0-2.12,1.62"/><path class="cls-5" d="M68.21,69.65A4.43,4.43,0,0,0,67,71.73l-.5,2.94a7.76,7.76,0,0,1-3.22,3c-2.5,1.42-5.49,3.16-5.49,3.16a14.4,14.4,0,0,0-2.12,1.62A3.88,3.88,0,0,0,56.47,80a5.58,5.58,0,0,1,1.59-3.84,25.83,25.83,0,0,1,4.82-3.37,44.05,44.05,0,0,0,5.34-3.19"/><path class="cls-5" d="M70.61,63.43a7,7,0,0,0,.84-2.36A6.58,6.58,0,0,1,73,57.23a25.83,25.83,0,0,1,4.82-3.37,44.05,44.05,0,0,0,5.34-3.19"/><path class="cls-5" d="M83.19,50.68a4.53,4.53,0,0,0-.81,1.89l-.94,3.13a7.76,7.76,0,0,1-3.22,3c-2.5,1.42-5.49,3.16-5.49,3.16a14.4,14.4,0,0,0-2.12,1.62"/><path class="cls-5" d="M73,57a7.15,7.15,0,0,0-1.19,2.24l-.56,2.77s-.3,1.37-3.22,3-5.49,3.16-5.49,3.16a14.4,14.4,0,0,0-2.12,1.62,3.88,3.88,0,0,0,.84-2.36,5.58,5.58,0,0,1,1.59-3.84,25.83,25.83,0,0,1,4.82-3.37A44.05,44.05,0,0,0,73,57"/><path class="cls-5" d="M60.47,69.76a4.43,4.43,0,0,0-1.25,2.08l-.5,2.94a7.76,7.76,0,0,1-3.22,3C53,79.14,50,80.88,50,80.88a14.4,14.4,0,0,0-2.12,1.62,3.88,3.88,0,0,0,.84-2.36,5.58,5.58,0,0,1,1.59-3.84,25.83,25.83,0,0,1,4.82-3.37,44.05,44.05,0,0,0,5.34-3.19"/><path class="cls-5" d="M99.47,88.43a7,7,0,0,0,.84-2.36,6.58,6.58,0,0,1,1.59-3.84,25.83,25.83,0,0,1,4.82-3.37,44.05,44.05,0,0,0,5.34-3.19"/><path class="cls-5" d="M112.06,75.68a4.53,4.53,0,0,0-.81,1.89l-.94,3.13a7.76,7.76,0,0,1-3.22,3c-2.5,1.42-5.49,3.16-5.49,3.16a14.4,14.4,0,0,0-2.12,1.62"/><path class="cls-5" d="M99.49,88.4a4.53,4.53,0,0,0-.81,1.89l-.94,3.13a7.76,7.76,0,0,1-3.22,3C92,97.78,89,99.52,89,99.52a12.43,12.43,0,0,0-2.24,1.61,3.62,3.62,0,0,0,1-2.34,6,6,0,0,1,1.57-4,25.93,25.93,0,0,1,4.84-3.21,44.05,44.05,0,0,0,5.34-3.19"/><path class="cls-5" d="M89.32,94.79a8.55,8.55,0,0,0,1-2.49c.34-1.47.42-2.76,1.38-3.7a25.83,25.83,0,0,1,4.82-3.37A44.05,44.05,0,0,0,101.9,82"/><path class="cls-5" d="M101.9,82a7.15,7.15,0,0,0-1.19,2.24l-.56,2.77s-.3,1.37-3.22,3-5.49,3.16-5.49,3.16a14.4,14.4,0,0,0-2.12,1.62"/><path class="cls-5" d="M89.33,94.76a4.43,4.43,0,0,0-1.25,2.08l-.5,2.94a7.76,7.76,0,0,1-3.22,3c-2.5,1.42-5.49,3.16-5.49,3.16a14.4,14.4,0,0,0-2.12,1.62,3.88,3.88,0,0,0,.84-2.36,5.58,5.58,0,0,1,1.59-3.84A25.83,25.83,0,0,1,84,97.95a44.05,44.05,0,0,0,5.34-3.19"/><path class="cls-5" d="M91.73,88.54a7,7,0,0,0,.84-2.36,6.58,6.58,0,0,1,1.59-3.84A25.83,25.83,0,0,1,99,79a44.05,44.05,0,0,0,5.34-3.19"/><path class="cls-5" d="M104.31,75.78a4.53,4.53,0,0,0-.81,1.89l-.94,3.13a7.76,7.76,0,0,1-3.22,3c-2.5,1.42-5.49,3.16-5.49,3.16a14.4,14.4,0,0,0-2.12,1.62"/><path class="cls-5" d="M94.16,82.15A7.15,7.15,0,0,0,93,84.39l-.56,2.77s-.3,1.37-3.22,3-5.49,3.16-5.49,3.16a14.4,14.4,0,0,0-2.12,1.62,3.88,3.88,0,0,0,.84-2.36A5.58,5.58,0,0,1,84,88.7a25.83,25.83,0,0,1,4.82-3.37,44.05,44.05,0,0,0,5.34-3.19"/><path class="cls-5" d="M81.59,94.86a4.43,4.43,0,0,0-1.25,2.08l-.5,2.94a7.76,7.76,0,0,1-3.22,3c-2.5,1.42-5.49,3.16-5.49,3.16A14.4,14.4,0,0,0,69,107.61a3.88,3.88,0,0,0,.84-2.36,5.58,5.58,0,0,1,1.59-3.84,25.83,25.83,0,0,1,4.82-3.37,44.05,44.05,0,0,0,5.34-3.19"/><path class="cls-5" d="M84.18,88.54A7,7,0,0,0,85,86.18a6.58,6.58,0,0,1,1.59-3.84A25.83,25.83,0,0,1,91.43,79a44.05,44.05,0,0,0,5.34-3.19"/><path class="cls-5" d="M96.77,75.79A4.53,4.53,0,0,0,96,77.68L95,80.8a7.76,7.76,0,0,1-3.22,3c-2.5,1.42-5.49,3.16-5.49,3.16a14.4,14.4,0,0,0-2.12,1.62"/><path class="cls-5" d="M84.2,88.51a4.76,4.76,0,0,0-1.45,2.18l-.3,2.83a7.76,7.76,0,0,1-3.22,3c-2.5,1.42-5.49,3.16-5.49,3.16a12.43,12.43,0,0,0-2.24,1.61,3.62,3.62,0,0,0,1-2.34,6,6,0,0,1,1.57-4,25.93,25.93,0,0,1,4.84-3.21,44.05,44.05,0,0,0,5.34-3.19"/><path class="cls-5" d="M74,94.9a8.55,8.55,0,0,0,1-2.49c.34-1.47.42-2.76,1.38-3.7a25.83,25.83,0,0,1,4.82-3.37,44.05,44.05,0,0,0,5.34-3.19"/><path class="cls-5" d="M86.61,82.15a7.15,7.15,0,0,0-1.19,2.24l-.56,2.77s-.3,1.37-3.22,3-5.49,3.16-5.49,3.16A14.4,14.4,0,0,0,74,94.9"/><path class="cls-5" d="M74,94.87a4.43,4.43,0,0,0-1.25,2.08l-.5,2.94a7.76,7.76,0,0,1-3.22,3c-2.5,1.42-5.49,3.16-5.49,3.16a14.4,14.4,0,0,0-2.12,1.62,3.88,3.88,0,0,0,.84-2.36,5.58,5.58,0,0,1,1.59-3.84,25.83,25.83,0,0,1,4.82-3.37A44.05,44.05,0,0,0,74,94.87"/><path class="cls-5" d="M76.44,88.65a7,7,0,0,0,.84-2.36,6.58,6.58,0,0,1,1.59-3.84,25.83,25.83,0,0,1,4.82-3.37A44.05,44.05,0,0,0,89,75.89"/><path class="cls-5" d="M89,75.89a4.53,4.53,0,0,0-.81,1.89l-.94,3.13a7.76,7.76,0,0,1-3.22,3C81.55,85.28,78.55,87,78.55,87a14.4,14.4,0,0,0-2.12,1.62"/><path class="cls-5" d="M78.87,82.25a7.15,7.15,0,0,0-1.19,2.24l-.56,2.77s-.3,1.37-3.22,3-5.49,3.16-5.49,3.16A14.4,14.4,0,0,0,66.28,95a3.88,3.88,0,0,0,.84-2.36,5.58,5.58,0,0,1,1.59-3.84,25.83,25.83,0,0,1,4.82-3.37,44.05,44.05,0,0,0,5.34-3.19"/><path class="cls-5" d="M66.3,95a4.43,4.43,0,0,0-1.25,2.08l-.5,2.94a7.76,7.76,0,0,1-3.22,3c-2.5,1.42-5.49,3.16-5.49,3.16a14.4,14.4,0,0,0-2.12,1.62,3.88,3.88,0,0,0,.84-2.36,5.58,5.58,0,0,1,1.59-3.84A25.83,25.83,0,0,1,61,98.16,44.05,44.05,0,0,0,66.3,95"/><path class="cls-5" d="M68.36,88.8a7,7,0,0,0,.84-2.36,6.58,6.58,0,0,1,1.59-3.84,25.83,25.83,0,0,1,4.82-3.37,44.05,44.05,0,0,0,5.34-3.19"/><path class="cls-5" d="M80.95,76.05a4.53,4.53,0,0,0-.81,1.89l-.94,3.13A7.76,7.76,0,0,1,76,84c-2.5,1.42-5.49,3.16-5.49,3.16a14.4,14.4,0,0,0-2.12,1.62"/><path class="cls-5" d="M68.38,88.77a4.53,4.53,0,0,0-.81,1.89l-.94,3.13a7.76,7.76,0,0,1-3.22,3c-2.5,1.42-5.49,3.16-5.49,3.16a12.43,12.43,0,0,0-2.24,1.61,3.62,3.62,0,0,0,1-2.34,6,6,0,0,1,1.57-4A25.93,25.93,0,0,1,63,92a44.05,44.05,0,0,0,5.34-3.19"/><path class="cls-5" d="M58.21,95.17a8.55,8.55,0,0,0,1-2.49c.34-1.47.42-2.76,1.38-3.7a25.83,25.83,0,0,1,4.82-3.37,44.05,44.05,0,0,0,5.34-3.19"/><path class="cls-5" d="M70.79,82.41a7.15,7.15,0,0,0-1.19,2.24L69,87.43s-.3,1.37-3.22,3-5.49,3.16-5.49,3.16a14.4,14.4,0,0,0-2.12,1.62"/><path class="cls-5" d="M58.22,95.13A4.43,4.43,0,0,0,57,97.21l-.5,2.94a7.76,7.76,0,0,1-3.22,3c-2.5,1.42-5.49,3.16-5.49,3.16a14.4,14.4,0,0,0-2.12,1.62,3.88,3.88,0,0,0,.84-2.36,5.58,5.58,0,0,1,1.59-3.84,25.83,25.83,0,0,1,4.82-3.37,44.05,44.05,0,0,0,5.34-3.19"/><path class="cls-5" d="M60.62,88.91a7,7,0,0,0,.84-2.36A6.58,6.58,0,0,1,63,82.71a25.83,25.83,0,0,1,4.82-3.37,44.05,44.05,0,0,0,5.34-3.19"/><path class="cls-5" d="M73.2,76.16A4.53,4.53,0,0,0,72.39,78l-.94,3.13a7.76,7.76,0,0,1-3.22,3c-2.5,1.42-5.49,3.16-5.49,3.16a14.4,14.4,0,0,0-2.12,1.62"/><path class="cls-5" d="M63,82.52a7.15,7.15,0,0,0-1.19,2.24l-.56,2.77s-.3,1.37-3.22,3-5.49,3.16-5.49,3.16a14.4,14.4,0,0,0-2.12,1.62,3.88,3.88,0,0,0,.84-2.36,5.58,5.58,0,0,1,1.59-3.84,25.83,25.83,0,0,1,4.82-3.37A44.05,44.05,0,0,0,63,82.52"/><path class="cls-5" d="M50.48,95.24a4.43,4.43,0,0,0-1.25,2.08l-.5,2.94a7.76,7.76,0,0,1-3.22,3C43,104.62,40,106.37,40,106.37A14.4,14.4,0,0,0,37.9,108a3.88,3.88,0,0,0,.84-2.36,5.58,5.58,0,0,1,1.59-3.84,25.83,25.83,0,0,1,4.82-3.37,44.05,44.05,0,0,0,5.34-3.19"/><path class="cls-5" d="M53.07,88.91a7,7,0,0,0,.84-2.36,6.58,6.58,0,0,1,1.59-3.84,25.83,25.83,0,0,1,4.82-3.37,44.05,44.05,0,0,0,5.34-3.19"/><path class="cls-5" d="M65.66,76.16a4.53,4.53,0,0,0-.81,1.89l-.94,3.13a7.76,7.76,0,0,1-3.22,3c-2.5,1.42-5.49,3.16-5.49,3.16a14.4,14.4,0,0,0-2.12,1.62"/><path class="cls-5" d="M53.09,88.88a4.76,4.76,0,0,0-1.45,2.18l-.3,2.83a7.76,7.76,0,0,1-3.22,3c-2.5,1.42-5.49,3.16-5.49,3.16a12.43,12.43,0,0,0-2.24,1.61,3.62,3.62,0,0,0,1-2.34,6,6,0,0,1,1.57-4,25.93,25.93,0,0,1,4.84-3.21,44.05,44.05,0,0,0,5.34-3.19"/><path class="cls-5" d="M42.92,95.27a8.55,8.55,0,0,0,1-2.49c.34-1.47.42-2.76,1.38-3.7a25.83,25.83,0,0,1,4.82-3.37,44.05,44.05,0,0,0,5.34-3.19"/><path class="cls-5" d="M55.5,82.52a7.15,7.15,0,0,0-1.19,2.24l-.56,2.77s-.3,1.37-3.22,3S45,93.65,45,93.65a14.4,14.4,0,0,0-2.12,1.62"/><path class="cls-5" d="M42.93,95.24a4.43,4.43,0,0,0-1.25,2.08l-.5,2.94a7.76,7.76,0,0,1-3.22,3c-2.5,1.42-5.49,3.16-5.49,3.16A14.4,14.4,0,0,0,30.35,108a3.88,3.88,0,0,0,.84-2.36,5.58,5.58,0,0,1,1.59-3.84,25.83,25.83,0,0,1,4.82-3.37,44.05,44.05,0,0,0,5.34-3.19"/><path class="cls-5" d="M45.33,89a7,7,0,0,0,.84-2.36,6.58,6.58,0,0,1,1.59-3.84,25.83,25.83,0,0,1,4.82-3.37,44.05,44.05,0,0,0,5.34-3.19"/><path class="cls-5" d="M57.91,76.27a4.53,4.53,0,0,0-.81,1.89l-.94,3.13a7.76,7.76,0,0,1-3.22,3c-2.5,1.42-5.49,3.16-5.49,3.16A14.4,14.4,0,0,0,45.33,89"/><path class="cls-5" d="M47.76,82.63a7.15,7.15,0,0,0-1.19,2.24L46,87.65s-.3,1.37-3.22,3-5.49,3.16-5.49,3.16a14.4,14.4,0,0,0-2.12,1.62A3.88,3.88,0,0,0,36,93a5.58,5.58,0,0,1,1.59-3.84,25.83,25.83,0,0,1,4.82-3.37,44.05,44.05,0,0,0,5.34-3.19"/><path class="cls-5" d="M35.19,95.35a4.43,4.43,0,0,0-1.25,2.08l-.5,2.94a7.76,7.76,0,0,1-3.22,3c-2.5,1.42-5.49,3.16-5.49,3.16a14.4,14.4,0,0,0-2.12,1.62,3.88,3.88,0,0,0,.84-2.36A5.58,5.58,0,0,1,25,101.9a25.83,25.83,0,0,1,4.82-3.37,44.05,44.05,0,0,0,5.34-3.19"/></g><path class="cls-2" d="M132.58,25.45H76.41c-2.17,0-7.5-1.05-9.48.1-2.24,1.31-4.24,4-6.11,5.77L45.89,45.47,13.69,76,8.62,80.81a.76.76,0,0,0,.53,1.28H64.84c2.92,0,7,.76,9.86,0,2-.54,4.5-4.13,5.91-5.46l14.86-14L128,31.91l5.14-4.85c.7-.67-.36-1.72-1.06-1.06L78.27,76.75l-3.56,3.36c-1.08,1,.15.48-.9.48H9.15l.53,1.28L63.2,31.13l3.73-3.54c1.1-1,.33-.65.88-.65h64.78a.75.75,0,0,0,0-1.5Z"/></svg>