<svg id="Слой_3" data-name="Слой 3" xmlns="http://www.w3.org/2000/svg" viewBox="0 0 141.73 141.73"><defs><style>.cls-1{fill:#709fcb;}.cls-2,.cls-3{fill:none;stroke:#709fcb;stroke-miterlimit:10;}.cls-2{stroke-width:1.5px;}.cls-3{stroke-width:1.3px;}</style></defs><title>icon</title><path class="cls-1" d="M20,127.65H61.14a.75.75,0,0,0,0-1.5H20a.75.75,0,0,0,0,1.5Z"/><path class="cls-1" d="M19.25,85.76V126.9a.75.75,0,0,0,1.5,0V85.76a.75.75,0,0,0-1.5,0Z"/><path class="cls-1" d="M20,86.51H61.14a.75.75,0,0,0,0-1.5H20a.75.75,0,0,0,0,1.5Z"/><path class="cls-1" d="M31.19,74.22l-11.72,11c-.71.66.36,1.72,1.06,1.06l11.72-11c.71-.66-.36-1.72-1.06-1.06Z"/><path class="cls-1" d="M112.06,36.23H101.71a.78.78,0,0,0,0,1.56h10.36a.78.78,0,0,0,0-1.56Z"/><path class="cls-1" d="M112.84,67.07V37a.78.78,0,0,0-1.56,0V67.07a.78.78,0,0,0,1.56,0Z"/><path class="cls-1" d="M61.67,127.43l9.22-8.82c.7-.67-.36-1.73-1.06-1.06l-9.22,8.82c-.7.67.36,1.73,1.06,1.06Z"/><path class="cls-1" d="M23.88,124.24,58.72,90.36c.69-.68-.37-1.74-1.06-1.06L22.82,123.18c-.69.68.37,1.74,1.06,1.06Z"/><path class="cls-1" d="M60.39,85.76V126.9a.75.75,0,0,0,1.5,0V85.76a.75.75,0,0,0-1.5,0Z"/><path class="cls-1" d="M111.53,36.57,60.61,85.23c-.7.67.36,1.73,1.06,1.06l50.92-48.66c.7-.67-.36-1.73-1.06-1.06Z"/><path class="cls-1" d="M22.57,125H58.19a.75.75,0,0,0,0-1.5H22.57a.75.75,0,0,0,0,1.5Z"/><path class="cls-1" d="M21.82,88.62v35.62a.75.75,0,0,0,1.5,0V88.62a.75.75,0,0,0-1.5,0Z"/><path class="cls-1" d="M58.19,87.87H22.57a.75.75,0,0,0,0,1.5H58.19a.75.75,0,0,0,0-1.5Z"/><path class="cls-1" d="M58.94,124.24V88.62a.75.75,0,0,0-1.5,0v35.62a.75.75,0,0,0,1.5,0Z"/><ellipse class="cls-2" cx="82.6" cy="112.74" rx="13.21" ry="14.39" transform="translate(-55.53 91.43) rotate(-45)"/><ellipse class="cls-3" cx="82.6" cy="112.74" rx="10.5" ry="11.43" transform="translate(-55.53 91.43) rotate(-45)"/><path class="cls-2" d="M73.62,101.46,109,69.33s6.15-5.5,11.72-5.5A13.55,13.55,0,0,1,134.68,77.7c0,3.75-1.51,6.3-3.86,8.86L92.36,123.29"/><path class="cls-1" d="M61.35,56.11H30.5a.75.75,0,0,0,0,1.5H61.35a.75.75,0,0,0,0-1.5Z"/><path class="cls-1" d="M62.31,74.75V56.86a.76.76,0,0,0-.75-.75h-.21a.75.75,0,0,0,0,1.5h.21l-.75-.75V74.75a.75.75,0,0,0,1.5,0Z"/><path class="cls-1" d="M30.5,75.5H61.56a.75.75,0,0,0,0-1.5H30.5a.75.75,0,0,0,0,1.5Z"/><path class="cls-1" d="M29.75,56.86V74.75a.75.75,0,0,0,1.5,0V56.86a.75.75,0,0,0-1.5,0Z"/><path class="cls-1" d="M59.85,72.49V59.12a.75.75,0,0,0-1.5,0V72.49a.75.75,0,0,0,1.5,0Z"/><path class="cls-1" d="M33,73.24H59.1a.75.75,0,0,0,0-1.5H33a.75.75,0,0,0,0,1.5Z"/><path class="cls-1" d="M32.21,59.12V72.49a.75.75,0,0,0,1.5,0V59.12a.75.75,0,0,0-1.5,0Z"/><path class="cls-1" d="M59.1,58.37H33a.75.75,0,0,0,0,1.5H59.1a.75.75,0,0,0,0-1.5Z"/><path class="cls-1" d="M69.06,19.3,30,56.33c-.7.67.36,1.73,1.06,1.06l39.1-37c.7-.67-.36-1.73-1.06-1.06Z"/><path class="cls-1" d="M101.39,19.08H69.87a.75.75,0,0,0,0,1.5h31.52a.75.75,0,0,0,0-1.5Z"/><path class="cls-1" d="M102.46,36.92l0-17.09a.75.75,0,0,0-1.5,0l0,17.09a.75.75,0,0,0,1.5,0Z"/><path class="cls-1" d="M62.09,75.28l40.14-37.64c.71-.66-.36-1.72-1.06-1.06L61,74.22c-.71.66.36,1.72,1.06,1.06Z"/><path class="cls-1" d="M62.09,57.39l40.1-37c.71-.66-.35-1.72-1.06-1.06L61,56.33c-.71.66.35,1.72,1.06,1.06Z"/><path class="cls-1" d="M33.49,72.76,46.56,59.65a.75.75,0,0,0-1.06-1.06L32.43,71.7a.75.75,0,0,0,1.06,1.06Z"/></svg>