<svg id="Слой_3" data-name="Слой 3" xmlns="http://www.w3.org/2000/svg" viewBox="0 0 141.73 141.73"><defs><style>.cls-1{fill:#709fcb;}.cls-2{fill:#fff;}</style></defs><title>icon</title><path class="cls-1" d="M32.19,109.26H9.53c-1.64,0-.53.87-.35.16l2.67-10.81.42-1.68c.23-.94.19-.17-.39-.17h17c1,0-.06-.52,0-.17l.87,4.38,1.8,9.1c.16.81,1.39.46,1.23-.34L30.08,95.95a.64.64,0,0,0-.61-.47H11.81a.64.64,0,0,0-.61.47L7.79,109.72a.64.64,0,0,0,.61.81H32.19A.64.64,0,0,0,32.19,109.26Z"/><line class="cls-2" x1="57.19" y1="70.13" x2="58.44" y2="76.44"/><path class="cls-1" d="M56.58,70.3l1.25,6.31c.16.81,1.39.46,1.23-.34L57.81,70c-.16-.81-1.39-.46-1.23.34Z"/><line class="cls-2" x1="74.18" y1="54.09" x2="76.04" y2="64.33"/><path class="cls-1" d="M73.57,54.26,75.42,64.5c.15.81,1.37.46,1.23-.34L74.8,53.92c-.15-.81-1.37-.46-1.23.34Z"/><path class="cls-1" d="M83.85,32.21l11.62.46,3.1.12c1.38.05.78.27.65-.33l1.17,5.35c.17.8,1.4.46,1.23-.34L100.43,32a.64.64,0,0,0-.61-.47l-16-.63c-.82,0-.82,1.24,0,1.27Z"/><line class="cls-2" x1="32.19" y1="109.89" x2="40.55" y2="102.07"/><path class="cls-1" d="M32.64,110.34,41,102.52c.6-.56-.3-1.46-.9-.9l-8.37,7.83c-.6.56.3,1.46.9.9Z"/><path class="cls-1" d="M88.7,34.11l11.24-.66c.82,0,.82-1.32,0-1.27l-11.24.66c-.82,0-.82,1.32,0,1.27Z"/><path class="cls-1" d="M79.45,42.19l9.7-8.26c.63-.53-.28-1.43-.9-.9l-9.7,8.26c-.63.53.28,1.43.9.9Z"/><path class="cls-1" d="M74.8,54.26l4.82-12.36c.3-.77-.93-1.1-1.23-.34L73.57,53.92c-.3.77.93,1.1,1.23.34Z"/><path class="cls-1" d="M57.62,70.62l17-16.08c.6-.57-.3-1.46-.9-.9l-17,16.08c-.6.57.3,1.46.9.9Z"/><path class="cls-1" d="M47,72l10.16-1.23c.8-.1.81-1.37,0-1.27L47,70.77c-.8.1-.81,1.37,0,1.27Z"/><path class="cls-1" d="M35.84,82.64,47.45,71.86c.6-.56-.3-1.46-.9-.9L34.94,81.74c-.6.56.3,1.46.9.9Z"/><path class="cls-1" d="M30.07,96.35l5.87-13.84c.32-.75-.78-1.4-1.1-.64L29,95.71c-.32.75.78,1.4,1.1.64Z"/><line class="cls-2" x1="76.7" y1="33.36" x2="83.85" y2="31.57"/><path class="cls-1" d="M76.87,34,84,32.18A.64.64,0,0,0,83.68,31l-7.15,1.79A.64.64,0,0,0,76.87,34Z"/><line class="cls-2" x1="65.18" y1="41.74" x2="76.7" y2="33.36"/><path class="cls-1" d="M65.5,42.29,77,33.91c.66-.48,0-1.58-.64-1.1L64.86,41.19c-.66.48,0,1.58.64,1.1Z"/><line class="cls-2" x1="56.01" y1="54.2" x2="65.18" y2="41.74"/><path class="cls-1" d="M56.56,54.53l9.17-12.47c.49-.66-.62-1.3-1.1-.64L55.46,53.88c-.49.66.62,1.3,1.1.64Z"/><line class="cls-2" x1="40.56" y1="69.55" x2="56.01" y2="54.2"/><path class="cls-1" d="M41,70,56.46,54.66a.64.64,0,0,0-.9-.9L40.11,69.1a.64.64,0,0,0,.9.9Z"/><line class="cls-2" x1="33.46" y1="71.4" x2="40.56" y2="69.55"/><path class="cls-1" d="M33.63,72l7.1-1.86a.64.64,0,0,0-.34-1.23l-7.1,1.86A.64.64,0,0,0,33.63,72Z"/><line class="cls-2" x1="21.76" y1="82.66" x2="33.46" y2="71.4"/><path class="cls-1" d="M22.21,83.11l11.7-11.25c.59-.57-.31-1.47-.9-.9L21.31,82.21c-.59.57.31,1.47.9.9Z"/><line class="cls-2" x1="12.03" y1="96.03" x2="21.76" y2="82.66"/><path class="cls-1" d="M12.58,96.35,22.31,83c.48-.67-.62-1.3-1.1-.64L11.48,95.71c-.48.67.62,1.3,1.1.64Z"/><path class="cls-1" d="M22.25,82.83H35a.64.64,0,0,0,0-1.27H22.25a.64.64,0,0,0,0,1.27Z"/><line class="cls-2" x1="33.46" y1="71.4" x2="47" y2="71.4"/><path class="cls-1" d="M33.46,72H47a.64.64,0,0,0,0-1.27H33.46a.64.64,0,0,0,0,1.27Z"/><path class="cls-1" d="M40.56,70.18H57.48a.64.64,0,0,0,0-1.27H40.56a.64.64,0,0,0,0,1.27Z"/><path class="cls-1" d="M56,54.84H74.35a.64.64,0,0,0,0-1.27H56a.64.64,0,0,0,0,1.27Z"/><path class="cls-1" d="M65.18,42.37H79a.64.64,0,0,0,0-1.27H65.18a.64.64,0,0,0,0,1.27Z"/><line class="cls-2" x1="76.7" y1="33.59" x2="88.15" y2="33.47"/><path class="cls-1" d="M76.7,34.23l11.45-.11a.64.64,0,0,0,0-1.27L76.7,33a.64.64,0,0,0,0,1.27Z"/><path class="cls-1" d="M33.82,78.65c0,.32-.85.38-1.1.4a2.35,2.35,0,0,1-1.64-.34v.22a.93.93,0,0,1,.33-.19,3.11,3.11,0,0,1,1-.16c.28,0,1.31,0,1.37.41.12.81,1.35.46,1.23-.34-.29-1.93-5.22-1.88-5.22.17s4.92,2.1,5.22.17C35.17,78.19,33.94,77.84,33.82,78.65Z"/><path class="cls-1" d="M38.08,74.61c0,.32-.85.38-1.1.4a2.35,2.35,0,0,1-1.64-.34v.22a.93.93,0,0,1,.33-.19,3.11,3.11,0,0,1,1-.16c.28,0,1.31,0,1.37.41.12.81,1.35.46,1.23-.34-.29-1.93-5.22-1.88-5.22.17s4.92,2.1,5.22.17C39.43,74.14,38.2,73.8,38.08,74.61Z"/><path class="cls-1" d="M76.9,38.75c0,.32-.85.38-1.1.4a2.35,2.35,0,0,1-1.64-.34V39a.93.93,0,0,1,.33-.19,3.11,3.11,0,0,1,1-.16c.28,0,1.31,0,1.37.41.12.81,1.35.46,1.23-.34-.29-1.93-5.22-1.88-5.22.17s4.92,2.1,5.22.17C78.25,38.29,77,37.94,76.9,38.75Z"/><path class="cls-1" d="M80.37,36c0,.32-.85.38-1.1.4A2.35,2.35,0,0,1,77.62,36v.22a.93.93,0,0,1,.33-.19,3.11,3.11,0,0,1,1-.16c.28,0,1.31,0,1.37.41.12.81,1.35.46,1.23-.34-.29-1.93-5.22-1.88-5.22.17s4.92,2.1,5.22.17C81.72,35.51,80.49,35.16,80.37,36Z"/><path class="cls-1" d="M62.4,109.26H39.75c-1.64,0-.53.87-.35.16l2.67-10.81.42-1.68c.23-.94.19-.17-.39-.17h17c1,0-.06-.52,0-.17L60,101l1.8,9.1c.16.81,1.39.46,1.23-.34L60.29,95.95a.64.64,0,0,0-.61-.47H42a.64.64,0,0,0-.61.47L38,109.72a.64.64,0,0,0,.61.81H62.4A.64.64,0,0,0,62.4,109.26Z"/><line class="cls-2" x1="87.41" y1="70.13" x2="90.13" y2="83.91"/><path class="cls-1" d="M86.79,70.3l2.72,13.77c.16.81,1.39.46,1.23-.34L88,70c-.16-.81-1.39-.46-1.23.34Z"/><line class="cls-2" x1="104.4" y1="54.09" x2="106.91" y2="67.98"/><path class="cls-1" d="M103.78,54.26l2.52,13.88c.15.81,1.37.46,1.23-.34L105,53.92c-.15-.81-1.37-.46-1.23.34Z"/><path class="cls-1" d="M114.06,32.21l15,.6c1.42.06.36-.48.48,0l.81,3.73L132,44.31c.17.8,1.4.46,1.23-.34L130.65,32a.64.64,0,0,0-.61-.47l-16-.63c-.82,0-.82,1.24,0,1.27Z"/><line class="cls-2" x1="62.4" y1="109.89" x2="132.7" y2="44.15"/><path class="cls-1" d="M62.85,110.34l70.3-65.75c.6-.56-.3-1.46-.9-.9L62,109.44c-.6.56.3,1.46.9.9Z"/><path class="cls-1" d="M118.92,34.11l11.24-.66c.82,0,.82-1.32,0-1.27l-11.24.66c-.82,0-.82,1.32,0,1.27Z"/><path class="cls-1" d="M109.66,42.19l9.7-8.26c.63-.53-.28-1.43-.9-.9l-9.7,8.26c-.63.53.28,1.43.9.9Z"/><path class="cls-1" d="M105,54.26l4.82-12.36c.3-.77-.93-1.1-1.23-.34l-4.82,12.36c-.3.77.93,1.1,1.23.34Z"/><path class="cls-1" d="M87.83,70.62l17-16.08c.6-.57-.3-1.46-.9-.9l-17,16.08c-.6.57.3,1.46.9.9Z"/><path class="cls-1" d="M77.22,72l10.16-1.23c.8-.1.81-1.37,0-1.27L77.22,70.77c-.8.1-.81,1.37,0,1.27Z"/><path class="cls-1" d="M66.05,82.64,77.67,71.86c.6-.56-.3-1.46-.9-.9L65.15,81.74c-.6.56.3,1.46.9.9Z"/><path class="cls-1" d="M60.28,96.35l5.87-13.84c.32-.75-.78-1.4-1.1-.64L59.18,95.71c-.32.75.78,1.4,1.1.64Z"/><line class="cls-2" x1="106.91" y1="33.36" x2="114.06" y2="31.57"/><path class="cls-1" d="M107.08,34l7.15-1.79A.64.64,0,0,0,113.9,31l-7.15,1.79a.64.64,0,0,0,.34,1.23Z"/><line class="cls-2" x1="95.4" y1="41.74" x2="106.91" y2="33.36"/><path class="cls-1" d="M95.72,42.29l11.52-8.38c.66-.48,0-1.58-.64-1.1L95.07,41.19c-.66.48,0,1.58.64,1.1Z"/><line class="cls-2" x1="86.23" y1="54.2" x2="95.4" y2="41.74"/><path class="cls-1" d="M86.78,54.53l9.17-12.47c.49-.66-.62-1.3-1.1-.64L85.68,53.88c-.49.66.62,1.3,1.1.64Z"/><line class="cls-2" x1="70.77" y1="69.55" x2="86.23" y2="54.2"/><path class="cls-1" d="M71.23,70,86.68,54.66a.64.64,0,0,0-.9-.9L70.32,69.1a.64.64,0,0,0,.9.9Z"/><line class="cls-2" x1="63.68" y1="71.4" x2="70.77" y2="69.55"/><path class="cls-1" d="M63.85,72l7.1-1.86a.64.64,0,0,0-.34-1.23l-7.1,1.86A.64.64,0,0,0,63.85,72Z"/><line class="cls-2" x1="51.98" y1="82.66" x2="63.68" y2="71.4"/><path class="cls-1" d="M52.43,83.11l11.7-11.25c.59-.57-.31-1.47-.9-.9L51.53,82.21c-.59.57.31,1.47.9.9Z"/><line class="cls-2" x1="42.24" y1="96.03" x2="51.98" y2="82.66"/><path class="cls-1" d="M42.79,96.35,52.53,83c.48-.67-.62-1.3-1.1-.64L41.69,95.71c-.48.67.62,1.3,1.1.64Z"/><path class="cls-1" d="M52.47,82.83H65.24a.64.64,0,0,0,0-1.27H52.47a.64.64,0,0,0,0,1.27Z"/><line class="cls-2" x1="63.68" y1="71.4" x2="77.22" y2="71.4"/><path class="cls-1" d="M63.68,72H77.22a.64.64,0,0,0,0-1.27H63.68a.64.64,0,0,0,0,1.27Z"/><path class="cls-1" d="M70.77,70.18H87.69a.64.64,0,0,0,0-1.27H70.77a.64.64,0,0,0,0,1.27Z"/><path class="cls-1" d="M86.23,54.84h18.34a.64.64,0,0,0,0-1.27H86.23a.64.64,0,0,0,0,1.27Z"/><path class="cls-1" d="M95.4,42.37h13.82a.64.64,0,0,0,0-1.27H95.4a.64.64,0,0,0,0,1.27Z"/><line class="cls-2" x1="106.91" y1="33.59" x2="118.36" y2="33.47"/><path class="cls-1" d="M106.91,34.23l11.45-.11a.64.64,0,0,0,0-1.27L106.91,33a.64.64,0,0,0,0,1.27Z"/><path class="cls-1" d="M64,78.65c0,.32-.85.38-1.1.4a2.35,2.35,0,0,1-1.64-.34v.22a.93.93,0,0,1,.33-.19,3.11,3.11,0,0,1,1-.16c.28,0,1.31,0,1.37.41.12.81,1.35.46,1.23-.34C65,76.73,60,76.77,60,78.82s4.92,2.1,5.22.17C65.39,78.19,64.16,77.84,64,78.65Z"/><path class="cls-1" d="M68.29,74.61c0,.32-.85.38-1.1.4a2.35,2.35,0,0,1-1.64-.34v.22a.93.93,0,0,1,.33-.19,3.11,3.11,0,0,1,1-.16c.28,0,1.31,0,1.37.41.12.81,1.35.46,1.23-.34-.29-1.93-5.22-1.88-5.22.17s4.92,2.1,5.22.17C69.65,74.14,68.42,73.8,68.29,74.61Z"/><path class="cls-1" d="M107.12,38.75c0,.32-.85.38-1.1.4a2.35,2.35,0,0,1-1.64-.34V39a.93.93,0,0,1,.33-.19,3.11,3.11,0,0,1,1-.16c.28,0,1.31,0,1.37.41.12.81,1.35.46,1.23-.34-.29-1.93-5.22-1.88-5.22.17s4.92,2.1,5.22.17C108.47,38.29,107.24,37.94,107.12,38.75Z"/><path class="cls-1" d="M110.58,36c0,.32-.85.38-1.1.4a2.35,2.35,0,0,1-1.64-.34v.22a.93.93,0,0,1,.33-.19,3.11,3.11,0,0,1,1-.16c.28,0,1.31,0,1.37.41.12.81,1.35.46,1.23-.34-.29-1.93-5.22-1.88-5.22.17s4.92,2.1,5.22.17C111.93,35.51,110.71,35.16,110.58,36Z"/></svg>