<svg id="Слой_3" data-name="Слой 3" xmlns="http://www.w3.org/2000/svg" viewBox="0 0 141.73 141.73"><defs><style>.cls-1,.cls-3{fill:none;stroke:#709fcb;stroke-miterlimit:10;}.cls-1{stroke-width:1.5px;}.cls-2{fill:#709fcb;}.cls-3{stroke-width:1.4px;}</style></defs><title>icon</title><path class="cls-1" d="M67.07,77.38a50.55,50.55,0,0,0-4.14,3.71c-2,2.36-5.34,7.54-3.27,13.29a15.08,15.08,0,0,0,8,9.11c13.85,7.05,29.6.89,37-5.09l20.57-18.49s7.39-6.48,7.05-12.81a12.4,12.4,0,0,0-6.5-10.45L74.48,32.95A43.15,43.15,0,0,0,53.8,30c-10.33.92-18.19,8.63-18.19,8.63S19.4,52.65,14.48,58.47c-3.05,3.61-6.87,10.25-3.94,15.77s5.82,6.51,5.82,6.51,5.82,5.12,18.75,4.09S53.23,77,53.23,77l4.4-4.37"/><path class="cls-1" d="M80.62,47.5,112.93,62.6s8.11,5,1.83,10.69c0,0-19.22,16.24-22.32,18.64-3.35,2.6-12.08,6.19-17.42,3.29-7.44-4-1.53-9.6-1.53-9.6"/><path class="cls-1" d="M48.06,67.75,43.18,72a18.51,18.51,0,0,1-18.35,1.23c-6.34-3.13-3-8.14-.9-10.09,5.53-5.25,23-20,23-20,7.87-6.4,19.45-2,19.45-2L70.59,43"/><path class="cls-1" d="M42.23,72.2v-6c0-4.75,2.92-6.08,6.63-4L77.36,77c2.63,1.43,2.13,5,2.13,7.11l-.09,4.5"/><path class="cls-1" d="M66.07,47.13s-3.2-1.92-7.8,2.33L43.41,62.26"/><path class="cls-1" d="M100.11,71.55V66.13s-.16-3.77-3-4.87c-1-.4-6.36-2.81-12.31-5.53"/><path class="cls-2" d="M80,88.73l20.61-16.65c.75-.61-.32-1.66-1.06-1.06L79,87.67c-.75.61.32,1.66,1.06,1.06Z"/><path class="cls-1" d="M46.29,69.29S45.8,67,48.06,67.75l23.73,12C75,81.15,73.07,85.23,74,85.84L79.5,88.2"/><path class="cls-2" d="M62.6,49.13l3.22-1c.92-.29.53-1.74-.4-1.45l-3.22,1c-.92.29-.53,1.74.4,1.45Z"/><path class="cls-2" d="M61.6,52.55c.51-1.31,1.07-2.61,1.52-3.94.31-.92-1.14-1.31-1.45-.4-.45,1.33-1,2.63-1.52,3.94-.35.9,1.1,1.29,1.45.4Z"/><path class="cls-2" d="M72.82,55.65c-3.54-2.06-7.78-4-11.94-4a.75.75,0,0,0,0,1.5c3.9,0,7.87,1.91,11.18,3.84a.75.75,0,0,0,.76-1.3Z"/><path class="cls-2" d="M85,53.85c-4.08-1-9,.46-12.8,1.72-.91.3-.52,1.75.4,1.45,3.56-1.17,8.19-2.67,12-1.72a.75.75,0,0,0,.4-1.45Z"/><path class="cls-2" d="M83.29,50.26l.83,4.52c.17,1,1.62.55,1.45-.4l-.83-4.52c-.17-1-1.62-.55-1.45.4Z"/><path class="cls-2" d="M80.18,48.28l1.61,1.21c.54.4,1.32,1.19,2,1.29.95.14,1.35-1.31.4-1.45.08,0,.07,0-.09,0l-.4-.26c-.4-.27-.79-.55-1.17-.83q-.81-.6-1.61-1.21c-.77-.59-1.51.71-.76,1.3Z"/><path class="cls-2" d="M85.59,64.21V54.89a.75.75,0,0,0-1.5,0v9.32a.75.75,0,0,0,1.5,0Z"/><path class="cls-2" d="M72.64,68.5A80.82,80.82,0,0,1,85,64.93c.95-.2.54-1.64-.4-1.45a80.82,80.82,0,0,0-12.4,3.57c-.89.34-.51,1.79.4,1.45Z"/><path class="cls-2" d="M60.61,64c4,.69,7.86,2.63,11.45,4.43.86.43,1.62-.86.76-1.3-3.7-1.85-7.72-3.87-11.81-4.58-.95-.16-1.35,1.28-.4,1.45Z"/><path class="cls-2" d="M60.06,53V63.27a.75.75,0,0,0,1.5,0V53a.75.75,0,0,0-1.5,0Z"/><path class="cls-2" d="M71.69,56.29V67.77a.75.75,0,0,0,1.5,0V56.29a.75.75,0,0,0-1.5,0Z"/><path class="cls-3" d="M70.59,43C67.9,43.32,66,44.14,66,45.11c0,1.26,3.26,2.29,7.28,2.29s7.28-1,7.28-2.29-3.26-2.29-7.28-2.29a21.82,21.82,0,0,0-2.69.16"/><path class="cls-3" d="M66,46.76C66,48,69.26,49,73.28,49s7.28-1,7.28-2.29"/><path class="cls-3" d="M66,48.41c0,1.26,3.26,2.29,7.28,2.29s7.28-1,7.28-2.29"/><path class="cls-3" d="M66,50.06c0,1.26,3.26,2.29,7.28,2.29s7.28-1,7.28-2.29"/><line class="cls-3" x1="80.56" y1="44.8" x2="80.56" y2="50.39"/><line class="cls-3" x1="66" y1="44.8" x2="66" y2="50.39"/><path class="cls-2" d="M116.57,72.43c3.13-4,3.8-9.39.36-13.41-.63-.74-1.69.33-1.06,1.06,2.87,3.36,2.24,8-.36,11.29-.59.75.46,1.82,1.06,1.06Z"/><path class="cls-2" d="M21.89,69.15c-1.47-5,1.31-8.49,4.76-11.74.7-.66-.36-1.72-1.06-1.06-3.86,3.64-6.77,7.72-5.14,13.2a.75.75,0,0,0,1.45-.4Z"/><path class="cls-2" d="M72.23,91.64c-1.65-2.35-2.47-4.54-1-7.24.46-.85-.83-1.61-1.3-.76-1.72,3.16-1,5.93,1,8.76.55.79,1.85,0,1.3-.76Z"/></svg>