<svg id="Слой_3" data-name="Слой 3" xmlns="http://www.w3.org/2000/svg" xmlns:xlink="http://www.w3.org/1999/xlink" viewBox="0 0 141.73 141.73"><defs><style>.cls-1,.cls-4,.cls-5{fill:none;}.cls-2{fill:#709fcb;}.cls-3{clip-path:url(#clip-path);}.cls-4,.cls-5{stroke:#709fcb;stroke-miterlimit:10;}.cls-4{stroke-width:1.5px;}.cls-5{stroke-width:1.5px;}</style><clipPath id="clip-path"><ellipse class="cls-1" cx="102.3" cy="43.8" rx="8.58" ry="12.8" transform="translate(-8.41 55.06) rotate(-28.99)"/></clipPath></defs><title>icon</title><path class="cls-2" d="M96.06,26.64c-3,2.51-6.75,6-7.53,10-.19.94,1.26,1.35,1.45.4.73-3.7,4.38-6.94,7.15-9.3.74-.63-.33-1.68-1.06-1.06Z"/><path class="cls-2" d="M104.51,21.65l-8.3,4.88a.75.75,0,0,0,.76,1.3l8.3-4.88a.75.75,0,0,0-.76-1.3Z"/><path class="cls-2" d="M118.66,25.89c-3.23-3.3-9.54-3.87-13.77-4.34-1-.11-1,1.39,0,1.5,3.76.42,9.82.94,12.71,3.9.68.69,1.74-.37,1.06-1.06Z"/><path class="cls-2" d="M118.53,54c3-2.93,8.66-7.24,7.83-11.76-1.06-5.75-3-12.53-7.7-16.34-.75-.6-1.82.46-1.06,1.06,4.44,3.56,6.06,9.66,7.19,15,.58,2.77,0,2.66-2.07,5.21a67.14,67.14,0,0,1-5.25,5.76A.75.75,0,0,0,118.53,54Z"/><path class="cls-2" d="M110.3,60.07l8.09-6c.77-.57,0-1.87-.76-1.3l-8.09,6c-.77.57,0,1.87.76,1.3Z"/><path class="cls-2" d="M94.8,53.91c4.33,3.09,9.7,6.06,15.12,6.26,1,0,1-1.47,0-1.5-5.14-.18-10.25-3.11-14.36-6.05-.79-.56-1.54.74-.76,1.3Z"/><path class="cls-2" d="M88.53,37c.78,5.49,2,12.78,6.12,16.8.69.67,1.76-.39,1.06-1.06-3.91-3.79-5-10.94-5.73-16.14-.14-1-1.58-.55-1.45.4Z"/><path class="cls-2" d="M116.91,50c-1.16,1.16-2.29,2.36-3.4,3.57C112,55.22,110.2,57,109.27,59c-.4.87.89,1.64,1.3.76a21.83,21.83,0,0,1,4-5.15q1.66-1.82,3.4-3.57A.75.75,0,0,0,116.91,50Z"/><path class="cls-2" d="M109.79,32.25c.86,6.54,2.76,13.74,7.12,18.83.63.74,1.69-.33,1.06-1.06-4.07-4.75-5.89-11.72-6.68-17.77-.12-.94-1.63-1-1.5,0Z"/><path class="cls-2" d="M96.21,27.82c4.08,2.84,9.32,4.27,14.13,5.15.95.17,1.35-1.27.4-1.45C106,30.66,101,29.3,97,26.52c-.8-.55-1.54.75-.76,1.3Z"/><path class="cls-2" d="M117.82,51.2l8.48-6.46c.76-.58,0-1.88-.76-1.3l-8.48,6.46c-.76.58,0,1.88.76,1.3Z"/><path class="cls-2" d="M110.92,32.89l7.59-5.83c.76-.58,0-1.88-.76-1.3l-7.59,5.83c-.76.58,0,1.88.76,1.3Z"/><g class="cls-3"><ellipse class="cls-4" cx="104.31" cy="42.49" rx="8.58" ry="12.8" transform="translate(-7.52 55.88) rotate(-28.99)"/><ellipse class="cls-4" cx="106.32" cy="41.19" rx="8.58" ry="12.8" transform="translate(-6.64 56.69) rotate(-28.99)"/><ellipse class="cls-4" cx="108.34" cy="39.88" rx="8.58" ry="12.8" transform="translate(-5.76 57.5) rotate(-28.99)"/><ellipse class="cls-4" cx="110.35" cy="38.58" rx="8.58" ry="12.8" transform="translate(-4.87 58.31) rotate(-28.99)"/><ellipse class="cls-4" cx="112.36" cy="37.27" rx="8.58" ry="12.8" transform="translate(-3.99 59.13) rotate(-28.99)"/><ellipse class="cls-4" cx="114.38" cy="35.97" rx="8.58" ry="12.8" transform="translate(-3.1 59.94) rotate(-28.99)"/></g><ellipse class="cls-4" cx="102.3" cy="43.8" rx="8.58" ry="12.8" transform="translate(-8.41 55.06) rotate(-28.99)"/><ellipse class="cls-4" cx="21.45" cy="80.6" rx="2.9" ry="5.03" transform="translate(-49.57 36.86) rotate(-43.47)"/><path class="cls-4" d="M53,41a5,5,0,0,1,1.57-3.64c2.56-2.3,7.31-1.19,10.62,2.48s3.92,8.52,1.36,10.82a4.77,4.77,0,0,1-2.82,1.18"/><path class="cls-4" d="M52.2,41.35c-.77-2.79.27-5.4,1.67-6.33,3.53-2.36,8.69-1.66,12.83,2.93s4.9,10.66,1.71,13.54a4,4,0,0,1-4.44.22"/><ellipse class="cls-4" cx="22.29" cy="79.8" rx="4.06" ry="6.73" transform="translate(-48.79 37.22) rotate(-43.47)"/><path class="cls-4" d="M17.28,75.16a3.39,3.39,0,0,1,1-2.47c1.85-1.76,5.72-.69,8.63,2.38s3.77,7,1.92,8.74a3.17,3.17,0,0,1-1.88.82"/><path class="cls-4" d="M19.49,72a3,3,0,0,1,.73-1.12"/><path class="cls-4" d="M20.23,70.87c1.85-1.76,5.72-.69,8.63,2.38s3.77,7,1.92,8.74a3,3,0,0,1-1.24.7"/><path class="cls-4" d="M21.47,70.17a3,3,0,0,1,.73-1.12c1.85-1.76,5.72-.69,8.63,2.38s3.77,7,1.92,8.74a3,3,0,0,1-1.24.7"/><path class="cls-4" d="M23.44,68.36a3,3,0,0,1,.73-1.12c1.85-1.76,5.72-.69,8.63,2.38s3.77,7,1.92,8.74a3,3,0,0,1-1.24.7"/><path class="cls-4" d="M25.41,66.54a3,3,0,0,1,.73-1.12c1.85-1.76,5.72-.69,8.63,2.38s3.77,7,1.92,8.74a3.06,3.06,0,0,1-1.53.77"/><path class="cls-4" d="M27.39,64.73a3,3,0,0,1,.73-1.12c1.85-1.76,5.72-.69,8.63,2.38s3.77,7,1.92,8.74a3,3,0,0,1-1.24.7"/><path class="cls-4" d="M29.36,62.91a3,3,0,0,1,.73-1.12c1.85-1.76,5.72-.69,8.63,2.38s3.77,7,1.92,8.74a3,3,0,0,1-1.18.68"/><path class="cls-4" d="M31.33,61.1A3,3,0,0,1,32.07,60c1.85-1.76,5.72-.69,8.63,2.38s3.77,7,1.92,8.74a3,3,0,0,1-1.27.71"/><path class="cls-4" d="M33.31,59.29A3,3,0,0,1,34,58.17c1.85-1.76,5.72-.69,8.63,2.38s3.77,7,1.92,8.74a3,3,0,0,1-1.35.73"/><path class="cls-4" d="M35.28,57.47A3,3,0,0,1,36,56.35c1.85-1.76,5.72-.69,8.63,2.38s3.77,7,1.92,8.74a3,3,0,0,1-1.13.66"/><path class="cls-4" d="M37.25,55.66A3,3,0,0,1,38,54.54c1.85-1.76,5.72-.69,8.63,2.38s3.77,7,1.92,8.74a3,3,0,0,1-1.23.7"/><path class="cls-4" d="M39.23,53.84A3,3,0,0,1,40,52.73c1.85-1.76,5.72-.69,8.63,2.38s3.77,7,1.92,8.74a3,3,0,0,1-1.23.7"/><path class="cls-4" d="M41.2,52a3,3,0,0,1,.73-1.12c1.85-1.76,5.72-.69,8.63,2.38s3.77,7,1.92,8.74a2.94,2.94,0,0,1-1.07.64"/><path class="cls-4" d="M43.17,50.21a3,3,0,0,1,.73-1.12c1.85-1.76,5.72-.69,8.63,2.38s3.77,7,1.92,8.74a2.94,2.94,0,0,1-1.08.65"/><path class="cls-4" d="M45.09,48.56a3,3,0,0,1,.79-1.28c1.85-1.76,5.72-.69,8.63,2.38s3.77,7,1.92,8.74a3,3,0,0,1-1.23.7"/><path class="cls-4" d="M47.07,46.72a3,3,0,0,1,.78-1.26c1.85-1.76,5.72-.69,8.63,2.38s3.77,7,1.92,8.74a3,3,0,0,1-1.11.66"/><path class="cls-4" d="M49,45a3,3,0,0,1,.8-1.32c1.85-1.76,5.72-.69,8.63,2.38s3.77,7,1.92,8.74a2.93,2.93,0,0,1-1,.63"/><path class="cls-4" d="M51,43.11a3,3,0,0,1,.79-1.27c1.85-1.76,5.72-.69,8.63,2.38s3.77,7,1.92,8.74a3,3,0,0,1-1.23.7"/><path class="cls-4" d="M52.94,41.44A3,3,0,0,1,53.77,40c1.85-1.76,5.72-.69,8.63,2.38s3.77,7,1.92,8.74a3,3,0,0,1-1.23.7"/><path class="cls-2" d="M69.45,53.83,63,52a.75.75,0,0,0-.4,1.45l6.42,1.79a.75.75,0,0,0,.4-1.45Z"/><path class="cls-2" d="M71.85,46.23l-3.32,8.12c-.37.9,1.09,1.28,1.45.4l3.32-8.12c.37-.9-1.09-1.28-1.45-.4Z"/><path class="cls-2" d="M64,34.27l7.89,12.55c.51.82,1.81.06,1.3-.76L65.33,33.51c-.51-.82-1.81-.06-1.3.76Z"/><path class="cls-2" d="M52.74,31.82l11.74,2.79c.94.22,1.34-1.22.4-1.45L53.14,30.37c-.94-.22-1.34,1.22-.4,1.45Z"/><path class="cls-2" d="M50.23,40.36l3.43-9.07c.34-.91-1.11-1.29-1.45-.4L48.79,40c-.34.91,1.11,1.29,1.45.4Z"/><path class="cls-2" d="M51.78,41.47,50,39.63c-.67-.7-1.72.36-1.06,1.06l1.74,1.84c.67.7,1.72-.36,1.06-1.06Z"/><path class="cls-2" d="M56.15,26.92l-3.73,3.65c-.69.68.37,1.74,1.06,1.06L57.21,28c.69-.68-.37-1.74-1.06-1.06Z"/><path class="cls-2" d="M68.83,28.87l-12-2.15c-.95-.17-1.35,1.28-.4,1.45l12,2.15c.95.17,1.35-1.28.4-1.45Z"/><path class="cls-2" d="M77.65,41.73,69.28,29.22c-.53-.8-1.83,0-1.3.76l8.37,12.51c.53.8,1.83,0,1.3-.76Z"/><path class="cls-2" d="M74,51.31c.73-1.28,1.41-2.59,2-3.92.73-1.5,1.93-3.55,1.74-5.28-.1-1-1.6-1-1.5,0,.17,1.58-1,3.5-1.7,4.87-.59,1.21-1.22,2.41-1.88,3.58a.75.75,0,0,0,1.3.76Z"/><path class="cls-2" d="M69.79,55.09l4.06-3.62c.72-.65-.34-1.7-1.06-1.06L68.72,54c-.72.65.34,1.7,1.06,1.06Z"/><path class="cls-2" d="M73.11,47l4.42-4.16c.71-.66-.36-1.72-1.06-1.06L72,45.9c-.71.66.36,1.72,1.06,1.06Z"/><path class="cls-2" d="M65.21,34.42l3.95-4.29c.65-.71-.4-1.77-1.06-1.06l-3.95,4.29c-.65.71.4,1.77,1.06,1.06Z"/><ellipse class="cls-4" cx="23.4" cy="39.51" rx="6.71" ry="9.83" transform="translate(-20.76 26.93) rotate(-43.47)"/><path class="cls-4" d="M26.91,32a2,2,0,0,1,.18-1.12c.66-1.34,2.79-1.65,4.76-.69s3,2.84,2.37,4.18a2.31,2.31,0,0,1-1.72,1.18"/><path class="cls-4" d="M28.91,29.7a2,2,0,0,1,.19-1c.66-1.34,2.79-1.65,4.76-.69s3,2.84,2.37,4.18a2.29,2.29,0,0,1-1.66,1.17"/><path class="cls-4" d="M25.67,32.38c.91-.84,2.68-.93,4.33-.12,2,1,3,2.84,2.37,4.18a3.31,3.31,0,0,1-2.31,1.17"/><path class="cls-4" d="M27.05,33.75a5.7,5.7,0,0,1,1,.39c2,1,3,2.84,2.37,4.18"/><path class="cls-4" d="M30.93,27.77a2,2,0,0,1,.19-1c.66-1.34,2.79-1.65,4.76-.69s3,2.84,2.37,4.18a2.29,2.29,0,0,1-1.66,1.17"/><path class="cls-4" d="M33,25.8a2,2,0,0,1,.19-1c.66-1.34,2.79-1.65,4.76-.69s3,2.84,2.37,4.18a2.29,2.29,0,0,1-1.66,1.17"/><path class="cls-4" d="M35,24.06a2,2,0,0,1,.19-1c.66-1.34,2.79-1.65,4.76-.69s3,2.84,2.37,4.18a2.29,2.29,0,0,1-1.66,1.17"/><path class="cls-5" d="M36.75,22.38a2,2,0,0,1,.19-1c.66-1.34,2.78-1.65,4.74-.69s3,2.83,2.35,4.17a2.29,2.29,0,0,1-1.65,1.17"/><path class="cls-4" d="M38.77,20c.62-1.26,2.62-1.55,4.46-.64S46.07,22,45.45,23.3a2,2,0,0,1-1.11,1"/><path class="cls-4" d="M40.51,18.67c.61-1.24,2.29-1.68,4-.74,1.93,1.07,2.56,2.86,2.39,3.63a2.14,2.14,0,0,1-1.58,1.3"/><path class="cls-4" d="M42,17.37c.82-1.64,2.44-1.38,4.12-.32s2.08,2.68,1.67,3.61a2.51,2.51,0,0,1-.74.95"/><path class="cls-4" d="M43.34,16.34c.83-1.63,2.38-1.42,4-.41a3,3,0,0,1,1.52,3.52,2.24,2.24,0,0,1-1.53,1.32"/><path class="cls-4" d="M44.83,15c.62-.92,2.22-.92,3.56,0s1.93,2.4,1.31,3.31a1.46,1.46,0,0,1-.56.48"/><path class="cls-4" d="M46.09,15a1.18,1.18,0,0,1,.12-.58c.4-.81,1.6-.8,2.78-.22s1.89,1.51,1.5,2.32a1.37,1.37,0,0,1-1,.7"/><path class="cls-2" d="M50.68,11.88c-.49.91-1.6,2.75-.72,3.68.66.71,1.72-.36,1.06-1.06.14.15.11.39.13.13a2,2,0,0,0,.07-.25,5.82,5.82,0,0,1,.28-.75c.15-.33.31-.66.48-1,.46-.85-.84-1.61-1.3-.76Z"/><path class="cls-2" d="M48.12,14.37a7.49,7.49,0,0,0,3.74-1.68c.69-.68-.37-1.74-1.06-1.06a6.21,6.21,0,0,1-3.08,1.3c-.95.19-.55,1.64.4,1.45Z"/><path class="cls-2" d="M22.28,35.36l2.17.81-.52-.92c-.25,1.37-.52,3.19.73,4.12a9.64,9.64,0,0,0,1.63.76l.79.37c.77.37.19.27.19-.31v2.32l.95-.72c-1.08-.45-2.19-1.19-3.4-.94-1.43.3-1.15,2.51-1.17,3.54l.95-.72-2.43-.89.55.72a7.52,7.52,0,0,0-.32-3.33C21.74,38.82,20.27,38.52,19,38l.55.72V36.59l-.95.72c1,.34,2.1,1,3.12.8,1.59-.35,1.44-2.21,1.53-3.48.07-1-1.43-1-1.5,0,0,.62,0,2.16-.71,1.92l-2-.68a.76.76,0,0,0-.95.72v2.13a.77.77,0,0,0,.55.72c.9.36,2.21.6,2.56,1.6a8.64,8.64,0,0,1,.08,2.44.77.77,0,0,0,.55.72l2.43.89a.76.76,0,0,0,.95-.72c0-.3-.14-2.25.43-2.09a22.23,22.23,0,0,1,2.24.94c.46.19.95-.28.95-.72V40.13a.74.74,0,0,0-.37-.65l-2.63-1.24c-.85-.4-.53-1.8-.39-2.59a.77.77,0,0,0-.52-.92l-2.17-.81C21.77,33.57,21.38,35,22.28,35.36Z"/><ellipse class="cls-4" cx="88.4" cy="89.91" rx="41.5" ry="16.5"/><ellipse class="cls-4" cx="87.74" cy="87.68" rx="41.5" ry="16.5"/><ellipse class="cls-4" cx="91.63" cy="91.18" rx="41.5" ry="16.5"/><ellipse class="cls-4" cx="89.25" cy="94.06" rx="41.5" ry="16.5"/><ellipse class="cls-4" cx="85.14" cy="97.18" rx="41.5" ry="16.5"/><ellipse class="cls-4" cx="89.25" cy="97.18" rx="41.5" ry="16.5"/><ellipse class="cls-4" cx="93.09" cy="97.18" rx="41.5" ry="16.5"/><ellipse class="cls-4" cx="89.25" cy="100.97" rx="41.5" ry="16.5"/><ellipse class="cls-4" cx="85.14" cy="101.19" rx="41.5" ry="16.5"/><ellipse class="cls-4" cx="85.14" cy="91.85" rx="41.5" ry="16.5"/><path class="cls-2" d="M89.73,89.4a44.63,44.63,0,0,0-5.82,1.88c-.83.32-4.17,2.09-5,1.19-.64-.73-1.7.34-1.06,1.06.89,1,2.34.61,3.47.28,3-.87,5.74-2.25,8.77-3,.94-.22.54-1.67-.4-1.45Z"/><path class="cls-2" d="M101,89.88c-1.41,1.25-2,3.38-2.64,5.07a22.28,22.28,0,0,1-1.3,3c-.69,1.23-1-.45-1.25-1.14-1-3.45-1.29-8.2-6.09-7.39-1,.16-.55,1.61.4,1.45,3.1-.52,3.49,2.92,4,5.19.23,1.08.67,3.72,2.14,3.93,3.32.48,3.93-7.33,5.84-9,.73-.64-.34-1.7-1.06-1.06Z"/><path class="cls-2" d="M108.85,96.72c-1.72-1.61-2.74-3.75-4.12-5.63-.85-1.16-2.13-2.29-3.56-1.33-.8.54,0,1.84.76,1.3,1-.67,2.14,1.7,2.56,2.35a22,22,0,0,0,3.3,4.37c.71.66,1.77-.4,1.06-1.06Z"/><path class="cls-2" d="M119.11,100.47c-3.45-.57-7.54-1.47-10.27-3.75-.74-.62-1.8.44-1.06,1.06,3,2.48,7.2,3.52,10.93,4.14.95.16,1.35-1.29.4-1.45Z"/><path class="cls-4" d="M51.59,79.58s3.57-10.24,6,2.15c2.07,10.41-.82,12.33-3.81,10.12"/><path class="cls-4" d="M58.64,75.92s2.73-4.72,5.48-1.8,4.77,17.2-1.74,14.28"/></svg>