<svg id="Слой_3" data-name="Слой 3" xmlns="http://www.w3.org/2000/svg" viewBox="0 0 141.73 141.73"><defs><style>.cls-1,.cls-2{fill:none;stroke:#709fcb;stroke-miterlimit:10;}.cls-1{stroke-width:1.5px;}.cls-2{stroke-width:1.48px;}.cls-3{fill:#709fcb;}</style></defs><title>icon</title><path class="cls-1" d="M70,25.33c2.36,0,4.83,4.62,4.83,4.62l20.77,36,23.07,40s1,1.91.41,3-3.25,1.22-3.25,1.22H25.31s-2.72.12-3.6-1.14.2-3.65.2-3.65L44.63,65.92l21-36.36S68,25.33,70,25.33Z"/><path class="cls-1" d="M70,31.2c1.45-.16,4.31,4.61,4.31,4.61L92.68,67.65,114,104.34s.78,1.52.25,2.21-3.55.66-3.55.66l-82.22.08s-2.11.18-2.68-.72c-.68-1.06.6-3.23.6-3.23L47.59,67.65,66.16,35.47S68.56,31.36,70,31.2Z"/><path class="cls-2" d="M70,37.06c1.28-.14,3.81,4.07,3.81,4.07L90,69.26l18.81,32.42s.69,1.35.22,2-3.14.58-3.14.58l-72.65.07s-1.86.15-2.36-.64.53-2.86.53-2.86L50.19,69.26,66.61,40.83S68.73,37.2,70,37.06Z"/><path class="cls-3" d="M59.68,65H80.93a.76.76,0,0,0,.75-.75V61.45a.76.76,0,0,0-.75-.75,9.56,9.56,0,0,1-4.77-1c-1.94-1-3.43-2.23-5.65-2.56-1.38-.21-2.74.56-3.91,1.17a15.08,15.08,0,0,1-6.92,2,.76.76,0,0,0-.75.75V64.2a.75.75,0,0,0,1.5,0V61.85c0-.82-1.15,0,.61-.16,3.2-.27,7.19-3.39,10.11-3s4.61,3.27,7.56,3.38l1.34.05q1.17.24.12-.43v1.5c0,1.41.29.22.58.22H59.68A.75.75,0,0,0,59.68,65Z"/><circle class="cls-1" cx="70.31" cy="60.67" r="2.03"/><path class="cls-3" d="M59.68,66.14H80.76c.07,0-.58-1.25-.58-.25V81c0-.82,1.28-.69.09-.69H59.85c-.07,0,.58,1.25.58.25V65.39a.75.75,0,0,0-1.5,0V81a.76.76,0,0,0,.75.75H80.93a.76.76,0,0,0,.75-.75V65.39a.76.76,0,0,0-.75-.75H59.68A.75.75,0,0,0,59.68,66.14Z"/><path class="cls-3" d="M61.87,68.39V73.2a.76.76,0,0,0,.75.75h5.06a.76.76,0,0,0,.75-.75V68.39a.76.76,0,0,0-.75-.75H62.62a.75.75,0,0,0,0,1.5h5.06l-.75-.75V73.2l.75-.75H62.62l.75.75V68.39A.75.75,0,0,0,61.87,68.39Z"/><path class="cls-3" d="M72.31,68.39V73.2a.76.76,0,0,0,.75.75h5.06a.76.76,0,0,0,.75-.75V68.39a.76.76,0,0,0-.75-.75H73.06a.75.75,0,0,0,0,1.5h5.06l-.75-.75V73.2l.75-.75H73.06l.75.75V68.39A.75.75,0,0,0,72.31,68.39Z"/><circle class="cls-1" cx="63.25" cy="77.89" r="1.38"/><circle class="cls-1" cx="77.48" cy="77.89" r="1.38"/><path class="cls-3" d="M59.66,81.42l1.88,3.29a.75.75,0,0,0,.65.37h12a17,17,0,0,0,4.1,0c1-.29,1.93-2.77,2.45-3.63a.75.75,0,0,0-1.3-.76l-1.37,2.25c-.78,1.28.4.67-.71.67h-15c-.24,0,.66.73.16-.14L61,80.66a.75.75,0,0,0-1.3.76Z"/><path class="cls-3" d="M60.75,87.2H79.64c-.88,0,.27,1.32.65,2.07l.65-1.13H59.68l.65,1.13,1.06-2.44c.38-.88-.91-1.64-1.3-.76L59,88.51a.76.76,0,0,0,.65,1.13H80.93a.76.76,0,0,0,.65-1.13l-1.25-2.44a.74.74,0,0,0-.65-.37H60.75A.75.75,0,0,0,60.75,87.2Z"/><path class="cls-3" d="M59,91.77H79.36c2.32,0,1.32-.14,2.64,2.07l.65-1.13H57.78l.65,1.13,1.24-2.44c.44-.86-.86-1.62-1.3-.76l-1.24,2.44a.76.76,0,0,0,.65,1.13H82.65a.76.76,0,0,0,.65-1.13c-.43-.72-1.11-2.81-2.17-2.81H59A.75.75,0,0,0,59,91.77Z"/><path class="cls-3" d="M57.51,96.58H80.23c2.68,0,1.68-.23,3.23,2.07l.65-1.13h-28l.65,1.13,1.4-2.44a.75.75,0,0,0-1.3-.76l-1.4,2.44A.76.76,0,0,0,56.11,99h28a.76.76,0,0,0,.65-1.13c-.57-.85-1.27-2.81-2.49-2.81H57.51A.75.75,0,0,0,57.51,96.58Z"/><path class="cls-3" d="M62.06,84.33v2.13a.75.75,0,0,0,1.5,0V84.33a.75.75,0,0,0-1.5,0Z"/><path class="cls-3" d="M60.18,88.89V91a.75.75,0,0,0,1.5,0V88.89a.75.75,0,0,0-1.5,0Z"/><path class="cls-3" d="M58.64,93.7v2.13a.75.75,0,0,0,1.5,0V93.7a.75.75,0,0,0-1.5,0Z"/><path class="cls-3" d="M57,98.27v2.13a.75.75,0,0,0,1.5,0V98.27a.75.75,0,0,0-1.5,0Z"/><path class="cls-3" d="M81.52,98.27v2.13a.75.75,0,0,0,1.5,0V98.27a.75.75,0,0,0-1.5,0Z"/><path class="cls-3" d="M76.79,84.33v2.13a.75.75,0,0,0,1.5,0V84.33a.75.75,0,0,0-1.5,0Z"/><path class="cls-3" d="M78.62,88.89V91a.75.75,0,0,0,1.5,0V88.89a.75.75,0,0,0-1.5,0Z"/><path class="cls-3" d="M80.18,93.7v2.13a.75.75,0,0,0,1.5,0V93.7a.75.75,0,0,0-1.5,0Z"/></svg>