<svg id="Слой_3" data-name="Слой 3" xmlns="http://www.w3.org/2000/svg" viewBox="0 0 141.73 141.73"><defs><style>.cls-1{fill:#709fcb;}</style></defs><title>icon</title><path class="cls-1" d="M32.58,94.59,10.63,115.43a.76.76,0,0,0,.53,1.28H81.68c2,0,2.71-1.22,4.14-2.58l13.42-12.74,31.53-29.93,2.84-2.69a.76.76,0,0,0-.53-1.28H111.12a.75.75,0,0,0,0,1.5h21.95l-.53-1.28L82.49,115.22c-.5.48.56,0,.15,0H11.16l.53,1.28L33.64,95.65c.7-.67-.36-1.73-1.06-1.06Z"/><path class="cls-1" d="M36.84,69.7,10.63,94.59a.76.76,0,0,0,.53,1.28H81.68c2,0,2.71-1.22,4.14-2.58L99.24,80.55l31.53-29.93,2.84-2.69a.76.76,0,0,0-.53-1.28H106.85a.75.75,0,0,0,0,1.5h26.21l-.53-1.28L82.49,94.38c-.5.48.56,0,.15,0H11.16l.53,1.28L37.91,70.76c.7-.67-.36-1.73-1.06-1.06Z"/><path class="cls-1" d="M60.9,22,10.63,69.7A.76.76,0,0,0,11.16,71H81.68c2,0,2.71-1.22,4.14-2.58L99.24,55.66l31.53-29.93L133.6,23a.76.76,0,0,0-.53-1.28H61.43a.75.75,0,0,0,0,1.5h71.64L132.54,22,82.49,69.49c-.5.48.56,0,.15,0H11.16l.53,1.28L62,23C62.66,22.37,61.6,21.31,60.9,22Z"/></svg>