<svg id="Слой_3" data-name="Слой 3" xmlns="http://www.w3.org/2000/svg" viewBox="0 0 141.73 141.73"><defs><style>.cls-1{fill:#709fcb;}</style></defs><title>icon</title><path class="cls-1" d="M41.63,96.4,22.8,114.15c-.71.66.36,1.72,1.06,1.06L42.69,97.46c.71-.66-.36-1.72-1.06-1.06Z"/><path class="cls-1" d="M41.32,110.82l-4.09,3.85c-.71.66.36,1.72,1.06,1.06l4.09-3.85c.71-.66-.36-1.72-1.06-1.06Z"/><path class="cls-1" d="M7,76.72,52.14,34c.7-.67-.36-1.73-1.06-1.06L6,75.66c-.7.67.36,1.73,1.06,1.06Z"/><path class="cls-1" d="M82.34,35.56,37.23,78c-.71.66.36,1.72,1.06,1.06L83.4,36.62c.71-.66-.36-1.72-1.06-1.06Z"/><path class="cls-1" d="M82.25,33.48v2.61a.61.61,0,0,0,1.22,0V33.48a.61.61,0,0,0-1.22,0Z"/><path class="cls-1" d="M38.29,76.72,83.4,34c.7-.67-.36-1.73-1.06-1.06L37.23,75.66c-.7.67.36,1.73,1.06,1.06Z"/><path class="cls-1" d="M7.26,78.56V76.19a.75.75,0,0,0-1.5,0v2.37a.75.75,0,0,0,1.5,0Z"/><path class="cls-1" d="M6.51,116H20.94a.76.76,0,0,0,.75-.75V78.56a.76.76,0,0,0-.75-.75H6.51a.75.75,0,0,0,0,1.5H19.68c1.75,0,.51-.42.51-.43v35.78c0,1,1.23-.2,0-.2H6.51a.75.75,0,0,0,0,1.5Z"/><path class="cls-1" d="M7.26,117.58v-2.37a.75.75,0,0,0-1.5,0v2.37a.75.75,0,0,0,1.5,0Z"/><path class="cls-1" d="M23.33,116.83H6.51a.75.75,0,0,0,0,1.5H23.33a.75.75,0,0,0,0-1.5Z"/><path class="cls-1" d="M22.77,75.44H6.51a.75.75,0,0,0,0,1.5H23.32a.75.75,0,0,0,0-1.5H6.51v1.5H22.77a.75.75,0,0,0,0-1.5Z"/><path class="cls-1" d="M23.32,75.58h-.54a.61.61,0,0,0,0,1.22h.54a.61.61,0,0,0,0-1.22Z"/><path class="cls-1" d="M23.94,114.68V78.63a.61.61,0,0,0-1.22,0v36.05a.61.61,0,0,0,1.22,0Z"/><path class="cls-1" d="M37,115.21v2.37a.75.75,0,0,0,1.5,0v-2.37a.75.75,0,0,0-1.5,0Z"/><path class="cls-1" d="M37.76,77.81H23.33a.76.76,0,0,0-.75.75v36.64a.76.76,0,0,0,.75.75H37.76a.75.75,0,0,0,0-1.5H24.58c-1.75,0-.51.42-.51.43V79.12c0-1-1.23.2,0,.2h13.7a.75.75,0,0,0,0-1.5Z"/><path class="cls-1" d="M37,76.19v2.37a.75.75,0,0,0,1.5,0V76.19a.75.75,0,0,0-1.5,0Z"/><path class="cls-1" d="M20.94,76.94H37.76a.75.75,0,0,0,0-1.5H20.94a.75.75,0,0,0,0,1.5Z"/><path class="cls-1" d="M21.49,118.33H37.76a.75.75,0,0,0,0-1.5H21a.75.75,0,0,0,0,1.5H37.76v-1.5H21.49a.75.75,0,0,0,0,1.5Z"/><path class="cls-1" d="M20.19,79.09v36.05a.75.75,0,0,0,1.5,0V79.09a.75.75,0,0,0-1.5,0Z"/><path class="cls-1" d="M67.68,49.76V69a.75.75,0,0,0,1.5,0V49.76a.75.75,0,0,0-1.5,0Z"/><path class="cls-1" d="M82.11,33.15v2.37a.75.75,0,0,0,1.5,0V33.15a.75.75,0,0,0-1.5,0Z"/><path class="cls-1" d="M42.25,112.5l-4.83,4.55c-.71.66.36,1.72,1.06,1.06l4.83-4.55c.71-.66-.36-1.72-1.06-1.06Z"/><path class="cls-1" d="M51.9,33.9h31a.75.75,0,0,0,0-1.5h-31a.75.75,0,0,0,0,1.5Z"/><path class="cls-1" d="M7.19,115.67,21.47,100.5c.66-.7-.4-1.77-1.06-1.06L6.13,114.61c-.66.7.4,1.77,1.06,1.06Z"/><path class="cls-1" d="M45.1,93l14.72,0a.75.75,0,0,0,0-1.5l-14.72,0a.75.75,0,0,0,0,1.5Z"/><path class="cls-1" d="M38.39,104.28l7.36-11.61c.52-.82-.78-1.57-1.3-.76l-7.36,11.61c-.52.82.78,1.57,1.3.76Z"/><path class="cls-1" d="M46,117.39l-7.66-13.86c-.47-.85-1.76-.09-1.3.76l7.66,13.86c.47.85,1.76.09,1.3-.76Z"/><path class="cls-1" d="M59.81,117H45.4a.75.75,0,0,0,0,1.5H59.81a.75.75,0,0,0,0-1.5Z"/><path class="cls-1" d="M66.52,105.26l-7.36,12.12a.75.75,0,0,0,1.3.76L67.82,106a.75.75,0,0,0-1.3-.76Z"/><path class="cls-1" d="M59.17,92.65,66.52,106c.47.85,1.76.09,1.3-.76L60.46,91.9c-.47-.85-1.76-.09-1.3.76Z"/><path class="cls-1" d="M98.87,55.35c.42,0-.45-.68-.09,0l.83,1.51,2.54,4.62L106,68.38c.47.85,1.76.09,1.3-.76l-4.32-7.84-2.52-4.58c-.44-.8-.57-1.27-1.55-1.35s-1,1.42,0,1.5Z"/><path class="cls-1" d="M83.2,55.51l15.67-.15a.75.75,0,0,0,0-1.5L83.2,54a.75.75,0,0,0,0,1.5Z"/><path class="cls-1" d="M45.63,92.82l37.6-37.54a.75.75,0,0,0-1.06-1.06L44.57,91.76a.75.75,0,0,0,1.06,1.06Z"/><path class="cls-1" d="M60.47,92.82,99.4,55.18c.7-.67-.37-1.73-1.06-1.06L59.41,91.76c-.7.67.37,1.73,1.06,1.06Z"/><path class="cls-1" d="M105.77,67.5,66.84,105.14c-.7.67.37,1.73,1.06,1.06l38.93-37.64c.7-.67-.37-1.73-1.06-1.06Z"/><path class="cls-1" d="M99.89,80.5l7.2-11.87a.75.75,0,0,0-1.3-.76L98.6,79.75a.75.75,0,0,0,1.3.76Z"/><path class="cls-1" d="M60.51,118.29,99.78,80.66c.7-.67-.36-1.73-1.06-1.06L59.45,117.23c-.7.67.36,1.73,1.06,1.06Z"/><path class="cls-1" d="M81.27,106.33l11.86,11.94a.75.75,0,0,0,1.06-1.06L82.33,105.27a.75.75,0,0,0-1.06,1.06Z"/><path class="cls-1" d="M70.21,118.26l12.12-11.94c.69-.68-.37-1.74-1.06-1.06L69.15,117.2c-.69.68.37,1.74,1.06,1.06Z"/><path class="cls-1" d="M65.22,118.54l4.45-.05a.75.75,0,0,0,0-1.5l-4.45.05a.75.75,0,0,0,0,1.5Z"/><path class="cls-1" d="M98.54,117.21,82.33,100.68a.76.76,0,0,0-1.06,0L64.61,117.2a.75.75,0,0,0,1.06,1.06l16.62-16.48c-.61.61-1.39-.41-.44.56l1.57,1.6,5.6,5.71,8.45,8.62c.68.69,1.74-.37,1.06-1.06Z"/><path class="cls-1" d="M93.92,118.51h4.27a.75.75,0,0,0,0-1.5H93.92a.75.75,0,0,0,0,1.5Z"/><path class="cls-1" d="M137.06,79.75l-39.4,37.48c-.7.67.36,1.73,1.06,1.06l39.4-37.48c.7-.67-.36-1.73-1.06-1.06Z"/><path class="cls-1" d="M120.91,64.34l16.15,16.47c.68.69,1.74-.37,1.06-1.06L122,63.28c-.68-.69-1.74.37-1.06,1.06Z"/><path class="cls-1" d="M82.33,101.74l39.31-37c.71-.66-.36-1.72-1.06-1.06l-39.31,37c-.71.66.36,1.72,1.06,1.06Z"/></svg>