<svg id="Слой_3" data-name="Слой 3" xmlns="http://www.w3.org/2000/svg" viewBox="0 0 141.73 141.73"><defs><style>.cls-1{fill:#709fcb;}.cls-2,.cls-3{fill:none;stroke:#709fcb;stroke-miterlimit:10;}.cls-2{stroke-width:1.5px;}.cls-3{stroke-width:1.7px;}</style></defs><title>icon</title><path class="cls-1" d="M102.67,110.36l-5.5,4c-.77.56,0,1.87.76,1.3l5.5-4c.77-.56,0-1.87-.76-1.3Z"/><path class="cls-1" d="M101,107.91l1.33,3.3c.36.89,1.81.5,1.45-.4l-1.33-3.3c-.36-.89-1.81-.5-1.45.4Z"/><path class="cls-1" d="M98.56,110.56l3.54-2.21c.82-.51.07-1.81-.76-1.3l-3.54,2.21c-.82.51-.07,1.81.76,1.3Z"/><path class="cls-1" d="M98.3,115l.64-5.11c.12-1-1.38-.95-1.5,0L96.8,115c-.12,1,1.38.95,1.5,0Z"/><path class="cls-1" d="M14.75,115.78h82.8a.75.75,0,0,0,0-1.5H14.75a.75.75,0,0,0,0,1.5Z"/><path class="cls-1" d="M17.49,109l-3.39,5.67a.75.75,0,0,0,1.3.76l3.39-5.67a.75.75,0,0,0-1.3-.76Z"/><path class="cls-1" d="M24.21,104.2l-6.45,4.51c-.79.55,0,1.85.76,1.3L25,105.5c.79-.55,0-1.85-.76-1.3Z"/><path class="cls-1" d="M27.48,104.1h-2.9a.75.75,0,0,0,0,1.5h2.9a.75.75,0,0,0,0-1.5Z"/><path class="cls-1" d="M43.53,109.08l-5.72-3c-.85-.45-1.61.84-.76,1.3l5.72,3c.85.45,1.61-.84.76-1.3Z"/><path class="cls-1" d="M66.24,109H43.15a.75.75,0,0,0,0,1.5H66.24a.75.75,0,0,0,0-1.5Z"/><path class="cls-1" d="M72.59,104.74l-6.73,4.34c-.81.52-.06,1.82.76,1.3L73.35,106c.81-.52.06-1.82-.76-1.3Z"/><path class="cls-1" d="M98.56,109.27l-10.94-4.93c-.87-.39-1.64.9-.76,1.3l10.94,4.93c.87.39,1.64-.9.76-1.3Z"/><path class="cls-1" d="M101.92,107,91.49,103.6c-.92-.3-1.31,1.15-.4,1.45l10.44,3.38c.92.3,1.31-1.15.4-1.45Z"/><path class="cls-1" d="M44.48,106.33,39,104.51c-.92-.31-1.31,1.14-.4,1.45l5.44,1.82c.92.31,1.31-1.14.4-1.45Z"/><path class="cls-1" d="M70,106.3H44.28a.75.75,0,0,0,0,1.5H70a.75.75,0,0,0,0-1.5Z"/><path class="cls-1" d="M102.32,89.91l-4.76,3.48c-.77.56,0,1.87.76,1.3l4.76-3.48c.77-.56,0-1.87-.76-1.3Z"/><path class="cls-1" d="M100.81,88.14l1.07,2.65a.87.87,0,0,0,1,.59.85.85,0,0,0,.59-1l-1.07-2.65a.87.87,0,0,0-1-.59.85.85,0,0,0-.59,1Z"/><path class="cls-1" d="M98.73,90.49,102,88.56a.75.75,0,0,0-.76-1.3L98,89.19a.75.75,0,0,0,.76,1.3Z"/><path class="cls-1" d="M98.69,94l.41-4.2c.09-1-1.41-1-1.5,0L97.19,94c-.09,1,1.41,1,1.5,0Z"/><path class="cls-1" d="M15.14,94.79h82.8a.75.75,0,0,0,0-1.5H15.14a.75.75,0,0,0,0,1.5Z"/><path class="cls-1" d="M17.4,89.18l-2.9,4.48c-.53.81.77,1.57,1.3.76l2.9-4.48c.53-.81-.77-1.57-1.3-.76Z"/><path class="cls-1" d="M23.57,85.68l-5.9,3.23c-.85.46-.09,1.76.76,1.3L24.32,87c.85-.46.09-1.76-.76-1.3Z"/><path class="cls-1" d="M26.77,85.46l-2.83.12c-1,0-1,1.54,0,1.5L26.77,87c1,0,1-1.54,0-1.5Z"/><path class="cls-1" d="M43.53,88.82l-6.37-3.19c-.86-.43-1.62.86-.76,1.3l6.37,3.19c.86.43,1.62-.86.76-1.3Z"/><path class="cls-1" d="M66,88.71H43.15a.75.75,0,0,0,0,1.5H66a.75.75,0,0,0,0-1.5Z"/><path class="cls-1" d="M74.06,84.43l-8.52,4.3c-1,.49-.12,2,.86,1.46l8.52-4.3c1-.49.12-2-.86-1.46Z"/><path class="cls-1" d="M98.73,89.19l-10.15-5c-.86-.43-1.62.86-.76,1.3l10.15,5c.86.43,1.62-.86.76-1.3Z"/><path class="cls-1" d="M101.86,87.09,91.51,82.82c-1-.42-1.45,1.22-.45,1.64l10.34,4.28c1,.42,1.45-1.22.45-1.64Z"/><path class="cls-1" d="M44.48,86.41,37.8,84.33c-.93-.29-1.32,1.16-.4,1.45l6.68,2.08c.93.29,1.32-1.16.4-1.45Z"/><path class="cls-1" d="M69.82,86.38H44.28a.75.75,0,0,0,0,1.5H69.82a.75.75,0,0,0,0-1.5Z"/><path class="cls-1" d="M101.63,71,97,73.38c-.86.44-.1,1.73.76,1.3l4.64-2.36c.86-.44.1-1.73-.76-1.3Z"/><path class="cls-1" d="M100.54,68.87l.75,3a.75.75,0,0,0,1.45-.4l-.75-3a.75.75,0,0,0-1.45.4Z"/><path class="cls-1" d="M98.37,70.89l3.27-1.58c.87-.42.11-1.71-.76-1.3L97.61,69.6c-.87.42-.11,1.71.76,1.3Z"/><path class="cls-1" d="M98.09,74.22l.62-3.78c.16-.95-1.29-1.35-1.45-.4l-.62,3.78c-.16.95,1.29,1.35,1.45.4Z"/><path class="cls-1" d="M14.57,74.77h82.8a.75.75,0,0,0,0-1.5H14.57a.75.75,0,0,0,0,1.5Z"/><path class="cls-1" d="M16.85,68.76l-2.93,4.89a.75.75,0,0,0,1.3.76l2.93-4.89a.75.75,0,0,0-1.3-.76Z"/><path class="cls-1" d="M23.57,64.63l-6.45,3.86a.75.75,0,0,0,.76,1.3l6.45-3.86a.75.75,0,0,0-.76-1.3Z"/><path class="cls-1" d="M27.61,63.91l-3.86.64c-1,.16-.55,1.6.4,1.45L28,65.36c1-.16.55-1.6-.4-1.45Z"/><path class="cls-1" d="M41.8,68.41l-5.48-3c-.85-.46-1.61.83-.76,1.3l5.48,3c.85.46,1.61-.83.76-1.3Z"/><path class="cls-1" d="M65.41,68.29l-24,0a.75.75,0,0,0,0,1.5l24,0a.75.75,0,0,0,0-1.5Z"/><path class="cls-1" d="M74.27,63.73,65,68.39c-.86.44-.1,1.73.76,1.3L75,65c.86-.44.1-1.73-.76-1.3Z"/><path class="cls-1" d="M98.37,69.6l-11-5.54c-.86-.44-1.62.86-.76,1.3l11,5.54c.86.44,1.62-.86.76-1.3Z"/><path class="cls-1" d="M92,64.29,87,64c-1-.07-1,1.44,0,1.5l4.95.33c1,.07,1-1.44,0-1.5Z"/><path class="cls-1" d="M101.46,67.95l-9.3-3.63c-.9-.35-1.29,1.1-.4,1.45l9.3,3.63c.9.35,1.29-1.1.4-1.45Z"/><path class="cls-1" d="M48.35,68.18l-11.1-4.27c-.9-.35-1.29,1.1-.4,1.45L48,69.63c.9.35,1.29-1.1.4-1.45Z"/><path class="cls-1" d="M113.73,58.31l-4.55,2c-.89.38-.12,1.67.76,1.3l4.55-2c.89-.38.12-1.67-.76-1.3Z"/><path class="cls-1" d="M112.73,56.14l.66,3c.21.95,1.65.54,1.45-.4l-.66-3c-.21-.95-1.65-.54-1.45.4Z"/><path class="cls-1" d="M110.21,57.63l3.44-1a.75.75,0,0,0-.4-1.45l-3.44,1a.75.75,0,0,0,.4,1.45Z"/><path class="cls-1" d="M110.31,60.92l.45-4c.11-1-1.39-.95-1.5,0l-.45,4c-.11,1,1.39.95,1.5,0Z"/><path class="cls-1" d="M89.71,61.67h19.86a.75.75,0,0,0,0-1.5H89.71a.75.75,0,0,0,0,1.5Z"/><path class="cls-1" d="M43,61.67H74.72a.75.75,0,0,0,0-1.5H43a.75.75,0,0,0,0,1.5Z"/><path class="cls-1" d="M55,55.21l-8-3c-.91-.34-1.3,1.11-.4,1.45l8,3c.91.34,1.3-1.11.4-1.45Z"/><path class="cls-1" d="M76.43,55.19H54.8a.75.75,0,0,0,0,1.5H76.43a.75.75,0,0,0,0-1.5Z"/><path class="cls-1" d="M110.39,56.25l-9.89-4.61c-.87-.41-1.63.89-.76,1.3l9.89,4.61c.87.41,1.63-.89.76-1.3Z"/><path class="cls-1" d="M113.83,55.29l-10.48-4.66c-.88-.39-1.64.9-.76,1.3l10.48,4.66c.88.39,1.64-.9.76-1.3Z"/><path class="cls-1" d="M126.47,48.2l-4.27,1.71c-.89.36-.5,1.81.4,1.45l4.27-1.71c.89-.36.5-1.81-.4-1.45Z"/><path class="cls-1" d="M125.54,45.29l.38,3.64c.1,1,1.6,1,1.5,0L127,45.29c-.1-1-1.6-1-1.5,0Z"/><path class="cls-1" d="M123.22,47.38,126.49,46c.88-.37.49-1.82-.4-1.45l-3.26,1.36c-.88.37-.49,1.82.4,1.45Z"/><path class="cls-1" d="M123.12,50.84l.63-4c.15-.95-1.3-1.35-1.45-.4l-.63,4c-.15.95,1.3,1.35,1.45.4Z"/><path class="cls-1" d="M102.54,51.39h19.86a.75.75,0,0,0,0-1.5H102.54a.75.75,0,0,0,0,1.5Z"/><path class="cls-1" d="M123.4,46l-12-6.19c-.86-.44-1.62.85-.76,1.3l12,6.19c.86.44,1.62-.85.76-1.3Z"/><path class="cls-1" d="M126.66,44.64l-12.83-5.8c-.87-.39-1.64.9-.76,1.3l12.83,5.8c.87.39,1.64-.9.76-1.3Z"/><path class="cls-1" d="M126.47,68.06l-4.25,2.29c-.85.46-.09,1.75.76,1.3l4.25-2.29c.85-.46.09-1.75-.76-1.3Z"/><path class="cls-1" d="M125.74,65.87l.36,2.84a.77.77,0,0,0,.75.75.75.75,0,0,0,.75-.75l-.36-2.84a.77.77,0,0,0-.75-.75.75.75,0,0,0-.75.75Z"/><path class="cls-1" d="M123,67.63l3.68-1.26c.91-.31.52-1.76-.4-1.45l-3.68,1.26c-.91.31-.52,1.76.4,1.45Z"/><path class="cls-1" d="M123.34,71l.21-4.09c0-1-1.45-1-1.5,0L121.84,71c0,1,1.45,1,1.5,0Z"/><path class="cls-1" d="M102.74,71.75h19.86a.75.75,0,0,0,0-1.5H102.74a.75.75,0,0,0,0,1.5Z"/><path class="cls-1" d="M123.18,66.26,111.35,60c-.86-.45-1.61.84-.76,1.3l11.83,6.22c.86.45,1.61-.84.76-1.3Z"/><path class="cls-1" d="M126.69,64.92l-13.82-5.71c-.89-.37-1.28,1.08-.4,1.45l13.82,5.71c.89.37,1.28-1.08.4-1.45Z"/><path class="cls-1" d="M125.56,91.29l-4.17,2c-.87.42-.11,1.71.76,1.3l4.17-2c.87-.42.11-1.71-.76-1.3Z"/><path class="cls-1" d="M124.91,88.59l.28,3.35c.08,1,1.58,1,1.5,0l-.28-3.35c-.08-1-1.58-1-1.5,0Z"/><path class="cls-1" d="M122.55,90.77,126,89.24c.88-.39.12-1.68-.76-1.3l-3.48,1.53c-.88.39-.12,1.68.76,1.3Z"/><path class="cls-1" d="M122.52,93.94l.41-3.82c.1-1-1.4-1-1.5,0L121,93.94c-.1,1,1.4,1,1.5,0Z"/><path class="cls-1" d="M100.12,94.81l21.64-.11a.75.75,0,0,0,0-1.5l-21.64.11a.75.75,0,0,0,0,1.5Z"/><path class="cls-1" d="M122.55,89.48l-12-6.49c-.85-.46-1.61.84-.76,1.3l12,6.49c.85.46,1.61-.84.76-1.3Z"/><path class="cls-1" d="M126,87.94l-12.21-5.66c-.87-.4-1.63.89-.76,1.3l12.21,5.66c.87.4,1.63-.89.76-1.3Z"/><path class="cls-1" d="M114.2,80.42l-4.42,2.29c-.86.44-.1,1.74.76,1.3L115,81.71c.86-.44.1-1.74-.76-1.3Z"/><path class="cls-1" d="M113.33,78.2l.53,3.06c.16,1,1.61.55,1.45-.4l-.53-3.06c-.16-1-1.61-.55-1.45.4Z"/><path class="cls-1" d="M111.19,80.45l3.24-1.8c.85-.47.09-1.77-.76-1.3l-3.24,1.8c-.85.47-.09,1.77.76,1.3Z"/><path class="cls-1" d="M111,83.58l.65-3.55c.2-1.07-1.44-1.53-1.64-.45l-.65,3.55c-.2,1.07,1.44,1.53,1.64.45Z"/><path class="cls-1" d="M88.6,84.1h21.55a.75.75,0,0,0,0-1.5H88.6a.75.75,0,0,0,0,1.5Z"/><path class="cls-1" d="M41.12,84.1H74a.75.75,0,0,0,0-1.5H41.12a.75.75,0,0,0,0,1.5Z"/><path class="cls-1" d="M55.77,77.72l-5-2.37c-.87-.41-1.63.88-.76,1.3L55,79c.87.41,1.63-.88.76-1.3Z"/><path class="cls-1" d="M75.2,77.48l-19.8.14a.75.75,0,0,0,0,1.5L75.2,79a.75.75,0,0,0,0-1.5Z"/><path class="cls-1" d="M111.68,78.88,100.8,73.47c-.86-.43-1.62.86-.76,1.3l10.88,5.42c.86.43,1.62-.86.76-1.3Z"/><path class="cls-1" d="M104.59,73.35l-4.79-.07a.75.75,0,0,0,0,1.5l4.79.07a.75.75,0,0,0,0-1.5Z"/><path class="cls-1" d="M114.25,77.28l-9.46-3.9c-.89-.37-1.28,1.08-.4,1.45l9.46,3.9c.89.37,1.28-1.08.4-1.45Z"/><path class="cls-1" d="M62.46,77.58l-7.67-4.27c-.85-.47-1.6.82-.76,1.3l7.67,4.27c.85.47,1.6-.82.76-1.3Z"/><path class="cls-1" d="M114.23,101.24l-4.45,2.44c-.85.46-.09,1.76.76,1.3l4.45-2.44c.85-.46.09-1.76-.76-1.3Z"/><path class="cls-1" d="M113.33,99.17l.56,2.91c.18.95,1.63.55,1.45-.4l-.56-2.91c-.18-.95-1.63-.55-1.45.4Z"/><path class="cls-1" d="M110.76,101.15l3.48-1.46c.88-.37.49-1.82-.4-1.45l-3.48,1.46c-.88.37-.49,1.82.4,1.45Z"/><path class="cls-1" d="M110.91,104.32l.41-3.89c.1-1-1.4-1-1.5,0l-.41,3.89c-.1,1,1.4,1,1.5,0Z"/><path class="cls-1" d="M86.55,105.07h23.61a.75.75,0,0,0,0-1.5H86.55a.75.75,0,0,0,0,1.5Z"/><path class="cls-1" d="M40.56,105.07H72.75a.75.75,0,0,0,0-1.5H40.56a.75.75,0,0,0,0,1.5Z"/><path class="cls-1" d="M54.79,98.69l-4.57-2.21c-.87-.42-1.63.87-.76,1.3L54,100c.87.42,1.63-.87.76-1.3Z"/><path class="cls-1" d="M73.31,98.59H54.41a.75.75,0,0,0,0,1.5h18.9a.75.75,0,0,0,0-1.5Z"/><path class="cls-1" d="M110.94,99.78,98.52,94c-.87-.4-1.63.89-.76,1.3l12.42,5.74c.87.4,1.63-.89.76-1.3Z"/><path class="cls-1" d="M105,94.52l-6.81-1.3c-1.07-.2-1.52,1.43-.45,1.64l6.81,1.3c1.07.2,1.52-1.43.45-1.64Z"/><path class="cls-1" d="M114.25,98.25,105,94.61c-.9-.35-1.29,1.1-.4,1.45l9.3,3.63c.9.35,1.29-1.1.4-1.45Z"/><path class="cls-1" d="M64.68,98.62,52.31,95.26a.75.75,0,0,0-.4,1.45l12.38,3.36a.75.75,0,0,0,.4-1.45Z"/><path class="cls-1" d="M102.4,50.62l-5,1.41a.75.75,0,0,0,.4,1.45l5-1.41a.75.75,0,0,0-.4-1.45Z"/><path class="cls-1" d="M100.75,47.61l1.12,3.94a.75.75,0,0,0,1.45-.4l-1.12-3.94a.75.75,0,0,0-1.45.4Z"/><path class="cls-1" d="M98.6,48.91l3.08-.78a.75.75,0,0,0-.4-1.45l-3.08.78a.75.75,0,0,0,.4,1.45Z"/><path class="cls-1" d="M98.31,53l.82-4.57c.17-.95-1.28-1.35-1.45-.4l-.82,4.57c-.17.95,1.28,1.35,1.45.4Z"/><path class="cls-1" d="M14.57,53.72h82.8a.75.75,0,0,0,0-1.5H14.57a.75.75,0,0,0,0,1.5Z"/><path class="cls-1" d="M16.85,47.71l-2.93,4.89a.75.75,0,0,0,1.3.76l2.93-4.89a.75.75,0,0,0-1.3-.76Z"/><path class="cls-1" d="M23.46,43l-6.34,4.43c-.79.55,0,1.85.76,1.3l6.34-4.43c.79-.55,0-1.85-.76-1.3Z"/><path class="cls-1" d="M33.33,42.83H23.94a.75.75,0,0,0,0,1.5h9.38a.75.75,0,0,0,0-1.5Z"/><path class="cls-1" d="M41.59,47.44,33.7,42.93a.75.75,0,0,0-.76,1.3l7.88,4.51a.75.75,0,0,0,.76-1.3Z"/><path class="cls-1" d="M65.41,47.24l-24.2.1a.75.75,0,0,0,0,1.5l24.2-.1a.75.75,0,0,0,0-1.5Z"/><path class="cls-1" d="M74.38,42.77,65,47.34c-.87.43-.11,1.72.76,1.3l9.34-4.58c.87-.43.11-1.72-.76-1.3Z"/><path class="cls-1" d="M87.84,42.77l-13.09-.11a.75.75,0,0,0,0,1.5l13.09.11a.75.75,0,0,0,0-1.5Z"/><path class="cls-1" d="M98.56,47.75,87.4,43c-.88-.37-1.64.92-.76,1.3L97.81,49c.88.37,1.64-.92.76-1.3Z"/><path class="cls-1" d="M92.36,42.57l-5.13.12a.75.75,0,0,0,0,1.5l5.13-.12a.75.75,0,0,0,0-1.5Z"/><path class="cls-1" d="M101.85,46.76l-9.11-4.09c-.87-.39-1.64.9-.76,1.3l9.11,4.09c.87.39,1.64-.9.76-1.3Z"/><path class="cls-1" d="M37,42.83H33.44a.75.75,0,0,0,0,1.5H37a.75.75,0,0,0,0-1.5Z"/><path class="cls-1" d="M48.35,47.13l-11.1-4.27c-.9-.35-1.29,1.1-.4,1.45L48,48.58c.9.35,1.29-1.1.4-1.45Z"/><path class="cls-1" d="M114.1,37.79l-4.69,1.95c-.88.37-.49,1.82.4,1.45l4.69-1.95c.88-.37.49-1.82-.4-1.45Z"/><path class="cls-1" d="M112.78,35.31l.8,3.4c.22.94,1.67.54,1.45-.4l-.8-3.4c-.22-.94-1.67-.54-1.45.4Z"/><path class="cls-1" d="M109.54,37.29l4.16-1.46c.91-.32.52-1.77-.4-1.45l-4.16,1.46c-.91.32-.52,1.77.4,1.45Z"/><path class="cls-1" d="M110.36,40.46l-.27-3.9c-.07-1-1.57-1-1.5,0l.27,3.9c.07,1,1.57,1,1.5,0Z"/><path class="cls-1" d="M26.81,41.21h82.8a.75.75,0,0,0,0-1.5H26.81a.75.75,0,0,0,0,1.5Z"/><path class="cls-1" d="M29.09,35.2l-2.93,4.89a.75.75,0,0,0,1.3.76L30.38,36a.75.75,0,0,0-1.3-.76Z"/><path class="cls-1" d="M35.8,30.42l-6.45,4.51c-.79.55,0,1.85.76,1.3l6.45-4.51c.79-.55,0-1.85-.76-1.3Z"/><path class="cls-1" d="M45.56,30.32H36.18a.75.75,0,0,0,0,1.5h9.38a.75.75,0,0,0,0-1.5Z"/><path class="cls-1" d="M54,35.24l-8.09-4.82a.75.75,0,0,0-.76,1.3l8.09,4.82a.75.75,0,0,0,.76-1.3Z"/><path class="cls-1" d="M77.65,34.73l-24,.41a.75.75,0,0,0,0,1.5l24-.41a.75.75,0,0,0,0-1.5Z"/><path class="cls-1" d="M86.51,30.17l-9.24,4.66c-.86.44-.1,1.73.76,1.3l9.24-4.66c.86-.44.1-1.73-.76-1.3Z"/><path class="cls-1" d="M99.87,30.48l-13-.41c-1,0-1,1.47,0,1.5l13,.41c1,0,1-1.47,0-1.5Z"/><path class="cls-1" d="M109.72,35.92l-9.47-5.34a.75.75,0,0,0-.76,1.3L109,37.22a.75.75,0,0,0,.76-1.3Z"/><path class="cls-1" d="M104.2,30.73l-4.95-.33c-1-.07-1,1.44,0,1.5l4.95.33c1,.07,1-1.44,0-1.5Z"/><path class="cls-1" d="M113.7,34.39l-9.3-3.63c-.9-.35-1.29,1.1-.4,1.45l9.3,3.63c.9.35,1.29-1.1.4-1.45Z"/><path class="cls-1" d="M49.29,30.32H46a.75.75,0,0,0,0,1.5h3.33a.75.75,0,0,0,0-1.5Z"/><path class="cls-1" d="M60.59,34.62l-11.1-4.27c-.9-.35-1.29,1.1-.4,1.45l11.1,4.27c.9.35,1.29-1.1.4-1.45Z"/><path class="cls-1" d="M126.47,25.73,122,27.79c-.88.41-.11,1.7.76,1.3L127.23,27c.88-.41.11-1.7-.76-1.3Z"/><path class="cls-1" d="M125.56,23.28l.56,3.29c.16,1,1.61.55,1.45-.4L127,22.89c-.16-1-1.61-.55-1.45.4Z"/><path class="cls-1" d="M122.79,25l3.69-1.23c.91-.3.52-1.75-.4-1.45l-3.69,1.23c-.91.3-.52,1.75.4,1.45Z"/><path class="cls-1" d="M123.14,28.44l.2-4.12c0-1-1.45-1-1.5,0l-.2,4.12c0,1,1.45,1,1.5,0Z"/><path class="cls-1" d="M39.59,29.19h82.8a.75.75,0,0,0,0-1.5H39.59a.75.75,0,0,0,0,1.5Z"/><path class="cls-1" d="M41.87,23.17l-2.93,4.89a.75.75,0,0,0,1.3.76l2.93-4.89a.75.75,0,0,0-1.3-.76Z"/><path class="cls-1" d="M48.59,18.4,42.14,22.9c-.79.55,0,1.85.76,1.3l6.45-4.51c.79-.55,0-1.85-.76-1.3Z"/><path class="cls-1" d="M58.35,18.29H49a.75.75,0,0,0,0,1.5h9.38a.75.75,0,0,0,0-1.5Z"/><path class="cls-1" d="M67.15,23.21,58.73,18.4a.75.75,0,0,0-.76,1.3l8.42,4.82a.75.75,0,0,0,.76-1.3Z"/><path class="cls-1" d="M90.43,22.71l-23.67.41a.75.75,0,0,0,0,1.5l23.67-.41a.75.75,0,0,0,0-1.5Z"/><path class="cls-1" d="M99.29,18.14l-9.24,4.66c-.86.44-.1,1.73.76,1.3L100,19.44c.86-.44.1-1.73-.76-1.3Z"/><path class="cls-1" d="M112.65,18.45l-13-.41c-1,0-1,1.47,0,1.5l13,.41c1,0,1-1.47,0-1.5Z"/><path class="cls-1" d="M123,23.67,113,18.55c-.86-.44-1.62.85-.76,1.3L122.22,25c.86.44,1.62-.85.76-1.3Z"/><path class="cls-1" d="M117,18.7,112,18.37c-1-.07-1,1.44,0,1.5l4.95.33c1,.07,1-1.44,0-1.5Z"/><path class="cls-1" d="M126.48,22.36l-9.3-3.63c-.9-.35-1.29,1.1-.4,1.45l9.3,3.63c.9.35,1.29-1.1.4-1.45Z"/><path class="cls-1" d="M62.08,18.29H58.75a.75.75,0,0,0,0,1.5h3.33a.75.75,0,0,0,0-1.5Z"/><path class="cls-1" d="M73.37,22.59l-11.1-4.27c-.9-.35-1.29,1.1-.4,1.45L73,24c.9.35,1.29-1.1.4-1.45Z"/><line class="cls-2" x1="96.46" y1="94.34" x2="79.86" y2="108.56"/><line class="cls-2" x1="109.34" y1="83.32" x2="102.79" y2="88.92"/><polyline class="cls-2" points="114.57 79.8 123.21 71 122.18 71.33 114.3 78.86"/><line class="cls-2" x1="102.7" y1="90.56" x2="111.65" y2="82.93"/><line class="cls-2" x1="79.86" y1="109.79" x2="98.88" y2="93.36"/><line class="cls-2" x1="111.15" y1="76.87" x2="117.47" y2="71.33"/><line class="cls-2" x1="99.25" y1="87.16" x2="103.65" y2="83.35"/><line class="cls-2" x1="76.49" y1="106.93" x2="91.29" y2="94.04"/><line class="cls-2" x1="73.31" y1="99.34" x2="79.67" y2="94.04"/><line class="cls-2" x1="76.79" y1="100.52" x2="84.09" y2="94.04"/><polyline class="cls-2" points="81.49 89.24 98.98 74.41 97.78 74.02 81.49 88.01"/><line class="cls-2" x1="77.82" y1="86.37" x2="91.7" y2="74.02"/><line class="cls-2" x1="75.29" y1="78.77" x2="80.35" y2="74.02"/><line class="cls-2" x1="78.42" y1="79.97" x2="84.81" y2="74.02"/><line class="cls-2" x1="50.48" y1="74.02" x2="33.97" y2="87.95"/><polyline class="cls-3" points="58.13 69.04 67.17 61.51 65.31 61.51 56.38 69.04"/><polyline class="cls-2" points="59.67 86.94 63.94 83.35 62.08 83.35 57.27 87.16"/><line class="cls-3" x1="33.97" y1="89.18" x2="52.16" y2="74.02"/><line class="cls-3" x1="49.66" y1="69.04" x2="58.84" y2="60.92"/><line class="cls-2" x1="44.28" y1="86.87" x2="47.73" y2="83.63"/><line class="cls-2" x1="50.58" y1="86.95" x2="54.64" y2="83.35"/><line class="cls-2" x1="30.33" y1="86.11" x2="44.12" y2="74.02"/><line class="cls-3" x1="41.16" y1="66.21" x2="46.83" y2="60.92"/><line class="cls-2" x1="27.39" y1="78.77" x2="32.78" y2="74.02"/><line class="cls-3" x1="43.62" y1="67.16" x2="49.84" y2="60.92"/><line class="cls-2" x1="30.9" y1="79.91" x2="36.78" y2="74.01"/><polyline class="cls-2" points="34.15 68.29 51.15 53.33 49.29 53.33 34.15 67.06"/><line class="cls-2" x1="30.9" y1="65.14" x2="43.46" y2="52.97"/><line class="cls-2" x1="60.92" y1="35.58" x2="69.11" y2="28.44"/><line class="cls-2" x1="48.37" y1="47.64" x2="56.24" y2="40.46"/><line class="cls-3" x1="68.45" y1="35.47" x2="76" y2="28.42"/><line class="cls-3" x1="55.25" y1="47.62" x2="63.12" y2="40.45"/><line class="cls-2" x1="67.29" y1="35.58" x2="75.33" y2="28.3"/><line class="cls-2" x1="54.04" y1="47.85" x2="62.28" y2="40.45"/><line class="cls-2" x1="53.2" y1="32.04" x2="56.77" y2="28.42"/><line class="cls-2" x1="40.74" y1="44.71" x2="44.92" y2="40.46"/><line class="cls-2" x1="26.66" y1="58.57" x2="32.82" y2="52.76"/><line class="cls-2" x1="56.77" y1="33.79" x2="61.57" y2="28.44"/><line class="cls-2" x1="44.09" y1="46.29" x2="49.58" y2="40.46"/><line class="cls-2" x1="31.08" y1="59.02" x2="37.32" y2="52.76"/><path class="cls-1" d="M34.22,88.43l-10.74,0,.75.75V87l-.75.75c1.05-.14,3.55.05,4.22-1,.86-1.33.38-3.71.37-5.21a.76.76,0,0,0-.75-.75c-.46,0-1.12-1.19-.26-1.19h3.62c.46,0-.42,1.23-.93,1.31a.74.74,0,0,0-.55.72c0,1.34-.35,3.63.36,4.83s3.48,1,4.65,1.16l-.75-.75v2.34a.75.75,0,0,0,1.5,0V86.85a.77.77,0,0,0-.75-.75c-.35,0-3.35-.17-3.36-.5l-.14-4-.55.72a2,2,0,0,0,1.9-2.72c-.38-1.82-1.55-1.54-3.09-1.54-1.09,0-3.22-.46-3.49,1.14s.15,2.92,1.84,3.05l-.75-.75,0,3.83c0,.7-.27.5-1.06.61l-2.05.27a.77.77,0,0,0-.75.75v2.17a.76.76,0,0,0,.75.75l10.74,0a.75.75,0,0,0,0-1.5Z"/><path class="cls-1" d="M81.45,88.43l-10.74,0,.75.75V87l-.75.75c1.05-.14,3.55.05,4.22-1,.86-1.33.38-3.71.37-5.21a.76.76,0,0,0-.75-.75c-.46,0-1.12-1.19-.26-1.19h3.62c.46,0-.42,1.23-.93,1.31a.74.74,0,0,0-.55.72c0,1.34-.35,3.63.36,4.83s3.48,1,4.65,1.16l-.75-.75v2.34a.75.75,0,0,0,1.5,0V86.85a.77.77,0,0,0-.75-.75c-.35,0-3.35-.17-3.36-.5l-.14-4-.55.72a2,2,0,0,0,1.9-2.72c-.38-1.82-1.55-1.54-3.09-1.54-1.09,0-3.22-.46-3.49,1.14s.15,2.92,1.84,3.05l-.75-.75,0,3.83c0,.7-.27.5-1.06.61l-2.05.27A.77.77,0,0,0,70,87v2.17a.76.76,0,0,0,.75.75l10.74,0a.75.75,0,0,0,0-1.5Z"/><path class="cls-1" d="M82.42,67.77l-10.74,0,.75.75V66.31l-.75.75c1.05-.14,3.55.05,4.22-1,.86-1.33.38-3.71.37-5.21a.76.76,0,0,0-.75-.75c-.46,0-1.12-1.19-.26-1.19h3.62c.46,0-.42,1.23-.93,1.31a.74.74,0,0,0-.55.72c0,1.34-.35,3.63.36,4.83s3.48,1,4.65,1.16l-.75-.75v2.34a.75.75,0,0,0,1.5,0V66.19a.77.77,0,0,0-.75-.75c-.35,0-3.35-.17-3.36-.5l-.14-4-.55.72a2,2,0,0,0,1.9-2.72c-.38-1.82-1.55-1.54-3.09-1.54-1.09,0-3.22-.46-3.49,1.14s.15,2.92,1.84,3.05l-.75-.75,0,3.83c0,.7-.27.5-1.06.61l-2.05.27a.77.77,0,0,0-.75.75v2.17a.76.76,0,0,0,.75.75l10.74,0a.75.75,0,0,0,0-1.5Z"/><path class="cls-1" d="M34.69,67.54l-10.74,0,.75.75V66.07l-.75.75c1.05-.14,3.55.05,4.22-1,.86-1.33.38-3.71.37-5.21a.76.76,0,0,0-.75-.75c-.46,0-1.12-1.19-.26-1.19h3.62c.46,0-.42,1.23-.93,1.31a.74.74,0,0,0-.55.72c0,1.34-.35,3.63.36,4.83s3.48,1,4.65,1.16L33.94,66v2.34a.75.75,0,0,0,1.5,0V66a.77.77,0,0,0-.75-.75c-.35,0-3.35-.17-3.36-.5l-.14-4-.55.72a2,2,0,0,0,1.9-2.72c-.38-1.82-1.55-1.54-3.09-1.54-1.09,0-3.22-.46-3.49,1.14s.15,2.92,1.84,3.05L27,60.61l0,3.83c0,.7-.27.5-1.06.61l-2.05.27a.77.77,0,0,0-.75.75v2.17a.76.76,0,0,0,.75.75l10.74,0a.75.75,0,0,0,0-1.5Z"/><path class="cls-1" d="M28.24,106.24l0-4a.76.76,0,0,0-.75-.75,1.28,1.28,0,0,1-.65-1.19h4c.41,0-.44,1.23-1,1.31a.74.74,0,0,0-.55.72c0,1.12-.43,4.12.48,5,1.06,1,3.16.85,4.53,1l-.75-.75v2.34a.75.75,0,0,0,1.5,0v-2.34a.77.77,0,0,0-.75-.75c-.35,0-3.35-.18-3.36-.5l-.14-4-.55.72c1.8-.29,2.17-1.41,1.81-3.14-.32-1.53-2.08-1.12-3.21-1.12s-3-.41-3.27,1.14.15,2.92,1.84,3.05l-.75-.75,0,4a.75.75,0,0,0,1.5,0Z"/><path class="cls-1" d="M34.37,109.14l-10.74,0,.75.75v-2.17l-.75.75c1.67-.22,4.22.1,4.59-2,.17-.95-1.28-1.35-1.45-.4-.1.59.26.43-.36.52l-1.13.15-1.65.22a.77.77,0,0,0-.75.75v2.17a.76.76,0,0,0,.75.75l10.74,0a.75.75,0,0,0,0-1.5Z"/><path class="cls-1" d="M79.86,109.11l-10.74,0,.75.75v-2.17l-.75.75c1.05-.14,3.55.05,4.22-1,.86-1.33.38-3.71.37-5.21a.76.76,0,0,0-.75-.75c-.46,0-1.12-1.19-.26-1.19h3.62c.46,0-.42,1.23-.93,1.31a.74.74,0,0,0-.55.72c0,1.34-.35,3.63.36,4.83s3.48,1,4.65,1.16l-.75-.75v2.34a.75.75,0,0,0,1.5,0v-2.34a.77.77,0,0,0-.75-.75c-.35,0-3.35-.17-3.36-.5l-.14-4-.55.72a2,2,0,0,0,1.9-2.72c-.38-1.82-1.55-1.54-3.09-1.54-1.09,0-3.22-.46-3.49,1.14s.15,2.92,1.84,3.05l-.75-.75,0,3.83c0,.7-.27.5-1.06.61l-2.05.27a.77.77,0,0,0-.75.75v2.17a.76.76,0,0,0,.75.75l10.74,0a.75.75,0,0,0,0-1.5Z"/><polyline class="cls-2" points="34.22 109.73 54.64 94.04 52.78 94.04 34.22 108.5"/><line class="cls-2" x1="30.68" y1="106.93" x2="45.79" y2="94.04"/><line class="cls-2" x1="27.87" y1="99.34" x2="34.16" y2="94.04"/><line class="cls-2" x1="31.15" y1="100.46" x2="38.58" y2="94.04"/><line class="cls-2" x1="95.95" y1="53.12" x2="82.01" y2="67"/><line class="cls-3" x1="109.34" y1="40.19" x2="101.44" y2="47.93"/><polyline class="cls-2" points="114.07 37.13 123.02 28.45 121.33 28.42 113.72 35.89"/><line class="cls-3" x1="101.91" y1="48.93" x2="110.81" y2="40.29"/><line class="cls-2" x1="82.42" y1="68.01" x2="97.37" y2="52.97"/><line class="cls-2" x1="110.01" y1="33.75" x2="114.51" y2="28.44"/><line class="cls-2" x1="97.5" y1="45.85" x2="102.76" y2="40.46"/><line class="cls-2" x1="78.68" y1="65.65" x2="90.75" y2="52.76"/><line class="cls-2" x1="101.87" y1="31.32" x2="104.59" y2="28.44"/><line class="cls-2" x1="89.71" y1="43.61" x2="92.82" y2="40.46"/><line class="cls-2" x1="74.83" y1="58.16" x2="80.65" y2="52.76"/><line class="cls-2" x1="105.65" y1="32.04" x2="108.85" y2="28.44"/><line class="cls-2" x1="93.38" y1="43.77" x2="97.06" y2="40.46"/><line class="cls-3" x1="110.97" y1="60.69" x2="101.83" y2="69.25"/><polyline class="cls-2" points="114.11 58.96 122.39 50.64 120.7 50.62 114.11 57.21"/><line class="cls-3" x1="102.3" y1="70.25" x2="112.07" y2="61.2"/><line class="cls-2" x1="110.73" y1="54.53" x2="114.51" y2="50.64"/><line class="cls-3" x1="97.89" y1="67.17" x2="104.2" y2="60.69"/><line class="cls-3" x1="90.1" y1="64.93" x2="94.28" y2="60.69"/><line class="cls-2" x1="106.5" y1="52.76" x2="108.21" y2="50.81"/><line class="cls-3" x1="93.72" y1="65.72" x2="98.19" y2="60.92"/><line class="cls-2" x1="78.94" y1="58.96" x2="85.01" y2="52.76"/></svg>