<svg id="Слой_1" data-name="Слой 1" xmlns="http://www.w3.org/2000/svg" viewBox="0 0 141.73 141.73"><defs><style>.cls-1{fill:#4fa0ca;}</style></defs><title>all icons</title><rect class="cls-1" x="42.76" y="8.87" width="96.8" height="112.61" rx="11.24" ry="11.24"/><path d="M123.73,17.86H31.86a2.67,2.67,0,0,0-2.67,2.67V73.58H4.83a2.67,2.67,0,0,0-2.67,2.67v45.23a16.2,16.2,0,0,0,16.18,16.18h91.87a16.2,16.2,0,0,0,16.18-16.18v-101a2.67,2.67,0,0,0-2.67-2.67ZM7.5,121.48V78.92H29.19v42.56a10.84,10.84,0,1,1-21.69,0Zm113.56,0a10.86,10.86,0,0,1-10.85,10.84H30.35a16.12,16.12,0,0,0,4.18-10.84V23.2h86.53Zm0,0"/><path d="M74,48.69h34.2a2.67,2.67,0,1,0,0-5.34H74a2.67,2.67,0,1,0,0,5.34Zm0,0"/><path d="M74,78h34.2a2.67,2.67,0,1,0,0-5.34H74A2.67,2.67,0,1,0,74,78Zm0,0"/><path d="M74,107.32h34.2a2.67,2.67,0,0,0,0-5.34H74a2.67,2.67,0,0,0,0,5.34Zm0,0"/><path d="M49.42,51.69a2.68,2.68,0,0,0,1.94.84h0a2.67,2.67,0,0,0,1.95-.87L68,35.6A2.67,2.67,0,1,0,64.05,32L51.33,45.94l-4-4.19a2.67,2.67,0,1,0-3.88,3.67Zm0,0"/><path d="M64.05,62.59,51.33,76.53l-4-4.19A2.67,2.67,0,0,0,43.49,76l5.93,6.28a2.68,2.68,0,0,0,1.94.84h0a2.66,2.66,0,0,0,1.95-.87L68,66.19a2.67,2.67,0,0,0-3.94-3.6Zm0,0"/><path d="M64.05,93.18,51.33,107.11l-4-4.19a2.67,2.67,0,0,0-3.88,3.66l5.93,6.28a2.68,2.68,0,0,0,1.94.84h0a2.67,2.67,0,0,0,1.95-.87L68,96.78a2.67,2.67,0,0,0-3.94-3.6Zm0,0"/></svg>