<svg id="Слой_1" data-name="Слой 1" xmlns="http://www.w3.org/2000/svg" xmlns:xlink="http://www.w3.org/1999/xlink" viewBox="0 0 595.28 557.89"><defs><style>.cls-1{fill:url(#linear-gradient);}.cls-2{fill:url(#linear-gradient-2);}.cls-3{fill:url(#Новый_образец_градиента_4);}.cls-4{fill:url(#Новый_образец_градиента_6);}.cls-5{fill:url(#Новый_образец_градиента_3);}.cls-6{fill:url(#linear-gradient-3);}.cls-7{fill:url(#Новый_образец_градиента_7);}.cls-8{fill:url(#linear-gradient-4);}.cls-9{fill:url(#Новый_образец_градиента_3-2);}.cls-10{fill:url(#Новый_образец_градиента_7-2);}.cls-11{fill:url(#linear-gradient-5);}.cls-12{fill:url(#Новый_образец_градиента_5);}.cls-13{fill:url(#linear-gradient-6);}.cls-14{fill:url(#linear-gradient-7);}.cls-15{fill:url(#Новый_образец_градиента_8);}.cls-16{fill:url(#Новый_образец_градиента_8-2);}.cls-17{fill:#394051;}</style><linearGradient id="linear-gradient" x1="133.64" y1="182.21" x2="136.08" y2="352.03" gradientTransform="translate(-4.01 -12.27) rotate(2.21)" gradientUnits="userSpaceOnUse"><stop offset="0" stop-color="#222221"/><stop offset="0.54" stop-color="#e3e2de"/><stop offset="1" stop-color="#222221"/></linearGradient><linearGradient id="linear-gradient-2" x1="201.69" y1="238.68" x2="214.54" y2="251.32" gradientUnits="userSpaceOnUse"><stop offset="0" stop-color="#3a3140"/><stop offset="1" stop-color="#aeb4c5"/></linearGradient><linearGradient id="Новый_образец_градиента_4" x1="164.65" y1="219.43" x2="181.39" y2="286.1" gradientUnits="userSpaceOnUse"><stop offset="0" stop-color="#3f3e3e"/><stop offset="1" stop-color="#c5c5c5"/></linearGradient><linearGradient id="Новый_образец_градиента_6" x1="173.19" y1="315.78" x2="174.15" y2="257.98" gradientUnits="userSpaceOnUse"><stop offset="0" stop-color="#222221"/><stop offset="0.55" stop-color="#c5c5c5"/><stop offset="1" stop-color="#585857"/></linearGradient><linearGradient id="Новый_образец_градиента_3" x1="100.02" y1="256.97" x2="215.23" y2="212.15" gradientUnits="userSpaceOnUse"><stop offset="0" stop-color="#251f29"/><stop offset="1" stop-color="#2f4565"/></linearGradient><linearGradient id="linear-gradient-3" x1="205.03" y1="211.8" x2="207.25" y2="263.77" xlink:href="#linear-gradient-2"/><linearGradient id="Новый_образец_градиента_7" x1="196.58" y1="214.97" x2="211.71" y2="249.44" gradientUnits="userSpaceOnUse"><stop offset="0" stop-color="#4e7cb7"/><stop offset="1" stop-color="#394051"/></linearGradient><linearGradient id="linear-gradient-4" x1="201.98" y1="-552.15" x2="214.7" y2="-539.65" gradientTransform="matrix(1, 0, 0, -1, 0, -261.19)" xlink:href="#linear-gradient-2"/><linearGradient id="Новый_образец_градиента_3-2" x1="99.9" y1="-534.27" x2="215.11" y2="-579.09" gradientTransform="matrix(1, 0, 0, -1, 0, -261.19)" xlink:href="#Новый_образец_градиента_3"/><linearGradient id="Новый_образец_градиента_7-2" x1="199.96" y1="-568.26" x2="209.51" y2="-546.51" gradientTransform="matrix(1, 0, 0, -1, 0, -261.19)" xlink:href="#Новый_образец_градиента_7"/><linearGradient id="linear-gradient-5" x1="211.42" y1="217.68" x2="220.96" y2="239.4" gradientUnits="userSpaceOnUse"><stop offset="0" stop-color="#9e87bb"/><stop offset="1" stop-color="#604472"/></linearGradient><linearGradient id="Новый_образец_градиента_5" x1="139.54" y1="225.55" x2="138.72" y2="305.78" gradientTransform="matrix(1, 0, 0, 1, 0, 0)" xlink:href="#linear-gradient"/><linearGradient id="linear-gradient-6" x1="179.81" y1="214.88" x2="179.43" y2="321.86" gradientUnits="userSpaceOnUse"><stop offset="0" stop-color="#6f6f6e"/><stop offset="0.52" stop-color="#f6f6f6"/><stop offset="0.98" stop-color="#868686"/></linearGradient><linearGradient id="linear-gradient-7" x1="86.2" y1="265.34" x2="138.62" y2="265.34" gradientUnits="userSpaceOnUse"><stop offset="0" stop-color="#394051"/><stop offset="0.52" stop-color="#3f6d81"/><stop offset="0.98" stop-color="#394051"/></linearGradient><linearGradient id="Новый_образец_градиента_8" x1="144.38" y1="210.05" x2="144.08" y2="316.25" gradientUnits="userSpaceOnUse"><stop offset="0" stop-color="#2f4565"/><stop offset="0.52" stop-color="#e6f1f6"/><stop offset="0.98" stop-color="#2f4565"/></linearGradient><linearGradient id="Новый_образец_градиента_8-2" x1="176.63" y1="190.1" x2="178.39" y2="347.07" xlink:href="#Новый_образец_градиента_8"/></defs><title>stilor logo</title><path class="cls-1" d="M141.4,203.94l-25.52,12.19S97.11,229.21,96,258s8.19,43.7,14.34,49.92c6.67,6.76,9.39,9.27,33,19.12l-18.17-23.91-5.53-37,4-35.82Z"/><path class="cls-2" d="M196.56,242s-.27,13.52,11.09,13.52,11.63-14.87,11.63-14.87Z"/><path class="cls-3" d="M197.38,246.31a28.88,28.88,0,0,1-.82-4.33,28.11,28.11,0,0,0-5.83-13.42c-8.36-10.77-24.77-17.18-44.33,2.78l-5.12,24.16h64.87C203.82,255.27,199.42,253.77,197.38,246.31Z"/><path class="cls-4" d="M140.11,274.2h67.54s-9.35-1.52-11.09,13.52-22.9,38.45-50.17,10.64Z"/><path class="cls-5" d="M204.13,241.45l13.79,4.46,6.76.41s15.14,0,3.79-21.91c-9.91-19.13-41.51-42.73-80.05-24.48s-31.24,69.37-31.24,69.37l5.27-27.59,23.93-10.37a89.83,89.83,0,0,1,8.31-7,28.58,28.58,0,0,1,17.65-6c13.79,0,22.31,15.74,22.31,15.74Z"/><path class="cls-6" d="M207.65,255.51h-1.5A6.29,6.29,0,0,0,207.65,255.51Z"/><path class="cls-7" d="M206.21,222l-15.48,6.59A28.11,28.11,0,0,1,196.56,242a28.88,28.88,0,0,0,.82,4.33h25.93C219.29,246.07,206.66,243.5,206.21,222Z"/><path class="cls-8" d="M197,287.75s-.83-13.55,10.68-13.55c11.36,0,12,14.91,12,14.91Z"/><path class="cls-9" d="M204.13,288.29l13.79-4.46,6.76-.41s15.14,0,3.79,21.91c-9.91,19.13-43.38,46.24-80.05,24.48-35.16-20.87-31.24-69.37-31.24-69.37L122.46,288l23.93,10.37a89.83,89.83,0,0,0,8.31,7,28.58,28.58,0,0,0,17.65,6c13.79,0,22.31-15.74,22.31-15.74Z"/><path class="cls-10" d="M206.24,308l-15.51-6.86a28.11,28.11,0,0,0,5.83-13.42,28.88,28.88,0,0,1,.82-4.33h25.93C219.29,283.67,206.68,286.5,206.24,308Z"/><path class="cls-11" d="M224.68,246.31h-1.38A9.6,9.6,0,0,0,224.68,246.31Z"/><path class="cls-12" d="M160.59,309.87s-20-6.22-20-43.27,20-46.4,20-46.4-17.34,12.51-22.46,14.73l-15.67,6.79s-5.27,7.3-5.27,27.59,9.87,27.31,9.87,27.31,11.9.81,16.77,4.33S160.59,309.87,160.59,309.87Z"/><path class="cls-13" d="M169.61,312.79c-6.45,0-12.39-2.61-17.68-7.76-16.19-15.78-12-48.25-11.86-49.63.14-.8,3.23-18.79,9.37-26.29,10.57-12.91,20.88-13.25,27.68-11.25,11.4,3.34,19.57,15,20.6,24,.61,5.3,2.24,9,4.84,11a7,7,0,0,0,4.92,1.51l.16,0,.17,0c.3,0,7.47.8,9.64-8.29l2.27.54c-2.47,10.32-10.73,10.16-12,10.08a9.39,9.39,0,0,1-6.48-1.94c-3.15-2.38-5.1-6.63-5.79-12.62-1-8.22-8.79-19-18.94-22-6.12-1.79-15.46-1.43-25.22,10.49-5.74,7-8.83,25-8.86,25.16s-4.16,32.65,11.18,47.61c5,4.86,10.53,7.26,16.59,7.1a27.54,27.54,0,0,0,17-7.05c2.31-2.48,6.38-7.57,7-10.88.09-.45.17-1.08.26-1.83.71-5.5,2.37-18.41,13.31-17.66a12.7,12.7,0,0,1,12,10.21l-1.58.25-.16-.07a3.78,3.78,0,0,0-.61,0,10.32,10.32,0,0,0-9.81-8.06c-8.74-.6-10.16,10.36-10.84,15.63-.1.8-.19,1.47-.28,2-.87,4.62-6.47,10.84-7.59,12-1.39,1.49-9.06,7.56-18.66,7.8Z"/><path class="cls-14" d="M169,194s-53,2.63-52.42,71S169,336.63,169,336.63s-48.89-12.09-47.13-71.76S169,194,169,194Z"/><path class="cls-15" d="M172.66,337.8a62.37,62.37,0,0,1-28.43-10.36c-13-8.69-28.49-26.57-28.77-62.4s14.25-53.54,26.5-62.1a56.42,56.42,0,0,1,27-10.07l.12,2.33a55.14,55.14,0,0,0-25.9,9.72c-16.85,11.82-25.63,32.6-25.41,60.1s9.81,48.46,27.74,60.48a61,61,0,0,0,27.26,10Z"/><path class="cls-16" d="M176.45,337.83a49.9,49.9,0,0,1-5.81-.29c-.59-.11-12.73-2.6-25-12.82-11.34-9.42-24.86-27.44-24.86-59.83s13.52-50.36,24.86-59.72c12.31-10.16,24.45-12.59,25-12.69.84-.18,21.5-4.37,42.43,12.43,12.69,10.18,20.49,22,20.87,31.61.15,3.64-.86,6.67-2.84,8.54-3.1,2.92-8.5,3.57-13.14,1.59-4.32-1.85-11.59-7.52-11.68-24.65l2.34.53c.08,15.8,6.46,20.35,10.26,22,4.25,1.82,8.56.8,10.62-1.14,1.48-1.4,2.23-3.79,2.11-6.75-.36-8.95-7.83-20.12-20-29.88-20-16.07-40.3-12-40.5-12A60.17,60.17,0,0,0,147,207c-10.92,9-23.93,26.42-23.93,57.85,0,60.18,47.45,70.26,47.93,70.35.18,0,26.37,3.07,42.54-13.79,12.42-13,18.74-24.11,17.33-30.59-.55-2.55-2.27-4.37-5.24-5.56-3.14-1.25-6.25-.59-9.24,2-5.64,4.82-9.25,14.38-8.09,19.47l-2.08,1.3c-1.33-5.86,2.16-17,8.66-22.54,3.64-3.12,7.66-3.93,11.62-2.36,3.69,1.47,5.93,3.9,6.65,7.23,1.6,7.36-4.77,19-17.93,32.7C202.86,336,185.42,337.83,176.45,337.83Z"/><path class="cls-17" d="M269.35,263.69c-5.08,0-8.49-.7-11.15-4-2-2.43-3-5.64-3-11.89,0-5.46.51-9.56,2.85-12.5,3-3.83,7.74-4.24,11.43-4.24H283.3v8.12h-8.72c-3.45,0-6,0-7.46,2.57-.93,1.63-1.07,4.29-1.07,5.88,0,3.64.51,4.85.79,5.41,1.4,2.57,4.43,2.57,7.93,2.57h9v8.12Z"/><path class="cls-17" d="M300.14,263.69V239.16H288.48V231h33.86v8.12H310.68v24.54Z"/><path class="cls-17" d="M352.76,263.69l.47-19.17c0-.61,0-1.21-.47-1.21-.28,0-.56.51-1.21,1.59l-9.28,15.86c-.89,1.54-2.52,3.31-7,3.31-6.44,0-7.28-3.92-7.28-7.84V231h10.73l-.47,18.7v.51c0,.42,0,1.12.56,1.12.28,0,.51-.42.93-1.17l9-15.72a7.25,7.25,0,0,1,7-3.83c7.46,0,7.74,5.41,7.74,8.07v25Z"/><path class="cls-17" d="M380.71,234c1.35-3.17,5-3.36,7-3.36s5.69.19,7,3.36l12.55,29.67H396.15l-7.88-21.6c-.09-.19-.28-.79-.51-.79s-.42.61-.51.79l-7.88,21.6H368.16Z"/><path class="cls-17" d="M442.38,234c3.55,3.26,3.68,9,3.68,13.34s-.14,10-3.68,13.34-9.42,3.36-14.27,3.36-10.82-.14-14.27-3.36-3.68-9-3.68-13.34.14-10.08,3.68-13.34,9.33-3.36,14.27-3.36S438.89,230.81,442.38,234Zm-20.2,19.54c1.4,2.15,3.27,2.38,5.92,2.38s4.48-.23,5.92-2.38c1.21-1.77,1.21-3.59,1.21-6.2,0-2.85,0-4.38-1.21-6.2-1.45-2.15-3.17-2.38-5.92-2.38s-4.53.23-5.92,2.38c-1.17,1.73-1.21,3.5-1.21,6.2S421.11,251.94,422.19,253.57Z"/><path class="cls-17" d="M453.54,263.69V237.2a6.79,6.79,0,0,1,1.31-4.48,5.64,5.64,0,0,1,4.34-1.68h18.05c2.61,0,5,.33,6.86,2.29,1.54,1.63,2.43,4.2,2.43,8.91,0,2.29-.19,7.88-2.94,10.26a9.37,9.37,0,0,1-5.74,1.77H464.08v9.42Zm18.1-17.54c1.31,0,2.61.09,3.5-.84a4.14,4.14,0,0,0,.84-2.85,3.12,3.12,0,0,0-.93-2.57,5,5,0,0,0-3.31-.75H465.9a1.66,1.66,0,0,0-1.82,1.91v5.08Z"/><path class="cls-17" d="M266.43,295.11a6.31,6.31,0,0,1-10.84-4.72V285.5a6.31,6.31,0,1,1,12.61,0v4.89A6.29,6.29,0,0,1,266.43,295.11Zm-.92-13.3a5.57,5.57,0,0,0-7.23,0,5.16,5.16,0,0,0-1.28,3.72v4.84a5.16,5.16,0,0,0,1.28,3.72,5.57,5.57,0,0,0,7.23,0,5.16,5.16,0,0,0,1.28-3.72v-4.84A5.17,5.17,0,0,0,265.5,281.81Z"/><path class="cls-17" d="M272,284.06h12.34v11.8q0,.92-.68.92t-.73-.92V285.48h-9.51v10.38q0,.92-.71.92t-.71-.92Z"/><path class="cls-17" d="M288.41,296.59V284.82q0-1,.68-1t.73,1v4.59h5.84a5.52,5.52,0,0,1,3.06.81,3.67,3.67,0,0,1,0,5.54,5.52,5.52,0,0,1-3.06.82Zm7.07-1.41a5.51,5.51,0,0,0,1.74-.23,1.75,1.75,0,0,0,.94-.62,2.64,2.64,0,0,0,.34-.68,2.34,2.34,0,0,0,.08-.64,2.86,2.86,0,0,0-.08-.73,2.07,2.07,0,0,0-.35-.67,1.78,1.78,0,0,0-.94-.57,6.06,6.06,0,0,0-1.73-.2h-5.65v4.35Zm6.28,1.74q-.68,0-.68-.87V284.63q0-.9.71-.9t.71.9V296Q302.49,296.92,301.76,296.92Z"/><path class="cls-17" d="M315.64,284.06q.9,0,.9.73t-.91.68h-4.2v10.46q0,.84-.75.84t-.67-.84V285.48h-4.25q-.91,0-.91-.71t.9-.71Z"/><path class="cls-17" d="M320.43,295.86q0,.92-.71.92t-.71-.92v-11q0-1,.65-1t.76,1v4.43h9.51v-4.43q0-1,.68-1t.73,1v11q0,.92-.68.92t-.73-.92v-5.19h-9.51Z"/><path class="cls-17" d="M335.43,296.59V284.82q0-1,.68-1t.73,1v4.59h5.84a5.52,5.52,0,0,1,3.06.81,3.67,3.67,0,0,1,0,5.54,5.52,5.52,0,0,1-3.06.82Zm7.07-1.41a5.51,5.51,0,0,0,1.74-.23,1.75,1.75,0,0,0,.94-.62,2.64,2.64,0,0,0,.34-.68,2.34,2.34,0,0,0,.08-.64,2.86,2.86,0,0,0-.08-.73,2.07,2.07,0,0,0-.35-.67,1.78,1.78,0,0,0-.94-.57,6.06,6.06,0,0,0-1.73-.2h-5.65v4.35Zm6.28,1.74q-.68,0-.68-.87V284.63q0-.9.71-.9t.71.9V296Q349.51,296.92,348.78,296.92Z"/><path class="cls-17" d="M366.09,288.85v1.09H354.62v1.85a5.94,5.94,0,0,0,.23,1.85,1.75,1.75,0,0,0,.88,1,4.14,4.14,0,0,0,1.4.44,18,18,0,0,0,2.13.09h3.64a1.47,1.47,0,0,0,1.18-.38,2.08,2.08,0,0,0,.31-1.3q0-.9.71-.9t.71,1a6.25,6.25,0,0,1-.08,1.09,3.07,3.07,0,0,1-.34.94,1.7,1.7,0,0,1-.84.73,3.61,3.61,0,0,1-1.45.26h-3.83a8.54,8.54,0,0,1-4.59-1q-1.47-1-1.47-3.82v-3q0-2.85,1.47-3.82a8.54,8.54,0,0,1,4.59-1h.79a8.47,8.47,0,0,1,4.58,1Q366.09,286,366.09,288.85Zm-6-3.37h-.79a8.16,8.16,0,0,0-3.63.56q-1,.56-1,2.49h10.06q0-1.93-1-2.49A8.07,8.07,0,0,0,360.06,285.48Z"/><path class="cls-17" d="M389.6,291.81q0,2.85-1.45,3.82a8.4,8.4,0,0,1-4.55,1h-5.46v4q0,1-.76,1t-.65-1V284.8q0-.92.71-.92t.71,1v1a6.06,6.06,0,0,1,4.65-1.71h.79a8.47,8.47,0,0,1,4.58,1q1.45,1,1.45,3.82Zm-1.41-2.94A5.94,5.94,0,0,0,388,287a1.76,1.76,0,0,0-.87-1,4,4,0,0,0-1.39-.44,18.16,18.16,0,0,0-2.13-.09h-.79q-4.65,0-4.65,4.81v4.89h5.46a7.57,7.57,0,0,0,3.63-.6q1-.6,1-2.8Z"/><path class="cls-17" d="M405.85,288.85v1.09H394.38v1.85a5.94,5.94,0,0,0,.23,1.85,1.75,1.75,0,0,0,.88,1,4.14,4.14,0,0,0,1.4.44,18,18,0,0,0,2.13.09h3.64a1.47,1.47,0,0,0,1.18-.38,2.08,2.08,0,0,0,.31-1.3q0-.9.71-.9t.71,1a6.25,6.25,0,0,1-.08,1.09,3.07,3.07,0,0,1-.34.94,1.7,1.7,0,0,1-.84.73,3.61,3.61,0,0,1-1.45.26H399a8.54,8.54,0,0,1-4.59-1q-1.47-1-1.47-3.82v-3q0-2.85,1.47-3.82a8.54,8.54,0,0,1,4.59-1h.79a8.47,8.47,0,0,1,4.58,1Q405.85,286,405.85,288.85Zm-6-3.37H399a8.16,8.16,0,0,0-3.63.56q-1,.56-1,2.49h10.06q0-1.93-1-2.49A8.07,8.07,0,0,0,399.82,285.48Z"/><path class="cls-17" d="M409.41,296.59V284.8q0-.92.68-.92t.73.92v10.38h4.48V284.8q0-.92.68-.92t.73.92v10.38h4.48V284.8q0-.92.71-.92t.71.92v11.8Z"/><path class="cls-17" d="M439.23,288.85v1.09H427.76v1.85a5.94,5.94,0,0,0,.23,1.85,1.75,1.75,0,0,0,.88,1,4.14,4.14,0,0,0,1.4.44,18,18,0,0,0,2.13.09H436a1.47,1.47,0,0,0,1.18-.38,2.08,2.08,0,0,0,.31-1.3q0-.9.71-.9t.71,1a6.25,6.25,0,0,1-.08,1.09,3.07,3.07,0,0,1-.34.94,1.7,1.7,0,0,1-.84.73,3.61,3.61,0,0,1-1.45.26h-3.83a8.54,8.54,0,0,1-4.59-1q-1.47-1-1.47-3.82v-3q0-2.85,1.47-3.82a8.54,8.54,0,0,1,4.59-1h.79a8.47,8.47,0,0,1,4.58,1Q439.23,286,439.23,288.85Zm-6-3.37h-.79a8.16,8.16,0,0,0-3.63.56q-1,.56-1,2.49h10.06q0-1.93-1-2.49A8.07,8.07,0,0,0,433.19,285.48Z"/><path class="cls-17" d="M444.17,295.86q0,.92-.71.92t-.71-.92v-11q0-1,.65-1t.76,1v4.43h9.51v-4.43q0-1,.68-1t.73,1v11q0,.92-.68.92t-.73-.92v-5.19h-9.51Z"/><path class="cls-17" d="M471.51,284.06v11.77q0,1-.68,1t-.73-1v-9.92l-9.4,10.71h-1.52V284.82q0-1,.68-1t.73,1v10l9.49-10.82Z"/><path class="cls-17" d="M478.5,291a3.46,3.46,0,0,1-2.09-1,3.4,3.4,0,0,1-.63-2.24,4.54,4.54,0,0,1,.3-1.74,2.92,2.92,0,0,1,.75-1.11,3.1,3.1,0,0,1,1.29-.59,8.62,8.62,0,0,1,1.58-.25q.73,0,2,0h4.19q.65,0,.65,1v10.93q0,.84-.68.84t-.73-.84v-4.71h-3.29a3.62,3.62,0,0,0-2.2.54,3.14,3.14,0,0,0-1,1.75,5.22,5.22,0,0,1-1.33,2.37,2.91,2.91,0,0,1-2.09.91q-1,0-1-.71t1-.71a1.63,1.63,0,0,0,1.22-.59,3,3,0,0,0,.71-1.16l.14-.49A4.25,4.25,0,0,1,478.5,291Zm-.57-5.21q-.74.36-.73,1.83t.75,1.82a7.91,7.91,0,0,0,2.87.34h4.29v-4.35h-4.29A7.65,7.65,0,0,0,477.93,285.83Z"/></svg>