<svg xmlns="http://www.w3.org/2000/svg" xmlns:xlink="http://www.w3.org/1999/xlink" viewBox="0 0 193.66 162"><defs><style>.cls-1{fill:url(#linear-gradient);}.cls-2{fill:url(#linear-gradient-2);}.cls-3{fill:url(#Новый_образец_градиента_4);}.cls-4{fill:url(#Новый_образец_градиента_6);}.cls-5{fill:url(#Новый_образец_градиента_3);}.cls-6{fill:url(#linear-gradient-3);}.cls-7{fill:url(#Новый_образец_градиента_7);}.cls-8{fill:url(#linear-gradient-4);}.cls-9{fill:url(#Новый_образец_градиента_3-2);}.cls-10{fill:url(#Новый_образец_градиента_7-2);}.cls-11{fill:url(#linear-gradient-5);}.cls-12{fill:url(#Новый_образец_градиента_5);}.cls-13{fill:url(#linear-gradient-6);}.cls-14{fill:url(#linear-gradient-7);}.cls-15{fill:url(#Новый_образец_градиента_8);}.cls-16{fill:url(#Новый_образец_градиента_8-2);}.cls-17{fill:gray;}</style><linearGradient id="linear-gradient" x1="103.07" y1="-8.35" x2="104.49" y2="90.79" gradientTransform="translate(-34.71 -5.52) rotate(2.21)" gradientUnits="userSpaceOnUse"><stop offset="0" stop-color="#222221"/><stop offset="0.54" stop-color="#e2e1dd"/><stop offset="1" stop-color="#222221"/></linearGradient><linearGradient id="linear-gradient-2" x1="114.83" y1="27.32" x2="122.33" y2="34.7" gradientUnits="userSpaceOnUse"><stop offset="0" stop-color="#3a3140"/><stop offset="1" stop-color="#adb3c4"/></linearGradient><linearGradient id="Новый_образец_градиента_4" x1="93.21" y1="16.08" x2="102.98" y2="55" gradientUnits="userSpaceOnUse"><stop offset="0" stop-color="#3e3e3d"/><stop offset="1" stop-color="#c4c4c4"/></linearGradient><linearGradient id="Новый_образец_градиента_6" x1="98.19" y1="72.33" x2="98.75" y2="38.59" gradientUnits="userSpaceOnUse"><stop offset="0" stop-color="#222221"/><stop offset="0.55" stop-color="#c4c4c4"/><stop offset="1" stop-color="#585857"/></linearGradient><linearGradient id="Новый_образец_градиента_3" x1="55.48" y1="38" x2="122.73" y2="11.83" gradientUnits="userSpaceOnUse"><stop offset="0" stop-color="#251f29"/><stop offset="1" stop-color="#2f4565"/></linearGradient><linearGradient id="linear-gradient-3" x1="116.78" y1="11.63" x2="118.07" y2="41.97" xlink:href="#linear-gradient-2"/><linearGradient id="Новый_образец_градиента_7" x1="111.84" y1="13.48" x2="120.68" y2="33.6" gradientUnits="userSpaceOnUse"><stop offset="0" stop-color="#4d7db6"/><stop offset="1" stop-color="#394051"/></linearGradient><linearGradient id="linear-gradient-4" x1="115" y1="-1901.42" x2="122.43" y2="-1894.12" gradientTransform="matrix(1, 0, 0, -1, 0, -1843.57)" xlink:href="#linear-gradient-2"/><linearGradient id="Новый_образец_градиента_3-2" x1="55.41" y1="-1890.98" x2="122.66" y2="-1917.14" gradientTransform="matrix(1, 0, 0, -1, 0, -1843.57)" xlink:href="#Новый_образец_градиента_3"/><linearGradient id="Новый_образец_градиента_7-2" x1="113.82" y1="-1910.82" x2="119.39" y2="-1898.12" gradientTransform="matrix(1, 0, 0, -1, 0, -1843.57)" xlink:href="#Новый_образец_градиента_7"/><linearGradient id="linear-gradient-5" x1="120.51" y1="15.06" x2="126.08" y2="27.74" gradientUnits="userSpaceOnUse"><stop offset="0" stop-color="#9d86ba"/><stop offset="1" stop-color="#604472"/></linearGradient><linearGradient id="Новый_образец_градиента_5" x1="78.55" y1="19.66" x2="78.07" y2="66.49" gradientTransform="matrix(1, 0, 0, 1, 0, 0)" xlink:href="#linear-gradient"/><linearGradient id="linear-gradient-6" x1="102.06" y1="13.43" x2="101.83" y2="75.88" gradientUnits="userSpaceOnUse"><stop offset="0" stop-color="#6f6e6e"/><stop offset="0.52" stop-color="#f5f5f5"/><stop offset="0.98" stop-color="#858585"/></linearGradient><linearGradient id="linear-gradient-7" x1="47.41" y1="42.89" x2="78.01" y2="42.89" gradientUnits="userSpaceOnUse"><stop offset="0" stop-color="#394051"/><stop offset="0.52" stop-color="#3f6d80"/><stop offset="0.98" stop-color="#394051"/></linearGradient><linearGradient id="Новый_образец_градиента_8" x1="81.37" y1="10.61" x2="81.2" y2="72.61" gradientUnits="userSpaceOnUse"><stop offset="0" stop-color="#2f4565"/><stop offset="0.52" stop-color="#e5f1f6"/><stop offset="0.98" stop-color="#2f4565"/></linearGradient><linearGradient id="Новый_образец_градиента_8-2" x1="100.2" y1="-1.04" x2="101.22" y2="90.6" xlink:href="#Новый_образец_градиента_8"/></defs><title>Ресурс 1</title><g id="Слой_2" data-name="Слой 2"><g id="Слой_1-2" data-name="Слой 1"><path class="cls-1" d="M79.63,7l-14.9,7.12s-11,7.63-11.61,24.44,4.78,25.51,8.37,29.14c3.9,3.94,5.48,5.41,19.24,11.16l-10.61-14L66.91,43.37l2.33-20.91Z"/><path class="cls-2" d="M111.83,29.25s-.16,7.89,6.47,7.89,6.79-8.68,6.79-8.68Z"/><path class="cls-3" d="M112.31,31.78a16.86,16.86,0,0,1-.48-2.53,16.41,16.41,0,0,0-3.41-7.83C103.55,15.14,94,11.4,82.55,23l-3,14.11h37.87C116.07,37,113.5,36.13,112.31,31.78Z"/><path class="cls-4" d="M78.88,48.06h39.43s-5.46-.88-6.47,7.89S98.47,78.4,82.55,62.16Z"/><path class="cls-5" d="M116.25,28.94l8.05,2.61,3.95.24s8.84,0,2.21-12.79C124.68,7.82,106.23-6,83.73,4.7S65.5,45.2,65.5,45.2l3.08-16.1,14-6.05A52.44,52.44,0,0,1,87.4,19a16.69,16.69,0,0,1,10.3-3.48c8.05,0,13,9.19,13,9.19Z"/><path class="cls-6" d="M118.31,37.15h-.88A3.67,3.67,0,0,0,118.31,37.15Z"/><path class="cls-7" d="M117.47,17.57l-9,3.85a16.41,16.41,0,0,1,3.41,7.83,16.86,16.86,0,0,0,.48,2.53h15.14C125.1,31.64,117.73,30.14,117.47,17.57Z"/><path class="cls-8" d="M112.07,56s-.48-7.91,6.24-7.91,7,8.7,7,8.7Z"/><path class="cls-9" d="M116.25,56.28l8.05-2.61,3.95-.24s8.84,0,2.21,12.79c-5.78,11.17-25.33,27-46.73,14.29C63.21,68.34,65.5,40,65.5,40l3.08,16.1,14,6.05a52.44,52.44,0,0,0,4.85,4.08,16.69,16.69,0,0,0,10.3,3.48c8.05,0,13-9.19,13-9.19Z"/><path class="cls-10" d="M117.48,67.8l-9.06-4A16.41,16.41,0,0,0,111.83,56a16.86,16.86,0,0,1,.48-2.53h15.14C125.1,53.58,117.74,55.24,117.48,67.8Z"/><path class="cls-11" d="M128.25,31.78h-.8A5.61,5.61,0,0,0,128.25,31.78Z"/><path class="cls-12" d="M90.84,68.88S79.15,65.25,79.15,43.62,90.84,16.53,90.84,16.53s-10.12,7.3-13.11,8.6l-9.15,4S65.5,33.36,65.5,45.2s5.76,15.95,5.76,15.95,6.95.47,9.79,2.53S90.84,68.88,90.84,68.88Z"/><path class="cls-13" d="M96.1,70.59a14.54,14.54,0,0,1-10.32-4.53c-9.45-9.21-7-28.17-6.92-29,.08-.47,1.89-11,5.47-15.35,6.17-7.54,12.19-7.73,16.16-6.57,6.65,2,11.42,8.78,12,14,.36,3.1,1.31,5.25,2.82,6.42a4.07,4.07,0,0,0,2.87.88h.19c.17,0,4.36.47,5.63-4.84l1.33.32c-1.44,6-6.26,5.93-7,5.88a5.48,5.48,0,0,1-3.78-1.13c-1.84-1.39-3-3.87-3.38-7.37-.55-4.8-5.13-11.11-11.06-12.84-3.57-1-9-.84-14.72,6.12C82,26.69,80.22,37.18,80.2,37.29s-2.43,19.06,6.53,27.79a13.09,13.09,0,0,0,9.68,4.14,16.08,16.08,0,0,0,9.93-4.12c1.35-1.45,3.73-4.42,4.09-6.35,0-.27.1-.63.15-1.07.41-3.21,1.38-10.74,7.77-10.31a7.41,7.41,0,0,1,7,6l-.92.14-.09,0a2.21,2.21,0,0,0-.35,0,6,6,0,0,0-5.73-4.71c-5.1-.35-5.93,6-6.33,9.12-.06.47-.11.86-.16,1.14-.51,2.7-3.78,6.33-4.43,7a17.67,17.67,0,0,1-10.89,4.55Z"/><path class="cls-14" d="M95.77,1.26S64.85,2.8,65.17,42.71s30.6,41.8,30.6,41.8S67.23,77.45,68.26,42.62,95.77,1.26,95.77,1.26Z"/><path class="cls-15" d="M97.89,85.19a36.41,36.41,0,0,1-16.59-6c-7.57-5.07-16.63-15.51-16.8-36.43S72.81,11.46,80,6.46A32.94,32.94,0,0,1,95.74.58l.07,1.36A32.19,32.19,0,0,0,80.69,7.62c-9.83,6.9-15,19-14.83,35.09S71.58,71,82,78A35.61,35.61,0,0,0,98,83.83Z"/><path class="cls-16" d="M100.1,85.2A29.13,29.13,0,0,1,96.71,85a35.92,35.92,0,0,1-14.62-7.48c-6.62-5.5-14.51-16-14.51-34.93s7.89-29.4,14.51-34.86A35.8,35.8,0,0,1,96.66.35c.49-.11,12.55-2.55,24.77,7.26,7.41,5.94,12,12.84,12.18,18.45A6.36,6.36,0,0,1,132,31c-1.81,1.71-5,2.09-7.67.93-2.52-1.08-6.77-4.39-6.82-14.39l1.37.31c0,9.22,3.77,11.88,6,12.83A5.94,5.94,0,0,0,131,30a5.05,5.05,0,0,0,1.23-3.94c-.21-5.22-4.57-11.74-11.68-17.45-11.69-9.38-23.53-7-23.65-7a35.13,35.13,0,0,0-14,7.16c-6.37,5.28-14,15.42-14,33.77,0,35.13,27.7,41,28,41.07.11,0,15.4,1.79,24.83-8.05,7.25-7.57,10.94-14.08,10.12-17.86a4.48,4.48,0,0,0-3.06-3.24,5,5,0,0,0-5.39,1.14c-3.29,2.81-5.4,8.4-4.73,11.37l-1.21.76c-.78-3.42,1.26-9.92,5.05-13.16a6.37,6.37,0,0,1,6.78-1.38,5.82,5.82,0,0,1,3.88,4.22c.93,4.29-2.78,11.07-10.47,19.09C115.51,84.12,105.33,85.2,100.1,85.2Z"/><path class="cls-17" d="M11.83,130.31c-4.26,0-7.11-.59-9.33-3.36-1.64-2-2.5-4.73-2.5-10,0-4.57.43-8,2.38-10.47C4.88,103.32,8.87,103,12,103H23.51v6.8h-7.3c-2.89,0-5,0-6.25,2.15a11.09,11.09,0,0,0-.9,4.92c0,3,.43,4.06.66,4.53,1.17,2.15,3.71,2.15,6.64,2.15h7.58v6.8Z"/><path class="cls-17" d="M37.61,130.31V109.77H27.85V103H56.2v6.8H46.44v20.54Z"/><path class="cls-17" d="M81.67,130.31l.39-16.05c0-.51,0-1-.39-1-.23,0-.47.43-1,1.33l-7.77,13.28c-.74,1.29-2.11,2.77-5.9,2.77-5.39,0-6.09-3.28-6.09-6.56V103h9l-.39,15.66v.43c0,.35,0,.94.47.94.23,0,.43-.35.78-1l7.54-13.16a6.07,6.07,0,0,1,5.9-3.2c6.25,0,6.48,4.53,6.48,6.76v20.89Z"/><path class="cls-17" d="M105.07,105.47c1.13-2.66,4.22-2.81,5.9-2.81s4.76.16,5.9,2.81l10.51,24.84H118l-6.6-18.08c-.08-.16-.23-.66-.43-.66s-.35.51-.43.66l-6.6,18.08H94.57Z"/><path class="cls-17" d="M156.71,105.47c3,2.73,3.09,7.5,3.09,11.17s-.12,8.4-3.09,11.17-7.89,2.81-11.95,2.81-9.06-.12-12-2.81-3.09-7.58-3.09-11.17.12-8.44,3.09-11.17,7.81-2.81,12-2.81S153.78,102.78,156.71,105.47ZM139.8,121.83c1.17,1.8,2.73,2,5,2s3.75-.19,5-2c1-1.48,1-3,1-5.19,0-2.38,0-3.67-1-5.19-1.21-1.8-2.66-2-5-2s-3.79.2-5,2c-1,1.45-1,2.93-1,5.19S138.9,120.47,139.8,121.83Z"/><path class="cls-17" d="M166,130.31V108.13a5.68,5.68,0,0,1,1.09-3.75,4.72,4.72,0,0,1,3.63-1.41h15.11c2.19,0,4.22.27,5.74,1.91,1.29,1.37,2,3.51,2,7.46,0,1.91-.16,6.6-2.46,8.59a7.85,7.85,0,0,1-4.8,1.48H174.87v7.89Zm15.15-14.68c1.09,0,2.19.08,2.93-.7a3.46,3.46,0,0,0,.7-2.38,2.61,2.61,0,0,0-.78-2.15,4.14,4.14,0,0,0-2.77-.62h-4.88a1.39,1.39,0,0,0-1.52,1.6v4.26Z"/><path class="cls-17" d="M9.39,156.61a5.21,5.21,0,0,1-3.8,1.44,5.23,5.23,0,0,1-3.8-1.43,5.26,5.26,0,0,1-1.48-4v-4.1a5.26,5.26,0,0,1,1.48-4,5.23,5.23,0,0,1,3.8-1.43,5.21,5.21,0,0,1,3.8,1.44,5.27,5.27,0,0,1,1.48,3.95v4.1A5.27,5.27,0,0,1,9.39,156.61Zm-.77-11.14a4,4,0,0,0-3-1.11,4,4,0,0,0-3,1.11,4.32,4.32,0,0,0-1.07,3.12v4.05a4.32,4.32,0,0,0,1.07,3.12,4,4,0,0,0,3,1.12,4,4,0,0,0,3-1.12,4.32,4.32,0,0,0,1.07-3.12v-4.05A4.33,4.33,0,0,0,8.61,145.47Z"/><path class="cls-17" d="M14.05,147.36H24.38v9.88q0,.77-.57.77t-.61-.77v-8.69h-8v8.69q0,.77-.59.77t-.59-.77Z"/><path class="cls-17" d="M27.8,157.85V148q0-.8.57-.8t.61.8v3.85h4.89a4.62,4.62,0,0,1,2.56.68,3.08,3.08,0,0,1,0,4.64,4.62,4.62,0,0,1-2.56.68Zm5.92-1.18a4.61,4.61,0,0,0,1.46-.19A1.46,1.46,0,0,0,36,156a2.21,2.21,0,0,0,.28-.57,2,2,0,0,0,.07-.53,2.39,2.39,0,0,0-.07-.61,1.73,1.73,0,0,0-.3-.56,1.49,1.49,0,0,0-.78-.48,5.07,5.07,0,0,0-1.44-.17H29v3.64ZM39,158.13q-.57,0-.57-.73v-9.56q0-.75.59-.75t.59.75v9.56Q39.58,158.13,39,158.13Z"/><path class="cls-17" d="M50.59,147.36q.76,0,.76.61t-.76.57H47.07v8.76q0,.71-.62.71t-.56-.71v-8.76H42.33q-.76,0-.76-.59t.76-.59Z"/><path class="cls-17" d="M54.6,157.24q0,.77-.59.77t-.59-.77V148q0-.8.55-.8t.64.8v3.71h8V148q0-.8.57-.8t.62.8v9.24q0,.77-.57.77t-.62-.77v-4.35h-8Z"/><path class="cls-17" d="M67.16,157.85V148q0-.8.57-.8t.61.8v3.85h4.89a4.62,4.62,0,0,1,2.56.68,3.08,3.08,0,0,1,0,4.64,4.62,4.62,0,0,1-2.56.68Zm5.92-1.18a4.61,4.61,0,0,0,1.46-.19,1.46,1.46,0,0,0,.79-.52,2.21,2.21,0,0,0,.28-.57,2,2,0,0,0,.07-.53,2.39,2.39,0,0,0-.07-.61,1.73,1.73,0,0,0-.3-.56,1.49,1.49,0,0,0-.78-.48,5.07,5.07,0,0,0-1.44-.17H68.34v3.64Zm5.26,1.46q-.57,0-.57-.73v-9.56q0-.75.59-.75t.59.75v9.56Q78.95,158.13,78.33,158.13Z"/><path class="cls-17" d="M92.83,151.37v.91h-9.6v1.55a5,5,0,0,0,.19,1.55,1.47,1.47,0,0,0,.74.85,3.47,3.47,0,0,0,1.17.36,15.11,15.11,0,0,0,1.79.08h3a1.23,1.23,0,0,0,1-.32,1.74,1.74,0,0,0,.26-1.09q0-.75.59-.75t.59.82a5.24,5.24,0,0,1-.07.91,2.57,2.57,0,0,1-.28.78,1.42,1.42,0,0,1-.71.61,3,3,0,0,1-1.22.22H87.12a7.15,7.15,0,0,1-3.85-.81q-1.23-.81-1.23-3.2v-2.48q0-2.39,1.23-3.2a7.15,7.15,0,0,1,3.85-.81h.66a7.1,7.1,0,0,1,3.83.81Q92.83,149,92.83,151.37Zm-5.05-2.82h-.66a6.83,6.83,0,0,0-3,.47q-.83.47-.85,2.08h8.42q0-1.62-.85-2.08A6.76,6.76,0,0,0,87.78,148.55Z"/><path class="cls-17" d="M112.51,153.85q0,2.39-1.22,3.2a7,7,0,0,1-3.81.81h-4.57v3.35q0,.8-.64.8t-.55-.8V148q0-.77.59-.77t.59.8v.8a5.07,5.07,0,0,1,3.89-1.43h.66a7.09,7.09,0,0,1,3.83.81q1.22.81,1.22,3.2Zm-1.18-2.46a5,5,0,0,0-.19-1.55,1.47,1.47,0,0,0-.73-.85,3.37,3.37,0,0,0-1.16-.36,15.21,15.21,0,0,0-1.79-.08h-.66q-3.89,0-3.89,4v4.1h4.57a6.34,6.34,0,0,0,3-.5q.81-.5.81-2.34Z"/><path class="cls-17" d="M126.12,151.37v.91h-9.6v1.55a5,5,0,0,0,.19,1.55,1.47,1.47,0,0,0,.74.85,3.47,3.47,0,0,0,1.17.36,15.11,15.11,0,0,0,1.79.08h3a1.23,1.23,0,0,0,1-.32,1.74,1.74,0,0,0,.26-1.09q0-.75.59-.75t.59.82a5.24,5.24,0,0,1-.07.91,2.57,2.57,0,0,1-.28.78,1.42,1.42,0,0,1-.71.61,3,3,0,0,1-1.22.22h-3.21a7.15,7.15,0,0,1-3.85-.81q-1.23-.81-1.23-3.2v-2.48q0-2.39,1.23-3.2a7.15,7.15,0,0,1,3.85-.81h.66a7.1,7.1,0,0,1,3.83.81Q126.12,149,126.12,151.37Zm-5.05-2.82h-.66a6.83,6.83,0,0,0-3,.47q-.83.47-.85,2.08h8.42q0-1.62-.85-2.08A6.76,6.76,0,0,0,121.07,148.55Z"/><path class="cls-17" d="M129.1,157.85V148q0-.77.57-.77t.61.77v8.69H134V148q0-.77.57-.77t.62.77v8.69H139V148q0-.77.59-.77t.59.77v9.88Z"/><path class="cls-17" d="M154.06,151.37v.91h-9.6v1.55a5,5,0,0,0,.19,1.55,1.47,1.47,0,0,0,.74.85,3.47,3.47,0,0,0,1.17.36,15.11,15.11,0,0,0,1.79.08h3a1.23,1.23,0,0,0,1-.32,1.74,1.74,0,0,0,.26-1.09q0-.75.59-.75t.59.82a5.24,5.24,0,0,1-.07.91,2.57,2.57,0,0,1-.28.78,1.42,1.42,0,0,1-.71.61,3,3,0,0,1-1.22.22h-3.21a7.15,7.15,0,0,1-3.85-.81q-1.23-.81-1.23-3.2v-2.48q0-2.39,1.23-3.2a7.15,7.15,0,0,1,3.85-.81H149a7.1,7.1,0,0,1,3.83.81Q154.06,149,154.06,151.37ZM149,148.55h-.66a6.83,6.83,0,0,0-3,.47q-.83.47-.85,2.08h8.42q0-1.62-.85-2.08A6.76,6.76,0,0,0,149,148.55Z"/><path class="cls-17" d="M158.2,157.24q0,.77-.59.77t-.59-.77V148q0-.8.55-.8t.64.8v3.71h8V148q0-.8.57-.8t.62.8v9.24q0,.77-.57.77t-.62-.77v-4.35h-8Z"/><path class="cls-17" d="M181.1,147.36v9.85q0,.8-.57.8t-.61-.82v-8.31l-7.87,9h-1.27V148q0-.8.57-.8t.61.82v8.4l7.94-9.06Z"/><path class="cls-17" d="M186.94,153.21a2.9,2.9,0,0,1-1.75-.84,2.85,2.85,0,0,1-.52-1.88,3.81,3.81,0,0,1,.25-1.46,2.44,2.44,0,0,1,.63-.93,2.59,2.59,0,0,1,1.08-.5,7.22,7.22,0,0,1,1.32-.21q.61,0,1.66,0h3.5q.55,0,.55.8v9.15q0,.71-.57.71t-.61-.7v-3.94h-2.75a3,3,0,0,0-1.84.45,2.63,2.63,0,0,0-.86,1.47,4.37,4.37,0,0,1-1.11,2,2.44,2.44,0,0,1-1.75.76q-.82,0-.82-.59t.82-.59a1.36,1.36,0,0,0,1-.5,2.51,2.51,0,0,0,.59-1l.11-.41A3.56,3.56,0,0,1,186.94,153.21Zm-.48-4.36q-.62.3-.62,1.53t.63,1.52a6.63,6.63,0,0,0,2.4.29h3.59v-3.64h-3.59A6.4,6.4,0,0,0,186.47,148.84Z"/></g></g></svg>