<svg id="Слой_1" data-name="Слой 1" xmlns="http://www.w3.org/2000/svg" viewBox="0 0 141.73 141.73"><defs><style>.cls-1{fill:#4fa0ca;}</style></defs><title>all icons</title><path class="cls-1" d="M136.92,101.57a16.35,16.35,0,0,1-2.12,7.94L93.09,62.84l41.26-36.1a16.39,16.39,0,0,1,2.57,8.77ZM70.86,71.31l57.41-50.23A16.3,16.3,0,0,0,120.4,19H21.32a16.24,16.24,0,0,0-7.87,2.08Zm16-3L73.58,79.91a4.14,4.14,0,0,1-5.44,0L54.86,68.27,12.62,115.54a16.31,16.31,0,0,0,8.71,2.54H120.4a16.31,16.31,0,0,0,8.71-2.54ZM7.38,26.74a16.39,16.39,0,0,0-2.57,8.77v66.05a16.31,16.31,0,0,0,2.12,7.94L48.64,62.83Zm0,0"/></svg>