<svg id="Слой_1" data-name="Слой 1" xmlns="http://www.w3.org/2000/svg" viewBox="0 0 141.73 141.73"><defs><style>.cls-1{fill:#fff;}</style></defs><title>all icons</title><path class="cls-1" d="M136.35,103.61a16.21,16.21,0,0,1-2.1,7.87L92.89,65.21l40.9-35.79a16.25,16.25,0,0,1,2.55,8.7Zm-65.48-30,56.92-49.8a16.16,16.16,0,0,0-7.8-2.06H21.75A16.1,16.1,0,0,0,14,23.81Zm15.87-3L73.56,82.14a4.11,4.11,0,0,1-5.39,0L55,70.6,13.12,117.46A16.17,16.17,0,0,0,21.75,120H120a16.17,16.17,0,0,0,8.63-2.52ZM7.93,29.43a16.25,16.25,0,0,0-2.55,8.7v65.48a16.17,16.17,0,0,0,2.1,7.87L48.83,65.2Zm0,0"/></svg>