<svg id="Слой_1" data-name="Слой 1" xmlns="http://www.w3.org/2000/svg" viewBox="0 0 141.73 141.73"><defs><style>.cls-1{fill:#4fa0ca;}</style></defs><title>all icons</title><rect class="cls-1" x="17.09" y="7" width="121.38" height="107.17" rx="12.27" ry="12.27"/><path d="M53.49,111.23H23.82a2.94,2.94,0,1,0,0,5.87H53.49a2.94,2.94,0,1,0,0-5.87Zm0,0"/><path d="M97.84,111.23H68.18a2.94,2.94,0,1,0,0,5.87H97.84a2.94,2.94,0,1,0,0-5.87Zm0,0"/><path d="M97.84,37.8h-74a2.94,2.94,0,0,0,0,5.87h74a2.94,2.94,0,1,0,0-5.87Zm0,0"/><path d="M97.84,52.48H68.18a2.94,2.94,0,0,0,0,5.87H97.84a2.94,2.94,0,1,0,0-5.87Zm0,0"/><path d="M97.84,67.17H68.18a2.94,2.94,0,0,0,0,5.87H97.84a2.94,2.94,0,1,0,0-5.87Zm0,0"/><path d="M97.84,81.86H68.18a2.94,2.94,0,0,0,0,5.87H97.84a2.94,2.94,0,1,0,0-5.87Zm0,0"/><path d="M97.84,96.54H68.18a2.94,2.94,0,0,0,0,5.87H97.84a2.94,2.94,0,1,0,0-5.87Zm0,0"/><path d="M53.49,96.54H23.82a2.94,2.94,0,0,0,0,5.87H53.49a2.94,2.94,0,0,0,0-5.87Zm0,0"/><path d="M53.49,52.48H23.82a2.94,2.94,0,0,0-2.94,2.94V85.09A2.94,2.94,0,0,0,23.82,88H53.49a2.94,2.94,0,0,0,2.94-2.94V55.42a2.94,2.94,0,0,0-2.94-2.94ZM50.55,82.15H26.76V58.36H50.55Zm0,0"/><path d="M127.22,34.86h-8.81V26a5.88,5.88,0,0,0-5.87-5.87H9.13A5.88,5.88,0,0,0,3.26,26v94a14.7,14.7,0,0,0,14.69,14.69H118.41A14.7,14.7,0,0,0,133.09,120V40.73a5.88,5.88,0,0,0-5.87-5.87Zm0,85.18a8.82,8.82,0,0,1-8.81,8.81H17.95A8.82,8.82,0,0,1,9.13,120V26h103.4v89.59a7.35,7.35,0,0,0,7.34,7.34,2.94,2.94,0,1,0,0-5.87,1.47,1.47,0,0,1-1.47-1.47V40.73h8.81Zm0,0"/></svg>