<svg id="Слой_1" data-name="Слой 1" xmlns="http://www.w3.org/2000/svg" viewBox="0 0 141.73 141.73"><defs><style>.cls-1{fill:#4fa0ca;}.cls-2{fill:#fff;}</style></defs><title>all icons</title><rect class="cls-1" x="18.25" y="11" width="118.77" height="104.86" rx="12.01" ry="12.01"/><path class="cls-2" d="M53.86,113h-29a2.87,2.87,0,1,0,0,5.75h29a2.87,2.87,0,1,0,0-5.75Zm0,0"/><path class="cls-2" d="M97.26,113h-29a2.87,2.87,0,1,0,0,5.75h29a2.87,2.87,0,1,0,0-5.75Zm0,0"/><path class="cls-2" d="M97.26,41.13H24.83a2.87,2.87,0,0,0,0,5.75H97.26a2.87,2.87,0,1,0,0-5.75Zm0,0"/><path class="cls-2" d="M97.26,55.5h-29a2.87,2.87,0,0,0,0,5.75h29a2.87,2.87,0,1,0,0-5.75Zm0,0"/><path class="cls-2" d="M97.26,69.87h-29a2.87,2.87,0,0,0,0,5.75h29a2.87,2.87,0,1,0,0-5.75Zm0,0"/><path class="cls-2" d="M97.26,84.25h-29a2.87,2.87,0,0,0,0,5.75h29a2.87,2.87,0,1,0,0-5.75Zm0,0"/><path class="cls-2" d="M97.26,98.62h-29a2.87,2.87,0,1,0,0,5.75h29a2.87,2.87,0,1,0,0-5.75Zm0,0"/><path class="cls-2" d="M53.86,98.62h-29a2.87,2.87,0,1,0,0,5.75h29a2.87,2.87,0,0,0,0-5.75Zm0,0"/><path class="cls-2" d="M53.86,55.5h-29A2.87,2.87,0,0,0,22,58.38v29a2.87,2.87,0,0,0,2.87,2.87h29a2.87,2.87,0,0,0,2.87-2.87v-29a2.87,2.87,0,0,0-2.87-2.87ZM51,84.53H27.71V61.25H51Zm0,0"/><path class="cls-2" d="M126,38.26h-8.62V29.63a5.76,5.76,0,0,0-5.75-5.75H10.46a5.75,5.75,0,0,0-5.75,5.75v92A14.39,14.39,0,0,0,19.08,136h98.3a14.39,14.39,0,0,0,14.37-14.37V44A5.76,5.76,0,0,0,126,38.26Zm0,83.35a8.63,8.63,0,0,1-8.62,8.62H19.08a8.63,8.63,0,0,1-8.62-8.62v-92H111.63V117.3a7.19,7.19,0,0,0,7.19,7.19,2.87,2.87,0,1,0,0-5.75,1.44,1.44,0,0,1-1.44-1.44V44H126Zm0,0"/></svg>