<svg xmlns="http://www.w3.org/2000/svg" viewBox="0 0 91 91">
  <defs>
    <style>
      .cls-1 {
        fill: #e52039;
      }

      .cls-2 {
        fill: #b5202c;
      }

      .cls-3 {
        fill: #fff;
      }
    </style>
  </defs>
  <g id="Group_37" data-name="Group 37" transform="translate(-184 -1458)">
    <g id="Group_31" data-name="Group 31" transform="translate(184 1458)">
      <circle id="Ellipse_3" data-name="Ellipse 3" class="cls-1" cx="45.5" cy="45.5" r="45.5"/>
      <path id="Path_3" data-name="Path 3" class="cls-2" d="M45.5,0a45.5,45.5,0,0,1,0,91Z"/>
      <ellipse cx="45.5" cy="45.5" rx="100" ry="45.5"></ellipse>
    </g>
    <!-- <g id="insurance" transform="translate(204 1426.405)">
      <g id="Group_33" data-name="Group 33" transform="translate(5.503 88.751)">
        <g id="Group_32" data-name="Group 32">
          <path id="Path_21" data-name="Path 21" class="cls-3" d="M89.515,379.819a.838.838,0,0,0-1.1-.451l-7.326,3.056a6.648,6.648,0,0,1-4.644.179l-17.184-5.662a4.6,4.6,0,0,0-3.3.156l-.682.3a.838.838,0,1,0,.672,1.535l.683-.3a2.928,2.928,0,0,1,2.1-.1l17.184,5.662a8.325,8.325,0,0,0,5.814-.224l7.326-3.056A.838.838,0,0,0,89.515,379.819Z" transform="translate(-54.786 -376.708)"/>
        </g>
      </g>
      <g id="Group_35" data-name="Group 35" transform="translate(0 56.595)">
        <g id="Group_34" data-name="Group 34" transform="translate(0 0)">
          <path id="Path_22" data-name="Path 22" class="cls-3" d="M51.116,83.916l-.012-.027a3.976,3.976,0,0,0-4.475-2.3,3.334,3.334,0,0,0-1.936-4.07l-.029-.011a3.336,3.336,0,0,0-2.1-.112V71.961a.838.838,0,1,0-1.676,0v11.6l-7.368,2.578a3.766,3.766,0,0,1-2.475,0L22.38,83.115V79.738l8.295,2.836a3.475,3.475,0,0,0,4.267-1.841H35.99a.838.838,0,0,0,.838-.838V70.173a.838.838,0,0,0-.838-.838H27.274a.838.838,0,0,0-.838.838v3.375L22.38,71.992V65.736l9.252-6.126,9.253,6.127v3.431a.838.838,0,0,0,1.676,0V66.846l2.3,1.523a.838.838,0,1,0,.925-1.4L41.22,63.947V57.433a.838.838,0,0,0-.838-.838H35.353a.838.838,0,0,0-.838.838v2.074l-2.42-1.6a.838.838,0,0,0-.925,0L17.478,66.972a.838.838,0,0,0,.925,1.4l2.3-1.523v4.5l-2.827-1.084c-.109-.043-.228-.087-.374-.137a10.383,10.383,0,0,0-9.067,1.247L.373,76.746A.838.838,0,1,0,1.3,78.141L9.365,72.77a8.7,8.7,0,0,1,7.594-1.056c.121.042.217.076.309.113l15.165,5.817a1.781,1.781,0,0,1,.993,2.373,1.789,1.789,0,0,1-2.209.972L21.6,77.7a3.266,3.266,0,0,0-2.134,6.173l11.025,3.853a5.45,5.45,0,0,0,3.581,0L46.711,83.3a2.3,2.3,0,0,1,2.857,1.257l0,.011a2.286,2.286,0,0,1-1.227,3L41.6,90.385a.838.838,0,1,0,.645,1.547l6.75-2.816a3.962,3.962,0,0,0,2.125-5.2ZM36.191,58.271h3.352v4.566l-3.352-2.22Zm-3.16,17.807-4.92-1.887v-3.18h7.04v7.48a3.441,3.441,0,0,0-2.12-2.413ZM20.7,82.53l-.687-.24A1.6,1.6,0,0,1,19,80.382a1.588,1.588,0,0,1,1.7-1.173v3.32Zm24.272-1.291-.43,1.044-1.984.694V79.2h0a1.66,1.66,0,0,1,1.489-.137l.025.01a1.658,1.658,0,0,1,.9,2.163Z" transform="translate(0 -56.595)"/>
        </g>
      </g>
    </g> -->
  </g>
</svg>
