<svg id="Слой_1" data-name="Слой 1" xmlns="http://www.w3.org/2000/svg" viewBox="0 0 141.73 141.73"><defs><style>.cls-1{fill:#4fa0ca;}</style></defs><title>all icons</title><path class="cls-1" d="M132.65,70.72c0,5.72-.17,11.44,0,17.16.39,10.51-4.18,18.53-12.06,25-9.06,7.42-19.68,11.5-31,13.73-20.42,4-40.45,2.72-59.7-5.65C21.35,117.19,13.74,112,8.63,103.8a25.83,25.83,0,0,1-4-14c0-12.74,0-25.48,0-38.22,0-9.21,4.24-16.34,10.94-22.22C23.33,22.58,32.49,18.5,42.31,16c20.88-5.35,41.55-4.69,61.8,3,8.27,3.14,15.75,7.62,21.61,14.43a27.37,27.37,0,0,1,7,18.88c-.1,6.14,0,12.28,0,18.41Zm-4.85-4.46c-.43.25-.66.3-.77.45-7,8.76-16.34,13.89-26.69,17.38-16.3,5.5-33,6.26-49.9,3.43-12.12-2-23.48-6.15-33.23-13.88A102,102,0,0,1,9.7,66.33c0,.75-.1,1.31-.1,1.86,0,7.17.05,14.33,0,21.5a21.38,21.38,0,0,0,4.55,13.5c5.72,7.56,13.63,12,22.29,15.13,17.31,6.28,35.05,7,53,3.31,11-2.24,21.2-6.27,29.67-13.89,5.76-5.18,9-11.48,8.77-19.48-.2-6,0-12,0-18C127.8,69,127.8,67.71,127.8,66.26ZM73.92,17.55C57,17.53,48,18.91,37,22.75c-8.07,2.83-15.48,6.86-21.29,13.32-8.45,9.4-8.06,21.37.77,30.35A49.28,49.28,0,0,0,33.61,77.59c19.82,7.92,40.1,8.62,60.63,3.22,9.89-2.6,19-6.77,26.38-14.19,8.7-8.78,9.71-19.42,2-29a42.26,42.26,0,0,0-10.76-9.26C98.7,20.2,84,17.66,73.92,17.55Z"/><path class="cls-1" d="M68.76,28.27c11.91.16,23.69,2,34.66,7.48a32,32,0,0,1,11.25,8.67c3.35,4.3,3.4,8.34.1,12.67-4.34,5.69-10.4,9-16.93,11.25-20.59,7.12-41.15,7-61.43-1.25-6-2.44-11.47-5.88-15-11.67a8.14,8.14,0,0,1-.2-8.82c3.3-5.76,8.63-9,14.39-11.71C46.06,30.08,57.16,28.41,68.76,28.27Zm.16,4.87c-9.63.07-18.9,1.28-27.78,4.75-5.22,2-10.21,4.47-14,8.73-3,3.33-3.11,5.6.25,8.58a48.14,48.14,0,0,0,10.09,7c7.64,3.85,16,5.44,24.46,6.07,12.65.93,25-.47,36.74-5.46a30.84,30.84,0,0,0,11.73-8c2.62-3,2.76-5,0-7.78A35.06,35.06,0,0,0,103,41.15C92.41,35.11,80.77,33.28,68.93,33.14Z"/></svg>