<svg id="Слой_1" data-name="Слой 1" xmlns="http://www.w3.org/2000/svg" viewBox="0 0 141.73 141.73"><defs><style>.cls-1{fill:#4fa0ca;fill-rule:evenodd;}</style></defs><title>all icons</title><path class="cls-1" d="M70.87,3.63a66.77,66.77,0,1,0,66.77,66.77A66.77,66.77,0,0,0,70.87,3.63Zm33.87,74a127.75,127.75,0,0,1,9.2,9.25,26.8,26.8,0,0,1,3.3,4.75c1.27,2.46.12,5.16-2.08,5.3H101.47a10.56,10.56,0,0,1-8.71-3.54c-1.89-1.93-3.65-4-5.47-6a13.06,13.06,0,0,0-2.46-2.19C83,84,81.33,84.37,80.27,86.32a14.37,14.37,0,0,0-1.44,6.38c-.15,3.22-1.12,4.07-4.36,4.22-6.92.33-13.48-.72-19.58-4.21A43.26,43.26,0,0,1,41.72,80.38c-7.06-9.57-12.47-20.09-17.34-30.9-1.09-2.44-.29-3.74,2.39-3.79,4.46-.09,8.93-.08,13.4,0a3.93,3.93,0,0,1,3.72,2.78A83,83,0,0,0,53,65.28a14.35,14.35,0,0,0,3.43,3.77c1.59,1.09,2.8.73,3.54-1a11.61,11.61,0,0,0,.79-3.53,52.47,52.47,0,0,0-.22-12.37,5.15,5.15,0,0,0-4.39-4.72c-1.31-.25-1.11-.73-.48-1.48a4.92,4.92,0,0,1,4.2-2.09H75.29c2.44.48,3,1.57,3.31,4V65c0,.95.47,3.76,2.18,4.39,1.37.45,2.27-.65,3.09-1.51a53.23,53.23,0,0,0,8.7-13.38c1-2.11,1.95-4.31,2.82-6.5a3.31,3.31,0,0,1,3.5-2.39h14.88a7.82,7.82,0,0,1,1.31.08c2.51.43,3.2,1.51,2.42,4-1.22,3.84-3.6,7-5.92,10.26-2.48,3.43-5.14,6.75-7.6,10.21-2.26,3.16-2.08,4.74.73,7.48Zm0,0"/></svg>