<svg id="Слой_1" data-name="Слой 1" xmlns="http://www.w3.org/2000/svg" viewBox="0 0 141.73 141.73"><defs><style>.cls-1{fill:#4fa0ca;}</style></defs><title>all icons</title><path class="cls-1" d="M70.88,3.63h0a66.73,66.73,0,0,0-54,105.91l-8.32,24.8,25.66-8.2A66.76,66.76,0,1,0,70.88,3.63Zm38.85,94.29c-1.61,4.55-8,8.32-13.1,9.42-3.49.74-8,1.34-23.39-5C53.62,94.19,41,74.25,40,73S32.07,62.4,32.07,52.82A21.32,21.32,0,0,1,38.9,36.57a9.7,9.7,0,0,1,6.83-2.4c.83,0,1.57,0,2.24.08,2,.08,2.95.2,4.24,3.3C53.81,41.42,57.74,51,58.2,52a4,4,0,0,1,.28,3.61,11.54,11.54,0,0,1-2.16,3.06c-1,1.14-1.92,2-2.9,3.22-.9,1.06-1.92,2.2-.78,4.16A59.26,59.26,0,0,0,63.47,79.51a49.09,49.09,0,0,0,15.66,9.66,4.22,4.22,0,0,0,4.71-.74,80.79,80.79,0,0,0,5.22-6.91,3.73,3.73,0,0,1,4.79-1.45c1.8.63,11.34,5.34,13.3,6.32s3.26,1.45,3.73,2.28S111.34,93.36,109.73,97.92Z"/></svg>