<svg id="Слой_3" data-name="Слой 3" xmlns="http://www.w3.org/2000/svg" viewBox="0 0 141.73 141.73"><defs><style>.cls-1{fill:#709fcb;}.cls-2{fill:none;stroke:#709fcb;stroke-miterlimit:10;stroke-width:1.5px;}.cls-3{fill:#fff;}</style></defs><title>icon</title><path class="cls-1" d="M20.14,101,9.73,111a.76.76,0,0,0,.53,1.28H80.78c1.92,0,2.55-1.09,3.94-2.42L97.34,97.71l33-31.66,6.29-6a.76.76,0,0,0-.53-1.28H125.4a.75.75,0,0,0,0,1.5h10.67l-.53-1.28L83.36,109.05c-2.29,2.2-1.09,1.69-4.32,1.69H10.26L10.8,112,21.2,102c.7-.67-.36-1.73-1.06-1.06Z"/><path class="cls-1" d="M20.47,68.31l19.73,0a.75.75,0,0,0,0-1.5l-19.73,0a.75.75,0,0,0,0,1.5Z"/><path class="cls-1" d="M11.25,83.5l9.86-15.57c.52-.82-.78-1.57-1.3-.76L10,82.75c-.52.82.78,1.57,1.3.76Z"/><path class="cls-1" d="M21.52,101.32,11.25,82.75c-.47-.85-1.76-.09-1.3.76l10.26,18.58c.47.85,1.76.09,1.3-.76Z"/><path class="cls-1" d="M40.2,100.95H20.87a.75.75,0,0,0,0,1.5H40.2a.75.75,0,0,0,0-1.5Z"/><path class="cls-1" d="M49.41,85.07l-9.86,16.25a.75.75,0,0,0,1.3.76l9.86-16.25a.75.75,0,0,0-1.3-.76Z"/><path class="cls-1" d="M39.55,67.91l9.86,17.92c.47.85,1.76.09,1.3-.76L40.84,67.15c-.47-.85-1.76-.09-1.3.76Z"/><path class="cls-1" d="M92.55,17.79l.51,0-.65-.37,2.94,5.35c.47.85,1.76.09,1.3-.76l-1.83-3.32-1-1.83c-.29-.53-.7-.57-1.27-.61-1-.08-1,1.42,0,1.5Z"/><path class="cls-1" d="M71.55,18l21-.21a.75.75,0,0,0,0-1.5l-21,.21a.75.75,0,0,0,0,1.5Z"/><path class="cls-1" d="M21,68.09,71.4,17.77a.75.75,0,0,0-1.06-1.06L19.94,67A.75.75,0,0,0,21,68.09Z"/><path class="cls-1" d="M40.89,68.09,93.08,17.64c.7-.67-.37-1.73-1.06-1.06L39.83,67c-.7.67.37,1.73,1.06,1.06Z"/><path class="cls-1" d="M55.78,79.16l-6,5.79c-.7.67.37,1.73,1.06,1.06l6-5.79c.7-.67-.37-1.73-1.06-1.06Z"/><path class="cls-1" d="M40.95,102.23,56.84,87c.7-.67-.36-1.73-1.06-1.06l-15.9,15.24c-.7.67.36,1.73,1.06,1.06Z"/><path class="cls-2" d="M106.15,34.49h17.19a2.5,2.5,0,0,1,2.5,2.5V58.06a2.5,2.5,0,0,1-1,2"/><rect class="cls-2" x="56.31" y="75.7" width="26.07" height="26.07" rx="2.5" ry="2.5"/><rect class="cls-2" x="58.77" y="78.15" width="21.16" height="21.16" rx="2.03" ry="2.03"/><line class="cls-3" x1="57.34" y1="76.18" x2="62.07" y2="71.69"/><path class="cls-1" d="M57.87,76.71l4.73-4.49c.7-.67-.36-1.73-1.06-1.06l-4.73,4.49c-.7.67.36,1.73,1.06,1.06Z"/><line class="cls-3" x1="81.81" y1="76.56" x2="125.27" y2="35.4"/><path class="cls-1" d="M82.34,77.09,125.8,35.93c.7-.67-.36-1.73-1.06-1.06L81.28,76c-.7.67.36,1.73,1.06,1.06Z"/><line class="cls-3" x1="59.48" y1="98.87" x2="79.83" y2="79.6"/><path class="cls-1" d="M60,99.4,80.36,80.13c.7-.67-.36-1.73-1.06-1.06L59,98.34c-.7.67.36,1.73,1.06,1.06Z"/><line class="cls-3" x1="81.37" y1="101.45" x2="124.84" y2="60.11"/><path class="cls-1" d="M81.9,102l43.47-41.34c.7-.67-.36-1.73-1.06-1.06L80.84,100.92c-.7.67.36,1.73,1.06,1.06Z"/><ellipse class="cls-2" cx="63.14" cy="63.81" rx="7.72" ry="8.41" transform="translate(-26.62 63.33) rotate(-45)"/><path class="cls-2" d="M57.89,57.21,93.9,24s3.6-3.21,6.85-3.21a7.92,7.92,0,0,1,8.13,8.11A7.21,7.21,0,0,1,106.62,34L68.84,70"/></svg>