<?xml version="1.0" encoding="utf-8"?>
<!-- Generator: Adobe Illustrator 21.0.0, SVG Export Plug-In . SVG Version: 6.00 Build 0)  -->
<svg version="1.1" id="Слой_1" xmlns="http://www.w3.org/2000/svg" xmlns:xlink="http://www.w3.org/1999/xlink" x="0px" y="0px"
	 viewBox="0 0 390.6 146" style="enable-background:new 0 0 390.6 146;" xml:space="preserve">
<style type="text/css">
	.st0{fill:url(#SVGID_1_);}
	.st1{fill:url(#SVGID_2_);}
	.st2{fill:url(#SVGID_3_);}
	.st3{fill:url(#SVGID_4_);}
	.st4{fill:url(#SVGID_5_);}
	.st5{fill:url(#SVGID_6_);}
	.st6{fill:url(#SVGID_7_);}
	.st7{fill:url(#SVGID_8_);}
	.st8{fill:url(#SVGID_9_);}
	.st9{fill:url(#SVGID_10_);}
	.st10{fill:url(#SVGID_11_);}
	.st11{fill:url(#SVGID_12_);}
	.st12{fill:url(#SVGID_13_);}
	.st13{fill:url(#SVGID_14_);}
	.st14{fill:url(#SVGID_15_);}
	.st15{fill:url(#SVGID_16_);}
	.st16{fill:#394051;}
</style>
<title>stilor logo</title>
<linearGradient id="SVGID_1_" gradientUnits="userSpaceOnUse" x1="29.0902" y1="174.1681" x2="31.5302" y2="4.3481" gradientTransform="matrix(0.9993 3.856221e-02 3.856221e-02 -0.9993 -9.1842 155.9866)">
	<stop  offset="0" style="stop-color:#222221"/>
	<stop  offset="0.54" style="stop-color:#E3E2DE"/>
	<stop  offset="1" style="stop-color:#222221"/>
</linearGradient>
<path class="st0" d="M45.5,12.1L20,24.2c0,0-18.8,13.1-19.9,41.9s8.2,43.7,14.3,49.9c6.7,6.8,9.4,9.3,33,19.1l-18.2-23.9l-5.5-37
	l4-35.8L45.5,12.1z"/>
<linearGradient id="SVGID_2_" gradientUnits="userSpaceOnUse" x1="105.7774" y1="127.4282" x2="118.6274" y2="114.7881" gradientTransform="matrix(1 0 0 -1 0 174.2235)">
	<stop  offset="0" style="stop-color:#3A3140"/>
	<stop  offset="1" style="stop-color:#AEB4C5"/>
</linearGradient>
<path class="st1" d="M100.7,50.1c0,0-0.3,13.5,11.1,13.5s11.6-14.9,11.6-14.9L100.7,50.1z"/>
<linearGradient id="SVGID_3_" gradientUnits="userSpaceOnUse" x1="68.7487" y1="146.6837" x2="85.4887" y2="80.0137" gradientTransform="matrix(1 0 0 -1 0 174.2235)">
	<stop  offset="0" style="stop-color:#3F3E3E"/>
	<stop  offset="1" style="stop-color:#C5C5C5"/>
</linearGradient>
<path class="st2" d="M101.5,54.4c-0.4-1.4-0.7-2.9-0.8-4.3c-0.7-4.9-2.7-9.5-5.8-13.4c-8.4-10.8-24.8-17.2-44.3,2.8l-5.1,24.2h64.9
	C107.9,63.4,103.5,61.9,101.5,54.4z"/>
<linearGradient id="SVGID_4_" gradientUnits="userSpaceOnUse" x1="77.2803" y1="50.3318" x2="78.2403" y2="108.1318" gradientTransform="matrix(1 0 0 -1 0 174.2235)">
	<stop  offset="0" style="stop-color:#222221"/>
	<stop  offset="0.55" style="stop-color:#C5C5C5"/>
	<stop  offset="1" style="stop-color:#585857"/>
</linearGradient>
<path class="st3" d="M44.2,82.3h67.5c0,0-9.4-1.5-11.1,13.5s-22.9,38.5-50.2,10.6L44.2,82.3z"/>
<linearGradient id="SVGID_5_" gradientUnits="userSpaceOnUse" x1="4.1094" y1="109.1456" x2="119.3194" y2="153.9656" gradientTransform="matrix(1 0 0 -1 0 174.2235)">
	<stop  offset="0" style="stop-color:#251F29"/>
	<stop  offset="1" style="stop-color:#2F4565"/>
</linearGradient>
<path class="st4" d="M108.2,49.6L122,54l6.8,0.4c0,0,15.1,0,3.8-21.9C122.7,13.4,91.1-10.2,52.5,8S21.3,77.4,21.3,77.4l5.3-27.6
	l23.9-10.4c2.6-2.5,5.4-4.8,8.3-7c5-3.9,11.3-6,17.6-6c13.8,0,22.3,15.7,22.3,15.7L108.2,49.6z"/>
<linearGradient id="SVGID_6_" gradientUnits="userSpaceOnUse" x1="109.1238" y1="154.3119" x2="111.3438" y2="102.3419" gradientTransform="matrix(1 0 0 -1 0 174.2235)">
	<stop  offset="0" style="stop-color:#3A3140"/>
	<stop  offset="1" style="stop-color:#AEB4C5"/>
</linearGradient>
<path class="st5" d="M111.7,63.6h-1.5C110.7,63.7,111.2,63.7,111.7,63.6z"/>
<linearGradient id="SVGID_7_" gradientUnits="userSpaceOnUse" x1="100.671" y1="151.1418" x2="115.801" y2="116.6718" gradientTransform="matrix(1 0 0 -1 0 174.2235)">
	<stop  offset="0" style="stop-color:#4E7CB7"/>
	<stop  offset="1" style="stop-color:#394051"/>
</linearGradient>
<path class="st6" d="M110.3,30.1l-15.5,6.6c3.1,3.9,5.1,8.5,5.8,13.4c0.2,1.5,0.4,2.9,0.8,4.3h25.9
	C123.4,54.2,110.8,51.6,110.3,30.1z"/>
<linearGradient id="SVGID_8_" gradientUnits="userSpaceOnUse" x1="106.0819" y1="460.2729" x2="118.8019" y2="447.7729" gradientTransform="matrix(1 0 0 1 0 -361.19)">
	<stop  offset="0" style="stop-color:#3A3140"/>
	<stop  offset="1" style="stop-color:#AEB4C5"/>
</linearGradient>
<path class="st7" d="M101.1,95.9c0,0-0.8-13.5,10.7-13.5c11.4,0,12,14.9,12,14.9L101.1,95.9z"/>
<linearGradient id="SVGID_9_" gradientUnits="userSpaceOnUse" x1="3.9897" y1="442.3849" x2="119.1997" y2="487.205" gradientTransform="matrix(1 0 0 1 0 -361.19)">
	<stop  offset="0" style="stop-color:#251F29"/>
	<stop  offset="1" style="stop-color:#2F4565"/>
</linearGradient>
<path class="st8" d="M108.2,96.4l13.8-4.5l6.8-0.4c0,0,15.1,0,3.8,21.9c-9.9,19.1-43.4,46.2-80.1,24.5
	c-35.2-20.9-31.2-69.4-31.2-69.4l5.3,27.6l23.9,10.4c2.6,2.5,5.4,4.8,8.3,7c5,3.9,11.3,6,17.6,6c13.8,0,22.3-15.7,22.3-15.7
	L108.2,96.4z"/>
<linearGradient id="SVGID_10_" gradientUnits="userSpaceOnUse" x1="104.0406" y1="476.3672" x2="113.5905" y2="454.6172" gradientTransform="matrix(1 0 0 1 0 -361.19)">
	<stop  offset="0" style="stop-color:#4E7CB7"/>
	<stop  offset="1" style="stop-color:#394051"/>
</linearGradient>
<path class="st9" d="M110.3,116.1l-15.5-6.9c3.1-3.9,5.1-8.5,5.8-13.4c0.2-1.5,0.4-2.9,0.8-4.3h25.9
	C123.4,91.8,110.8,94.6,110.3,116.1z"/>
<linearGradient id="SVGID_11_" gradientUnits="userSpaceOnUse" x1="115.5067" y1="148.4299" x2="125.0467" y2="126.7099" gradientTransform="matrix(1 0 0 -1 0 174.2235)">
	<stop  offset="0" style="stop-color:#9E87BB"/>
	<stop  offset="1" style="stop-color:#604472"/>
</linearGradient>
<path class="st10" d="M128.8,54.4h-1.4C127.9,54.5,128.3,54.5,128.8,54.4z"/>
<linearGradient id="SVGID_12_" gradientUnits="userSpaceOnUse" x1="43.6324" y1="140.5617" x2="42.8124" y2="60.3317" gradientTransform="matrix(1 0 0 -1 0 174.2235)">
	<stop  offset="0" style="stop-color:#222221"/>
	<stop  offset="0.54" style="stop-color:#E3E2DE"/>
	<stop  offset="1" style="stop-color:#222221"/>
</linearGradient>
<path class="st11" d="M64.7,118c0,0-20-6.2-20-43.3s20-46.4,20-46.4S47.3,40.8,42.2,43l-15.7,6.8c0,0-5.3,7.3-5.3,27.6
	s9.9,27.3,9.9,27.3s11.9,0.8,16.8,4.3S64.7,118,64.7,118z"/>
<linearGradient id="SVGID_13_" gradientUnits="userSpaceOnUse" x1="83.9291" y1="151.2317" x2="83.5491" y2="44.2517" gradientTransform="matrix(1 0 0 -1 0 174.2235)">
	<stop  offset="0" style="stop-color:#6F6F6E"/>
	<stop  offset="0.52" style="stop-color:#F6F6F6"/>
	<stop  offset="0.98" style="stop-color:#868686"/>
</linearGradient>
<path class="st12" d="M73.7,120.9c-6.4,0-12.4-2.6-17.7-7.8C39.8,97.4,44,64.9,44.2,63.5c0.1-0.8,3.2-18.8,9.4-26.3
	C64.1,24.3,74.4,24,81.2,26c11.4,3.3,19.6,15,20.6,24c0.6,5.3,2.2,9,4.8,11c1.4,1.1,3.1,1.6,4.9,1.5h0.2h0.2c0.3,0,7.5,0.8,9.6-8.3
	l2.3,0.5c-2.5,10.3-10.7,10.2-12,10.1c-2.3,0.2-4.6-0.5-6.5-1.9c-3.1-2.4-5.1-6.6-5.8-12.6c-1-8.2-8.8-19-18.9-22
	c-6.1-1.8-15.5-1.4-25.2,10.5c-5.7,7-8.8,25-8.9,25.2c0,0.2-4.2,32.7,11.2,47.6c5,4.9,10.5,7.3,16.6,7.1c6.3-0.3,12.3-2.8,17-7
	c2.3-2.5,6.4-7.6,7-10.9c0.1-0.5,0.2-1.1,0.3-1.8c0.7-5.5,2.4-18.4,13.3-17.7c5.9,0.2,10.8,4.4,12,10.2l-1.6,0.2l-0.2-0.1
	c-0.2,0-0.4,0-0.6,0c-1-4.6-5.1-7.9-9.8-8.1c-8.7-0.6-10.2,10.4-10.8,15.6c-0.1,0.8-0.2,1.5-0.3,2c-0.9,4.6-6.5,10.8-7.6,12
	c-1.4,1.5-9.1,7.6-18.7,7.8L73.7,120.9z"/>
<linearGradient id="SVGID_14_" gradientUnits="userSpaceOnUse" x1="-9.7091" y1="100.7968" x2="42.7157" y2="100.7968" gradientTransform="matrix(1 0 0 -1 0 174.2235)">
	<stop  offset="0" style="stop-color:#394051"/>
	<stop  offset="0.52" style="stop-color:#3F6D81"/>
	<stop  offset="0.98" style="stop-color:#394051"/>
</linearGradient>
<path class="st13" d="M73.1,2.1c0,0-53,2.6-52.4,71s52.4,71.6,52.4,71.6S24.2,132.7,26,73S73.1,2.1,73.1,2.1z"/>
<linearGradient id="SVGID_15_" gradientUnits="userSpaceOnUse" x1="48.4571" y1="156.0618" x2="48.1571" y2="49.8618" gradientTransform="matrix(1 0 0 -1 0 174.2235)">
	<stop  offset="0" style="stop-color:#2F4565"/>
	<stop  offset="0.52" style="stop-color:#E6F1F6"/>
	<stop  offset="0.98" style="stop-color:#2F4565"/>
</linearGradient>
<path class="st14" d="M76.8,145.9c-10.2-1.1-19.9-4.6-28.4-10.4c-13-8.7-28.5-26.6-28.8-62.4s14.2-53.5,26.5-62.1
	c8-5.6,17.3-9.1,27-10.1l0.1,2.3c-9.3,1-18.2,4.3-25.9,9.7C30.4,24.9,21.6,45.6,21.9,73.1s9.8,48.5,27.7,60.5
	c8.1,5.5,17.5,8.9,27.3,10L76.8,145.9z"/>
<linearGradient id="SVGID_16_" gradientUnits="userSpaceOnUse" x1="80.7717" y1="176.0123" x2="82.5317" y2="19.0423" gradientTransform="matrix(1 0 0 -1 0 174.2235)">
	<stop  offset="0" style="stop-color:#2F4565"/>
	<stop  offset="0.52" style="stop-color:#E6F1F6"/>
	<stop  offset="0.98" style="stop-color:#2F4565"/>
</linearGradient>
<path class="st15" d="M80.5,145.9c-1.9,0-3.9-0.1-5.8-0.3c-0.6-0.1-12.7-2.6-25-12.8c-11.3-9.4-24.9-27.4-24.9-59.8
	s13.5-50.4,24.9-59.7C62,3.1,74.2,0.7,74.7,0.6c0.8-0.2,21.5-4.4,42.4,12.4c12.7,10.2,20.5,22,20.9,31.6c0.1,3.6-0.9,6.7-2.8,8.5
	c-3.1,2.9-8.5,3.6-13.1,1.6c-4.3-1.9-11.6-7.5-11.7-24.6l2.3,0.5c0.1,15.8,6.5,20.4,10.3,22c4.2,1.8,8.6,0.8,10.6-1.1
	c1.5-1.4,2.2-3.8,2.1-6.8c-0.4-8.9-7.8-20.1-20-29.9c-20-16.1-40.3-12-40.5-12c-8.9,2.2-17.1,6.4-24.1,12.2
	c-10.9,9-23.9,26.4-23.9,57.9c0,60.2,47.5,70.3,47.9,70.3c0.2,0,26.4,3.1,42.5-13.8c12.4-13,18.7-24.1,17.3-30.6
	c-0.6-2.5-2.3-4.4-5.2-5.6c-3.1-1.2-6.3-0.6-9.2,2c-5.6,4.8-9.2,14.4-8.1,19.5l-2.1,1.3c-1.3-5.9,2.2-17,8.7-22.5
	c3.6-3.1,7.7-3.9,11.6-2.4c3.7,1.5,5.9,3.9,6.6,7.2c1.6,7.4-4.8,19-17.9,32.7C107,144.1,89.5,145.9,80.5,145.9z"/>
<path class="st16" d="M173.4,71.8c-5.1,0-8.5-0.7-11.1-4c-2-2.4-3-5.6-3-11.9c0-5.5,0.5-9.6,2.9-12.5c3-3.8,7.7-4.2,11.4-4.2h13.8
	v8.1h-8.7c-3.5,0-6,0-7.5,2.6c-0.9,1.6-1.1,4.3-1.1,5.9c0,3.6,0.5,4.9,0.8,5.4c1.4,2.6,4.4,2.6,7.9,2.6h9v8.1L173.4,71.8z"/>
<path class="st16" d="M204.2,71.8V47.3h-11.7v-8.2h33.9v8.1h-11.7v24.5L204.2,71.8z"/>
<path class="st16" d="M256.9,71.8l0.5-19.2c0-0.6,0-1.2-0.5-1.2c-0.3,0-0.6,0.5-1.2,1.6l-9.3,15.9c-0.9,1.5-2.5,3.3-7,3.3
	c-6.4,0-7.3-3.9-7.3-7.8V39.1h10.7l-0.5,18.7v0.5c0,0.4,0,1.1,0.6,1.1c0.3,0,0.5-0.4,0.9-1.2l9-15.7c1.4-2.6,4.1-4.1,7-3.8
	c7.5,0,7.7,5.4,7.7,8.1v25L256.9,71.8z"/>
<path class="st16" d="M284.8,42.1c1.4-3.2,5-3.4,7-3.4s5.7,0.2,7,3.4l12.5,29.7h-11.1l-7.9-21.6c-0.1-0.2-0.3-0.8-0.5-0.8
	s-0.4,0.6-0.5,0.8l-7.9,21.6h-11.2L284.8,42.1z"/>
<path class="st16" d="M346.5,42.1c3.5,3.3,3.7,9,3.7,13.3s-0.1,10-3.7,13.3s-9.4,3.4-14.3,3.4s-10.8-0.1-14.3-3.4s-3.7-9-3.7-13.3
	s0.1-10.1,3.7-13.3s9.3-3.4,14.3-3.4S343,38.9,346.5,42.1z M326.3,61.7c1.4,2.1,3.3,2.4,5.9,2.4s4.5-0.2,5.9-2.4
	c1.2-1.8,1.2-3.6,1.2-6.2c0-2.9,0-4.4-1.2-6.2c-1.5-2.1-3.2-2.4-5.9-2.4s-4.5,0.2-5.9,2.4c-1.2,1.7-1.2,3.5-1.2,6.2
	S325.2,60.1,326.3,61.7L326.3,61.7z"/>
<path class="st16" d="M357.6,71.8V45.3c-0.1-1.6,0.4-3.2,1.3-4.5c1.1-1.2,2.7-1.8,4.3-1.7h18c2.6,0,5,0.3,6.9,2.3
	c1.5,1.6,2.4,4.2,2.4,8.9c0,2.3-0.2,7.9-2.9,10.3c-1.7,1.2-3.7,1.8-5.7,1.8h-13.8v9.4H357.6z M375.7,54.3c1.3,0,2.6,0.1,3.5-0.8
	c0.6-0.8,0.9-1.8,0.8-2.9c0.1-1-0.2-1.9-0.9-2.6c-1-0.6-2.2-0.9-3.3-0.8H370c-0.9-0.1-1.7,0.6-1.8,1.5c0,0.1,0,0.3,0,0.4v5.1
	L375.7,54.3z"/>
<path class="st16" d="M170.5,103.2c-2.4,2.5-6.4,2.6-8.9,0.2c-1.3-1.3-2-3-1.9-4.9v-4.9c-0.1-3.5,2.6-6.4,6.1-6.6
	c3.5-0.1,6.4,2.6,6.6,6.1c0,0.2,0,0.3,0,0.5v4.9C172.4,100.3,171.7,102,170.5,103.2z M169.6,89.9c-2.1-1.8-5.1-1.8-7.2,0
	c-0.9,1-1.4,2.4-1.3,3.7v4.8c-0.1,1.4,0.4,2.7,1.3,3.7c2.1,1.8,5.1,1.8,7.2,0c0.9-1,1.4-2.4,1.3-3.7v-4.8
	C171,92.3,170.5,90.9,169.6,89.9L169.6,89.9z"/>
<path class="st16" d="M176.1,92.2h12.3V104c0,0.6-0.2,0.9-0.7,0.9c-0.5,0-0.7-0.3-0.7-0.9V93.6h-9.5V104c0,0.6-0.2,0.9-0.7,0.9
	s-0.7-0.3-0.7-0.9V92.2z"/>
<path class="st16" d="M192.5,104.7V92.9c0-0.7,0.2-1,0.7-1c0.5,0,0.7,0.3,0.7,1v4.6h5.8c1.1,0,2.1,0.2,3.1,0.8
	c1.5,1.3,1.7,3.6,0.4,5.2c-0.1,0.1-0.2,0.3-0.4,0.4c-0.9,0.6-2,0.9-3.1,0.8L192.5,104.7z M199.6,103.3c0.6,0,1.2-0.1,1.7-0.2
	c0.4-0.1,0.7-0.3,0.9-0.6c0.1-0.2,0.3-0.4,0.3-0.7c0.1-0.2,0.1-0.4,0.1-0.6c0-0.2,0-0.5-0.1-0.7c-0.1-0.2-0.2-0.5-0.4-0.7
	c-0.2-0.3-0.6-0.5-0.9-0.6c-0.6-0.1-1.1-0.2-1.7-0.2h-5.6v4.4L199.6,103.3z M205.9,105c-0.5,0-0.7-0.3-0.7-0.9V92.7
	c0-0.6,0.2-0.9,0.7-0.9s0.7,0.3,0.7,0.9v11.4C206.6,104.7,206.3,105,205.9,105L205.9,105z"/>
<path class="st16" d="M219.7,92.2c0.6,0,0.9,0.2,0.9,0.7c0,0.5-0.3,0.7-0.9,0.7h-4.2V104c0,0.6-0.2,0.8-0.8,0.8s-0.7-0.3-0.7-0.8
	V93.6h-4.2c-0.6,0-0.9-0.2-0.9-0.7s0.3-0.7,0.9-0.7L219.7,92.2z"/>
<path class="st16" d="M224.5,104c0,0.6-0.2,0.9-0.7,0.9s-0.7-0.3-0.7-0.9V93c0-0.7,0.2-1,0.6-1c0.4,0,0.7,0.3,0.8,1v4.4h9.5V93
	c0-0.7,0.2-1,0.7-1c0.5,0,0.7,0.3,0.7,1v11c0,0.6-0.2,0.9-0.7,0.9s-0.7-0.3-0.7-0.9v-5.2h-9.5L224.5,104z"/>
<path class="st16" d="M239.5,104.7V92.9c0-0.7,0.2-1,0.7-1s0.7,0.3,0.7,1v4.6h5.8c1.1,0,2.1,0.2,3.1,0.8c1.5,1.3,1.7,3.6,0.4,5.2
	c-0.1,0.1-0.2,0.3-0.4,0.4c-0.9,0.6-2,0.9-3.1,0.8L239.5,104.7z M246.6,103.3c0.6,0,1.2-0.1,1.7-0.2c0.4-0.1,0.7-0.3,0.9-0.6
	c0.1-0.2,0.3-0.4,0.3-0.7c0.1-0.2,0.1-0.4,0.1-0.6c0-0.2,0-0.5-0.1-0.7c-0.1-0.2-0.2-0.5-0.4-0.7c-0.2-0.3-0.6-0.5-0.9-0.6
	c-0.6-0.1-1.1-0.2-1.7-0.2h-5.6v4.4L246.6,103.3z M252.9,105c-0.5,0-0.7-0.3-0.7-0.9V92.7c0-0.6,0.2-0.9,0.7-0.9s0.7,0.3,0.7,0.9
	v11.4C253.6,104.7,253.4,105,252.9,105L252.9,105z"/>
<path class="st16" d="M270.2,97v1.1h-11.5v1.9c0,0.6,0.1,1.2,0.2,1.9c0.2,0.4,0.5,0.8,0.9,1c0.4,0.2,0.9,0.4,1.4,0.4
	c0.7,0.1,1.4,0.1,2.1,0.1h3.6c0.4,0.1,0.9-0.1,1.2-0.4c0.2-0.4,0.4-0.8,0.3-1.3c0-0.6,0.2-0.9,0.7-0.9s0.7,0.3,0.7,1
	c0,0.4,0,0.7-0.1,1.1c-0.1,0.3-0.2,0.6-0.3,0.9c-0.2,0.3-0.5,0.6-0.8,0.7c-0.5,0.2-1,0.3-1.5,0.3h-3.8c-1.6,0.1-3.2-0.2-4.6-1
	c-1-0.7-1.5-1.9-1.5-3.8v-3c0-1.9,0.5-3.2,1.5-3.8c1.4-0.8,3-1.1,4.6-1h0.8c1.6-0.1,3.2,0.2,4.6,1C269.7,93.8,270.2,95.1,270.2,97z
	 M264.2,93.6h-0.8c-1.2-0.1-2.5,0.1-3.6,0.6c-0.7,0.4-1,1.2-1,2.5h10.1c0-1.3-0.3-2.1-1-2.5C266.7,93.7,265.4,93.5,264.2,93.6
	L264.2,93.6z"/>
<path class="st16" d="M293.7,99.9c0,1.9-0.5,3.2-1.5,3.8c-1.4,0.8-3,1.1-4.5,1h-5.5v4c0,0.7-0.3,1-0.8,1s-0.7-0.3-0.6-1V92.9
	c0-0.6,0.2-0.9,0.7-0.9s0.7,0.3,0.7,1v1c1.2-1.2,2.9-1.8,4.6-1.7h0.8c1.6-0.1,3.2,0.2,4.6,1c1,0.7,1.5,1.9,1.5,3.8L293.7,99.9z
	 M292.3,97c0-0.6,0-1.3-0.2-1.9c-0.1-0.4-0.5-0.8-0.9-1c-0.4-0.2-0.9-0.4-1.4-0.4c-0.7-0.1-1.4-0.1-2.1-0.1h-0.8
	c-3.1,0-4.6,1.6-4.6,4.8v4.9h5.5c1.2,0.1,2.5-0.1,3.6-0.6c0.7-0.4,1-1.3,1-2.8L292.3,97z"/>
<path class="st16" d="M309.9,97v1.1h-11.5v1.9c0,0.6,0.1,1.2,0.2,1.9c0.2,0.4,0.5,0.8,0.9,1c0.4,0.2,0.9,0.4,1.4,0.4
	c0.7,0.1,1.4,0.1,2.1,0.1h3.6c0.4,0.1,0.9-0.1,1.2-0.4c0.2-0.4,0.4-0.8,0.3-1.3c0-0.6,0.2-0.9,0.7-0.9s0.7,0.3,0.7,1
	c0,0.4,0,0.7-0.1,1.1c-0.1,0.3-0.2,0.6-0.3,0.9c-0.2,0.3-0.5,0.6-0.8,0.7c-0.5,0.2-1,0.3-1.5,0.3h-3.9c-1.6,0.1-3.2-0.2-4.6-1
	c-1-0.7-1.5-1.9-1.5-3.8v-3c0-1.9,0.5-3.2,1.5-3.8c1.4-0.8,3-1.1,4.6-1h0.8c1.6-0.1,3.2,0.2,4.6,1C309.4,93.8,309.9,95.1,309.9,97z
	 M303.9,93.6h-0.9c-1.2-0.1-2.5,0.1-3.6,0.6c-0.7,0.4-1,1.2-1,2.5h10.1c0-1.3-0.3-2.1-1-2.5C306.4,93.7,305.1,93.5,303.9,93.6
	L303.9,93.6z"/>
<path class="st16" d="M313.5,104.7V92.9c0-0.6,0.2-0.9,0.7-0.9c0.5,0,0.7,0.3,0.7,0.9v10.4h4.5V92.9c0-0.6,0.2-0.9,0.7-0.9
	c0.5,0,0.7,0.3,0.7,0.9v10.4h4.5V92.9c0-0.6,0.2-0.9,0.7-0.9s0.7,0.3,0.7,0.9v11.8L313.5,104.7z"/>
<path class="st16" d="M343.3,97v1.1h-11.5v1.9c0,0.6,0.1,1.2,0.2,1.9c0.2,0.4,0.5,0.8,0.9,1c0.4,0.2,0.9,0.4,1.4,0.4
	c0.7,0.1,1.4,0.1,2.1,0.1h3.6c0.4,0.1,0.9-0.1,1.2-0.4c0.2-0.4,0.4-0.8,0.3-1.3c0-0.6,0.2-0.9,0.7-0.9s0.7,0.3,0.7,1
	c0,0.4,0,0.7-0.1,1.1c-0.1,0.3-0.2,0.6-0.3,0.9c-0.2,0.3-0.5,0.6-0.8,0.7c-0.5,0.2-1,0.3-1.5,0.3h-3.8c-1.6,0.1-3.2-0.2-4.6-1
	c-1-0.7-1.5-1.9-1.5-3.8v-3c0-1.9,0.5-3.2,1.5-3.8c1.4-0.8,3-1.1,4.6-1h0.8c1.6-0.1,3.2,0.2,4.6,1C342.8,93.8,343.3,95.1,343.3,97z
	 M337.3,93.6h-0.8c-1.2-0.1-2.5,0.1-3.6,0.6c-0.7,0.4-1,1.2-1,2.5H342c0-1.3-0.3-2.1-1-2.5C339.8,93.7,338.5,93.5,337.3,93.6
	L337.3,93.6z"/>
<path class="st16" d="M348.3,104c0,0.6-0.2,0.9-0.7,0.9s-0.7-0.3-0.7-0.9V93c0-0.7,0.2-1,0.6-1s0.7,0.3,0.8,1v4.4h9.5V93
	c0-0.7,0.2-1,0.7-1c0.5,0,0.7,0.3,0.7,1v11c0,0.6-0.2,0.9-0.7,0.9c-0.5,0-0.7-0.3-0.7-0.9v-5.2h-9.5L348.3,104z"/>
<path class="st16" d="M375.6,92.2v11.8c0,0.7-0.2,1-0.7,1c-0.5,0-0.7-0.3-0.7-1V94l-9.4,10.7h-1.5V92.9c0-0.7,0.2-1,0.7-1
	c0.5,0,0.7,0.3,0.7,1v10l9.5-10.8L375.6,92.2z"/>
<path class="st16" d="M382.6,99.1c-0.8-0.1-1.5-0.4-2.1-1c-0.5-0.6-0.7-1.4-0.6-2.2c0-0.6,0.1-1.2,0.3-1.7c0.2-0.4,0.4-0.8,0.8-1.1
	c0.4-0.3,0.8-0.5,1.3-0.6c0.5-0.1,1-0.2,1.6-0.2c0.5,0,1.2,0,2,0h4.2c0.4,0,0.6,0.3,0.6,1v10.9c0,0.6-0.2,0.8-0.7,0.8
	s-0.7-0.3-0.7-0.8v-4.7h-3.3c-0.8-0.1-1.5,0.1-2.2,0.5c-0.5,0.5-0.9,1.1-1,1.8c-0.2,0.9-0.7,1.7-1.3,2.4c-0.5,0.6-1.3,0.9-2.1,0.9
	c-0.7,0-1-0.2-1-0.7s0.3-0.7,1-0.7c0.5,0,0.9-0.2,1.2-0.6c0.3-0.3,0.6-0.7,0.7-1.2l0.1-0.5C381.6,100.5,382,99.7,382.6,99.1z
	 M382,93.9c-0.5,0.2-0.7,0.8-0.7,1.8s0.3,1.6,0.8,1.8c0.9,0.3,1.9,0.4,2.9,0.3h4.3v-4.4h-4.3C383.9,93.5,382.9,93.6,382,93.9
	L382,93.9z"/>
</svg>
