<svg id="Слой_1" data-name="Слой 1" xmlns="http://www.w3.org/2000/svg" viewBox="0 0 141.73 141.73"><defs><style>.cls-1{fill:#4fa0ca;}</style></defs><title>all icons</title><path class="cls-1" d="M93.91,86.9c-8.12,8.12-8.12,16.25-16.25,16.25S61.41,95,53.29,86.9,37,70.65,37,62.52s8.12-8.12,16.25-16.25S37,13.78,28.91,13.78,4.54,38.15,4.54,38.15c0,16.25,16.69,49.19,32.5,65s48.74,32.5,65,32.5c0,0,24.37-16.25,24.37-24.37S102,78.77,93.91,86.9Zm0,0"/><path class="cls-1" d="M76.87,56.19a3,3,0,0,0,3.23,3.23l32.22-2.15a3,3,0,0,0,1.95-5.18l-8.59-8.59,27.92-27.92a3,3,0,0,0,0-4.3L125,2.7a3,3,0,0,0-4.3,0L92.79,30.62,84.2,22A3,3,0,0,0,79,24Z"/></svg>