<svg id="Слой_3" data-name="Слой 3" xmlns="http://www.w3.org/2000/svg" viewBox="0 0 141.73 141.73"><defs><style>.cls-1{fill:none;stroke:#709fcb;stroke-miterlimit:10;stroke-width:1.5px;}.cls-2{fill:#709fcb;}</style></defs><title>icon</title><path class="cls-1" d="M50.74,124.06c-6.88,3.8-16.23-.44-20.88-9.46S27,95.19,33.91,91.39s16.23.44,20.88,9.46S57.62,120.27,50.74,124.06Z"/><path class="cls-1" d="M49.25,121.12c-5.32,2.93-12.73-.69-16.56-8.09s-2.62-15.77,2.7-18.71S48.13,95,52,102.42,54.57,118.19,49.25,121.12Z"/><path class="cls-1" d="M45.72,114.3c-2.61,1.44-6.24-.34-8.12-4s-1.28-7.74,1.32-9.17,6.24.34,8.12,4S48.33,112.86,45.72,114.3Z"/><path class="cls-1" d="M47.33,112.71c-2.14-.17-4.42-1.83-5.78-4.45s-1.43-5.65-.29-7.58"/><path class="cls-1" d="M41,88.55c6.58-2,14.58,2.23,18.76,10.36,4.65,9,2.83,19.41-4.05,23.21"/><path class="cls-2" d="M40.78,87.83,33.6,90.73c-.88.36-.5,1.81.4,1.45l7.18-2.91c.88-.36.5-1.81-.4-1.45Z"/><path class="cls-2" d="M55.72,121.43l-8.32,3.07c-.9.33-.51,1.78.4,1.45l8.32-3.07c.9-.33.51-1.78-.4-1.45Z"/><ellipse class="cls-1" cx="48.51" cy="102.38" rx="2.64" ry="3.42" transform="translate(-49.71 45.92) rotate(-34.75)"/><ellipse class="cls-1" cx="45.1" cy="118.37" rx="3.42" ry="2.64" transform="translate(-5.44 2.22) rotate(-2.66)"/><ellipse class="cls-1" cx="40.45" cy="97.03" rx="3.42" ry="2.64" transform="translate(-2.27 0.98) rotate(-1.35)"/><ellipse class="cls-1" cx="51.16" cy="111.38" rx="2.64" ry="3.42" transform="translate(-2.6 1.23) rotate(-1.35)"/><ellipse class="cls-1" cx="36.51" cy="113.97" rx="2.64" ry="3.42" transform="translate(-67.06 54.01) rotate(-42.17)"/><ellipse class="cls-1" cx="33.8" cy="103.57" rx="3.42" ry="2.64" transform="translate(-71 133.32) rotate(-87.77)"/><path class="cls-1" d="M59.6,46.48c-6.27,6.66-2.12,9.91-4.34,15.3s-15,7.72-21.56,3.86-.06-10,2.09-12.06l11.06-10.5"/><path class="cls-1" d="M96.42,23.76S109.21,35.7,98.33,41c-10.57,5.16-32.45-1.19-38.73,5.46"/><path class="cls-2" d="M91,18.06c1.14,2.29,3.17,4.31,4.84,6.23.64.73,1.69-.34,1.06-1.06-1.6-1.83-3.52-3.74-4.61-5.93-.43-.87-1.73-.11-1.3.76Z"/><path class="cls-2" d="M93.43,13.56c-1.22.89-3.15,2.61-2.47,4.32.35.89,1.81.5,1.45-.4-.25-.62.32-1.23.71-1.66a8.72,8.72,0,0,1,.75-.71l.28-.23,0,0c.77-.56,0-1.87-.76-1.3Z"/><path class="cls-2" d="M98.92,9.7l-5.74.52a11.51,11.51,0,0,0-2,.18c-.67.18-1,1.44-1.24,2a.77.77,0,0,0,.12.91,7.61,7.61,0,0,0,1.41,1.47,5.81,5.81,0,0,0,2.31.2c1,0,1-1.45,0-1.5l-1.86-.09c.6,0,.38.13-.06-.35l-.73-.79.12.91.8-1.64-.65.37,7.5-.67c1-.09,1-1.59,0-1.5Z"/><path class="cls-2" d="M104.47,14.55l-5-4.63c-.71-.65-1.77.4-1.06,1.06l5,4.63c.71.65,1.77-.4,1.06-1.06Z"/><path class="cls-2" d="M104.69,18.65V15.08a.75.75,0,0,0-1.5,0v3.57a.75.75,0,0,0,1.5,0Z"/><path class="cls-1" d="M22.18,52.22S13,59.52,16.24,64.93c4.49,7.48,10.38,10.3,25.23,10.74S69.35,68.44,69.21,60s-2.51-7.82,7.33-8.49c12.29-.84,35.72,2.75,38.07-17.06,0,0,1-6.49-10.67-15.85"/><path class="cls-2" d="M20.52,51.26l1,1.34a.77.77,0,0,0,1,.27.75.75,0,0,0,.27-1l-1-1.34a.77.77,0,0,0-1-.27.75.75,0,0,0-.27,1Z"/><path class="cls-2" d="M48.06,48.67v-6a.75.75,0,0,0-.37-.65L36.16,35.66a.76.76,0,0,0-.91.12L20.63,50.35a.75.75,0,0,0,1.06,1.06L36.14,37c.41-.4-1.11-.26-.41.12l2.17,1.19,6.55,3.6,1.79,1c1,.56.33-.41.33.36v5.4a.75.75,0,0,0,1.5,0Z"/><path class="cls-2" d="M32.16,64.08,47.84,49.2c.7-.67-.36-1.73-1.06-1.06L31.1,63c-.7.67.36,1.73,1.06,1.06Z"/><path class="cls-2" d="M69.67,69.16V62.62a.75.75,0,0,0-1.5,0v6.54a.75.75,0,0,0,1.5,0Z"/><path class="cls-1" d="M16.08,70.52s4,11.89,25.87,11c22.28-.87,27-12.4,27-12.4"/><path class="cls-2" d="M14.93,63.55l.4,7c.05,1,1.56,1,1.5,0l-.4-7c-.05-1-1.56-1-1.5,0Z"/><path class="cls-2" d="M114.94,44.49l.45-9.2c0-1-1.45-1-1.5,0l-.45,9.2c0,1,1.45,1,1.5,0Z"/><path class="cls-1" d="M91.21,56.66c8.44-.31,20.21-4.05,23-12.17"/><path class="cls-1" d="M69.17,58.85s.71-2.19,7.8-2.19c2.86,0,8.35.22,14.23,0"/><path class="cls-2" d="M91.81,25c3.42,2.71,9.95,8.09,8.89,13-.2.94,1.24,1.34,1.45.4C103.37,32.71,96.8,27,92.88,23.9c-.75-.59-1.82.46-1.06,1.06Z"/><path class="cls-2" d="M91.09,18.65l.51,5.78c.08,1,1.58,1,1.5,0l-.51-5.78c-.08-1-1.58-1-1.5,0Z"/><path class="cls-2" d="M89.88,12.76v3.79a1.67,1.67,0,0,0,.24,1.21l1.19,1.42c.62.74,1.68-.32,1.06-1.06l-1-1.25c-.4-.48.06.61.06.2V12.76a.75.75,0,0,0-1.5,0Z"/><path class="cls-1" d="M69.81,107.3s1.3.4,1.38-2.47l1-19.07s0-2.08,1-2.28,3,.86,3,.86l25.55,12.85s2.79.86,3.36,2.75a14,14,0,0,1,.51,3.9s-.88,7.49-.82,10c0,.84.33,2.5,1.3,3.09a2.52,2.52,0,0,1,.89,2.09l-.23,3.35s.06,1.14-1.81.44-6.74-2.7-6.74-2.7-1.66-.92-1.94-3.92l-.27-10.42a4.45,4.45,0,0,0-2.21-3.9c-2.37-1.41-11.65-6-11.65-6S79.53,94.2,79,97.28l-1.61,16s.23,2.08-2.16,1.07a22.34,22.34,0,0,1-4.73-3S67.86,107.68,69.81,107.3Z"/><line class="cls-1" x1="76.98" y1="114.48" x2="92.02" y2="101.21"/><path class="cls-1" d="M72.82,83.72,98.37,65.48a5.19,5.19,0,0,1,4.8,0c2.83,1.28,22,8.35,22,8.35s4.59,1.17,3.2,6.51A36.6,36.6,0,0,0,127,88.54s-.21,2.29,1.23,3.25-.52,6.78-.52,6.78L106.41,123"/><line class="cls-1" x1="106.16" y1="116.93" x2="128.23" y2="91.8"/><line class="cls-1" x1="104.92" y1="113.16" x2="127" y2="88.54"/><line class="cls-1" x1="105.27" y1="99.61" x2="128.23" y2="76.92"/><ellipse class="cls-1" cx="102.15" cy="78.48" rx="9.39" ry="5.51"/><path class="cls-1" d="M95.18,82.16a13.68,13.68,0,0,1,6.23-1.39,12.54,12.54,0,0,1,7.45,2.16"/><line class="cls-1" x1="103.85" y1="80.97" x2="102.78" y2="84.28"/></svg>