<svg id="Слой_1" data-name="Слой 1" xmlns="http://www.w3.org/2000/svg" viewBox="0 0 141.73 141.73"><defs><style>.cls-1{fill:#4fa0ca;}</style></defs><title>all icons</title><path class="cls-1" d="M126.12,58.48c0,8.84,0,17.68,0,26.51a4.82,4.82,0,0,1-2.8,4.81c-2.35,1.23-4.62,2.61-6.89,4-1.33.82-3,1.77-11.41-2.73a3.06,3.06,0,0,0-3.46,0q-4.85,2.94-9.85,5.62a2.55,2.55,0,0,0-1.52,2.65c.06,9.1,0,18.2.06,27.3a4.68,4.68,0,0,1-2.67,4.66c-2.4,1.27-4.74,2.67-7.08,4a3.72,3.72,0,0,1-4.1-.07Q47.65,118.91,18.8,102.6A5.66,5.66,0,0,1,15.54,97q.14-25.52,0-51a5.18,5.18,0,0,1,3.05-5.26c2.54-1.29,5-2.75,7.42-4.26a4.66,4.66,0,0,1,5.38,0c6,3.59,12.07,7.49,19.83,7.49,5.9,0,21-8,26.16-10.86a2.28,2.28,0,0,0,1.16-2.45c0-7.31-.14-4-.25-11.33,0-2.29.69-3.72,2.84-4.66A76.25,76.25,0,0,0,88,11.05c12.17-1.12,39.3,16,38.16,20.72C126.08,40.67,126.12,49.58,126.12,58.48Zm-106-10.68c0,.52-.09.77-.09,1,0,15.95,0,31.89,0,47.84,0,1.4.76,1.81,1.69,2.34l43.39,24.75c3.49,2,7,3.94,10.66,6a9.19,9.19,0,0,0,.13-1c0-16.07,0-32.14,0-48.22a2.7,2.7,0,0,0-1.21-1.92q-21.18-12.07-42.43-24Zm85.44-12.53c-.08.59-.13.78-.13,1,0,16.26,0,32.52.06,48.77a2.61,2.61,0,0,0,1.24,1.85c5.77,3.12,3.16.47,5.13,1.48,0-16.73,0-33.12-.05-49.52C111.82,38.25,107.64,35.18,105.58,35.28ZM83.87,72,78.7,69c-6-3.41-12.36-7-10.83-13.9C69.09,49.64,87.53,38,100.2,30.6c4.63-3.71,13.9,3.08,14.4,2.85,1.7-.8,4.15-2.29,6-3.36-5.11-5.44-22.7-15.37-31.38-15.42l-5.4,2.85a22.45,22.45,0,0,1,10.28,6.11c2.34,2.39,2.13,3.82-.79,5.5-13,7.53-26.1,19.45-41.15,20-8.69.33-16.16-4.73-22.42-8.36-.42-.24-1.09-.54-1.41-.37-2,1-3.89,2.18-6.07,3.44L42.67,55.38Q59.74,65,76.83,74.64a2.91,2.91,0,0,0,2.3.19A50.81,50.81,0,0,0,83.87,72Zm6.38,20.45c3.27-1.85,6.12-3.55,9.05-5.08A2.81,2.81,0,0,0,101,84.45c-.06-15.61,0-31.23,0-46.84V35.34c-12.11,7-27.48,16.13-28.14,20.85-.73,5.22,7.82,8.92,14.52,12.56a4.89,4.89,0,0,1,2.93,5C90.14,79.88,90.25,86,90.25,92.44Zm-10,37.83c1.35-.73,2.4-1.41,3.53-1.9,1.58-.69,2.11-1.7,2.1-3.5-.09-15.59-.06-31.18-.06-46.77,0-.56-.06-1.11-.1-1.88-1.31.72-2.37,1.41-3.5,1.9-1.53.66-2,1.65-2,3.36.08,15.52,0,31.05,0,46.58C80.28,128.7,80.28,129.34,80.28,130.28Zm36-41.65A29.93,29.93,0,0,1,119.26,87c1.94-.78,2.41-2.12,2.4-4.17-.08-15.35,0-30.71,0-46.06,0-.62,0-1.24,0-2.18-1-.3-5.39,1.92-5.38,3.66.08,10.57.06,22.88.06,33.45C116.31,77.24,116.31,82.75,116.31,88.63ZM83,22.15c0,6.27.2,1.51.2,7.58,5.09-2.93,1.48-1.12,6.62-4.07C86.89,23.24,85.43,22.45,83,22.15Z"/></svg>